<?xml version="1.0" encoding="us-ascii" standalone="no"?><svg xmlns="http://www.w3.org/2000/svg" xmlns:xlink="http://www.w3.org/1999/xlink" contentStyleType="text/css" height="334px" preserveAspectRatio="none" style="width:832px;height:334px;background:#FFFFFF;" version="1.1" viewBox="0 0 832 334" width="832px" zoomAndPan="magnify"><defs/><g><!--cluster PetClinic Module--><g id="cluster_PetClinic Module"><path d="M8.5,6.0137 L128.5,6.0137 A3.75,3.75 0 0 1 131,8.5137 L138,30.6348 L822.5,30.6348 A2.5,2.5 0 0 1 825,33.1348 L825,324.5137 A2.5,2.5 0 0 1 822.5,327.0137 L8.5,327.0137 A2.5,2.5 0 0 1 6,324.5137 L6,8.5137 A2.5,2.5 0 0 1 8.5,6.0137 " fill="none" style="stroke:#000000;stroke-width:1.5;"/><line style="stroke:#000000;stroke-width:1.5;" x1="6" x2="138" y1="30.6348" y2="30.6348"/><text fill="#000000" font-family="sans-serif" font-size="14" font-weight="bold" lengthAdjust="spacing" textLength="119" x="10" y="23.1211">PetClinic Module</text></g><!--cluster Infrastructure--><g id="cluster_Infrastructure"><path d="M40.5,59.0137 L138.5,59.0137 A3.75,3.75 0 0 1 141,61.5137 L148,83.6348 L406.5,83.6348 A2.5,2.5 0 0 1 409,86.1348 L409,292.5137 A2.5,2.5 0 0 1 406.5,295.0137 L40.5,295.0137 A2.5,2.5 0 0 1 38,292.5137 L38,61.5137 A2.5,2.5 0 0 1 40.5,59.0137 " fill="none" style="stroke:#000000;stroke-width:1.5;"/><line style="stroke:#000000;stroke-width:1.5;" x1="38" x2="148" y1="83.6348" y2="83.6348"/><text fill="#000000" font-family="sans-serif" font-size="14" font-weight="bold" lengthAdjust="spacing" textLength="97" x="42" y="76.1211">Infrastructure</text></g><!--cluster Domain--><g id="cluster_Domain"><path d="M451.5,177.0137 L504.5,177.0137 A3.75,3.75 0 0 1 507,179.5137 L514,201.6348 L790.5,201.6348 A2.5,2.5 0 0 1 793,204.1348 L793,292.5137 A2.5,2.5 0 0 1 790.5,295.0137 L451.5,295.0137 A2.5,2.5 0 0 1 449,292.5137 L449,179.5137 A2.5,2.5 0 0 1 451.5,177.0137 " fill="none" style="stroke:#000000;stroke-width:1.5;"/><line style="stroke:#000000;stroke-width:1.5;" x1="449" x2="514" y1="201.6348" y2="201.6348"/><text fill="#000000" font-family="sans-serif" font-size="14" font-weight="bold" lengthAdjust="spacing" textLength="52" x="453" y="194.1211">Domain</text></g><!--entity Controller--><g id="elem_Controller"><rect fill="#F1F1F1" height="48.6211" rx="2.5" ry="2.5" style="stroke:#181818;stroke-width:0.5;" width="102" x="152" y="104.0137"/><rect fill="#F1F1F1" height="10" style="stroke:#181818;stroke-width:0.5;" width="15" x="234" y="109.0137"/><rect fill="#F1F1F1" height="2" style="stroke:#181818;stroke-width:0.5;" width="4" x="232" y="111.0137"/><rect fill="#F1F1F1" height="2" style="stroke:#181818;stroke-width:0.5;" width="4" x="232" y="115.0137"/><text fill="#000000" font-family="sans-serif" font-size="14" lengthAdjust="spacing" textLength="62" x="167" y="139.1211">Controller</text></g><!--entity Repository--><g id="elem_Repository"><rect fill="#F1F1F1" height="48.6211" rx="2.5" ry="2.5" style="stroke:#181818;stroke-width:0.5;" width="108" x="62" y="222.0137"/><rect fill="#F1F1F1" height="10" style="stroke:#181818;stroke-width:0.5;" width="15" x="150" y="227.0137"/><rect fill="#F1F1F1" height="2" style="stroke:#181818;stroke-width:0.5;" width="4" x="148" y="229.0137"/><rect fill="#F1F1F1" height="2" style="stroke:#181818;stroke-width:0.5;" width="4" x="148" y="233.0137"/><text fill="#000000" font-family="sans-serif" font-size="14" lengthAdjust="spacing" textLength="68" x="77" y="257.1211">Repository</text></g><!--entity Module Management--><g id="elem_Module Management"><rect fill="#F1F1F1" height="48.6211" rx="2.5" ry="2.5" style="stroke:#181818;stroke-width:0.5;" width="172" x="205" y="222.0137"/><rect fill="#F1F1F1" height="10" style="stroke:#181818;stroke-width:0.5;" width="15" x="357" y="227.0137"/><rect fill="#F1F1F1" height="2" style="stroke:#181818;stroke-width:0.5;" width="4" x="355" y="229.0137"/><rect fill="#F1F1F1" height="2" style="stroke:#181818;stroke-width:0.5;" width="4" x="355" y="233.0137"/><text fill="#000000" font-family="sans-serif" font-size="14" lengthAdjust="spacing" textLength="132" x="220" y="257.1211">Module Management</text></g><!--entity Aggregates--><g id="elem_Aggregates"><rect fill="#F1F1F1" height="48.6211" rx="2.5" ry="2.5" style="stroke:#181818;stroke-width:0.5;" width="113" x="655.5" y="222.0137"/><rect fill="#F1F1F1" height="10" style="stroke:#181818;stroke-width:0.5;" width="15" x="748.5" y="227.0137"/><rect fill="#F1F1F1" height="2" style="stroke:#181818;stroke-width:0.5;" width="4" x="746.5" y="229.0137"/><rect fill="#F1F1F1" height="2" style="stroke:#181818;stroke-width:0.5;" width="4" x="746.5" y="233.0137"/><text fill="#000000" font-family="sans-serif" font-size="14" lengthAdjust="spacing" textLength="73" x="670.5" y="257.1211">Aggregates</text></g><!--entity Value Objects--><g id="elem_Value Objects"><rect fill="#F1F1F1" height="48.6211" rx="2.5" ry="2.5" style="stroke:#181818;stroke-width:0.5;" width="128" x="492" y="222.0137"/><rect fill="#F1F1F1" height="10" style="stroke:#181818;stroke-width:0.5;" width="15" x="600" y="227.0137"/><rect fill="#F1F1F1" height="2" style="stroke:#181818;stroke-width:0.5;" width="4" x="598" y="229.0137"/><rect fill="#F1F1F1" height="2" style="stroke:#181818;stroke-width:0.5;" width="4" x="598" y="233.0137"/><text fill="#000000" font-family="sans-serif" font-size="14" lengthAdjust="spacing" textLength="88" x="507" y="257.1211">Value Objects</text></g><!--link Controller to Repository--><g id="link_Controller_Repository"><path d="M185.18,153.2637 C170.17,173.2837 152.4004,196.984 137.3904,216.994 " fill="none" id="Controller-to-Repository" style="stroke:#181818;stroke-width:1.0;stroke-dasharray:7.0,7.0;"/><polygon fill="#181818" points="133.79,221.7937,142.3904,216.9944,136.7903,217.7939,135.9908,212.1938,133.79,221.7937" style="stroke:#181818;stroke-width:1.0;"/></g><!--link Infrastructure to Domain--><g id="link_Infrastructure_Domain"><path d="M409.0643,146.2149 C409.1414,146.3746 409.2189,146.5351 409.2968,146.6966 C409.6085,147.3422 409.9269,148.0016 410.2514,148.6738 C415.4441,159.4296 422.2281,173.4818 429.0113,187.5324 C435.7944,201.583 442.5766,215.6321 447.7655,226.3816 C448.0898,227.0535 448.4079,227.7124 448.7193,228.3577 C448.7972,228.519 446.2664,223.2761 446.3434,223.4356 " fill="none" id="Infrastructure-to-Domain" style="stroke:#181818;stroke-width:1.0;stroke-dasharray:7.0,7.0;"/><polygon fill="#181818" points="448.9517,228.8391,448.6416,218.9951,446.7782,224.3362,441.437,222.4728,448.9517,228.8391" style="stroke:#181818;stroke-width:1.0;"/></g><!--link Controller to Module Management--><g id="link_Controller_Module Management"><path d="M221.02,153.2637 C236.21,173.2837 254.1937,197.0035 269.3737,217.0135 " fill="none" id="Controller-to-Module Management" style="stroke:#181818;stroke-width:1.0;stroke-dasharray:7.0,7.0;"/><polygon fill="#181818" points="273,221.7937,270.7473,212.2059,269.9781,217.8102,264.3738,217.041,273,221.7937" style="stroke:#181818;stroke-width:1.0;"/></g><!--SRC=[ROu_JmCn3CNtV0gh2rFlzWwLK5aOAX13buh1pPaGIEp8SGQ4-jsvArpvLqjUthD_xrqzcvMwwlkIaAtbr7d9_RX5cDYMGyIWc9r90HCuY9ba6AAIjoZiN47_Ye5WSK-sIP6ZXwqCBT42tfq3EFkt_AHOJPktfYSNfjblX4qb9TB7B-M1YjHeec-pyac4BVA8ocEloJZ-mjz8niZVsEiGb08QrHcomzG8xWulO_Lw1lpCXwvR_ut_rtkwcTCk_byeUtGV]--></g></svg>