<?xml version="1.0" encoding="us-ascii" standalone="no"?><svg xmlns="http://www.w3.org/2000/svg" xmlns:xlink="http://www.w3.org/1999/xlink" contentStyleType="text/css" height="275px" preserveAspectRatio="none" style="width:534px;height:275px;background:#FFFFFF;" version="1.1" viewBox="0 0 534 275" width="534px" zoomAndPan="magnify"><defs/><g><text fill="#000000" font-family="sans-serif" font-size="14" font-weight="bold" lengthAdjust="spacing" textLength="144" x="188" y="25.1074">PetClinic Application</text><!--cluster Modulith Synchronous --><g id="cluster_Modulith Synchronous "><path d="M8.5,45.6348 L171.5,45.6348 A3.75,3.75 0 0 1 174,48.1348 L181,70.2559 L524.5,70.2559 A2.5,2.5 0 0 1 527,72.7559 L527,266.1348 A2.5,2.5 0 0 1 524.5,268.6348 L8.5,268.6348 A2.5,2.5 0 0 1 6,266.1348 L6,48.1348 A2.5,2.5 0 0 1 8.5,45.6348 " fill="none" style="stroke:#000000;stroke-width:1.5;"/><line style="stroke:#000000;stroke-width:1.5;" x1="6" x2="181" y1="70.2559" y2="70.2559"/><text fill="#000000" font-family="sans-serif" font-size="14" font-weight="bold" lengthAdjust="spacing" textLength="158" x="10" y="62.7422">Modulith Synchronous</text></g><!--entity Owner--><g id="elem_Owner"><rect fill="#F1F1F1" height="67.2422" rx="2.5" ry="2.5" style="stroke:#181818;stroke-width:0.5;" width="103" x="22" y="83.1348"/><rect fill="#F1F1F1" height="10" style="stroke:#181818;stroke-width:0.5;" width="15" x="105" y="88.1348"/><rect fill="#F1F1F1" height="2" style="stroke:#181818;stroke-width:0.5;" width="4" x="103" y="90.1348"/><rect fill="#F1F1F1" height="2" style="stroke:#181818;stroke-width:0.5;" width="4" x="103" y="94.1348"/><text fill="#000000" font-family="sans-serif" font-size="14" font-style="italic" lengthAdjust="spacing" textLength="63" x="37" y="118.2422">&#171;Module&#187;</text><text fill="#000000" font-family="sans-serif" font-size="14" lengthAdjust="spacing" textLength="41" x="48" y="136.8633">Owner</text></g><!--entity Vet--><g id="elem_Vet"><rect fill="#F1F1F1" height="67.2422" rx="2.5" ry="2.5" style="stroke:#181818;stroke-width:0.5;" width="103" x="22" y="185.1348"/><rect fill="#F1F1F1" height="10" style="stroke:#181818;stroke-width:0.5;" width="15" x="105" y="190.1348"/><rect fill="#F1F1F1" height="2" style="stroke:#181818;stroke-width:0.5;" width="4" x="103" y="192.1348"/><rect fill="#F1F1F1" height="2" style="stroke:#181818;stroke-width:0.5;" width="4" x="103" y="196.1348"/><text fill="#000000" font-family="sans-serif" font-size="14" font-style="italic" lengthAdjust="spacing" textLength="63" x="37" y="220.2422">&#171;Module&#187;</text><text fill="#000000" font-family="sans-serif" font-size="14" lengthAdjust="spacing" textLength="21" x="58" y="238.8633">Vet</text></g><!--entity Visit--><g id="elem_Visit"><rect fill="#F1F1F1" height="67.2422" rx="2.5" ry="2.5" style="stroke:#181818;stroke-width:0.5;" width="103" x="408" y="83.1348"/><rect fill="#F1F1F1" height="10" style="stroke:#181818;stroke-width:0.5;" width="15" x="491" y="88.1348"/><rect fill="#F1F1F1" height="2" style="stroke:#181818;stroke-width:0.5;" width="4" x="489" y="90.1348"/><rect fill="#F1F1F1" height="2" style="stroke:#181818;stroke-width:0.5;" width="4" x="489" y="94.1348"/><text fill="#000000" font-family="sans-serif" font-size="14" font-style="italic" lengthAdjust="spacing" textLength="63" x="423" y="118.2422">&#171;Module&#187;</text><text fill="#000000" font-family="sans-serif" font-size="14" lengthAdjust="spacing" textLength="26" x="441.5" y="136.8633">Visit</text></g><!--entity Pet--><g id="elem_Pet"><rect fill="#F1F1F1" height="67.2422" rx="2.5" ry="2.5" style="stroke:#181818;stroke-width:0.5;" width="103" x="215" y="83.1348"/><rect fill="#F1F1F1" height="10" style="stroke:#181818;stroke-width:0.5;" width="15" x="298" y="88.1348"/><rect fill="#F1F1F1" height="2" style="stroke:#181818;stroke-width:0.5;" width="4" x="296" y="90.1348"/><rect fill="#F1F1F1" height="2" style="stroke:#181818;stroke-width:0.5;" width="4" x="296" y="94.1348"/><text fill="#000000" font-family="sans-serif" font-size="14" font-style="italic" lengthAdjust="spacing" textLength="63" x="230" y="118.2422">&#171;Module&#187;</text><text fill="#000000" font-family="sans-serif" font-size="14" lengthAdjust="spacing" textLength="21" x="251" y="136.8633">Pet</text></g><!--link Owner to Pet--><g id="link_Owner_Pet"><path d="M125.18,116.6348 C152.92,116.6348 181.19,116.6348 208.91,116.6348 " fill="none" id="Owner-to-Pet" style="stroke:#181818;stroke-width:1.0;"/><polygon fill="#181818" points="214.91,116.6348,205.91,112.6348,209.91,116.6348,205.91,120.6348,214.91,116.6348" style="stroke:#181818;stroke-width:1.0;"/><text fill="#000000" font-family="sans-serif" font-size="13" lengthAdjust="spacing" textLength="28" x="156" y="112.6631">uses</text></g><!--link Pet to Visit--><g id="link_Pet_Visit"><path d="M318.18,116.6348 C345.92,116.6348 374.19,116.6348 401.91,116.6348 " fill="none" id="Pet-to-Visit" style="stroke:#181818;stroke-width:1.0;"/><polygon fill="#181818" points="407.91,116.6348,398.91,112.6348,402.91,116.6348,398.91,120.6348,407.91,116.6348" style="stroke:#181818;stroke-width:1.0;"/><text fill="#000000" font-family="sans-serif" font-size="13" lengthAdjust="spacing" textLength="28" x="349" y="112.6631">uses</text></g><!--SRC=[POon2i8m54NtVCMbUtz0Ia2SnOBW8Xr2-cmUXYGaBuY8_owsTR7ZFUTmXSKJUfA3vy0M-vGyMoCSWrAURWA9o3mvmSYPx2AIiNSp4PfZ7AjdSJW_WtKvXbWB6hmKS3qz0kK1NJT7fFKNNaWsY0jlOF_NlPNw7RQjNlqEjL1HovZn-hMA3m00]--></g></svg>