<?xml version="1.0" encoding="us-ascii" standalone="no"?><svg xmlns="http://www.w3.org/2000/svg" xmlns:xlink="http://www.w3.org/1999/xlink" contentStyleType="text/css" height="236px" preserveAspectRatio="none" style="width:584px;height:236px;background:#FFFFFF;" version="1.1" viewBox="0 0 584 236" width="584px" zoomAndPan="magnify"><defs/><g><!--cluster Modulith Asynchronous--><g id="cluster_Modulith Asynchronous"><path d="M8.5,6.0137 L175.5,6.0137 A3.75,3.75 0 0 1 178,8.5137 L185,30.6348 L574.5,30.6348 A2.5,2.5 0 0 1 577,33.1348 L577,226.5137 A2.5,2.5 0 0 1 574.5,229.0137 L8.5,229.0137 A2.5,2.5 0 0 1 6,226.5137 L6,8.5137 A2.5,2.5 0 0 1 8.5,6.0137 " fill="none" style="stroke:#000000;stroke-width:1.5;"/><line style="stroke:#000000;stroke-width:1.5;" x1="6" x2="185" y1="30.6348" y2="30.6348"/><text fill="#000000" font-family="sans-serif" font-size="14" font-weight="bold" lengthAdjust="spacing" textLength="166" x="10" y="23.1211">Modulith Asynchronous</text></g><!--entity Owner--><g id="elem_Owner"><rect fill="#F1F1F1" height="67.2422" rx="2.5" ry="2.5" style="stroke:#181818;stroke-width:0.5;" width="103" x="458" y="43.5137"/><rect fill="#F1F1F1" height="10" style="stroke:#181818;stroke-width:0.5;" width="15" x="541" y="48.5137"/><rect fill="#F1F1F1" height="2" style="stroke:#181818;stroke-width:0.5;" width="4" x="539" y="50.5137"/><rect fill="#F1F1F1" height="2" style="stroke:#181818;stroke-width:0.5;" width="4" x="539" y="54.5137"/><text fill="#000000" font-family="sans-serif" font-size="14" font-style="italic" lengthAdjust="spacing" textLength="63" x="473" y="78.6211">&#171;Module&#187;</text><text fill="#000000" font-family="sans-serif" font-size="14" lengthAdjust="spacing" textLength="41" x="484" y="97.2422">Owner</text></g><!--entity Visit--><g id="elem_Visit"><rect fill="#F1F1F1" height="67.2422" rx="2.5" ry="2.5" style="stroke:#181818;stroke-width:0.5;" width="103" x="22" y="43.5137"/><rect fill="#F1F1F1" height="10" style="stroke:#181818;stroke-width:0.5;" width="15" x="105" y="48.5137"/><rect fill="#F1F1F1" height="2" style="stroke:#181818;stroke-width:0.5;" width="4" x="103" y="50.5137"/><rect fill="#F1F1F1" height="2" style="stroke:#181818;stroke-width:0.5;" width="4" x="103" y="54.5137"/><text fill="#000000" font-family="sans-serif" font-size="14" font-style="italic" lengthAdjust="spacing" textLength="63" x="37" y="78.6211">&#171;Module&#187;</text><text fill="#000000" font-family="sans-serif" font-size="14" lengthAdjust="spacing" textLength="26" x="55.5" y="97.2422">Visit</text></g><!--entity Pet--><g id="elem_Pet"><rect fill="#F1F1F1" height="67.2422" rx="2.5" ry="2.5" style="stroke:#181818;stroke-width:0.5;" width="103" x="240" y="43.5137"/><rect fill="#F1F1F1" height="10" style="stroke:#181818;stroke-width:0.5;" width="15" x="323" y="48.5137"/><rect fill="#F1F1F1" height="2" style="stroke:#181818;stroke-width:0.5;" width="4" x="321" y="50.5137"/><rect fill="#F1F1F1" height="2" style="stroke:#181818;stroke-width:0.5;" width="4" x="321" y="54.5137"/><text fill="#000000" font-family="sans-serif" font-size="14" font-style="italic" lengthAdjust="spacing" textLength="63" x="255" y="78.6211">&#171;Module&#187;</text><text fill="#000000" font-family="sans-serif" font-size="14" lengthAdjust="spacing" textLength="21" x="276" y="97.2422">Pet</text></g><!--entity Vet--><g id="elem_Vet"><rect fill="#F1F1F1" height="67.2422" rx="2.5" ry="2.5" style="stroke:#181818;stroke-width:0.5;" width="103" x="22" y="145.5137"/><rect fill="#F1F1F1" height="10" style="stroke:#181818;stroke-width:0.5;" width="15" x="105" y="150.5137"/><rect fill="#F1F1F1" height="2" style="stroke:#181818;stroke-width:0.5;" width="4" x="103" y="152.5137"/><rect fill="#F1F1F1" height="2" style="stroke:#181818;stroke-width:0.5;" width="4" x="103" y="156.5137"/><text fill="#000000" font-family="sans-serif" font-size="14" font-style="italic" lengthAdjust="spacing" textLength="63" x="37" y="180.6211">&#171;Module&#187;</text><text fill="#000000" font-family="sans-serif" font-size="14" lengthAdjust="spacing" textLength="21" x="58" y="199.2422">Vet</text></g><!--link Visit to Pet--><g id="link_Visit_Pet"><path d="M125.14,77.0137 C159.68,77.0137 199.25,77.0137 233.8,77.0137 " fill="none" id="Visit-to-Pet" style="stroke:#181818;stroke-width:1.0;"/><polygon fill="#181818" points="239.8,77.0137,230.8,73.0137,234.8,77.0137,230.8,81.0137,239.8,77.0137" style="stroke:#181818;stroke-width:1.0;"/><text fill="#000000" font-family="sans-serif" font-size="13" lengthAdjust="spacing" textLength="53" x="156" y="73.042">listens to</text></g><!--link Pet to Owner--><g id="link_Pet_Owner"><path d="M343.14,77.0137 C377.68,77.0137 417.25,77.0137 451.8,77.0137 " fill="none" id="Pet-to-Owner" style="stroke:#181818;stroke-width:1.0;"/><polygon fill="#181818" points="457.8,77.0137,448.8,73.0137,452.8,77.0137,448.8,81.0137,457.8,77.0137" style="stroke:#181818;stroke-width:1.0;"/><text fill="#000000" font-family="sans-serif" font-size="13" lengthAdjust="spacing" textLength="53" x="374" y="73.042">listens to</text></g><!--SRC=[PSv12i9030NGVKuHkky5f0nu0D5LD-AYJ6CdE2GoIIaYtbsjTM7Tlf_FJwQpeoiM7f9ZpuMYimh0jOkNRY2iTjgFcJtXrcuIKr7HqIgy0-9nFmcL4pRDV4GXlB5bOr_ZWVweNT43uDkjwx1KDfZPdCHUJyA7vd1P_ecV]--></g></svg>