<?xml version="1.0" encoding="us-ascii" standalone="no"?><svg xmlns="http://www.w3.org/2000/svg" xmlns:xlink="http://www.w3.org/1999/xlink" contentStyleType="text/css" height="275px" preserveAspectRatio="none" style="width:867px;height:275px;background:#FFFFFF;" version="1.1" viewBox="0 0 867 275" width="867px" zoomAndPan="magnify"><defs/><g><text fill="#000000" font-family="sans-serif" font-size="14" font-weight="bold" lengthAdjust="spacing" textLength="140" x="356.5" y="25.1074">PetClinicApplication</text><!--cluster PetClinic Asynchronous Application--><g id="cluster_PetClinic Asynchronous Application"><path d="M8.5,45.6348 L257.5,45.6348 A3.75,3.75 0 0 1 260,48.1348 L267,70.2559 L857.5,70.2559 A2.5,2.5 0 0 1 860,72.7559 L860,266.1348 A2.5,2.5 0 0 1 857.5,268.6348 L8.5,268.6348 A2.5,2.5 0 0 1 6,266.1348 L6,48.1348 A2.5,2.5 0 0 1 8.5,45.6348 " fill="none" style="stroke:#000000;stroke-width:1.5;"/><line style="stroke:#000000;stroke-width:1.5;" x1="6" x2="267" y1="70.2559" y2="70.2559"/><text fill="#000000" font-family="sans-serif" font-size="14" font-weight="bold" lengthAdjust="spacing" textLength="248" x="10" y="62.7422">PetClinic Asynchronous Application</text></g><!--entity PetClinicApplication.Owner--><g id="elem_PetClinicApplication.Owner"><rect fill="#F1F1F1" height="67.2422" rx="2.5" ry="2.5" style="stroke:#181818;stroke-width:0.5;" width="209" x="635" y="184.1348"/><rect fill="#F1F1F1" height="10" style="stroke:#181818;stroke-width:0.5;" width="15" x="824" y="189.1348"/><rect fill="#F1F1F1" height="2" style="stroke:#181818;stroke-width:0.5;" width="4" x="822" y="191.1348"/><rect fill="#F1F1F1" height="2" style="stroke:#181818;stroke-width:0.5;" width="4" x="822" y="195.1348"/><text fill="#000000" font-family="sans-serif" font-size="14" font-style="italic" lengthAdjust="spacing" textLength="63" x="703" y="219.2422">&#171;Module&#187;</text><text fill="#000000" font-family="sans-serif" font-size="14" lengthAdjust="spacing" textLength="169" x="650" y="237.8633">PetClinicApplication.Owner</text></g><!--entity PetClinicApplication.Vet--><g id="elem_PetClinicApplication.Vet"><rect fill="#F1F1F1" height="67.2422" rx="2.5" ry="2.5" style="stroke:#181818;stroke-width:0.5;" width="189" x="24.5" y="83.1348"/><rect fill="#F1F1F1" height="10" style="stroke:#181818;stroke-width:0.5;" width="15" x="193.5" y="88.1348"/><rect fill="#F1F1F1" height="2" style="stroke:#181818;stroke-width:0.5;" width="4" x="191.5" y="90.1348"/><rect fill="#F1F1F1" height="2" style="stroke:#181818;stroke-width:0.5;" width="4" x="191.5" y="94.1348"/><text fill="#000000" font-family="sans-serif" font-size="14" font-style="italic" lengthAdjust="spacing" textLength="63" x="82.5" y="118.2422">&#171;Module&#187;</text><text fill="#000000" font-family="sans-serif" font-size="14" lengthAdjust="spacing" textLength="149" x="39.5" y="136.8633">PetClinicApplication.Vet</text></g><!--entity PetClinicApplication.Visit--><g id="elem_PetClinicApplication.Visit"><rect fill="#F1F1F1" height="67.2422" rx="2.5" ry="2.5" style="stroke:#181818;stroke-width:0.5;" width="194" x="22" y="185.1348"/><rect fill="#F1F1F1" height="10" style="stroke:#181818;stroke-width:0.5;" width="15" x="196" y="190.1348"/><rect fill="#F1F1F1" height="2" style="stroke:#181818;stroke-width:0.5;" width="4" x="194" y="192.1348"/><rect fill="#F1F1F1" height="2" style="stroke:#181818;stroke-width:0.5;" width="4" x="194" y="196.1348"/><text fill="#000000" font-family="sans-serif" font-size="14" font-style="italic" lengthAdjust="spacing" textLength="63" x="82.5" y="220.2422">&#171;Module&#187;</text><text fill="#000000" font-family="sans-serif" font-size="14" lengthAdjust="spacing" textLength="154" x="37" y="238.8633">PetClinicApplication.Visit</text></g><!--entity PetClinicApplication.Pet--><g id="elem_PetClinicApplication.Pet"><rect fill="#F1F1F1" height="67.2422" rx="2.5" ry="2.5" style="stroke:#181818;stroke-width:0.5;" width="189" x="331" y="184.1348"/><rect fill="#F1F1F1" height="10" style="stroke:#181818;stroke-width:0.5;" width="15" x="500" y="189.1348"/><rect fill="#F1F1F1" height="2" style="stroke:#181818;stroke-width:0.5;" width="4" x="498" y="191.1348"/><rect fill="#F1F1F1" height="2" style="stroke:#181818;stroke-width:0.5;" width="4" x="498" y="195.1348"/><text fill="#000000" font-family="sans-serif" font-size="14" font-style="italic" lengthAdjust="spacing" textLength="63" x="389" y="219.2422">&#171;Module&#187;</text><text fill="#000000" font-family="sans-serif" font-size="14" lengthAdjust="spacing" textLength="149" x="346" y="237.8633">PetClinicApplication.Pet</text></g><!--link PetClinicApplication.Visit to PetClinicApplication.Pet--><g id="link_PetClinicApplication.Visit_PetClinicApplication.Pet"><path d="M216.35,218.3148 C252.94,218.1948 288.53,218.0846 324.86,217.9646 " fill="none" id="PetClinicApplication.Visit-to-PetClinicApplication.Pet" style="stroke:#181818;stroke-width:1.0;"/><polygon fill="#181818" points="330.86,217.9448,321.8468,213.9745,325.86,217.9613,321.8733,221.9745,330.86,217.9448" style="stroke:#181818;stroke-width:1.0;"/><text fill="#000000" font-family="sans-serif" font-size="13" lengthAdjust="spacing" textLength="53" x="247" y="214.6631">listens to</text></g><!--link PetClinicApplication.Pet to PetClinicApplication.Owner--><g id="link_PetClinicApplication.Pet_PetClinicApplication.Owner"><path d="M520.11,217.6348 C556.28,217.6348 591.8,217.6348 628.87,217.6348 " fill="none" id="PetClinicApplication.Pet-to-PetClinicApplication.Owner" style="stroke:#181818;stroke-width:1.0;"/><polygon fill="#181818" points="634.87,217.6348,625.87,213.6348,629.87,217.6348,625.87,221.6348,634.87,217.6348" style="stroke:#181818;stroke-width:1.0;"/><text fill="#000000" font-family="sans-serif" font-size="13" lengthAdjust="spacing" textLength="53" x="551" y="213.6631">listens to</text></g><!--SRC=[dP312i8m44Jl-nLBx_K3f0IAPx4dB-8Xf6kxk2GbsI8Y_hk28Yes5C_pvWsCiWfXGxeIzkpgOH1sLZbu0A63eWQCtFMABKToZq3_AGtM7Mr7MBnwMAUpTtqCFem9tom5NW1nzsjWiJbvYdkigdLeHo5Z9iajwJoE4yyZco_Z5I2hB4kJCorHE2dvTFyBCjoqvdd6X-W6]--></g></svg>