<?xml version="1.0" encoding="us-ascii" standalone="no"?><svg xmlns="http://www.w3.org/2000/svg" xmlns:xlink="http://www.w3.org/1999/xlink" contentStyleType="text/css" height="639px" preserveAspectRatio="none" style="width:691px;height:639px;background:#FFFFFF;" version="1.1" viewBox="0 0 691 639" width="691px" zoomAndPan="magnify"><defs/><g><!--cluster <<aggregate>> Owner--><g id="cluster_&lt;&lt;aggregate&gt;&gt; Owner"><path d="M521.5,498 L671.5,498 A3.75,3.75 0 0 1 674,500.5 L681,522.3984 L681.5,522.3984 A2.5,2.5 0 0 1 684,524.8984 L684,629.5 A2.5,2.5 0 0 1 681.5,632 L521.5,632 A2.5,2.5 0 0 1 519,629.5 L519,500.5 A2.5,2.5 0 0 1 521.5,498 " fill="none" style="stroke:#000000;stroke-width:1.5;"/><line style="stroke:#000000;stroke-width:1.5;" x1="519" x2="681" y1="522.3984" y2="522.3984"/><text fill="#000000" font-family="Arial" font-size="16" font-weight="bold" lengthAdjust="spacing" textLength="149" x="523" y="515.0078">&#171;aggregate&#187; Owner</text></g><!--cluster <<aggregate>> Pet--><g id="cluster_&lt;&lt;aggregate&gt;&gt; Pet"><path d="M202.5,252 L327.5,252 A3.75,3.75 0 0 1 330,254.5 L337,276.3984 L492.5,276.3984 A2.5,2.5 0 0 1 495,278.8984 L495,620.5 A2.5,2.5 0 0 1 492.5,623 L202.5,623 A2.5,2.5 0 0 1 200,620.5 L200,254.5 A2.5,2.5 0 0 1 202.5,252 " fill="none" style="stroke:#000000;stroke-width:1.5;"/><line style="stroke:#000000;stroke-width:1.5;" x1="200" x2="337" y1="276.3984" y2="276.3984"/><text fill="#000000" font-family="Arial" font-size="16" font-weight="bold" lengthAdjust="spacing" textLength="124" x="204" y="269.0078">&#171;aggregate&#187; Pet</text></g><!--cluster <<aggregate>> Vet--><g id="cluster_&lt;&lt;aggregate&gt;&gt; Vet"><path d="M531.5,6 L656.5,6 A3.75,3.75 0 0 1 659,8.5 L666,30.3984 L671.5,30.3984 A2.5,2.5 0 0 1 674,32.8984 L674,374.5 A2.5,2.5 0 0 1 671.5,377 L531.5,377 A2.5,2.5 0 0 1 529,374.5 L529,8.5 A2.5,2.5 0 0 1 531.5,6 " fill="none" style="stroke:#000000;stroke-width:1.5;"/><line style="stroke:#000000;stroke-width:1.5;" x1="529" x2="666" y1="30.3984" y2="30.3984"/><text fill="#000000" font-family="Arial" font-size="16" font-weight="bold" lengthAdjust="spacing" textLength="124" x="533" y="23.0078">&#171;aggregate&#187; Vet</text></g><!--cluster <<aggregate>> Visit--><g id="cluster_&lt;&lt;aggregate&gt;&gt; Visit"><path d="M8.5,6 L141.5,6 A3.75,3.75 0 0 1 144,8.5 L151,30.3984 L173.5,30.3984 A2.5,2.5 0 0 1 176,32.8984 L176,374.5 A2.5,2.5 0 0 1 173.5,377 L8.5,377 A2.5,2.5 0 0 1 6,374.5 L6,8.5 A2.5,2.5 0 0 1 8.5,6 " fill="none" style="stroke:#000000;stroke-width:1.5;"/><line style="stroke:#000000;stroke-width:1.5;" x1="6" x2="151" y1="30.3984" y2="30.3984"/><text fill="#000000" font-family="Arial" font-size="16" font-weight="bold" lengthAdjust="spacing" textLength="132" x="10" y="23.0078">&#171;aggregate&#187; Visit</text></g><!--class Owner--><g id="elem_Owner"><rect codeLine="9" fill="#F1F1F1" height="81.1953" id="Owner" rx="2.5" ry="2.5" style="stroke:#181818;stroke-width:0.5;" width="88" x="535" y="535"/><ellipse cx="550" cy="567.5977" fill="#ADD1B2" rx="11" ry="11" style="stroke:#181818;stroke-width:1.0;"/><path d="M549.1563,568.1445 L549.1563,570.4883 L553.25,570.4883 L553.25,569.6289 Q553.25,569.0508 553.4688,568.8008 Q553.6875,568.5508 554.0469,568.5508 Q554.4063,568.5508 554.625,568.8008 Q554.8438,569.0508 554.8438,569.6289 L554.8438,572.0977 L547.3125,572.0977 Q546.7344,572.0977 546.4844,571.8789 Q546.2344,571.6445 546.2344,571.2852 Q546.2344,570.9414 546.4844,570.7227 Q546.7344,570.4883 547.3125,570.4883 L547.5625,570.4883 L547.5625,564.2227 L547.3125,564.2227 Q546.7344,564.2227 546.4844,564.0039 Q546.2344,563.7852 546.2344,563.4258 Q546.2344,563.0664 546.4844,562.8477 Q546.7344,562.6133 547.3125,562.6133 L554.5,562.6289 L554.5,565.0664 Q554.5,565.6289 554.2813,565.8789 Q554.0625,566.1289 553.7031,566.1289 Q553.3438,566.1289 553.1094,565.8945 Q552.8906,565.6445 552.8906,565.0664 L552.8906,564.2227 L549.1563,564.2227 L549.1563,566.5352 L550.5625,566.5352 Q550.5625,565.9102 550.6875,565.7383 Q550.9219,565.3477 551.375,565.3477 Q551.7188,565.3477 551.9375,565.5977 Q552.1719,565.8477 552.1719,566.4258 L552.1719,568.2695 Q552.1719,568.7852 552.0469,568.9727 Q551.7969,569.332 551.375,569.332 Q550.9219,569.332 550.6875,568.957 Q550.5625,568.7695 550.5625,568.1445 L549.1563,568.1445 Z " fill="#000000"/><text fill="#000000" font-family="Arial" font-size="16" font-weight="bold" lengthAdjust="spacing" textLength="60" x="562" y="555.0078">&#171;entity&#187;</text><text fill="#000000" font-family="Arial" font-size="16" font-weight="bold" lengthAdjust="spacing" textLength="49" x="567.5" y="573.4063">&#171;root&#187;</text><text fill="#000000" font-family="Arial" font-size="16" lengthAdjust="spacing" textLength="45" x="569.5" y="591.8047">Owner</text><line style="stroke:#181818;stroke-width:0.5;" x1="536" x2="622" y1="600.1953" y2="600.1953"/><line style="stroke:#181818;stroke-width:0.5;" x1="536" x2="622" y1="608.1953" y2="608.1953"/></g><!--class Pet--><g id="elem_Pet"><rect codeLine="13" fill="#F1F1F1" height="81.1953" id="Pet" rx="2.5" ry="2.5" style="stroke:#181818;stroke-width:0.5;" width="88" x="305" y="289"/><ellipse cx="320" cy="321.5977" fill="#ADD1B2" rx="11" ry="11" style="stroke:#181818;stroke-width:1.0;"/><path d="M319.1563,322.1445 L319.1563,324.4883 L323.25,324.4883 L323.25,323.6289 Q323.25,323.0508 323.4688,322.8008 Q323.6875,322.5508 324.0469,322.5508 Q324.4063,322.5508 324.625,322.8008 Q324.8438,323.0508 324.8438,323.6289 L324.8438,326.0977 L317.3125,326.0977 Q316.7344,326.0977 316.4844,325.8789 Q316.2344,325.6445 316.2344,325.2852 Q316.2344,324.9414 316.4844,324.7227 Q316.7344,324.4883 317.3125,324.4883 L317.5625,324.4883 L317.5625,318.2227 L317.3125,318.2227 Q316.7344,318.2227 316.4844,318.0039 Q316.2344,317.7852 316.2344,317.4258 Q316.2344,317.0664 316.4844,316.8477 Q316.7344,316.6133 317.3125,316.6133 L324.5,316.6289 L324.5,319.0664 Q324.5,319.6289 324.2813,319.8789 Q324.0625,320.1289 323.7031,320.1289 Q323.3438,320.1289 323.1094,319.8945 Q322.8906,319.6445 322.8906,319.0664 L322.8906,318.2227 L319.1563,318.2227 L319.1563,320.5352 L320.5625,320.5352 Q320.5625,319.9102 320.6875,319.7383 Q320.9219,319.3477 321.375,319.3477 Q321.7188,319.3477 321.9375,319.5977 Q322.1719,319.8477 322.1719,320.4258 L322.1719,322.2695 Q322.1719,322.7852 322.0469,322.9727 Q321.7969,323.332 321.375,323.332 Q320.9219,323.332 320.6875,322.957 Q320.5625,322.7695 320.5625,322.1445 L319.1563,322.1445 Z " fill="#000000"/><text fill="#000000" font-family="Arial" font-size="16" font-weight="bold" lengthAdjust="spacing" textLength="60" x="332" y="309.0078">&#171;entity&#187;</text><text fill="#000000" font-family="Arial" font-size="16" font-weight="bold" lengthAdjust="spacing" textLength="49" x="337.5" y="327.4063">&#171;root&#187;</text><text fill="#000000" font-family="Arial" font-size="16" lengthAdjust="spacing" textLength="24" x="350" y="345.8047">Pet</text><line style="stroke:#181818;stroke-width:0.5;" x1="306" x2="392" y1="354.1953" y2="354.1953"/><line style="stroke:#181818;stroke-width:0.5;" x1="306" x2="392" y1="362.1953" y2="362.1953"/></g><!--class PetType--><g id="elem_PetType"><rect codeLine="15" fill="#F1F1F1" height="62.7969" id="PetType" rx="2.5" ry="2.5" style="stroke:#181818;stroke-width:0.5;" width="90" x="216" y="544"/><ellipse cx="231" cy="567.3984" fill="#ADD1B2" rx="11" ry="11" style="stroke:#181818;stroke-width:1.0;"/><path d="M230.1563,567.9453 L230.1563,570.2891 L234.25,570.2891 L234.25,569.4297 Q234.25,568.8516 234.4688,568.6016 Q234.6875,568.3516 235.0469,568.3516 Q235.4063,568.3516 235.625,568.6016 Q235.8438,568.8516 235.8438,569.4297 L235.8438,571.8984 L228.3125,571.8984 Q227.7344,571.8984 227.4844,571.6797 Q227.2344,571.4453 227.2344,571.0859 Q227.2344,570.7422 227.4844,570.5234 Q227.7344,570.2891 228.3125,570.2891 L228.5625,570.2891 L228.5625,564.0234 L228.3125,564.0234 Q227.7344,564.0234 227.4844,563.8047 Q227.2344,563.5859 227.2344,563.2266 Q227.2344,562.8672 227.4844,562.6484 Q227.7344,562.4141 228.3125,562.4141 L235.5,562.4297 L235.5,564.8672 Q235.5,565.4297 235.2813,565.6797 Q235.0625,565.9297 234.7031,565.9297 Q234.3438,565.9297 234.1094,565.6953 Q233.8906,565.4453 233.8906,564.8672 L233.8906,564.0234 L230.1563,564.0234 L230.1563,566.3359 L231.5625,566.3359 Q231.5625,565.7109 231.6875,565.5391 Q231.9219,565.1484 232.375,565.1484 Q232.7188,565.1484 232.9375,565.3984 Q233.1719,565.6484 233.1719,566.2266 L233.1719,568.0703 Q233.1719,568.5859 233.0469,568.7734 Q232.7969,569.1328 232.375,569.1328 Q231.9219,569.1328 231.6875,568.7578 Q231.5625,568.5703 231.5625,567.9453 L230.1563,567.9453 Z " fill="#000000"/><text fill="#000000" font-family="Arial" font-size="16" font-weight="bold" lengthAdjust="spacing" textLength="60" x="244" y="564.0078">&#171;entity&#187;</text><text fill="#000000" font-family="Arial" font-size="16" lengthAdjust="spacing" textLength="58" x="245" y="582.4063">PetType</text><line style="stroke:#181818;stroke-width:0.5;" x1="217" x2="305" y1="590.7969" y2="590.7969"/><line style="stroke:#181818;stroke-width:0.5;" x1="217" x2="305" y1="598.7969" y2="598.7969"/></g><!--class BirthDate--><g id="elem_BirthDate"><rect codeLine="17" fill="#F1F1F1" height="62.7969" id="BirthDate" rx="2.5" ry="2.5" style="stroke:#181818;stroke-width:0.5;" width="138" x="341" y="544"/><ellipse cx="356" cy="567.3984" fill="#FF8B40" rx="11" ry="11" style="stroke:#181818;stroke-width:1.0;"/><path d="M356.2969,570.5547 L358.625,565.0234 L358.25,565.0234 Q357.6719,565.0234 357.4219,564.8047 Q357.1875,564.5859 357.1875,564.2266 Q357.1875,563.8672 357.4219,563.6484 Q357.6719,563.4141 358.25,563.4141 L360.4063,563.4297 Q360.9844,563.4297 361.2188,563.6484 Q361.4688,563.8672 361.4688,564.2266 Q361.4688,564.6484 361.0938,564.8984 Q360.9219,565.0234 360.3594,565.0234 L357.0781,572.8984 L355.5313,572.8984 L352.25,565.0234 Q351.6875,565.0234 351.5156,564.8984 Q351.125,564.6641 351.125,564.2266 Q351.125,563.8672 351.375,563.6484 Q351.625,563.4141 352.2031,563.4141 L354.375,563.4297 Q354.9375,563.4297 355.1875,563.6484 Q355.4375,563.8672 355.4375,564.2266 Q355.4375,564.5859 355.1875,564.8047 Q354.9531,565.0234 354.375,565.0234 L354,565.0234 L356.2969,570.5547 Z " fill="#000000"/><text fill="#000000" font-family="Arial" font-size="16" font-weight="bold" lengthAdjust="spacing" textLength="110" x="368" y="564.0078">&#171;value object&#187;</text><text fill="#000000" font-family="Arial" font-size="16" lengthAdjust="spacing" textLength="66" x="390" y="582.4063">BirthDate</text><line style="stroke:#181818;stroke-width:0.5;" x1="342" x2="478" y1="590.7969" y2="590.7969"/><line style="stroke:#181818;stroke-width:0.5;" x1="342" x2="478" y1="598.7969" y2="598.7969"/></g><!--class Vet--><g id="elem_Vet"><rect codeLine="21" fill="#F1F1F1" height="81.1953" id="Vet" rx="2.5" ry="2.5" style="stroke:#181818;stroke-width:0.5;" width="88" x="545" y="43"/><ellipse cx="560" cy="75.5977" fill="#ADD1B2" rx="11" ry="11" style="stroke:#181818;stroke-width:1.0;"/><path d="M559.1563,76.1445 L559.1563,78.4883 L563.25,78.4883 L563.25,77.6289 Q563.25,77.0508 563.4688,76.8008 Q563.6875,76.5508 564.0469,76.5508 Q564.4063,76.5508 564.625,76.8008 Q564.8438,77.0508 564.8438,77.6289 L564.8438,80.0977 L557.3125,80.0977 Q556.7344,80.0977 556.4844,79.8789 Q556.2344,79.6445 556.2344,79.2852 Q556.2344,78.9414 556.4844,78.7227 Q556.7344,78.4883 557.3125,78.4883 L557.5625,78.4883 L557.5625,72.2227 L557.3125,72.2227 Q556.7344,72.2227 556.4844,72.0039 Q556.2344,71.7852 556.2344,71.4258 Q556.2344,71.0664 556.4844,70.8477 Q556.7344,70.6133 557.3125,70.6133 L564.5,70.6289 L564.5,73.0664 Q564.5,73.6289 564.2813,73.8789 Q564.0625,74.1289 563.7031,74.1289 Q563.3438,74.1289 563.1094,73.8945 Q562.8906,73.6445 562.8906,73.0664 L562.8906,72.2227 L559.1563,72.2227 L559.1563,74.5352 L560.5625,74.5352 Q560.5625,73.9102 560.6875,73.7383 Q560.9219,73.3477 561.375,73.3477 Q561.7188,73.3477 561.9375,73.5977 Q562.1719,73.8477 562.1719,74.4258 L562.1719,76.2695 Q562.1719,76.7852 562.0469,76.9727 Q561.7969,77.332 561.375,77.332 Q560.9219,77.332 560.6875,76.957 Q560.5625,76.7695 560.5625,76.1445 L559.1563,76.1445 Z " fill="#000000"/><text fill="#000000" font-family="Arial" font-size="16" font-weight="bold" lengthAdjust="spacing" textLength="60" x="572" y="63.0078">&#171;entity&#187;</text><text fill="#000000" font-family="Arial" font-size="16" font-weight="bold" lengthAdjust="spacing" textLength="49" x="577.5" y="81.4063">&#171;root&#187;</text><text fill="#000000" font-family="Arial" font-size="16" lengthAdjust="spacing" textLength="24" x="590" y="99.8047">Vet</text><line style="stroke:#181818;stroke-width:0.5;" x1="546" x2="632" y1="108.1953" y2="108.1953"/><line style="stroke:#181818;stroke-width:0.5;" x1="546" x2="632" y1="116.1953" y2="116.1953"/></g><!--class Speciality--><g id="elem_Speciality"><rect codeLine="23" fill="#F1F1F1" height="62.7969" id="Speciality" rx="2.5" ry="2.5" style="stroke:#181818;stroke-width:0.5;" width="100" x="545" y="298"/><ellipse cx="560" cy="321.3984" fill="#ADD1B2" rx="11" ry="11" style="stroke:#181818;stroke-width:1.0;"/><path d="M559.1563,321.9453 L559.1563,324.2891 L563.25,324.2891 L563.25,323.4297 Q563.25,322.8516 563.4688,322.6016 Q563.6875,322.3516 564.0469,322.3516 Q564.4063,322.3516 564.625,322.6016 Q564.8438,322.8516 564.8438,323.4297 L564.8438,325.8984 L557.3125,325.8984 Q556.7344,325.8984 556.4844,325.6797 Q556.2344,325.4453 556.2344,325.0859 Q556.2344,324.7422 556.4844,324.5234 Q556.7344,324.2891 557.3125,324.2891 L557.5625,324.2891 L557.5625,318.0234 L557.3125,318.0234 Q556.7344,318.0234 556.4844,317.8047 Q556.2344,317.5859 556.2344,317.2266 Q556.2344,316.8672 556.4844,316.6484 Q556.7344,316.4141 557.3125,316.4141 L564.5,316.4297 L564.5,318.8672 Q564.5,319.4297 564.2813,319.6797 Q564.0625,319.9297 563.7031,319.9297 Q563.3438,319.9297 563.1094,319.6953 Q562.8906,319.4453 562.8906,318.8672 L562.8906,318.0234 L559.1563,318.0234 L559.1563,320.3359 L560.5625,320.3359 Q560.5625,319.7109 560.6875,319.5391 Q560.9219,319.1484 561.375,319.1484 Q561.7188,319.1484 561.9375,319.3984 Q562.1719,319.6484 562.1719,320.2266 L562.1719,322.0703 Q562.1719,322.5859 562.0469,322.7734 Q561.7969,323.1328 561.375,323.1328 Q560.9219,323.1328 560.6875,322.7578 Q560.5625,322.5703 560.5625,321.9453 L559.1563,321.9453 Z " fill="#000000"/><text fill="#000000" font-family="Arial" font-size="16" font-weight="bold" lengthAdjust="spacing" textLength="60" x="578" y="318.0078">&#171;entity&#187;</text><text fill="#000000" font-family="Arial" font-size="16" lengthAdjust="spacing" textLength="68" x="574" y="336.4063">Speciality</text><line style="stroke:#181818;stroke-width:0.5;" x1="546" x2="644" y1="344.7969" y2="344.7969"/><line style="stroke:#181818;stroke-width:0.5;" x1="546" x2="644" y1="352.7969" y2="352.7969"/></g><!--class Visit--><g id="elem_Visit"><rect codeLine="27" fill="#F1F1F1" height="81.1953" id="Visit" rx="2.5" ry="2.5" style="stroke:#181818;stroke-width:0.5;" width="88" x="60" y="43"/><ellipse cx="75" cy="75.5977" fill="#ADD1B2" rx="11" ry="11" style="stroke:#181818;stroke-width:1.0;"/><path d="M74.1563,76.1445 L74.1563,78.4883 L78.25,78.4883 L78.25,77.6289 Q78.25,77.0508 78.4688,76.8008 Q78.6875,76.5508 79.0469,76.5508 Q79.4063,76.5508 79.625,76.8008 Q79.8438,77.0508 79.8438,77.6289 L79.8438,80.0977 L72.3125,80.0977 Q71.7344,80.0977 71.4844,79.8789 Q71.2344,79.6445 71.2344,79.2852 Q71.2344,78.9414 71.4844,78.7227 Q71.7344,78.4883 72.3125,78.4883 L72.5625,78.4883 L72.5625,72.2227 L72.3125,72.2227 Q71.7344,72.2227 71.4844,72.0039 Q71.2344,71.7852 71.2344,71.4258 Q71.2344,71.0664 71.4844,70.8477 Q71.7344,70.6133 72.3125,70.6133 L79.5,70.6289 L79.5,73.0664 Q79.5,73.6289 79.2813,73.8789 Q79.0625,74.1289 78.7031,74.1289 Q78.3438,74.1289 78.1094,73.8945 Q77.8906,73.6445 77.8906,73.0664 L77.8906,72.2227 L74.1563,72.2227 L74.1563,74.5352 L75.5625,74.5352 Q75.5625,73.9102 75.6875,73.7383 Q75.9219,73.3477 76.375,73.3477 Q76.7188,73.3477 76.9375,73.5977 Q77.1719,73.8477 77.1719,74.4258 L77.1719,76.2695 Q77.1719,76.7852 77.0469,76.9727 Q76.7969,77.332 76.375,77.332 Q75.9219,77.332 75.6875,76.957 Q75.5625,76.7695 75.5625,76.1445 L74.1563,76.1445 Z " fill="#000000"/><text fill="#000000" font-family="Arial" font-size="16" font-weight="bold" lengthAdjust="spacing" textLength="60" x="87" y="63.0078">&#171;entity&#187;</text><text fill="#000000" font-family="Arial" font-size="16" font-weight="bold" lengthAdjust="spacing" textLength="49" x="92.5" y="81.4063">&#171;root&#187;</text><text fill="#000000" font-family="Arial" font-size="16" lengthAdjust="spacing" textLength="31" x="101.5" y="99.8047">Visit</text><line style="stroke:#181818;stroke-width:0.5;" x1="61" x2="147" y1="108.1953" y2="108.1953"/><line style="stroke:#181818;stroke-width:0.5;" x1="61" x2="147" y1="116.1953" y2="116.1953"/></g><!--class VisitDate--><g id="elem_VisitDate"><rect codeLine="29" fill="#F1F1F1" height="62.7969" id="VisitDate" rx="2.5" ry="2.5" style="stroke:#181818;stroke-width:0.5;" width="138" x="22" y="298"/><ellipse cx="37" cy="321.3984" fill="#FF8B40" rx="11" ry="11" style="stroke:#181818;stroke-width:1.0;"/><path d="M37.2969,324.5547 L39.625,319.0234 L39.25,319.0234 Q38.6719,319.0234 38.4219,318.8047 Q38.1875,318.5859 38.1875,318.2266 Q38.1875,317.8672 38.4219,317.6484 Q38.6719,317.4141 39.25,317.4141 L41.4063,317.4297 Q41.9844,317.4297 42.2188,317.6484 Q42.4688,317.8672 42.4688,318.2266 Q42.4688,318.6484 42.0938,318.8984 Q41.9219,319.0234 41.3594,319.0234 L38.0781,326.8984 L36.5313,326.8984 L33.25,319.0234 Q32.6875,319.0234 32.5156,318.8984 Q32.125,318.6641 32.125,318.2266 Q32.125,317.8672 32.375,317.6484 Q32.625,317.4141 33.2031,317.4141 L35.375,317.4297 Q35.9375,317.4297 36.1875,317.6484 Q36.4375,317.8672 36.4375,318.2266 Q36.4375,318.5859 36.1875,318.8047 Q35.9531,319.0234 35.375,319.0234 L35,319.0234 L37.2969,324.5547 Z " fill="#000000"/><text fill="#000000" font-family="Arial" font-size="16" font-weight="bold" lengthAdjust="spacing" textLength="110" x="49" y="318.0078">&#171;value object&#187;</text><text fill="#000000" font-family="Arial" font-size="16" lengthAdjust="spacing" textLength="65" x="71.5" y="336.4063">VisitDate</text><line style="stroke:#181818;stroke-width:0.5;" x1="23" x2="159" y1="344.7969" y2="344.7969"/><line style="stroke:#181818;stroke-width:0.5;" x1="23" x2="159" y1="352.7969" y2="352.7969"/></g><!--link Pet to PetType--><g id="link_Pet_PetType"><path codeLine="32" d="M332.52,370.4 C325.09,388.77 316.36,410.9 309,431 C294.87,469.61 281.915,508.9275 272.545,538.0975 " fill="none" id="Pet-to-PetType" style="stroke:#181818;stroke-width:2.5;"/><polygon fill="#181818" points="270.71,543.81,277.2708,536.4645,272.2391,539.0496,269.6541,534.0179,270.71,543.81" style="stroke:#181818;stroke-width:2.5;"/><text fill="#000000" font-family="Arial" font-size="16" lengthAdjust="spacing" textLength="55" x="310" y="447.0078">belongs</text><text fill="#000000" font-family="Arial" font-size="16" lengthAdjust="spacing" textLength="6" x="323.5371" y="393.0643">*</text><text fill="#000000" font-family="Arial" font-size="16" lengthAdjust="spacing" textLength="9" x="262.7846" y="532.4875">1</text></g><!--reverse link Pet to BirthDate--><g id="link_Pet_BirthDate"><path codeLine="33" d="M361.8504,381.8917 C373.9704,430.3717 391.28,499.64 402.29,543.67 " fill="none" id="Pet-backto-BirthDate" style="stroke:#181818;stroke-width:2.5;"/><polygon fill="none" points="358.94,370.25,356.5146,377.041,361.8504,381.8917,364.2758,375.1007,358.94,370.25" style="stroke:#181818;stroke-width:2.5;"/><text fill="#000000" font-family="Arial" font-size="16" lengthAdjust="spacing" textLength="25" x="379" y="447.0078">has</text><text fill="#000000" font-family="Arial" font-size="16" lengthAdjust="spacing" textLength="9" x="350.807" y="393.2029">1</text><text fill="#000000" font-family="Arial" font-size="16" lengthAdjust="spacing" textLength="9" x="390.8862" y="532.6986">1</text></g><!--reverse link Visit to VisitDate--><g id="link_Visit_VisitDate"><path codeLine="34" d="M101.2423,136.233 C98.6623,184.713 94.99,253.64 92.64,297.67 " fill="none" id="Visit-backto-VisitDate" style="stroke:#181818;stroke-width:2.5;"/><polygon fill="none" points="101.88,124.25,97.5668,130.029,101.2423,136.233,105.5555,130.4541,101.88,124.25" style="stroke:#181818;stroke-width:2.5;"/><text fill="#000000" font-family="Arial" font-size="16" lengthAdjust="spacing" textLength="25" x="99" y="201.0078">has</text><text fill="#000000" font-family="Arial" font-size="16" lengthAdjust="spacing" textLength="9" x="91.8249" y="147.2029">1</text><text fill="#000000" font-family="Arial" font-size="16" lengthAdjust="spacing" textLength="9" x="83.0769" y="286.6986">1</text></g><!--link Vet to Speciality--><g id="link_Vet_Speciality"><path codeLine="35" d="M589.98,124.25 C591.17,172.73 593.0129,247.6418 594.0929,291.6718 " fill="none" id="Vet-to-Speciality" style="stroke:#181818;stroke-width:2.5;"/><polygon fill="#181818" points="594.24,297.67,598.0181,288.5746,594.1174,292.6715,590.0205,288.7708,594.24,297.67" style="stroke:#181818;stroke-width:2.5;"/><text fill="#000000" font-family="Arial" font-size="16" lengthAdjust="spacing" textLength="76" x="592" y="201.0078">possesses</text><text fill="#000000" font-family="Arial" font-size="16" lengthAdjust="spacing" textLength="6" x="583.6581" y="147.2029">*</text><text fill="#000000" font-family="Arial" font-size="16" lengthAdjust="spacing" textLength="6" x="587.4998" y="286.6986">*</text></g><!--link Pet to Owner--><g id="link_Pet_Owner"><path codeLine="36" d="M386.47,370.25 C429.24,415.62 498.79,489.4 541.55,534.77 " fill="none" id="Pet-Owner" style="stroke:#181818;stroke-width:2.5;"/><polygon fill="#000000" points="472.1155,445.5653,467.2368,435.248,462.1042,440.0861,472.1155,445.5653" style="stroke:#000000;stroke-width:1.0;"/><text fill="#000000" font-family="Arial" font-size="16" lengthAdjust="spacing" textLength="46" x="479" y="447.0078">owned</text><text fill="#000000" font-family="Arial" font-size="16" lengthAdjust="spacing" textLength="6" x="385.9637" y="393.2029">*</text><text fill="#000000" font-family="Arial" font-size="16" lengthAdjust="spacing" textLength="9" x="525.602" y="523.5581">1</text></g><!--link Visit to Pet--><g id="link_Visit_Pet"><path codeLine="37" d="M143.91,124.25 C189.47,169.62 263.56,243.4 309.11,288.77 " fill="none" id="Visit-Pet" style="stroke:#181818;stroke-width:2.5;"/><polygon fill="#000000" points="234.2514,199.4331,229.0492,189.275,224.0719,194.2728,234.2514,199.4331" style="stroke:#000000;stroke-width:1.0;"/><text fill="#000000" font-family="Arial" font-size="16" lengthAdjust="spacing" textLength="55" x="241" y="201.0078">belongs</text><text fill="#000000" font-family="Arial" font-size="16" lengthAdjust="spacing" textLength="6" x="143.7925" y="147.2029">*</text><text fill="#000000" font-family="Arial" font-size="16" lengthAdjust="spacing" textLength="9" x="292.7579" y="277.5581">1</text></g><!--SRC=[ZPBTJeD048Nlzob6lF0dOgnHOmWXQTFqKatQSB_G4LQsBDdTsc3JTtS0Yw1IIqWOPZxcd1dMP28lkEOhcE8hNqixKxbzuYk4iHPSClDNVIu-44OF0qLRIeH8oMMdFjPQRHQfYBCSZO7RwtjsTc9J91shIiPOmUEC9mYEx_CaqPXmYq40pviSjRDbG1VcLjYoIO7lDwz1uFjQAKliTiTsWurUqFRRK6AWoGzgKHRO8LiYbfmccGXjqobf478UNftEPe-JkviBUEToZQ2YDup_zHQID-YP2uyoDoymfdzKXNr_1wI44R_4gjmXkMRI6ZjsqcgxpgK3hki6u8oS_I8zY52gF34DGGL5I1sqc_GWvOOrhdf4w-2Bw6bGyBqF3mfb35PtrqhTfJu_7YXwB27OwtG0-g2rIS0d]--></g></svg>