<?xml version="1.0" encoding="us-ascii" standalone="no"?><svg xmlns="http://www.w3.org/2000/svg" xmlns:xlink="http://www.w3.org/1999/xlink" contentStyleType="text/css" height="855px" preserveAspectRatio="none" style="width:2114px;height:855px;background:#FFFFFF;" version="1.1" viewBox="0 0 2114 855" width="2114px" zoomAndPan="magnify"><defs/><g><rect fill="#90EE90" height="843.1172" style="stroke:#181818;stroke-width:0.5;" width="570" x="401" y="6"/><text fill="#000000" font-family="sans-serif" font-size="13" font-weight="bold" lengthAdjust="spacing" textLength="94" x="639" y="19.4951">Owner Service</text><rect fill="#FFFFE0" height="843.1172" style="stroke:#181818;stroke-width:0.5;" width="618" x="973" y="6"/><text fill="#000000" font-family="sans-serif" font-size="13" font-weight="bold" lengthAdjust="spacing" textLength="73" x="1245.5" y="19.4951">Pet Service</text><rect fill="#ADD8E6" height="843.1172" style="stroke:#181818;stroke-width:0.5;" width="342" x="1750.5" y="6"/><text fill="#000000" font-family="sans-serif" font-size="13" font-weight="bold" lengthAdjust="spacing" textLength="79" x="1882" y="19.4951">Visit Service</text><rect fill="none" height="81.0547" style="stroke:#000000;stroke-width:1.5;" width="374" x="1734.5" y="549.0469"/><rect fill="none" height="48.7031" style="stroke:#000000;stroke-width:1.5;" width="354" x="1744.5" y="574.3984"/><line style="stroke:#181818;stroke-width:0.5;stroke-dasharray:5.0,5.0;" x1="22" x2="22" y1="82.6094" y2="768.5078"/><line style="stroke:#181818;stroke-width:0.5;stroke-dasharray:5.0,5.0;" x1="170.5" x2="170.5" y1="82.6094" y2="768.5078"/><line style="stroke:#181818;stroke-width:0.5;stroke-dasharray:5.0,5.0;" x1="304.5" x2="304.5" y1="82.6094" y2="768.5078"/><line style="stroke:#181818;stroke-width:0.5;stroke-dasharray:5.0,5.0;" x1="463" x2="463" y1="82.6094" y2="768.5078"/><line style="stroke:#181818;stroke-width:0.5;stroke-dasharray:5.0,5.0;" x1="612" x2="612" y1="82.6094" y2="768.5078"/><line style="stroke:#181818;stroke-width:0.5;stroke-dasharray:5.0,5.0;" x1="752" x2="752" y1="82.6094" y2="768.5078"/><line style="stroke:#181818;stroke-width:0.5;stroke-dasharray:5.0,5.0;" x1="895" x2="895" y1="245.3203" y2="768.5078"/><line style="stroke:#181818;stroke-width:0.5;stroke-dasharray:5.0,5.0;" x1="1025" x2="1025" y1="82.6094" y2="768.5078"/><line style="stroke:#181818;stroke-width:0.5;stroke-dasharray:5.0,5.0;" x1="1142" x2="1142" y1="82.6094" y2="768.5078"/><line style="stroke:#181818;stroke-width:0.5;stroke-dasharray:5.0,5.0;" x1="1395" x2="1395" y1="82.6094" y2="768.5078"/><line style="stroke:#181818;stroke-width:0.5;stroke-dasharray:5.0,5.0;" x1="1522" x2="1522" y1="409.3359" y2="768.5078"/><line style="stroke:#181818;stroke-width:0.5;stroke-dasharray:5.0,5.0;" x1="1646" x2="1646" y1="82.6094" y2="768.5078"/><line style="stroke:#181818;stroke-width:0.5;stroke-dasharray:5.0,5.0;" x1="1815.5" x2="1815.5" y1="82.6094" y2="768.5078"/><line style="stroke:#181818;stroke-width:0.5;stroke-dasharray:5.0,5.0;" x1="2034.5" x2="2034.5" y1="82.6094" y2="768.5078"/><text fill="#000000" font-family="sans-serif" font-size="14" lengthAdjust="spacing" textLength="29" x="5" y="79.5332">User</text><ellipse cx="22.5" cy="13.5" fill="#E2E2F0" rx="8" ry="8" style="stroke:#181818;stroke-width:0.5;"/><path d="M22.5,21.5 L22.5,48.5 M9.5,29.5 L35.5,29.5 M22.5,48.5 L9.5,63.5 M22.5,48.5 L35.5,63.5 " fill="none" style="stroke:#181818;stroke-width:0.5;"/><text fill="#000000" font-family="sans-serif" font-size="14" lengthAdjust="spacing" textLength="29" x="5" y="782.041">User</text><ellipse cx="22.5" cy="793.6172" fill="#E2E2F0" rx="8" ry="8" style="stroke:#181818;stroke-width:0.5;"/><path d="M22.5,801.6172 L22.5,828.6172 M9.5,809.6172 L35.5,809.6172 M22.5,828.6172 L9.5,843.6172 M22.5,828.6172 L35.5,843.6172 " fill="none" style="stroke:#181818;stroke-width:0.5;"/><rect fill="#E2E2F0" height="31.6094" rx="2.5" ry="2.5" style="stroke:#181818;stroke-width:0.5;" width="98" x="121.5" y="50"/><text fill="#000000" font-family="sans-serif" font-size="14" lengthAdjust="spacing" textLength="84" x="128.5" y="71.5332">UserInterface</text><rect fill="#E2E2F0" height="31.6094" rx="2.5" ry="2.5" style="stroke:#181818;stroke-width:0.5;" width="98" x="121.5" y="767.5078"/><text fill="#000000" font-family="sans-serif" font-size="14" lengthAdjust="spacing" textLength="84" x="128.5" y="789.041">UserInterface</text><rect fill="#E2E2F0" height="31.6094" rx="2.5" ry="2.5" style="stroke:#181818;stroke-width:0.5;" width="90" x="259.5" y="50"/><text fill="#000000" font-family="sans-serif" font-size="14" lengthAdjust="spacing" textLength="76" x="266.5" y="71.5332">APIGateway</text><rect fill="#E2E2F0" height="31.6094" rx="2.5" ry="2.5" style="stroke:#181818;stroke-width:0.5;" width="90" x="259.5" y="767.5078"/><text fill="#000000" font-family="sans-serif" font-size="14" lengthAdjust="spacing" textLength="76" x="266.5" y="789.041">APIGateway</text><rect fill="#E2E2F0" height="31.6094" rx="2.5" ry="2.5" style="stroke:#181818;stroke-width:0.5;" width="117" x="405" y="50"/><text fill="#000000" font-family="sans-serif" font-size="14" lengthAdjust="spacing" textLength="103" x="412" y="71.5332">OwnerController</text><rect fill="#E2E2F0" height="31.6094" rx="2.5" ry="2.5" style="stroke:#181818;stroke-width:0.5;" width="117" x="405" y="767.5078"/><text fill="#000000" font-family="sans-serif" font-size="14" lengthAdjust="spacing" textLength="103" x="412" y="789.041">OwnerController</text><rect fill="#E2E2F0" height="31.6094" rx="2.5" ry="2.5" style="stroke:#181818;stroke-width:0.5;" width="137" x="544" y="50"/><text fill="#000000" font-family="sans-serif" font-size="14" lengthAdjust="spacing" textLength="123" x="551" y="71.5332">OwnerManagement</text><rect fill="#E2E2F0" height="31.6094" rx="2.5" ry="2.5" style="stroke:#181818;stroke-width:0.5;" width="137" x="544" y="767.5078"/><text fill="#000000" font-family="sans-serif" font-size="14" lengthAdjust="spacing" textLength="123" x="551" y="789.041">OwnerManagement</text><rect fill="#E2E2F0" height="31.6094" rx="2.5" ry="2.5" style="stroke:#181818;stroke-width:0.5;" width="123" x="691" y="50"/><text fill="#000000" font-family="sans-serif" font-size="14" lengthAdjust="spacing" textLength="109" x="698" y="71.5332">OwnerRepository</text><rect fill="#E2E2F0" height="31.6094" rx="2.5" ry="2.5" style="stroke:#181818;stroke-width:0.5;" width="123" x="691" y="767.5078"/><text fill="#000000" font-family="sans-serif" font-size="14" lengthAdjust="spacing" textLength="109" x="698" y="789.041">OwnerRepository</text><rect fill="#E2E2F0" height="31.6094" rx="2.5" ry="2.5" style="stroke:#181818;stroke-width:0.5;" width="143" x="824" y="767.5078"/><text fill="#000000" font-family="sans-serif" font-size="14" lengthAdjust="spacing" textLength="129" x="831" y="789.041">event:DeletedOwner</text><rect fill="#E2E2F0" height="31.6094" rx="2.5" ry="2.5" style="stroke:#181818;stroke-width:0.5;" width="97" x="977" y="50"/><text fill="#000000" font-family="sans-serif" font-size="14" lengthAdjust="spacing" textLength="83" x="984" y="71.5332">PetController</text><rect fill="#E2E2F0" height="31.6094" rx="2.5" ry="2.5" style="stroke:#181818;stroke-width:0.5;" width="97" x="977" y="767.5078"/><text fill="#000000" font-family="sans-serif" font-size="14" lengthAdjust="spacing" textLength="83" x="984" y="789.041">PetController</text><rect fill="#E2E2F0" height="31.6094" rx="2.5" ry="2.5" style="stroke:#181818;stroke-width:0.5;" width="117" x="1084" y="50"/><text fill="#000000" font-family="sans-serif" font-size="14" lengthAdjust="spacing" textLength="103" x="1091" y="71.5332">PetManagement</text><rect fill="#E2E2F0" height="31.6094" rx="2.5" ry="2.5" style="stroke:#181818;stroke-width:0.5;" width="117" x="1084" y="767.5078"/><text fill="#000000" font-family="sans-serif" font-size="14" lengthAdjust="spacing" textLength="103" x="1091" y="789.041">PetManagement</text><rect fill="#E2E2F0" height="31.6094" rx="2.5" ry="2.5" style="stroke:#181818;stroke-width:0.5;" width="103" x="1344" y="50"/><text fill="#000000" font-family="sans-serif" font-size="14" lengthAdjust="spacing" textLength="89" x="1351" y="71.5332">PetRepository</text><rect fill="#E2E2F0" height="31.6094" rx="2.5" ry="2.5" style="stroke:#181818;stroke-width:0.5;" width="103" x="1344" y="767.5078"/><text fill="#000000" font-family="sans-serif" font-size="14" lengthAdjust="spacing" textLength="89" x="1351" y="789.041">PetRepository</text><rect fill="#E2E2F0" height="31.6094" rx="2.5" ry="2.5" style="stroke:#181818;stroke-width:0.5;" width="130" x="1457" y="767.5078"/><text fill="#000000" font-family="sans-serif" font-size="14" lengthAdjust="spacing" textLength="116" x="1464" y="789.041">event:DeletedPets</text><rect fill="#E2E2F0" height="31.6094" rx="2.5" ry="2.5" style="stroke:#181818;stroke-width:0.5;" width="99" x="1597" y="50"/><text fill="#000000" font-family="sans-serif" font-size="14" lengthAdjust="spacing" textLength="85" x="1604" y="71.5332">EventHandler</text><rect fill="#E2E2F0" height="31.6094" rx="2.5" ry="2.5" style="stroke:#181818;stroke-width:0.5;" width="99" x="1597" y="767.5078"/><text fill="#000000" font-family="sans-serif" font-size="14" lengthAdjust="spacing" textLength="85" x="1604" y="789.041">EventHandler</text><rect fill="#E2E2F0" height="31.6094" rx="2.5" ry="2.5" style="stroke:#181818;stroke-width:0.5;" width="122" x="1754.5" y="50"/><text fill="#000000" font-family="sans-serif" font-size="14" lengthAdjust="spacing" textLength="108" x="1761.5" y="71.5332">VisitManagement</text><rect fill="#E2E2F0" height="31.6094" rx="2.5" ry="2.5" style="stroke:#181818;stroke-width:0.5;" width="122" x="1754.5" y="767.5078"/><text fill="#000000" font-family="sans-serif" font-size="14" lengthAdjust="spacing" textLength="108" x="1761.5" y="789.041">VisitManagement</text><rect fill="#E2E2F0" height="31.6094" rx="2.5" ry="2.5" style="stroke:#181818;stroke-width:0.5;" width="108" x="1980.5" y="50"/><text fill="#000000" font-family="sans-serif" font-size="14" lengthAdjust="spacing" textLength="94" x="1987.5" y="71.5332">VisitRepository</text><rect fill="#E2E2F0" height="31.6094" rx="2.5" ry="2.5" style="stroke:#181818;stroke-width:0.5;" width="108" x="1980.5" y="767.5078"/><text fill="#000000" font-family="sans-serif" font-size="14" lengthAdjust="spacing" textLength="94" x="1987.5" y="789.041">VisitRepository</text><polygon fill="#181818" points="158.5,110.9609,168.5,114.9609,158.5,118.9609,162.5,114.9609" style="stroke:#181818;stroke-width:1.0;"/><line style="stroke:#181818;stroke-width:1.0;" x1="22.5" x2="164.5" y1="114.9609" y2="114.9609"/><text fill="#000000" font-family="sans-serif" font-size="13" font-weight="bold" lengthAdjust="spacing" textLength="7" x="29.5" y="110.1045">1</text><text fill="#000000" font-family="sans-serif" font-size="13" lengthAdjust="spacing" textLength="78" x="40.5" y="110.1045">Delete Owner</text><polygon fill="#181818" points="451.5,141.3125,461.5,145.3125,451.5,149.3125,455.5,145.3125" style="stroke:#181818;stroke-width:1.0;"/><line style="stroke:#181818;stroke-width:1.0;" x1="170.5" x2="457.5" y1="145.3125" y2="145.3125"/><text fill="#000000" font-family="sans-serif" font-size="13" font-weight="bold" lengthAdjust="spacing" textLength="7" x="177.5" y="140.4561">2</text><text fill="#000000" font-family="sans-serif" font-size="13" lengthAdjust="spacing" textLength="194" x="188.5" y="140.4561">DELETE /owners/{ownerId}/delete</text><polygon fill="#181818" points="451.5,171.6641,461.5,175.6641,451.5,179.6641,455.5,175.6641" style="stroke:#181818;stroke-width:1.0;"/><line style="stroke:#181818;stroke-width:1.0;" x1="304.5" x2="457.5" y1="175.6641" y2="175.6641"/><text fill="#000000" font-family="sans-serif" font-size="13" font-weight="bold" lengthAdjust="spacing" textLength="7" x="311.5" y="170.8076">3</text><text fill="#000000" font-family="sans-serif" font-size="13" lengthAdjust="spacing" textLength="124" x="322.5" y="170.8076">deleteOwner(ownerId)</text><polygon fill="#181818" points="600.5,202.0156,610.5,206.0156,600.5,210.0156,604.5,206.0156" style="stroke:#181818;stroke-width:1.0;"/><line style="stroke:#181818;stroke-width:1.0;" x1="463.5" x2="606.5" y1="206.0156" y2="206.0156"/><text fill="#000000" font-family="sans-serif" font-size="13" font-weight="bold" lengthAdjust="spacing" textLength="7" x="470.5" y="201.1592">4</text><text fill="#000000" font-family="sans-serif" font-size="13" lengthAdjust="spacing" textLength="114" x="481.5" y="201.1592">deletePets(ownerId)</text><polygon fill="#181818" points="812,232.3672,822,236.3672,812,240.3672,816,236.3672" style="stroke:#181818;stroke-width:1.0;"/><line style="stroke:#181818;stroke-width:1.0;stroke-dasharray:2.0,2.0;" x1="612.5" x2="818" y1="236.3672" y2="236.3672"/><text fill="#000000" font-family="sans-serif" font-size="13" font-weight="bold" lengthAdjust="spacing" textLength="7" x="619.5" y="231.5107">5</text><text fill="#000000" font-family="sans-serif" font-size="13" lengthAdjust="spacing" textLength="88" x="630.5" y="231.5107">create(ownerId)</text><rect fill="#E2E2F0" height="31.6094" rx="2.5" ry="2.5" style="stroke:#181818;stroke-width:0.5;" width="143" x="824" y="214.0156"/><text fill="#000000" font-family="sans-serif" font-size="14" lengthAdjust="spacing" textLength="129" x="831" y="235.5488">event:DeletedOwner</text><polygon fill="#181818" points="623.5,274.9766,613.5,278.9766,623.5,282.9766,619.5,278.9766" style="stroke:#181818;stroke-width:1.0;"/><line style="stroke:#181818;stroke-width:1.0;stroke-dasharray:2.0,2.0;" x1="617.5" x2="894.5" y1="278.9766" y2="278.9766"/><text fill="#000000" font-family="sans-serif" font-size="13" font-weight="bold" lengthAdjust="spacing" textLength="7" x="629.5" y="274.1201">6</text><text fill="#000000" font-family="sans-serif" font-size="13" lengthAdjust="spacing" textLength="30" x="640.5" y="274.1201">event</text><polygon fill="#181818" points="1634.5,305.3281,1644.5,309.3281,1634.5,313.3281,1638.5,309.3281" style="stroke:#181818;stroke-width:1.0;"/><line style="stroke:#181818;stroke-width:1.0;" x1="612.5" x2="1640.5" y1="309.3281" y2="309.3281"/><text fill="#000000" font-family="sans-serif" font-size="13" font-weight="bold" lengthAdjust="spacing" textLength="7" x="619.5" y="304.4717">7</text><text fill="#000000" font-family="sans-serif" font-size="13" lengthAdjust="spacing" textLength="111" x="630.5" y="304.4717">publishEvent(event)</text><polygon fill="#181818" points="1153.5,335.6797,1143.5,339.6797,1153.5,343.6797,1149.5,339.6797" style="stroke:#181818;stroke-width:1.0;"/><line style="stroke:#181818;stroke-width:1.0;" x1="1147.5" x2="1645.5" y1="339.6797" y2="339.6797"/><text fill="#000000" font-family="sans-serif" font-size="13" font-weight="bold" lengthAdjust="spacing" textLength="7" x="1159.5" y="334.8232">8</text><text fill="#000000" font-family="sans-serif" font-size="13" lengthAdjust="spacing" textLength="137" x="1170.5" y="334.8232">on(DeletedOwner event)</text><polygon fill="#181818" points="1383.5,366.0313,1393.5,370.0313,1383.5,374.0313,1387.5,370.0313" style="stroke:#181818;stroke-width:1.0;"/><line style="stroke:#181818;stroke-width:1.0;" x1="1142.5" x2="1389.5" y1="370.0313" y2="370.0313"/><text fill="#000000" font-family="sans-serif" font-size="13" font-weight="bold" lengthAdjust="spacing" textLength="7" x="1149.5" y="365.1748">9</text><text fill="#000000" font-family="sans-serif" font-size="13" lengthAdjust="spacing" textLength="194" x="1160.5" y="365.1748">getPetsByOwnerId(event.ownerId)</text><polygon fill="#181818" points="1445,396.3828,1455,400.3828,1445,404.3828,1449,400.3828" style="stroke:#181818;stroke-width:1.0;"/><line style="stroke:#181818;stroke-width:1.0;stroke-dasharray:2.0,2.0;" x1="1142.5" x2="1451" y1="400.3828" y2="400.3828"/><text fill="#000000" font-family="sans-serif" font-size="13" font-weight="bold" lengthAdjust="spacing" textLength="14" x="1149.5" y="395.5264">10</text><text fill="#000000" font-family="sans-serif" font-size="13" lengthAdjust="spacing" textLength="159" x="1167.5" y="395.5264">create(List&lt;Integer&gt; petsId)</text><rect fill="#E2E2F0" height="31.6094" rx="2.5" ry="2.5" style="stroke:#181818;stroke-width:0.5;" width="130" x="1457" y="378.0313"/><text fill="#000000" font-family="sans-serif" font-size="14" lengthAdjust="spacing" textLength="116" x="1464" y="399.5645">event:DeletedPets</text><polygon fill="#181818" points="1153.5,438.9922,1143.5,442.9922,1153.5,446.9922,1149.5,442.9922" style="stroke:#181818;stroke-width:1.0;"/><line style="stroke:#181818;stroke-width:1.0;stroke-dasharray:2.0,2.0;" x1="1147.5" x2="1521" y1="442.9922" y2="442.9922"/><text fill="#000000" font-family="sans-serif" font-size="13" font-weight="bold" lengthAdjust="spacing" textLength="14" x="1159.5" y="438.1357">11</text><text fill="#000000" font-family="sans-serif" font-size="13" lengthAdjust="spacing" textLength="30" x="1177.5" y="438.1357">event</text><polygon fill="#181818" points="1634.5,469.3438,1644.5,473.3438,1634.5,477.3438,1638.5,473.3438" style="stroke:#181818;stroke-width:1.0;"/><line style="stroke:#181818;stroke-width:1.0;" x1="1142.5" x2="1640.5" y1="473.3438" y2="473.3438"/><text fill="#000000" font-family="sans-serif" font-size="13" font-weight="bold" lengthAdjust="spacing" textLength="14" x="1149.5" y="468.4873">12</text><text fill="#000000" font-family="sans-serif" font-size="13" lengthAdjust="spacing" textLength="111" x="1167.5" y="468.4873">publishEvent(event)</text><polygon fill="#181818" points="1383.5,499.6953,1393.5,503.6953,1383.5,507.6953,1387.5,503.6953" style="stroke:#181818;stroke-width:1.0;"/><line style="stroke:#181818;stroke-width:1.0;" x1="1142.5" x2="1389.5" y1="503.6953" y2="503.6953"/><text fill="#000000" font-family="sans-serif" font-size="13" font-weight="bold" lengthAdjust="spacing" textLength="14" x="1149.5" y="498.8389">13</text><text fill="#000000" font-family="sans-serif" font-size="13" lengthAdjust="spacing" textLength="211" x="1167.5" y="498.8389">deletePetsByOwnerId(event.ownerId)</text><polygon fill="#181818" points="1803.5,530.0469,1813.5,534.0469,1803.5,538.0469,1807.5,534.0469" style="stroke:#181818;stroke-width:1.0;"/><line style="stroke:#181818;stroke-width:1.0;" x1="1646.5" x2="1809.5" y1="534.0469" y2="534.0469"/><text fill="#000000" font-family="sans-serif" font-size="13" font-weight="bold" lengthAdjust="spacing" textLength="14" x="1653.5" y="529.1904">14</text><text fill="#000000" font-family="sans-serif" font-size="13" lengthAdjust="spacing" textLength="127" x="1671.5" y="529.1904">on(DeletedPets event)</text><path d="M1734.5,549.0469 L1795.5,549.0469 L1795.5,557.3984 L1785.5,567.3984 L1734.5,567.3984 L1734.5,549.0469 " fill="#EEEEEE" style="stroke:#000000;stroke-width:1.5;"/><rect fill="none" height="81.0547" style="stroke:#000000;stroke-width:1.5;" width="374" x="1734.5" y="549.0469"/><text fill="#000000" font-family="sans-serif" font-size="13" font-weight="bold" lengthAdjust="spacing" textLength="16" x="1749.5" y="563.542">alt</text><text fill="#000000" font-family="sans-serif" font-size="11" font-weight="bold" lengthAdjust="spacing" textLength="174" x="1810.5" y="562.4658">[Loop through each pet in Pets]</text><path d="M1744.5,574.3984 L1817.5,574.3984 L1817.5,582.75 L1807.5,592.75 L1744.5,592.75 L1744.5,574.3984 " fill="#EEEEEE" style="stroke:#000000;stroke-width:1.5;"/><rect fill="none" height="48.7031" style="stroke:#000000;stroke-width:1.5;" width="354" x="1744.5" y="574.3984"/><text fill="#000000" font-family="sans-serif" font-size="13" font-weight="bold" lengthAdjust="spacing" textLength="28" x="1759.5" y="588.8936">loop</text><text fill="#000000" font-family="sans-serif" font-size="11" font-weight="bold" lengthAdjust="spacing" textLength="169" x="1832.5" y="587.8174">[for each petId in event.petsId]</text><polygon fill="#181818" points="2022.5,611.1016,2032.5,615.1016,2022.5,619.1016,2026.5,615.1016" style="stroke:#181818;stroke-width:1.0;"/><line style="stroke:#181818;stroke-width:1.0;" x1="1815.5" x2="2028.5" y1="615.1016" y2="615.1016"/><text fill="#000000" font-family="sans-serif" font-size="13" font-weight="bold" lengthAdjust="spacing" textLength="14" x="1822.5" y="610.2451">15</text><text fill="#000000" font-family="sans-serif" font-size="13" lengthAdjust="spacing" textLength="177" x="1840.5" y="610.2451">deleteVisitByPetId(event.petId)</text><polygon fill="#181818" points="740.5,655.4531,750.5,659.4531,740.5,663.4531,744.5,659.4531" style="stroke:#181818;stroke-width:1.0;"/><line style="stroke:#181818;stroke-width:1.0;" x1="463.5" x2="746.5" y1="659.4531" y2="659.4531"/><text fill="#000000" font-family="sans-serif" font-size="13" font-weight="bold" lengthAdjust="spacing" textLength="14" x="470.5" y="654.5967">16</text><text fill="#000000" font-family="sans-serif" font-size="13" lengthAdjust="spacing" textLength="150" x="488.5" y="654.5967">deleteOwnerById(ownerId)</text><polygon fill="#181818" points="315.5,685.8047,305.5,689.8047,315.5,693.8047,311.5,689.8047" style="stroke:#181818;stroke-width:1.0;"/><line style="stroke:#181818;stroke-width:1.0;stroke-dasharray:2.0,2.0;" x1="309.5" x2="462.5" y1="689.8047" y2="689.8047"/><text fill="#000000" font-family="sans-serif" font-size="13" font-weight="bold" lengthAdjust="spacing" textLength="14" x="321.5" y="684.9482">17</text><text fill="#000000" font-family="sans-serif" font-size="13" lengthAdjust="spacing" textLength="49" x="339.5" y="684.9482">success</text><polygon fill="#181818" points="181.5,716.1563,171.5,720.1563,181.5,724.1563,177.5,720.1563" style="stroke:#181818;stroke-width:1.0;"/><line style="stroke:#181818;stroke-width:1.0;stroke-dasharray:2.0,2.0;" x1="175.5" x2="303.5" y1="720.1563" y2="720.1563"/><text fill="#000000" font-family="sans-serif" font-size="13" font-weight="bold" lengthAdjust="spacing" textLength="14" x="187.5" y="715.2998">18</text><text fill="#000000" font-family="sans-serif" font-size="13" lengthAdjust="spacing" textLength="92" x="205.5" y="715.2998">redirect:/owners</text><polygon fill="#181818" points="33.5,746.5078,23.5,750.5078,33.5,754.5078,29.5,750.5078" style="stroke:#181818;stroke-width:1.0;"/><line style="stroke:#181818;stroke-width:1.0;stroke-dasharray:2.0,2.0;" x1="27.5" x2="169.5" y1="750.5078" y2="750.5078"/><text fill="#000000" font-family="sans-serif" font-size="13" font-weight="bold" lengthAdjust="spacing" textLength="14" x="39.5" y="745.6514">19</text><text fill="#000000" font-family="sans-serif" font-size="13" lengthAdjust="spacing" textLength="106" x="57.5" y="745.6514">confirms operation</text><!--SRC=[ZLHDZvim4BtpAqRfeUbAMUweYjIqqMwaL1lrw-x012mPcxNDfgZgV-_OaF1XDbqk8B_tPjxCU7XVM5kP98uhmQIjIt6VgZ8s-5oZJ76LSPPhLaOHgwsITNb4JT-fLHf-6lgkcBOyvHLf_S5EMjGdbk88-NJOFJ2BPzP4qL7zXiNJMQA6xwXVU8eBUBVdUM4VDAACW9wXrbC_Ascr4e8opk9VcMGvbYZjFFuDAsKukMu2V84l94k-e42BcMSl8fGPaD7ExG7jmAjmNXiKGfs3OCIyOPNG6qO9VRDDufg1oo5nwtYFJ6REGUl_5wUWqmgEeiOWYsVUyEZnWSkh0pTxMAt7To21rcuxWsY4EV9aj4JVxhS_jX0h1vZuZt_lihznvkD4_JsQbRSiVxpif1-YQ4AxAlioBqhNrLuu8S6AX7EN1Uxk4aWrah5UF4jSpQNsn33PUZJ81AhwABWf_E7IQwYq8SL9HXSi0IMNGmFGoKQiJjRFD84ShUl4fdbggsdJtLzhc-Y3jlZBEUpAdXlxqKq-Hxs6Yk2mHQre5HRHzYVm_8Rk_A_EVkYlbXgsUB8XmoQxI9SUCs5XhrG5jj2gpWj0bXQkTE3I-J1-jJpZHF_I2xhB7DwQQFlaUUwP9Bvw2IlonvlcuC8jhx5SEIuEhQnRszVt8WpeZpSDHHilnr1Cwdux4p1rcg8neuqDVmyQCwunjKctyTDVHAUWYwJaYUlIWAfGCykL_0S0]--></g></svg>