<?xml version="1.0" encoding="us-ascii" standalone="no"?><svg xmlns="http://www.w3.org/2000/svg" xmlns:xlink="http://www.w3.org/1999/xlink" contentStyleType="text/css" height="541px" preserveAspectRatio="none" style="width:572px;height:541px;background:#FFFFFF;" version="1.1" viewBox="0 0 572 541" width="572px" zoomAndPan="magnify"><defs/><g><!--class Owner--><g id="elem_Owner"><rect codeLine="9" fill="#F1F1F1" height="81.1953" id="Owner" rx="2.5" ry="2.5" style="stroke:#181818;stroke-width:0.5;" width="88" x="7" y="453"/><ellipse cx="22" cy="485.5977" fill="#ADD1B2" rx="11" ry="11" style="stroke:#181818;stroke-width:1.0;"/><path d="M21.1563,486.1445 L21.1563,488.4883 L25.25,488.4883 L25.25,487.6289 Q25.25,487.0508 25.4688,486.8008 Q25.6875,486.5508 26.0469,486.5508 Q26.4063,486.5508 26.625,486.8008 Q26.8438,487.0508 26.8438,487.6289 L26.8438,490.0977 L19.3125,490.0977 Q18.7344,490.0977 18.4844,489.8789 Q18.2344,489.6445 18.2344,489.2852 Q18.2344,488.9414 18.4844,488.7227 Q18.7344,488.4883 19.3125,488.4883 L19.5625,488.4883 L19.5625,482.2227 L19.3125,482.2227 Q18.7344,482.2227 18.4844,482.0039 Q18.2344,481.7852 18.2344,481.4258 Q18.2344,481.0664 18.4844,480.8477 Q18.7344,480.6133 19.3125,480.6133 L26.5,480.6289 L26.5,483.0664 Q26.5,483.6289 26.2813,483.8789 Q26.0625,484.1289 25.7031,484.1289 Q25.3438,484.1289 25.1094,483.8945 Q24.8906,483.6445 24.8906,483.0664 L24.8906,482.2227 L21.1563,482.2227 L21.1563,484.5352 L22.5625,484.5352 Q22.5625,483.9102 22.6875,483.7383 Q22.9219,483.3477 23.375,483.3477 Q23.7188,483.3477 23.9375,483.5977 Q24.1719,483.8477 24.1719,484.4258 L24.1719,486.2695 Q24.1719,486.7852 24.0469,486.9727 Q23.7969,487.332 23.375,487.332 Q22.9219,487.332 22.6875,486.957 Q22.5625,486.7695 22.5625,486.1445 L21.1563,486.1445 Z " fill="#000000"/><text fill="#000000" font-family="Arial" font-size="16" font-weight="bold" lengthAdjust="spacing" textLength="60" x="34" y="473.0078">&#171;entity&#187;</text><text fill="#000000" font-family="Arial" font-size="16" font-weight="bold" lengthAdjust="spacing" textLength="49" x="39.5" y="491.4063">&#171;root&#187;</text><text fill="#000000" font-family="Arial" font-size="16" lengthAdjust="spacing" textLength="45" x="41.5" y="509.8047">Owner</text><line style="stroke:#181818;stroke-width:0.5;" x1="8" x2="94" y1="518.1953" y2="518.1953"/><line style="stroke:#181818;stroke-width:0.5;" x1="8" x2="94" y1="526.1953" y2="526.1953"/></g><!--class Pet--><g id="elem_Pet"><rect codeLine="12" fill="#F1F1F1" height="81.1953" id="Pet" rx="2.5" ry="2.5" style="stroke:#181818;stroke-width:0.5;" width="88" x="141" y="230"/><ellipse cx="156" cy="262.5977" fill="#ADD1B2" rx="11" ry="11" style="stroke:#181818;stroke-width:1.0;"/><path d="M155.1563,263.1445 L155.1563,265.4883 L159.25,265.4883 L159.25,264.6289 Q159.25,264.0508 159.4688,263.8008 Q159.6875,263.5508 160.0469,263.5508 Q160.4063,263.5508 160.625,263.8008 Q160.8438,264.0508 160.8438,264.6289 L160.8438,267.0977 L153.3125,267.0977 Q152.7344,267.0977 152.4844,266.8789 Q152.2344,266.6445 152.2344,266.2852 Q152.2344,265.9414 152.4844,265.7227 Q152.7344,265.4883 153.3125,265.4883 L153.5625,265.4883 L153.5625,259.2227 L153.3125,259.2227 Q152.7344,259.2227 152.4844,259.0039 Q152.2344,258.7852 152.2344,258.4258 Q152.2344,258.0664 152.4844,257.8477 Q152.7344,257.6133 153.3125,257.6133 L160.5,257.6289 L160.5,260.0664 Q160.5,260.6289 160.2813,260.8789 Q160.0625,261.1289 159.7031,261.1289 Q159.3438,261.1289 159.1094,260.8945 Q158.8906,260.6445 158.8906,260.0664 L158.8906,259.2227 L155.1563,259.2227 L155.1563,261.5352 L156.5625,261.5352 Q156.5625,260.9102 156.6875,260.7383 Q156.9219,260.3477 157.375,260.3477 Q157.7188,260.3477 157.9375,260.5977 Q158.1719,260.8477 158.1719,261.4258 L158.1719,263.2695 Q158.1719,263.7852 158.0469,263.9727 Q157.7969,264.332 157.375,264.332 Q156.9219,264.332 156.6875,263.957 Q156.5625,263.7695 156.5625,263.1445 L155.1563,263.1445 Z " fill="#000000"/><text fill="#000000" font-family="Arial" font-size="16" font-weight="bold" lengthAdjust="spacing" textLength="60" x="168" y="250.0078">&#171;entity&#187;</text><text fill="#000000" font-family="Arial" font-size="16" font-weight="bold" lengthAdjust="spacing" textLength="49" x="173.5" y="268.4063">&#171;root&#187;</text><text fill="#000000" font-family="Arial" font-size="16" lengthAdjust="spacing" textLength="24" x="186" y="286.8047">Pet</text><line style="stroke:#181818;stroke-width:0.5;" x1="142" x2="228" y1="295.1953" y2="295.1953"/><line style="stroke:#181818;stroke-width:0.5;" x1="142" x2="228" y1="303.1953" y2="303.1953"/></g><!--class PetType--><g id="elem_PetType"><rect codeLine="14" fill="#F1F1F1" height="62.7969" id="PetType" rx="2.5" ry="2.5" style="stroke:#181818;stroke-width:0.5;" width="90" x="140" y="462"/><ellipse cx="155" cy="485.3984" fill="#ADD1B2" rx="11" ry="11" style="stroke:#181818;stroke-width:1.0;"/><path d="M154.1563,485.9453 L154.1563,488.2891 L158.25,488.2891 L158.25,487.4297 Q158.25,486.8516 158.4688,486.6016 Q158.6875,486.3516 159.0469,486.3516 Q159.4063,486.3516 159.625,486.6016 Q159.8438,486.8516 159.8438,487.4297 L159.8438,489.8984 L152.3125,489.8984 Q151.7344,489.8984 151.4844,489.6797 Q151.2344,489.4453 151.2344,489.0859 Q151.2344,488.7422 151.4844,488.5234 Q151.7344,488.2891 152.3125,488.2891 L152.5625,488.2891 L152.5625,482.0234 L152.3125,482.0234 Q151.7344,482.0234 151.4844,481.8047 Q151.2344,481.5859 151.2344,481.2266 Q151.2344,480.8672 151.4844,480.6484 Q151.7344,480.4141 152.3125,480.4141 L159.5,480.4297 L159.5,482.8672 Q159.5,483.4297 159.2813,483.6797 Q159.0625,483.9297 158.7031,483.9297 Q158.3438,483.9297 158.1094,483.6953 Q157.8906,483.4453 157.8906,482.8672 L157.8906,482.0234 L154.1563,482.0234 L154.1563,484.3359 L155.5625,484.3359 Q155.5625,483.7109 155.6875,483.5391 Q155.9219,483.1484 156.375,483.1484 Q156.7188,483.1484 156.9375,483.3984 Q157.1719,483.6484 157.1719,484.2266 L157.1719,486.0703 Q157.1719,486.5859 157.0469,486.7734 Q156.7969,487.1328 156.375,487.1328 Q155.9219,487.1328 155.6875,486.7578 Q155.5625,486.5703 155.5625,485.9453 L154.1563,485.9453 Z " fill="#000000"/><text fill="#000000" font-family="Arial" font-size="16" font-weight="bold" lengthAdjust="spacing" textLength="60" x="168" y="482.0078">&#171;entity&#187;</text><text fill="#000000" font-family="Arial" font-size="16" lengthAdjust="spacing" textLength="58" x="169" y="500.4063">PetType</text><line style="stroke:#181818;stroke-width:0.5;" x1="141" x2="229" y1="508.7969" y2="508.7969"/><line style="stroke:#181818;stroke-width:0.5;" x1="141" x2="229" y1="516.7969" y2="516.7969"/></g><!--class BirthDate--><g id="elem_BirthDate"><rect codeLine="16" fill="#F1F1F1" height="62.7969" id="BirthDate" rx="2.5" ry="2.5" style="stroke:#181818;stroke-width:0.5;" width="138" x="265" y="462"/><ellipse cx="280" cy="485.3984" fill="#FF8B40" rx="11" ry="11" style="stroke:#181818;stroke-width:1.0;"/><path d="M280.2969,488.5547 L282.625,483.0234 L282.25,483.0234 Q281.6719,483.0234 281.4219,482.8047 Q281.1875,482.5859 281.1875,482.2266 Q281.1875,481.8672 281.4219,481.6484 Q281.6719,481.4141 282.25,481.4141 L284.4063,481.4297 Q284.9844,481.4297 285.2188,481.6484 Q285.4688,481.8672 285.4688,482.2266 Q285.4688,482.6484 285.0938,482.8984 Q284.9219,483.0234 284.3594,483.0234 L281.0781,490.8984 L279.5313,490.8984 L276.25,483.0234 Q275.6875,483.0234 275.5156,482.8984 Q275.125,482.6641 275.125,482.2266 Q275.125,481.8672 275.375,481.6484 Q275.625,481.4141 276.2031,481.4141 L278.375,481.4297 Q278.9375,481.4297 279.1875,481.6484 Q279.4375,481.8672 279.4375,482.2266 Q279.4375,482.5859 279.1875,482.8047 Q278.9531,483.0234 278.375,483.0234 L278,483.0234 L280.2969,488.5547 Z " fill="#000000"/><text fill="#000000" font-family="Arial" font-size="16" font-weight="bold" lengthAdjust="spacing" textLength="110" x="292" y="482.0078">&#171;value object&#187;</text><text fill="#000000" font-family="Arial" font-size="16" lengthAdjust="spacing" textLength="66" x="314" y="500.4063">BirthDate</text><line style="stroke:#181818;stroke-width:0.5;" x1="266" x2="402" y1="508.7969" y2="508.7969"/><line style="stroke:#181818;stroke-width:0.5;" x1="266" x2="402" y1="516.7969" y2="516.7969"/></g><!--class Vet--><g id="elem_Vet"><rect codeLine="20" fill="#F1F1F1" height="81.1953" id="Vet" rx="2.5" ry="2.5" style="stroke:#181818;stroke-width:0.5;" width="88" x="443" y="7"/><ellipse cx="458" cy="39.5977" fill="#ADD1B2" rx="11" ry="11" style="stroke:#181818;stroke-width:1.0;"/><path d="M457.1563,40.1445 L457.1563,42.4883 L461.25,42.4883 L461.25,41.6289 Q461.25,41.0508 461.4688,40.8008 Q461.6875,40.5508 462.0469,40.5508 Q462.4063,40.5508 462.625,40.8008 Q462.8438,41.0508 462.8438,41.6289 L462.8438,44.0977 L455.3125,44.0977 Q454.7344,44.0977 454.4844,43.8789 Q454.2344,43.6445 454.2344,43.2852 Q454.2344,42.9414 454.4844,42.7227 Q454.7344,42.4883 455.3125,42.4883 L455.5625,42.4883 L455.5625,36.2227 L455.3125,36.2227 Q454.7344,36.2227 454.4844,36.0039 Q454.2344,35.7852 454.2344,35.4258 Q454.2344,35.0664 454.4844,34.8477 Q454.7344,34.6133 455.3125,34.6133 L462.5,34.6289 L462.5,37.0664 Q462.5,37.6289 462.2813,37.8789 Q462.0625,38.1289 461.7031,38.1289 Q461.3438,38.1289 461.1094,37.8945 Q460.8906,37.6445 460.8906,37.0664 L460.8906,36.2227 L457.1563,36.2227 L457.1563,38.5352 L458.5625,38.5352 Q458.5625,37.9102 458.6875,37.7383 Q458.9219,37.3477 459.375,37.3477 Q459.7188,37.3477 459.9375,37.5977 Q460.1719,37.8477 460.1719,38.4258 L460.1719,40.2695 Q460.1719,40.7852 460.0469,40.9727 Q459.7969,41.332 459.375,41.332 Q458.9219,41.332 458.6875,40.957 Q458.5625,40.7695 458.5625,40.1445 L457.1563,40.1445 Z " fill="#000000"/><text fill="#000000" font-family="Arial" font-size="16" font-weight="bold" lengthAdjust="spacing" textLength="60" x="470" y="27.0078">&#171;entity&#187;</text><text fill="#000000" font-family="Arial" font-size="16" font-weight="bold" lengthAdjust="spacing" textLength="49" x="475.5" y="45.4063">&#171;root&#187;</text><text fill="#000000" font-family="Arial" font-size="16" lengthAdjust="spacing" textLength="24" x="488" y="63.8047">Vet</text><line style="stroke:#181818;stroke-width:0.5;" x1="444" x2="530" y1="72.1953" y2="72.1953"/><line style="stroke:#181818;stroke-width:0.5;" x1="444" x2="530" y1="80.1953" y2="80.1953"/></g><!--class Speciality--><g id="elem_Speciality"><rect codeLine="22" fill="#F1F1F1" height="62.7969" id="Speciality" rx="2.5" ry="2.5" style="stroke:#181818;stroke-width:0.5;" width="100" x="437" y="239"/><ellipse cx="452" cy="262.3984" fill="#ADD1B2" rx="11" ry="11" style="stroke:#181818;stroke-width:1.0;"/><path d="M451.1563,262.9453 L451.1563,265.2891 L455.25,265.2891 L455.25,264.4297 Q455.25,263.8516 455.4688,263.6016 Q455.6875,263.3516 456.0469,263.3516 Q456.4063,263.3516 456.625,263.6016 Q456.8438,263.8516 456.8438,264.4297 L456.8438,266.8984 L449.3125,266.8984 Q448.7344,266.8984 448.4844,266.6797 Q448.2344,266.4453 448.2344,266.0859 Q448.2344,265.7422 448.4844,265.5234 Q448.7344,265.2891 449.3125,265.2891 L449.5625,265.2891 L449.5625,259.0234 L449.3125,259.0234 Q448.7344,259.0234 448.4844,258.8047 Q448.2344,258.5859 448.2344,258.2266 Q448.2344,257.8672 448.4844,257.6484 Q448.7344,257.4141 449.3125,257.4141 L456.5,257.4297 L456.5,259.8672 Q456.5,260.4297 456.2813,260.6797 Q456.0625,260.9297 455.7031,260.9297 Q455.3438,260.9297 455.1094,260.6953 Q454.8906,260.4453 454.8906,259.8672 L454.8906,259.0234 L451.1563,259.0234 L451.1563,261.3359 L452.5625,261.3359 Q452.5625,260.7109 452.6875,260.5391 Q452.9219,260.1484 453.375,260.1484 Q453.7188,260.1484 453.9375,260.3984 Q454.1719,260.6484 454.1719,261.2266 L454.1719,263.0703 Q454.1719,263.5859 454.0469,263.7734 Q453.7969,264.1328 453.375,264.1328 Q452.9219,264.1328 452.6875,263.7578 Q452.5625,263.5703 452.5625,262.9453 L451.1563,262.9453 Z " fill="#000000"/><text fill="#000000" font-family="Arial" font-size="16" font-weight="bold" lengthAdjust="spacing" textLength="60" x="470" y="259.0078">&#171;entity&#187;</text><text fill="#000000" font-family="Arial" font-size="16" lengthAdjust="spacing" textLength="68" x="466" y="277.4063">Speciality</text><line style="stroke:#181818;stroke-width:0.5;" x1="438" x2="536" y1="285.7969" y2="285.7969"/><line style="stroke:#181818;stroke-width:0.5;" x1="438" x2="536" y1="293.7969" y2="293.7969"/></g><!--class Visit--><g id="elem_Visit"><rect codeLine="25" fill="#F1F1F1" height="81.1953" id="Visit" rx="2.5" ry="2.5" style="stroke:#181818;stroke-width:0.5;" width="88" x="217" y="7"/><ellipse cx="232" cy="39.5977" fill="#ADD1B2" rx="11" ry="11" style="stroke:#181818;stroke-width:1.0;"/><path d="M231.1563,40.1445 L231.1563,42.4883 L235.25,42.4883 L235.25,41.6289 Q235.25,41.0508 235.4688,40.8008 Q235.6875,40.5508 236.0469,40.5508 Q236.4063,40.5508 236.625,40.8008 Q236.8438,41.0508 236.8438,41.6289 L236.8438,44.0977 L229.3125,44.0977 Q228.7344,44.0977 228.4844,43.8789 Q228.2344,43.6445 228.2344,43.2852 Q228.2344,42.9414 228.4844,42.7227 Q228.7344,42.4883 229.3125,42.4883 L229.5625,42.4883 L229.5625,36.2227 L229.3125,36.2227 Q228.7344,36.2227 228.4844,36.0039 Q228.2344,35.7852 228.2344,35.4258 Q228.2344,35.0664 228.4844,34.8477 Q228.7344,34.6133 229.3125,34.6133 L236.5,34.6289 L236.5,37.0664 Q236.5,37.6289 236.2813,37.8789 Q236.0625,38.1289 235.7031,38.1289 Q235.3438,38.1289 235.1094,37.8945 Q234.8906,37.6445 234.8906,37.0664 L234.8906,36.2227 L231.1563,36.2227 L231.1563,38.5352 L232.5625,38.5352 Q232.5625,37.9102 232.6875,37.7383 Q232.9219,37.3477 233.375,37.3477 Q233.7188,37.3477 233.9375,37.5977 Q234.1719,37.8477 234.1719,38.4258 L234.1719,40.2695 Q234.1719,40.7852 234.0469,40.9727 Q233.7969,41.332 233.375,41.332 Q232.9219,41.332 232.6875,40.957 Q232.5625,40.7695 232.5625,40.1445 L231.1563,40.1445 Z " fill="#000000"/><text fill="#000000" font-family="Arial" font-size="16" font-weight="bold" lengthAdjust="spacing" textLength="60" x="244" y="27.0078">&#171;entity&#187;</text><text fill="#000000" font-family="Arial" font-size="16" font-weight="bold" lengthAdjust="spacing" textLength="49" x="249.5" y="45.4063">&#171;root&#187;</text><text fill="#000000" font-family="Arial" font-size="16" lengthAdjust="spacing" textLength="31" x="258.5" y="63.8047">Visit</text><line style="stroke:#181818;stroke-width:0.5;" x1="218" x2="304" y1="72.1953" y2="72.1953"/><line style="stroke:#181818;stroke-width:0.5;" x1="218" x2="304" y1="80.1953" y2="80.1953"/></g><!--class VisitDate--><g id="elem_VisitDate"><rect codeLine="27" fill="#F1F1F1" height="62.7969" id="VisitDate" rx="2.5" ry="2.5" style="stroke:#181818;stroke-width:0.5;" width="138" x="264" y="239"/><ellipse cx="279" cy="262.3984" fill="#FF8B40" rx="11" ry="11" style="stroke:#181818;stroke-width:1.0;"/><path d="M279.2969,265.5547 L281.625,260.0234 L281.25,260.0234 Q280.6719,260.0234 280.4219,259.8047 Q280.1875,259.5859 280.1875,259.2266 Q280.1875,258.8672 280.4219,258.6484 Q280.6719,258.4141 281.25,258.4141 L283.4063,258.4297 Q283.9844,258.4297 284.2188,258.6484 Q284.4688,258.8672 284.4688,259.2266 Q284.4688,259.6484 284.0938,259.8984 Q283.9219,260.0234 283.3594,260.0234 L280.0781,267.8984 L278.5313,267.8984 L275.25,260.0234 Q274.6875,260.0234 274.5156,259.8984 Q274.125,259.6641 274.125,259.2266 Q274.125,258.8672 274.375,258.6484 Q274.625,258.4141 275.2031,258.4141 L277.375,258.4297 Q277.9375,258.4297 278.1875,258.6484 Q278.4375,258.8672 278.4375,259.2266 Q278.4375,259.5859 278.1875,259.8047 Q277.9531,260.0234 277.375,260.0234 L277,260.0234 L279.2969,265.5547 Z " fill="#000000"/><text fill="#000000" font-family="Arial" font-size="16" font-weight="bold" lengthAdjust="spacing" textLength="110" x="291" y="259.0078">&#171;value object&#187;</text><text fill="#000000" font-family="Arial" font-size="16" lengthAdjust="spacing" textLength="65" x="313.5" y="277.4063">VisitDate</text><line style="stroke:#181818;stroke-width:0.5;" x1="265" x2="401" y1="285.7969" y2="285.7969"/><line style="stroke:#181818;stroke-width:0.5;" x1="265" x2="401" y1="293.7969" y2="293.7969"/></g><!--link Pet to PetType--><g id="link_Pet_PetType"><path codeLine="30" d="M185,311.01 C185,354.22 185,416.53 185,455.87 " fill="none" id="Pet-to-PetType" style="stroke:#181818;stroke-width:2.5;"/><polygon fill="#181818" points="185,461.87,189,452.87,185,456.87,181,452.87,185,461.87" style="stroke:#181818;stroke-width:2.5;"/><text fill="#000000" font-family="Arial" font-size="16" lengthAdjust="spacing" textLength="55" x="186" y="388.0078">belongs</text><text fill="#000000" font-family="Arial" font-size="16" lengthAdjust="spacing" textLength="6" x="178.5031" y="334.2347">*</text><text fill="#000000" font-family="Arial" font-size="16" lengthAdjust="spacing" textLength="9" x="175.0719" y="450.5599">1</text></g><!--reverse link Pet to BirthDate--><g id="link_Pet_BirthDate"><path codeLine="31" d="M218.3479,320.9601 C247.4779,364.1701 286.83,422.53 313.35,461.87 " fill="none" id="Pet-backto-BirthDate" style="stroke:#181818;stroke-width:2.5;"/><polygon fill="none" points="211.64,311.01,211.6772,318.221,218.3479,320.9601,218.3106,313.7491,211.64,311.01" style="stroke:#181818;stroke-width:2.5;"/><text fill="#000000" font-family="Arial" font-size="16" lengthAdjust="spacing" textLength="25" x="267" y="388.0078">has</text><text fill="#000000" font-family="Arial" font-size="16" lengthAdjust="spacing" textLength="9" x="206.3069" y="334.2347">1</text><text fill="#000000" font-family="Arial" font-size="16" lengthAdjust="spacing" textLength="9" x="299.1628" y="450.5599">1</text></g><!--reverse link Visit to VisitDate--><g id="link_Visit_VisitDate"><path codeLine="32" d="M277.5878,99.4196 C291.6678,142.6296 310.21,199.53 323.02,238.87 " fill="none" id="Visit-backto-VisitDate" style="stroke:#181818;stroke-width:2.5;"/><polygon fill="none" points="273.87,88.01,271.9257,94.954,277.5878,99.4196,279.5321,92.4755,273.87,88.01" style="stroke:#181818;stroke-width:2.5;"/><text fill="#000000" font-family="Arial" font-size="16" lengthAdjust="spacing" textLength="25" x="301" y="165.0078">has</text><text fill="#000000" font-family="Arial" font-size="16" lengthAdjust="spacing" textLength="9" x="266.2563" y="111.2347">1</text><text fill="#000000" font-family="Arial" font-size="16" lengthAdjust="spacing" textLength="9" x="311.0335" y="227.5599">1</text></g><!--link Vet to Speciality--><g id="link_Vet_Speciality"><path codeLine="33" d="M487,88.01 C487,131.22 487,193.53 487,232.87 " fill="none" id="Vet-to-Speciality" style="stroke:#181818;stroke-width:2.5;"/><polygon fill="#181818" points="487,238.87,491,229.87,487,233.87,483,229.87,487,238.87" style="stroke:#181818;stroke-width:2.5;"/><text fill="#000000" font-family="Arial" font-size="16" lengthAdjust="spacing" textLength="76" x="488" y="165.0078">possesses</text><text fill="#000000" font-family="Arial" font-size="16" lengthAdjust="spacing" textLength="6" x="480.5031" y="111.2347">*</text><text fill="#000000" font-family="Arial" font-size="16" lengthAdjust="spacing" textLength="6" x="480.3813" y="227.5599">*</text></g><!--link Pet to Owner--><g id="link_Pet_Owner"><path codeLine="34" d="M154.54,311.17 C141.15,329.3 125.64,351.3 113,372 C96.99,398.2 81.19,429 69.55,452.9 " fill="none" id="Pet-Owner" style="stroke:#181818;stroke-width:2.5;"/><polygon fill="#000000" points="115.9143,387.3449,124.521,379.85,118.4718,376.2225,115.9143,387.3449" style="stroke:#000000;stroke-width:1.0;"/><text fill="#000000" font-family="Arial" font-size="16" lengthAdjust="spacing" textLength="46" x="130" y="388.0078">owned</text><text fill="#000000" font-family="Arial" font-size="16" lengthAdjust="spacing" textLength="6" x="143.2073" y="334.1102">*</text><text fill="#000000" font-family="Arial" font-size="16" lengthAdjust="spacing" textLength="9" x="62.877" y="441.7096">1</text></g><!--link Visit to Pet--><g id="link_Visit_Pet"><path codeLine="35" d="M240.12,88.31 C231.19,106.47 221.19,128.46 214,149 C204.76,175.4 197.42,206.06 192.44,229.85 " fill="none" id="Visit-Pet" style="stroke:#181818;stroke-width:2.5;"/><polygon fill="#000000" points="218.0846,164.8853,224.8918,155.725,218.2074,153.4732,218.0846,164.8853" style="stroke:#000000;stroke-width:1.0;"/><text fill="#000000" font-family="Arial" font-size="16" lengthAdjust="spacing" textLength="55" x="231" y="165.0078">belongs</text><text fill="#000000" font-family="Arial" font-size="16" lengthAdjust="spacing" textLength="6" x="230.3141" y="111.2725">*</text><text fill="#000000" font-family="Arial" font-size="16" lengthAdjust="spacing" textLength="9" x="183.9269" y="218.6514">1</text></g><!--SRC=[ZP5TIyCm58Rl-okEzS8Fh3XHaL826wENAcpiFksEDYxBAKdcgE9_DqtjnyIY8P1JtgVdVKzYDaALNFCjpF6PxwHDITa7laMOQi5bO7xJ5-8TON8t8jfA8cGarmDzgZNjbuN8DmgDWUlBs-3ao1ReV2nLWLkehB0LFEuLQaYIvfEn9D54bZ7u-EoX9xHZI4yign87b5TpoPtxJ6XRpBcjvTFLnN6QtizkhixWZSiT0cMlc7UERSFLdvQB4dDtOtNvmxNh8OmOxT94yyW_ezMt49w744KHWt0IjaF7aA4azM8QmWda45zqayTGS1CqWGw8Bi0tSU3XYdxA64eo1kizZEAx-5UCWTon1jRw303tGnVJ0Ly0]--></g></svg>