<?xml version="1.0" encoding="us-ascii" standalone="no"?><svg xmlns="http://www.w3.org/2000/svg" xmlns:xlink="http://www.w3.org/1999/xlink" contentStyleType="text/css" height="442px" preserveAspectRatio="none" style="width:541px;height:442px;background:#FFFFFF;" version="1.1" viewBox="0 0 541 442" width="541px" zoomAndPan="magnify"><defs/><g><!--class Owner--><g id="elem_Owner"><rect codeLine="9" fill="#F1F1F1" height="48" id="Owner" rx="2.5" ry="2.5" style="stroke:#181818;stroke-width:0.5;" width="77" x="7" y="387"/><ellipse cx="22" cy="403" fill="#ADD1B2" rx="11" ry="11" style="stroke:#181818;stroke-width:1.0;"/><path d="M24.5625,398.9375 Q24.7188,398.7344 24.8906,398.6406 Q25.0625,398.5313 25.2656,398.5313 Q25.625,398.5313 25.8438,398.7813 Q26.0625,399.0156 26.0625,399.5938 L26.0625,400.9531 Q26.0625,401.5313 25.8438,401.7813 Q25.625,402.0156 25.2656,402.0156 Q24.9531,402.0156 24.75,401.8438 Q24.5625,401.6563 24.4688,401.1719 Q24.4063,400.8438 24.25,400.6563 Q23.9219,400.3125 23.3438,400.1094 Q22.7813,399.8906 22.2031,399.8906 Q21.4844,399.8906 20.875,400.2031 Q20.2813,400.5156 19.8125,401.2188 Q19.3594,401.9219 19.3594,402.8906 L19.3594,403.9219 Q19.3594,405.0781 20.1875,405.8594 Q21.0313,406.625 22.5313,406.625 Q23.4219,406.625 24.0313,406.3906 Q24.3906,406.25 24.7969,405.8281 Q25.0469,405.5781 25.1875,405.5156 Q25.3281,405.4375 25.5156,405.4375 Q25.8281,405.4375 26.0625,405.6875 Q26.3125,405.9219 26.3125,406.25 Q26.3125,406.5781 25.9844,406.9531 Q25.5156,407.5 24.7656,407.8125 Q23.75,408.2344 22.5313,408.2344 Q21.1094,408.2344 19.9688,407.6406 Q19.0469,407.1719 18.3906,406.1719 Q17.75,405.1563 17.75,403.9531 L17.75,402.875 Q17.75,401.625 18.3281,400.5469 Q18.9219,399.4531 19.9531,398.875 Q20.9844,398.2813 22.1406,398.2813 Q22.8281,398.2813 23.4375,398.4531 Q24.0469,398.6094 24.5625,398.9375 Z " fill="#000000"/><text fill="#000000" font-family="Arial" font-size="16" lengthAdjust="spacing" textLength="45" x="36" y="408.8086">Owner</text><line style="stroke:#181818;stroke-width:0.5;" x1="8" x2="83" y1="419" y2="419"/><line style="stroke:#181818;stroke-width:0.5;" x1="8" x2="83" y1="427" y2="427"/></g><!--class Pet--><g id="elem_Pet"><rect codeLine="12" fill="#F1F1F1" height="48" id="Pet" rx="2.5" ry="2.5" style="stroke:#181818;stroke-width:0.5;" width="56" x="151.5" y="197"/><ellipse cx="166.5" cy="213" fill="#ADD1B2" rx="11" ry="11" style="stroke:#181818;stroke-width:1.0;"/><path d="M169.0625,208.9375 Q169.2188,208.7344 169.3906,208.6406 Q169.5625,208.5313 169.7656,208.5313 Q170.125,208.5313 170.3438,208.7813 Q170.5625,209.0156 170.5625,209.5938 L170.5625,210.9531 Q170.5625,211.5313 170.3438,211.7813 Q170.125,212.0156 169.7656,212.0156 Q169.4531,212.0156 169.25,211.8438 Q169.0625,211.6563 168.9688,211.1719 Q168.9063,210.8438 168.75,210.6563 Q168.4219,210.3125 167.8438,210.1094 Q167.2813,209.8906 166.7031,209.8906 Q165.9844,209.8906 165.375,210.2031 Q164.7813,210.5156 164.3125,211.2188 Q163.8594,211.9219 163.8594,212.8906 L163.8594,213.9219 Q163.8594,215.0781 164.6875,215.8594 Q165.5313,216.625 167.0313,216.625 Q167.9219,216.625 168.5313,216.3906 Q168.8906,216.25 169.2969,215.8281 Q169.5469,215.5781 169.6875,215.5156 Q169.8281,215.4375 170.0156,215.4375 Q170.3281,215.4375 170.5625,215.6875 Q170.8125,215.9219 170.8125,216.25 Q170.8125,216.5781 170.4844,216.9531 Q170.0156,217.5 169.2656,217.8125 Q168.25,218.2344 167.0313,218.2344 Q165.6094,218.2344 164.4688,217.6406 Q163.5469,217.1719 162.8906,216.1719 Q162.25,215.1563 162.25,213.9531 L162.25,212.875 Q162.25,211.625 162.8281,210.5469 Q163.4219,209.4531 164.4531,208.875 Q165.4844,208.2813 166.6406,208.2813 Q167.3281,208.2813 167.9375,208.4531 Q168.5469,208.6094 169.0625,208.9375 Z " fill="#000000"/><text fill="#000000" font-family="Arial" font-size="16" lengthAdjust="spacing" textLength="24" x="180.5" y="218.8086">Pet</text><line style="stroke:#181818;stroke-width:0.5;" x1="152.5" x2="206.5" y1="229" y2="229"/><line style="stroke:#181818;stroke-width:0.5;" x1="152.5" x2="206.5" y1="237" y2="237"/></g><!--class PetType--><g id="elem_PetType"><rect codeLine="14" fill="#F1F1F1" height="48" id="PetType" rx="2.5" ry="2.5" style="stroke:#181818;stroke-width:0.5;" width="90" x="134.5" y="387"/><ellipse cx="149.5" cy="403" fill="#ADD1B2" rx="11" ry="11" style="stroke:#181818;stroke-width:1.0;"/><path d="M152.0625,398.9375 Q152.2188,398.7344 152.3906,398.6406 Q152.5625,398.5313 152.7656,398.5313 Q153.125,398.5313 153.3438,398.7813 Q153.5625,399.0156 153.5625,399.5938 L153.5625,400.9531 Q153.5625,401.5313 153.3438,401.7813 Q153.125,402.0156 152.7656,402.0156 Q152.4531,402.0156 152.25,401.8438 Q152.0625,401.6563 151.9688,401.1719 Q151.9063,400.8438 151.75,400.6563 Q151.4219,400.3125 150.8438,400.1094 Q150.2813,399.8906 149.7031,399.8906 Q148.9844,399.8906 148.375,400.2031 Q147.7813,400.5156 147.3125,401.2188 Q146.8594,401.9219 146.8594,402.8906 L146.8594,403.9219 Q146.8594,405.0781 147.6875,405.8594 Q148.5313,406.625 150.0313,406.625 Q150.9219,406.625 151.5313,406.3906 Q151.8906,406.25 152.2969,405.8281 Q152.5469,405.5781 152.6875,405.5156 Q152.8281,405.4375 153.0156,405.4375 Q153.3281,405.4375 153.5625,405.6875 Q153.8125,405.9219 153.8125,406.25 Q153.8125,406.5781 153.4844,406.9531 Q153.0156,407.5 152.2656,407.8125 Q151.25,408.2344 150.0313,408.2344 Q148.6094,408.2344 147.4688,407.6406 Q146.5469,407.1719 145.8906,406.1719 Q145.25,405.1563 145.25,403.9531 L145.25,402.875 Q145.25,401.625 145.8281,400.5469 Q146.4219,399.4531 147.4531,398.875 Q148.4844,398.2813 149.6406,398.2813 Q150.3281,398.2813 150.9375,398.4531 Q151.5469,398.6094 152.0625,398.9375 Z " fill="#000000"/><text fill="#000000" font-family="Arial" font-size="16" lengthAdjust="spacing" textLength="58" x="163.5" y="408.8086">PetType</text><line style="stroke:#181818;stroke-width:0.5;" x1="135.5" x2="223.5" y1="419" y2="419"/><line style="stroke:#181818;stroke-width:0.5;" x1="135.5" x2="223.5" y1="427" y2="427"/></g><!--class BirthDate--><g id="elem_BirthDate"><rect codeLine="16" fill="#F1F1F1" height="48" id="BirthDate" rx="2.5" ry="2.5" style="stroke:#181818;stroke-width:0.5;" width="98" x="259.5" y="387"/><ellipse cx="274.5" cy="403" fill="#ADD1B2" rx="11" ry="11" style="stroke:#181818;stroke-width:1.0;"/><path d="M277.0625,398.9375 Q277.2188,398.7344 277.3906,398.6406 Q277.5625,398.5313 277.7656,398.5313 Q278.125,398.5313 278.3438,398.7813 Q278.5625,399.0156 278.5625,399.5938 L278.5625,400.9531 Q278.5625,401.5313 278.3438,401.7813 Q278.125,402.0156 277.7656,402.0156 Q277.4531,402.0156 277.25,401.8438 Q277.0625,401.6563 276.9688,401.1719 Q276.9063,400.8438 276.75,400.6563 Q276.4219,400.3125 275.8438,400.1094 Q275.2813,399.8906 274.7031,399.8906 Q273.9844,399.8906 273.375,400.2031 Q272.7813,400.5156 272.3125,401.2188 Q271.8594,401.9219 271.8594,402.8906 L271.8594,403.9219 Q271.8594,405.0781 272.6875,405.8594 Q273.5313,406.625 275.0313,406.625 Q275.9219,406.625 276.5313,406.3906 Q276.8906,406.25 277.2969,405.8281 Q277.5469,405.5781 277.6875,405.5156 Q277.8281,405.4375 278.0156,405.4375 Q278.3281,405.4375 278.5625,405.6875 Q278.8125,405.9219 278.8125,406.25 Q278.8125,406.5781 278.4844,406.9531 Q278.0156,407.5 277.2656,407.8125 Q276.25,408.2344 275.0313,408.2344 Q273.6094,408.2344 272.4688,407.6406 Q271.5469,407.1719 270.8906,406.1719 Q270.25,405.1563 270.25,403.9531 L270.25,402.875 Q270.25,401.625 270.8281,400.5469 Q271.4219,399.4531 272.4531,398.875 Q273.4844,398.2813 274.6406,398.2813 Q275.3281,398.2813 275.9375,398.4531 Q276.5469,398.6094 277.0625,398.9375 Z " fill="#000000"/><text fill="#000000" font-family="Arial" font-size="16" lengthAdjust="spacing" textLength="66" x="288.5" y="408.8086">BirthDate</text><line style="stroke:#181818;stroke-width:0.5;" x1="260.5" x2="356.5" y1="419" y2="419"/><line style="stroke:#181818;stroke-width:0.5;" x1="260.5" x2="356.5" y1="427" y2="427"/></g><!--class Vet--><g id="elem_Vet"><rect codeLine="20" fill="#F1F1F1" height="48" id="Vet" rx="2.5" ry="2.5" style="stroke:#181818;stroke-width:0.5;" width="56" x="428.5" y="7"/><ellipse cx="443.5" cy="23" fill="#ADD1B2" rx="11" ry="11" style="stroke:#181818;stroke-width:1.0;"/><path d="M446.0625,18.9375 Q446.2188,18.7344 446.3906,18.6406 Q446.5625,18.5313 446.7656,18.5313 Q447.125,18.5313 447.3438,18.7813 Q447.5625,19.0156 447.5625,19.5938 L447.5625,20.9531 Q447.5625,21.5313 447.3438,21.7813 Q447.125,22.0156 446.7656,22.0156 Q446.4531,22.0156 446.25,21.8438 Q446.0625,21.6563 445.9688,21.1719 Q445.9063,20.8438 445.75,20.6563 Q445.4219,20.3125 444.8438,20.1094 Q444.2813,19.8906 443.7031,19.8906 Q442.9844,19.8906 442.375,20.2031 Q441.7813,20.5156 441.3125,21.2188 Q440.8594,21.9219 440.8594,22.8906 L440.8594,23.9219 Q440.8594,25.0781 441.6875,25.8594 Q442.5313,26.625 444.0313,26.625 Q444.9219,26.625 445.5313,26.3906 Q445.8906,26.25 446.2969,25.8281 Q446.5469,25.5781 446.6875,25.5156 Q446.8281,25.4375 447.0156,25.4375 Q447.3281,25.4375 447.5625,25.6875 Q447.8125,25.9219 447.8125,26.25 Q447.8125,26.5781 447.4844,26.9531 Q447.0156,27.5 446.2656,27.8125 Q445.25,28.2344 444.0313,28.2344 Q442.6094,28.2344 441.4688,27.6406 Q440.5469,27.1719 439.8906,26.1719 Q439.25,25.1563 439.25,23.9531 L439.25,22.875 Q439.25,21.625 439.8281,20.5469 Q440.4219,19.4531 441.4531,18.875 Q442.4844,18.2813 443.6406,18.2813 Q444.3281,18.2813 444.9375,18.4531 Q445.5469,18.6094 446.0625,18.9375 Z " fill="#000000"/><text fill="#000000" font-family="Arial" font-size="16" lengthAdjust="spacing" textLength="24" x="457.5" y="28.8086">Vet</text><line style="stroke:#181818;stroke-width:0.5;" x1="429.5" x2="483.5" y1="39" y2="39"/><line style="stroke:#181818;stroke-width:0.5;" x1="429.5" x2="483.5" y1="47" y2="47"/></g><!--class Speciality--><g id="elem_Speciality"><rect codeLine="22" fill="#F1F1F1" height="48" id="Speciality" rx="2.5" ry="2.5" style="stroke:#181818;stroke-width:0.5;" width="100" x="406.5" y="197"/><ellipse cx="421.5" cy="213" fill="#ADD1B2" rx="11" ry="11" style="stroke:#181818;stroke-width:1.0;"/><path d="M424.0625,208.9375 Q424.2188,208.7344 424.3906,208.6406 Q424.5625,208.5313 424.7656,208.5313 Q425.125,208.5313 425.3438,208.7813 Q425.5625,209.0156 425.5625,209.5938 L425.5625,210.9531 Q425.5625,211.5313 425.3438,211.7813 Q425.125,212.0156 424.7656,212.0156 Q424.4531,212.0156 424.25,211.8438 Q424.0625,211.6563 423.9688,211.1719 Q423.9063,210.8438 423.75,210.6563 Q423.4219,210.3125 422.8438,210.1094 Q422.2813,209.8906 421.7031,209.8906 Q420.9844,209.8906 420.375,210.2031 Q419.7813,210.5156 419.3125,211.2188 Q418.8594,211.9219 418.8594,212.8906 L418.8594,213.9219 Q418.8594,215.0781 419.6875,215.8594 Q420.5313,216.625 422.0313,216.625 Q422.9219,216.625 423.5313,216.3906 Q423.8906,216.25 424.2969,215.8281 Q424.5469,215.5781 424.6875,215.5156 Q424.8281,215.4375 425.0156,215.4375 Q425.3281,215.4375 425.5625,215.6875 Q425.8125,215.9219 425.8125,216.25 Q425.8125,216.5781 425.4844,216.9531 Q425.0156,217.5 424.2656,217.8125 Q423.25,218.2344 422.0313,218.2344 Q420.6094,218.2344 419.4688,217.6406 Q418.5469,217.1719 417.8906,216.1719 Q417.25,215.1563 417.25,213.9531 L417.25,212.875 Q417.25,211.625 417.8281,210.5469 Q418.4219,209.4531 419.4531,208.875 Q420.4844,208.2813 421.6406,208.2813 Q422.3281,208.2813 422.9375,208.4531 Q423.5469,208.6094 424.0625,208.9375 Z " fill="#000000"/><text fill="#000000" font-family="Arial" font-size="16" lengthAdjust="spacing" textLength="68" x="435.5" y="218.8086">Speciality</text><line style="stroke:#181818;stroke-width:0.5;" x1="407.5" x2="505.5" y1="229" y2="229"/><line style="stroke:#181818;stroke-width:0.5;" x1="407.5" x2="505.5" y1="237" y2="237"/></g><!--class Visit--><g id="elem_Visit"><rect codeLine="25" fill="#F1F1F1" height="48" id="Visit" rx="2.5" ry="2.5" style="stroke:#181818;stroke-width:0.5;" width="63" x="220" y="7"/><ellipse cx="235" cy="23" fill="#ADD1B2" rx="11" ry="11" style="stroke:#181818;stroke-width:1.0;"/><path d="M237.5625,18.9375 Q237.7188,18.7344 237.8906,18.6406 Q238.0625,18.5313 238.2656,18.5313 Q238.625,18.5313 238.8438,18.7813 Q239.0625,19.0156 239.0625,19.5938 L239.0625,20.9531 Q239.0625,21.5313 238.8438,21.7813 Q238.625,22.0156 238.2656,22.0156 Q237.9531,22.0156 237.75,21.8438 Q237.5625,21.6563 237.4688,21.1719 Q237.4063,20.8438 237.25,20.6563 Q236.9219,20.3125 236.3438,20.1094 Q235.7813,19.8906 235.2031,19.8906 Q234.4844,19.8906 233.875,20.2031 Q233.2813,20.5156 232.8125,21.2188 Q232.3594,21.9219 232.3594,22.8906 L232.3594,23.9219 Q232.3594,25.0781 233.1875,25.8594 Q234.0313,26.625 235.5313,26.625 Q236.4219,26.625 237.0313,26.3906 Q237.3906,26.25 237.7969,25.8281 Q238.0469,25.5781 238.1875,25.5156 Q238.3281,25.4375 238.5156,25.4375 Q238.8281,25.4375 239.0625,25.6875 Q239.3125,25.9219 239.3125,26.25 Q239.3125,26.5781 238.9844,26.9531 Q238.5156,27.5 237.7656,27.8125 Q236.75,28.2344 235.5313,28.2344 Q234.1094,28.2344 232.9688,27.6406 Q232.0469,27.1719 231.3906,26.1719 Q230.75,25.1563 230.75,23.9531 L230.75,22.875 Q230.75,21.625 231.3281,20.5469 Q231.9219,19.4531 232.9531,18.875 Q233.9844,18.2813 235.1406,18.2813 Q235.8281,18.2813 236.4375,18.4531 Q237.0469,18.6094 237.5625,18.9375 Z " fill="#000000"/><text fill="#000000" font-family="Arial" font-size="16" lengthAdjust="spacing" textLength="31" x="249" y="28.8086">Visit</text><line style="stroke:#181818;stroke-width:0.5;" x1="221" x2="282" y1="39" y2="39"/><line style="stroke:#181818;stroke-width:0.5;" x1="221" x2="282" y1="47" y2="47"/></g><!--class VisitDate--><g id="elem_VisitDate"><rect codeLine="27" fill="#F1F1F1" height="48" id="VisitDate" rx="2.5" ry="2.5" style="stroke:#181818;stroke-width:0.5;" width="97" x="274" y="197"/><ellipse cx="289" cy="213" fill="#ADD1B2" rx="11" ry="11" style="stroke:#181818;stroke-width:1.0;"/><path d="M291.5625,208.9375 Q291.7188,208.7344 291.8906,208.6406 Q292.0625,208.5313 292.2656,208.5313 Q292.625,208.5313 292.8438,208.7813 Q293.0625,209.0156 293.0625,209.5938 L293.0625,210.9531 Q293.0625,211.5313 292.8438,211.7813 Q292.625,212.0156 292.2656,212.0156 Q291.9531,212.0156 291.75,211.8438 Q291.5625,211.6563 291.4688,211.1719 Q291.4063,210.8438 291.25,210.6563 Q290.9219,210.3125 290.3438,210.1094 Q289.7813,209.8906 289.2031,209.8906 Q288.4844,209.8906 287.875,210.2031 Q287.2813,210.5156 286.8125,211.2188 Q286.3594,211.9219 286.3594,212.8906 L286.3594,213.9219 Q286.3594,215.0781 287.1875,215.8594 Q288.0313,216.625 289.5313,216.625 Q290.4219,216.625 291.0313,216.3906 Q291.3906,216.25 291.7969,215.8281 Q292.0469,215.5781 292.1875,215.5156 Q292.3281,215.4375 292.5156,215.4375 Q292.8281,215.4375 293.0625,215.6875 Q293.3125,215.9219 293.3125,216.25 Q293.3125,216.5781 292.9844,216.9531 Q292.5156,217.5 291.7656,217.8125 Q290.75,218.2344 289.5313,218.2344 Q288.1094,218.2344 286.9688,217.6406 Q286.0469,217.1719 285.3906,216.1719 Q284.75,215.1563 284.75,213.9531 L284.75,212.875 Q284.75,211.625 285.3281,210.5469 Q285.9219,209.4531 286.9531,208.875 Q287.9844,208.2813 289.1406,208.2813 Q289.8281,208.2813 290.4375,208.4531 Q291.0469,208.6094 291.5625,208.9375 Z " fill="#000000"/><text fill="#000000" font-family="Arial" font-size="16" lengthAdjust="spacing" textLength="65" x="303" y="218.8086">VisitDate</text><line style="stroke:#181818;stroke-width:0.5;" x1="275" x2="370" y1="229" y2="229"/><line style="stroke:#181818;stroke-width:0.5;" x1="275" x2="370" y1="237" y2="237"/></g><!--link Pet to PetType--><g id="link_Pet_PetType"><path codeLine="30" d="M179.5,245.05 C179.5,281.13 179.5,344.56 179.5,380.76 " fill="none" id="Pet-to-PetType" style="stroke:#181818;stroke-width:2.5;"/><polygon fill="#181818" points="179.5,386.76,183.5,377.76,179.5,381.76,175.5,377.76,179.5,386.76" style="stroke:#181818;stroke-width:2.5;"/><text fill="#000000" font-family="Arial" font-size="16" lengthAdjust="spacing" textLength="55" x="180.5" y="322.0078">belongs</text><text fill="#000000" font-family="Arial" font-size="16" lengthAdjust="spacing" textLength="6" x="172.7688" y="268.1623">*</text><text fill="#000000" font-family="Arial" font-size="16" lengthAdjust="spacing" textLength="9" x="169.4031" y="375.7141">1</text></g><!--reverse link Pet to BirthDate--><g id="link_Pet_BirthDate"><path codeLine="31" d="M205.9176,254.3834 C219.2676,270.9934 229.81,284.77 244.5,306 C263.19,333.03 282.71,365.45 295.2,386.83 " fill="none" id="Pet-backto-BirthDate" style="stroke:#181818;stroke-width:2.5;"/><polygon fill="none" points="198.4,245.03,199.041,252.2126,205.9176,254.3834,205.2766,247.2008,198.4,245.03" style="stroke:#181818;stroke-width:2.5;"/><text fill="#000000" font-family="Arial" font-size="16" lengthAdjust="spacing" textLength="25" x="258.5" y="322.0078">has</text><text fill="#000000" font-family="Arial" font-size="16" lengthAdjust="spacing" textLength="9" x="192.91" y="268.1374">1</text><text fill="#000000" font-family="Arial" font-size="16" lengthAdjust="spacing" textLength="9" x="281.8613" y="375.8012">1</text></g><!--reverse link Visit to VisitDate--><g id="link_Visit_VisitDate"><path codeLine="32" d="M264.448,66.2767 C278.068,102.3567 300.05,160.56 313.72,196.76 " fill="none" id="Visit-backto-VisitDate" style="stroke:#181818;stroke-width:2.5;"/><polygon fill="none" points="260.21,55.05,258.5868,62.076,264.448,66.2767,266.0713,59.2507,260.21,55.05" style="stroke:#181818;stroke-width:2.5;"/><text fill="#000000" font-family="Arial" font-size="16" lengthAdjust="spacing" textLength="25" x="292.5" y="132.0078">has</text><text fill="#000000" font-family="Arial" font-size="16" lengthAdjust="spacing" textLength="9" x="252.2362" y="78.1623">1</text><text fill="#000000" font-family="Arial" font-size="16" lengthAdjust="spacing" textLength="9" x="301.483" y="185.7141">1</text></g><!--link Vet to Speciality--><g id="link_Vet_Speciality"><path codeLine="33" d="M456.5,55.05 C456.5,91.13 456.5,154.56 456.5,190.76 " fill="none" id="Vet-to-Speciality" style="stroke:#181818;stroke-width:2.5;"/><polygon fill="#181818" points="456.5,196.76,460.5,187.76,456.5,191.76,452.5,187.76,456.5,196.76" style="stroke:#181818;stroke-width:2.5;"/><text fill="#000000" font-family="Arial" font-size="16" lengthAdjust="spacing" textLength="76" x="457.5" y="132.0078">possesses</text><text fill="#000000" font-family="Arial" font-size="16" lengthAdjust="spacing" textLength="6" x="449.7688" y="78.1623">*</text><text fill="#000000" font-family="Arial" font-size="16" lengthAdjust="spacing" textLength="6" x="449.7688" y="185.7141">*</text></g><!--link Pet to Owner--><g id="link_Pet_Owner"><path codeLine="34" d="M157.89,245.01 C142.97,261.42 123.08,284.32 107.5,306 C88.36,332.63 69.53,365.42 57.73,386.98 " fill="none" id="Pet-Owner" style="stroke:#181818;stroke-width:2.5;"/><polygon fill="#000000" points="110.0411,321.1019,119.18,314.2659,113.4165,310.1998,110.0411,321.1019" style="stroke:#000000;stroke-width:1.0;"/><text fill="#000000" font-family="Arial" font-size="16" lengthAdjust="spacing" textLength="46" x="124.5" y="322.0078">owned</text><text fill="#000000" font-family="Arial" font-size="16" lengthAdjust="spacing" textLength="6" x="145.8913" y="268.1126">*</text><text fill="#000000" font-family="Arial" font-size="16" lengthAdjust="spacing" textLength="9" x="50.7108" y="375.5775">1</text></g><!--link Visit to Pet--><g id="link_Visit_Pet"><path codeLine="35" d="M235.28,55.26 C224.56,71.59 210.99,94.3 202.5,116 C192.06,142.69 185.83,175.19 182.54,196.67 " fill="none" id="Visit-Pet" style="stroke:#181818;stroke-width:2.5;"/><polygon fill="#000000" points="206.4033,131.821,213.5006,122.8835,206.8919,120.4187,206.4033,131.821" style="stroke:#000000;stroke-width:1.0;"/><text fill="#000000" font-family="Arial" font-size="16" lengthAdjust="spacing" textLength="55" x="219.5" y="132.0078">belongs</text><text fill="#000000" font-family="Arial" font-size="16" lengthAdjust="spacing" textLength="6" x="224.8354" y="78.0053">*</text><text fill="#000000" font-family="Arial" font-size="16" lengthAdjust="spacing" textLength="9" x="173.1841" y="185.6022">1</text></g><!--SRC=[TL31QW8n4BtlLunxAHHMiD0UzY0eub4BYlUuJjrWJ9RCYApIV- -OxSOij26Gp7jlvhs4JjesogipBF1BNGmldUMLEYFCl5Ocex_uZRuXJ3x-8Rar27jd3Wa_yzvTjxMkJXQ9u6tydhsCk4RnOTTciYgZX5XVBNguVqVW4pcKiTgs3IR8N7kk5uexh4TtWwvDWvMyHNERJjvfqgagrCz93-FyDOUYAAQGJ_BUkuGz6cUFr2c4S289bvYbX5fHrXaC5D7ZLp7maCipQGcD8yB7JgE4AU6JId1o763Q-oG2QOWnHV03]--></g></svg>