<?xml version="1.0" encoding="us-ascii" standalone="no"?><svg xmlns="http://www.w3.org/2000/svg" xmlns:xlink="http://www.w3.org/1999/xlink" contentStyleType="text/css" height="275px" preserveAspectRatio="none" style="width:817px;height:275px;background:#FFFFFF;" version="1.1" viewBox="0 0 817 275" width="817px" zoomAndPan="magnify"><defs/><g><text fill="#000000" font-family="sans-serif" font-size="14" font-weight="bold" lengthAdjust="spacing" textLength="140" x="331.5" y="25.1074">PetClinicApplication</text><!--cluster PetClinicApplication--><g id="cluster_PetClinicApplication"><path d="M8.5,45.6348 L149.5,45.6348 A3.75,3.75 0 0 1 152,48.1348 L159,70.2559 L807.5,70.2559 A2.5,2.5 0 0 1 810,72.7559 L810,266.1348 A2.5,2.5 0 0 1 807.5,268.6348 L8.5,268.6348 A2.5,2.5 0 0 1 6,266.1348 L6,48.1348 A2.5,2.5 0 0 1 8.5,45.6348 " fill="none" style="stroke:#000000;stroke-width:1.5;"/><line style="stroke:#000000;stroke-width:1.5;" x1="6" x2="159" y1="70.2559" y2="70.2559"/><text fill="#000000" font-family="sans-serif" font-size="14" font-weight="bold" lengthAdjust="spacing" textLength="140" x="10" y="62.7422">PetClinicApplication</text></g><!--entity PetClinicApplication.Owner--><g id="elem_PetClinicApplication.Owner"><rect fill="#F1F1F1" height="67.2422" rx="2.5" ry="2.5" style="stroke:#181818;stroke-width:0.5;" width="209" x="585" y="184.1348"/><rect fill="#F1F1F1" height="10" style="stroke:#181818;stroke-width:0.5;" width="15" x="774" y="189.1348"/><rect fill="#F1F1F1" height="2" style="stroke:#181818;stroke-width:0.5;" width="4" x="772" y="191.1348"/><rect fill="#F1F1F1" height="2" style="stroke:#181818;stroke-width:0.5;" width="4" x="772" y="195.1348"/><text fill="#000000" font-family="sans-serif" font-size="14" font-style="italic" lengthAdjust="spacing" textLength="63" x="653" y="219.2422">&#171;Module&#187;</text><text fill="#000000" font-family="sans-serif" font-size="14" lengthAdjust="spacing" textLength="169" x="600" y="237.8633">PetClinicApplication.Owner</text></g><!--entity PetClinicApplication.Vet--><g id="elem_PetClinicApplication.Vet"><rect fill="#F1F1F1" height="67.2422" rx="2.5" ry="2.5" style="stroke:#181818;stroke-width:0.5;" width="189" x="24.5" y="83.1348"/><rect fill="#F1F1F1" height="10" style="stroke:#181818;stroke-width:0.5;" width="15" x="193.5" y="88.1348"/><rect fill="#F1F1F1" height="2" style="stroke:#181818;stroke-width:0.5;" width="4" x="191.5" y="90.1348"/><rect fill="#F1F1F1" height="2" style="stroke:#181818;stroke-width:0.5;" width="4" x="191.5" y="94.1348"/><text fill="#000000" font-family="sans-serif" font-size="14" font-style="italic" lengthAdjust="spacing" textLength="63" x="82.5" y="118.2422">&#171;Module&#187;</text><text fill="#000000" font-family="sans-serif" font-size="14" lengthAdjust="spacing" textLength="149" x="39.5" y="136.8633">PetClinicApplication.Vet</text></g><!--entity PetClinicApplication.Visit--><g id="elem_PetClinicApplication.Visit"><rect fill="#F1F1F1" height="67.2422" rx="2.5" ry="2.5" style="stroke:#181818;stroke-width:0.5;" width="194" x="22" y="185.1348"/><rect fill="#F1F1F1" height="10" style="stroke:#181818;stroke-width:0.5;" width="15" x="196" y="190.1348"/><rect fill="#F1F1F1" height="2" style="stroke:#181818;stroke-width:0.5;" width="4" x="194" y="192.1348"/><rect fill="#F1F1F1" height="2" style="stroke:#181818;stroke-width:0.5;" width="4" x="194" y="196.1348"/><text fill="#000000" font-family="sans-serif" font-size="14" font-style="italic" lengthAdjust="spacing" textLength="63" x="82.5" y="220.2422">&#171;Module&#187;</text><text fill="#000000" font-family="sans-serif" font-size="14" lengthAdjust="spacing" textLength="154" x="37" y="238.8633">PetClinicApplication.Visit</text></g><!--entity PetClinicApplication.Pet--><g id="elem_PetClinicApplication.Pet"><rect fill="#F1F1F1" height="67.2422" rx="2.5" ry="2.5" style="stroke:#181818;stroke-width:0.5;" width="189" x="306" y="184.1348"/><rect fill="#F1F1F1" height="10" style="stroke:#181818;stroke-width:0.5;" width="15" x="475" y="189.1348"/><rect fill="#F1F1F1" height="2" style="stroke:#181818;stroke-width:0.5;" width="4" x="473" y="191.1348"/><rect fill="#F1F1F1" height="2" style="stroke:#181818;stroke-width:0.5;" width="4" x="473" y="195.1348"/><text fill="#000000" font-family="sans-serif" font-size="14" font-style="italic" lengthAdjust="spacing" textLength="63" x="364" y="219.2422">&#171;Module&#187;</text><text fill="#000000" font-family="sans-serif" font-size="14" lengthAdjust="spacing" textLength="149" x="321" y="237.8633">PetClinicApplication.Pet</text></g><!--link PetClinicApplication.Visit to PetClinicApplication.Pet--><g id="link_PetClinicApplication.Visit_PetClinicApplication.Pet"><path d="M216.19,218.2948 C245.24,218.1848 271.09,218.0976 299.97,217.9876 " fill="none" id="PetClinicApplication.Visit-to-PetClinicApplication.Pet" style="stroke:#181818;stroke-width:1.0;"/><polygon fill="#181818" points="305.97,217.9648,296.9548,213.9991,300.97,217.9838,296.9853,221.999,305.97,217.9648" style="stroke:#181818;stroke-width:1.0;"/><text fill="#000000" font-family="sans-serif" font-size="13" lengthAdjust="spacing" textLength="28" x="247" y="214.6631">uses</text></g><!--link PetClinicApplication.Pet to PetClinicApplication.Owner--><g id="link_PetClinicApplication.Pet_PetClinicApplication.Owner"><path d="M495.08,217.6348 C523.79,217.6348 549.54,217.6348 578.88,217.6348 " fill="none" id="PetClinicApplication.Pet-to-PetClinicApplication.Owner" style="stroke:#181818;stroke-width:1.0;"/><polygon fill="#181818" points="584.88,217.6348,575.88,213.6348,579.88,217.6348,575.88,221.6348,584.88,217.6348" style="stroke:#181818;stroke-width:1.0;"/><text fill="#000000" font-family="sans-serif" font-size="13" lengthAdjust="spacing" textLength="28" x="526" y="213.6631">uses</text></g><!--SRC=[dP2n2i8m48RtUugZUtq0AO7YB7PoaGuXFUlXaOJaYeFuxWxj96qepj_tVyElh4BOaPw4FRisHc5dbOC74BehQi34uqDnu4Hk1W3wponQzxGZORMsg_0DYBSrTBYyFAKUc-OSXad8c4tpIhhFuypxpEwd-04e9klQb4f7d39bA1ZRWUM69V45]--></g></svg>