<?xml version="1.0" encoding="us-ascii" standalone="no"?><svg xmlns="http://www.w3.org/2000/svg" xmlns:xlink="http://www.w3.org/1999/xlink" contentStyleType="text/css" height="242px" preserveAspectRatio="none" style="width:639px;height:242px;background:#FFFFFF;" version="1.1" viewBox="0 0 639 242" width="639px" zoomAndPan="magnify"><defs/><g><!--cluster PetClinic Application--><g id="cluster_PetClinic Application"><path d="M8.5,6.0137 L153.5,6.0137 A3.75,3.75 0 0 1 156,8.5137 L163,30.6348 L629.5,30.6348 A2.5,2.5 0 0 1 632,33.1348 L632,232.5137 A2.5,2.5 0 0 1 629.5,235.0137 L8.5,235.0137 A2.5,2.5 0 0 1 6,232.5137 L6,8.5137 A2.5,2.5 0 0 1 8.5,6.0137 " fill="none" style="stroke:#000000;stroke-width:1.5;"/><line style="stroke:#000000;stroke-width:1.5;" x1="6" x2="163" y1="30.6348" y2="30.6348"/><text fill="#000000" font-family="sans-serif" font-size="14" font-weight="bold" lengthAdjust="spacing" textLength="144" x="10" y="23.1211">PetClinic Application</text></g><!--entity owner--><g id="elem_owner"><rect fill="#F1F1F1" height="48.6211" rx="2.5" ry="2.5" style="stroke:#181818;stroke-width:0.5;" width="78" x="195" y="169.5137"/><rect fill="#F1F1F1" height="10" style="stroke:#181818;stroke-width:0.5;" width="15" x="253" y="174.5137"/><rect fill="#F1F1F1" height="2" style="stroke:#181818;stroke-width:0.5;" width="4" x="251" y="176.5137"/><rect fill="#F1F1F1" height="2" style="stroke:#181818;stroke-width:0.5;" width="4" x="251" y="180.5137"/><text fill="#000000" font-family="sans-serif" font-size="14" lengthAdjust="spacing" textLength="38" x="210" y="204.6211">owner</text></g><!--entity pet--><g id="elem_pet"><rect fill="#F1F1F1" height="48.6211" rx="2.5" ry="2.5" style="stroke:#181818;stroke-width:0.5;" width="60" x="387" y="80.5137"/><rect fill="#F1F1F1" height="10" style="stroke:#181818;stroke-width:0.5;" width="15" x="427" y="85.5137"/><rect fill="#F1F1F1" height="2" style="stroke:#181818;stroke-width:0.5;" width="4" x="425" y="87.5137"/><rect fill="#F1F1F1" height="2" style="stroke:#181818;stroke-width:0.5;" width="4" x="425" y="91.5137"/><text fill="#000000" font-family="sans-serif" font-size="14" lengthAdjust="spacing" textLength="20" x="402" y="115.6211">pet</text></g><!--entity visit--><g id="elem_visit"><rect fill="#F1F1F1" height="48.6211" rx="2.5" ry="2.5" style="stroke:#181818;stroke-width:0.5;" width="64" x="552" y="80.5137"/><rect fill="#F1F1F1" height="10" style="stroke:#181818;stroke-width:0.5;" width="15" x="596" y="85.5137"/><rect fill="#F1F1F1" height="2" style="stroke:#181818;stroke-width:0.5;" width="4" x="594" y="87.5137"/><rect fill="#F1F1F1" height="2" style="stroke:#181818;stroke-width:0.5;" width="4" x="594" y="91.5137"/><text fill="#000000" font-family="sans-serif" font-size="14" lengthAdjust="spacing" textLength="24" x="567" y="115.6211">visit</text></g><!--entity vet--><g id="elem_vet"><rect fill="#F1F1F1" height="48.6211" rx="2.5" ry="2.5" style="stroke:#181818;stroke-width:0.5;" width="59" x="22" y="74.5137"/><rect fill="#F1F1F1" height="10" style="stroke:#181818;stroke-width:0.5;" width="15" x="61" y="79.5137"/><rect fill="#F1F1F1" height="2" style="stroke:#181818;stroke-width:0.5;" width="4" x="59" y="81.5137"/><rect fill="#F1F1F1" height="2" style="stroke:#181818;stroke-width:0.5;" width="4" x="59" y="85.5137"/><text fill="#000000" font-family="sans-serif" font-size="14" lengthAdjust="spacing" textLength="19" x="37" y="109.6211">vet</text></g><!--link owner to pet--><g id="link_owner_pet"><path d="M273.39,175.1437 C307.32,158.4537 350.6957,137.1212 381.5057,121.9712 " fill="none" id="owner-to-pet" style="stroke:#181818;stroke-width:1.0;"/><polygon fill="#181818" points="386.89,119.3237,377.0485,119.7055,382.4031,121.53,380.5786,126.8845,386.89,119.3237" style="stroke:#181818;stroke-width:1.0;"/><text fill="#000000" font-family="sans-serif" font-size="13" lengthAdjust="spacing" textLength="43" x="308.5" y="133.042">allowed</text></g><!--link pet to visit--><g id="link_pet_visit"><path d="M447.12,105.0137 C476.54,105.0137 515.83,105.0137 545.93,105.0137 " fill="none" id="pet-to-visit" style="stroke:#181818;stroke-width:1.0;"/><polygon fill="#181818" points="551.93,105.0137,542.93,101.0137,546.93,105.0137,542.93,109.0137,551.93,105.0137" style="stroke:#181818;stroke-width:1.0;"/><text fill="#000000" font-family="sans-serif" font-size="13" lengthAdjust="spacing" textLength="43" x="478" y="101.042">allowed</text></g><!--link owner to visit--><g id="link_owner_visit"><path d="M273.2,192.3037 C316.17,189.6137 387.71,182.8337 447,166.0137 C484.47,155.3837 519.5588,138.9458 546.5088,124.9058 " fill="none" id="owner-to-visit" style="stroke:#FF0000;stroke-width:1.0;"/><polygon fill="#FF0000" points="551.83,122.1337,542.0001,122.7444,547.3957,124.4438,545.6963,129.8394,551.83,122.1337" style="stroke:#FF0000;stroke-width:1.0;"/><text fill="#000000" font-family="sans-serif" font-size="13" lengthAdjust="spacing" textLength="52" x="391" y="162.042">forbidden</text></g><!--link vet to owner--><g id="link_vet_owner"><path d="M81.1,114.0637 C111.82,130.2337 155.4705,153.2092 189.4805,171.1092 " fill="none" id="vet-to-owner" style="stroke:#FF0000;stroke-width:1.0;"/><polygon fill="#FF0000" points="194.79,173.9037,188.6887,166.1723,190.3654,171.5749,184.9628,173.2516,194.79,173.9037" style="stroke:#FF0000;stroke-width:1.0;"/><text fill="#000000" font-family="sans-serif" font-size="13" lengthAdjust="spacing" textLength="52" x="112" y="129.042">forbidden</text></g><!--link vet to pet--><g id="link_vet_pet"><path d="M81.02,99.4837 C148.72,100.6037 312.5308,103.3044 380.8508,104.4344 " fill="none" id="vet-to-pet" style="stroke:#FF0000;stroke-width:1.0;"/><polygon fill="#FF0000" points="386.85,104.5337,377.9174,100.3854,381.8507,104.451,377.7851,108.3843,386.85,104.5337" style="stroke:#FF0000;stroke-width:1.0;"/><text fill="#000000" font-family="sans-serif" font-size="13" lengthAdjust="spacing" textLength="52" x="208" y="98.042">forbidden</text></g><!--link vet to visit--><g id="link_vet_visit"><path d="M81.22,92.6537 C146.33,79.0537 310.12,49.4637 447,63.0137 C480.83,66.3637 489.6,67.7437 522,78.0137 C531.94,81.1637 536.9434,82.9828 546.3734,87.2028 " fill="none" id="vet-to-visit" style="stroke:#FF0000;stroke-width:1.0;"/><polygon fill="#FF0000" points="551.85,89.6537,545.269,82.3263,547.2861,87.6113,542.0012,89.6285,551.85,89.6537" style="stroke:#FF0000;stroke-width:1.0;"/><text fill="#000000" font-family="sans-serif" font-size="13" lengthAdjust="spacing" textLength="52" x="304" y="56.042">forbidden</text></g><!--SRC=[XOwz3i8m38JtF8LL1gPIvWv82AapUzKX96vhaIPHQkY0U7VwAoXBBLa- -RwJlQ-PVPicYJVIygCn1-MQf6_lB5gEDSago4OOB1dOGQ2gPj0KK34vAuINwYuhXEYAV35aIS7PUqDA3du4Bo40SjTP3CMWFF8udzJIh8RD5u8uFarO2j8Orw5USfCr9LVcaintMNRig_ZbIXTkf3NQvTWVDuUtmV65RMowkmBVuWC0]--></g></svg>