<?xml version="1.0" encoding="us-ascii" standalone="no"?><svg xmlns="http://www.w3.org/2000/svg" xmlns:xlink="http://www.w3.org/1999/xlink" contentStyleType="text/css" height="294px" preserveAspectRatio="none" style="width:866px;height:294px;background:#FFFFFF;" version="1.1" viewBox="0 0 866 294" width="866px" zoomAndPan="magnify"><defs/><g><!--cluster PetClinic--><g id="cluster_PetClinic"><path d="M8.5,6.0137 L71.5,6.0137 A3.75,3.75 0 0 1 74,8.5137 L81,30.6348 L856.5,30.6348 A2.5,2.5 0 0 1 859,33.1348 L859,284.5137 A2.5,2.5 0 0 1 856.5,287.0137 L8.5,287.0137 A2.5,2.5 0 0 1 6,284.5137 L6,8.5137 A2.5,2.5 0 0 1 8.5,6.0137 " fill="none" style="stroke:#000000;stroke-width:1.5;"/><line style="stroke:#000000;stroke-width:1.5;" x1="6" x2="81" y1="30.6348" y2="30.6348"/><text fill="#000000" font-family="sans-serif" font-size="14" font-weight="bold" lengthAdjust="spacing" textLength="62" x="10" y="23.1211">PetClinic</text></g><!--cluster UI Layer (View)--><g id="cluster_UI Layer (View)"><path d="M32.5,57.0137 L136.5,57.0137 A3.75,3.75 0 0 1 139,59.5137 L146,81.6348 L187.5,81.6348 A2.5,2.5 0 0 1 190,84.1348 L190,157.5137 A2.5,2.5 0 0 1 187.5,160.0137 L32.5,160.0137 A2.5,2.5 0 0 1 30,157.5137 L30,59.5137 A2.5,2.5 0 0 1 32.5,57.0137 " fill="none" style="stroke:#000000;stroke-width:1.5;"/><line style="stroke:#000000;stroke-width:1.5;" x1="30" x2="146" y1="81.6348" y2="81.6348"/><text fill="#000000" font-family="sans-serif" font-size="14" font-weight="bold" lengthAdjust="spacing" textLength="103" x="34" y="74.1211">UI Layer (View)</text></g><!--cluster Application Logic Layer (Controller)--><g id="cluster_Application Logic Layer (Controller)"><path d="M220.5,51.0137 L468.5,51.0137 A3.75,3.75 0 0 1 471,53.5137 L478,75.6348 L508.5,75.6348 A2.5,2.5 0 0 1 511,78.1348 L511,260.5137 A2.5,2.5 0 0 1 508.5,263.0137 L220.5,263.0137 A2.5,2.5 0 0 1 218,260.5137 L218,53.5137 A2.5,2.5 0 0 1 220.5,51.0137 " fill="none" style="stroke:#000000;stroke-width:1.5;"/><line style="stroke:#000000;stroke-width:1.5;" x1="218" x2="478" y1="75.6348" y2="75.6348"/><text fill="#000000" font-family="sans-serif" font-size="14" font-weight="bold" lengthAdjust="spacing" textLength="247" x="222" y="68.1211">Application Logic Layer (Controller)</text></g><!--cluster Business Logic Layer (Model)--><g id="cluster_Business Logic Layer (Model)"><path d="M541.5,51.0137 L749.5,51.0137 A3.75,3.75 0 0 1 752,53.5137 L759,75.6348 L832.5,75.6348 A2.5,2.5 0 0 1 835,78.1348 L835,260.5137 A2.5,2.5 0 0 1 832.5,263.0137 L541.5,263.0137 A2.5,2.5 0 0 1 539,260.5137 L539,53.5137 A2.5,2.5 0 0 1 541.5,51.0137 " fill="none" style="stroke:#000000;stroke-width:1.5;"/><line style="stroke:#000000;stroke-width:1.5;" x1="539" x2="759" y1="75.6348" y2="75.6348"/><text fill="#000000" font-family="sans-serif" font-size="14" font-weight="bold" lengthAdjust="spacing" textLength="207" x="543" y="68.1211">Business Logic Layer (Model)</text></g><!--entity User Interface--><g id="elem_User Interface"><rect fill="#F1F1F1" height="48.6211" rx="2.5" ry="2.5" style="stroke:#181818;stroke-width:0.5;" width="128" x="46" y="94.5137"/><rect fill="#F1F1F1" height="10" style="stroke:#181818;stroke-width:0.5;" width="15" x="154" y="99.5137"/><rect fill="#F1F1F1" height="2" style="stroke:#181818;stroke-width:0.5;" width="4" x="152" y="101.5137"/><rect fill="#F1F1F1" height="2" style="stroke:#181818;stroke-width:0.5;" width="4" x="152" y="105.5137"/><text fill="#000000" font-family="sans-serif" font-size="14" lengthAdjust="spacing" textLength="88" x="61" y="129.6211">User Interface</text></g><!--entity ControllerAPI--><g id="elem_ControllerAPI"><ellipse cx="283" cy="119.0137" fill="#F1F1F1" rx="8" ry="8" style="stroke:#181818;stroke-width:0.5;"/><text fill="#000000" font-family="sans-serif" font-size="14" lengthAdjust="spacing" textLength="83" x="241.5" y="151.1211">ControllerAPI</text></g><!--entity Controller--><g id="elem_Controller"><rect fill="#F1F1F1" height="48.6211" rx="2.5" ry="2.5" style="stroke:#181818;stroke-width:0.5;" width="102" x="392.5" y="94.5137"/><rect fill="#F1F1F1" height="10" style="stroke:#181818;stroke-width:0.5;" width="15" x="474.5" y="99.5137"/><rect fill="#F1F1F1" height="2" style="stroke:#181818;stroke-width:0.5;" width="4" x="472.5" y="101.5137"/><rect fill="#F1F1F1" height="2" style="stroke:#181818;stroke-width:0.5;" width="4" x="472.5" y="105.5137"/><text fill="#000000" font-family="sans-serif" font-size="14" lengthAdjust="spacing" textLength="62" x="407.5" y="129.6211">Controller</text></g><!--entity PublicAPI--><g id="elem_PublicAPI"><ellipse cx="283" cy="216.0137" fill="#F1F1F1" rx="8" ry="8" style="stroke:#181818;stroke-width:0.5;"/><text fill="#000000" font-family="sans-serif" font-size="14" lengthAdjust="spacing" textLength="59" x="253.5" y="248.1211">PublicAPI</text></g><!--entity Public API--><g id="elem_Public API"><rect fill="#F1F1F1" height="48.6211" rx="2.5" ry="2.5" style="stroke:#181818;stroke-width:0.5;" width="103" x="392" y="191.5137"/><rect fill="#F1F1F1" height="10" style="stroke:#181818;stroke-width:0.5;" width="15" x="475" y="196.5137"/><rect fill="#F1F1F1" height="2" style="stroke:#181818;stroke-width:0.5;" width="4" x="473" y="198.5137"/><rect fill="#F1F1F1" height="2" style="stroke:#181818;stroke-width:0.5;" width="4" x="473" y="202.5137"/><text fill="#000000" font-family="sans-serif" font-size="14" lengthAdjust="spacing" textLength="63" x="407" y="226.6211">Public API</text></g><!--entity ModelAPI--><g id="elem_ModelAPI"><ellipse cx="592" cy="119.0137" fill="#F1F1F1" rx="8" ry="8" style="stroke:#181818;stroke-width:0.5;"/><text fill="#000000" font-family="sans-serif" font-size="14" lengthAdjust="spacing" textLength="59" x="562.5" y="151.1211">ModelAPI</text></g><!--entity Domain Model--><g id="elem_Domain Model"><rect fill="#F1F1F1" height="48.6211" rx="2.5" ry="2.5" style="stroke:#181818;stroke-width:0.5;" width="130" x="689" y="94.5137"/><rect fill="#F1F1F1" height="10" style="stroke:#181818;stroke-width:0.5;" width="15" x="799" y="99.5137"/><rect fill="#F1F1F1" height="2" style="stroke:#181818;stroke-width:0.5;" width="4" x="797" y="101.5137"/><rect fill="#F1F1F1" height="2" style="stroke:#181818;stroke-width:0.5;" width="4" x="797" y="105.5137"/><text fill="#000000" font-family="sans-serif" font-size="14" lengthAdjust="spacing" textLength="90" x="704" y="129.6211">Domain Model</text></g><!--entity RepoAPI--><g id="elem_RepoAPI"><ellipse cx="592" cy="216.0137" fill="#F1F1F1" rx="8" ry="8" style="stroke:#181818;stroke-width:0.5;"/><text fill="#000000" font-family="sans-serif" font-size="14" lengthAdjust="spacing" textLength="55" x="564.5" y="248.1211">RepoAPI</text></g><!--entity Repository--><g id="elem_Repository"><rect fill="#F1F1F1" height="48.6211" rx="2.5" ry="2.5" style="stroke:#181818;stroke-width:0.5;" width="108" x="700" y="191.5137"/><rect fill="#F1F1F1" height="10" style="stroke:#181818;stroke-width:0.5;" width="15" x="788" y="196.5137"/><rect fill="#F1F1F1" height="2" style="stroke:#181818;stroke-width:0.5;" width="4" x="786" y="198.5137"/><rect fill="#F1F1F1" height="2" style="stroke:#181818;stroke-width:0.5;" width="4" x="786" y="202.5137"/><text fill="#000000" font-family="sans-serif" font-size="14" lengthAdjust="spacing" textLength="68" x="715" y="226.6211">Repository</text></g><!--link ControllerAPI to Controller--><g id="link_ControllerAPI_Controller"><path d="M292.08,119.0137 C310.31,119.0137 355.88,119.0137 392.13,119.0137 " fill="none" id="ControllerAPI-Controller" style="stroke:#181818;stroke-width:1.0;"/></g><!--link PublicAPI to Public API--><g id="link_PublicAPI_Public API"><path d="M292.08,216.0137 C310.25,216.0137 355.57,216.0137 391.75,216.0137 " fill="none" id="PublicAPI-Public API" style="stroke:#181818;stroke-width:1.0;"/></g><!--link ModelAPI to Domain Model--><g id="link_ModelAPI_Domain Model"><path d="M601.15,119.0137 C617.39,119.0137 655.12,119.0137 688.91,119.0137 " fill="none" id="ModelAPI-Domain Model" style="stroke:#181818;stroke-width:1.0;"/></g><!--link RepoAPI to Repository--><g id="link_RepoAPI_Repository"><path d="M601.15,216.0137 C619.18,216.0137 663.67,216.0137 699.86,216.0137 " fill="none" id="RepoAPI-Repository" style="stroke:#181818;stroke-width:1.0;"/></g><!--link User Interface to ControllerAPI--><g id="link_User Interface_ControllerAPI"><path d="M174.19,119.0137 C212.05,119.0137 246.2,119.0137 263.98,119.0137 " fill="none" id="User Interface-to-ControllerAPI" style="stroke:#181818;stroke-width:1.0;"/><path d="M270.9018,110.5564 A9,9 0 0 0 270.9018 127.4709" fill="none" style="stroke:#181818;stroke-width:1.5;"/></g><!--link Controller to ModelAPI--><g id="link_Controller_ModelAPI"><path d="M494.51,119.0137 C527,119.0137 556.3,119.0137 572.94,119.0137 " fill="none" id="Controller-to-ModelAPI" style="stroke:#181818;stroke-width:1.0;"/><path d="M579.8618,110.5564 A9,9 0 0 0 579.8618 127.4709" fill="none" style="stroke:#181818;stroke-width:1.5;"/></g><!--link Controller to RepoAPI--><g id="link_Controller_RepoAPI"><path d="M481.85,143.7437 C515.93,166.3037 555.4413,192.4741 574.4313,205.0441 " fill="none" id="Controller-to-RepoAPI" style="stroke:#181818;stroke-width:1.0;"/><path d="M584.8713,201.8124 A9,9 0 0 0 575.5351 215.9169" fill="none" style="stroke:#181818;stroke-width:1.5;"/></g><!--link Public API to ModelAPI--><g id="link_Public API_ModelAPI"><path d="M481.85,191.2837 C515.93,168.7237 555.4413,142.5533 574.4313,129.9833 " fill="none" id="Public API-to-ModelAPI" style="stroke:#181818;stroke-width:1.0;"/><path d="M575.5351,119.1105 A9,9 0 0 0 584.8713 133.2149" fill="none" style="stroke:#181818;stroke-width:1.5;"/></g><!--link Public API to RepoAPI--><g id="link_Public API_RepoAPI"><path d="M495.33,216.0137 C527.56,216.0137 556.2,216.0137 572.78,216.0137 " fill="none" id="Public API-to-RepoAPI" style="stroke:#181818;stroke-width:1.0;"/><path d="M579.7018,207.5564 A9,9 0 0 0 579.7018 224.4709" fill="none" style="stroke:#181818;stroke-width:1.5;"/></g><!--SRC=[PO_1QiCm38RlVWhHoxg3b_jkNNS9T106tQNqu3bgAkROnbOOPUpTvzJ9qgJ61kd_BNtImvdPn-UYy4PPxbhpf5rRfEUTHSko9jK4rGg39mPs4AWvCzGKK3CvAuHN-air2AiAUMl8abx1Zn00_yQ-X9swO83r1-7tOsz3VmxxcCJICeQJqdXCwk-iSEEz8Qrw3knSGthiitMMWpC6mzHjqZPLAULXoe_vGzLzfcxPp36av9xwqaMo6ECS-UPgD1FjckPUhwvLPBCoeDxHkspsKIHsuJA0qbtk3LAkv-EBs-clziYxTmQMkDrfKR9qnXBn1m00]--></g></svg>