<?xml version="1.0" encoding="us-ascii" standalone="no"?><svg xmlns="http://www.w3.org/2000/svg" xmlns:xlink="http://www.w3.org/1999/xlink" contentStyleType="text/css" height="497px" preserveAspectRatio="none" style="width:882px;height:497px;background:#FFFFFF;" version="1.1" viewBox="0 0 882 497" width="882px" zoomAndPan="magnify"><defs/><g><!--cluster PetClinic--><g id="cluster_PetClinic"><path d="M8.5,6.0137 L71.5,6.0137 A3.75,3.75 0 0 1 74,8.5137 L81,30.6348 L872.5,30.6348 A2.5,2.5 0 0 1 875,33.1348 L875,487.5137 A2.5,2.5 0 0 1 872.5,490.0137 L8.5,490.0137 A2.5,2.5 0 0 1 6,487.5137 L6,8.5137 A2.5,2.5 0 0 1 8.5,6.0137 " fill="none" style="stroke:#000000;stroke-width:1.5;"/><line style="stroke:#000000;stroke-width:1.5;" x1="6" x2="81" y1="30.6348" y2="30.6348"/><text fill="#000000" font-family="sans-serif" font-size="14" font-weight="bold" lengthAdjust="spacing" textLength="62" x="10" y="23.1211">PetClinic</text></g><!--cluster UI--><g id="cluster_UI"><path d="M287.5,51.0137 L302.5,51.0137 A3.75,3.75 0 0 1 305,53.5137 L312,75.6348 L442.5,75.6348 A2.5,2.5 0 0 1 445,78.1348 L445,150.5137 A2.5,2.5 0 0 1 442.5,153.0137 L287.5,153.0137 A2.5,2.5 0 0 1 285,150.5137 L285,53.5137 A2.5,2.5 0 0 1 287.5,51.0137 " fill="none" style="stroke:#000000;stroke-width:1.5;"/><line style="stroke:#000000;stroke-width:1.5;" x1="285" x2="312" y1="75.6348" y2="75.6348"/><text fill="#000000" font-family="sans-serif" font-size="14" font-weight="bold" lengthAdjust="spacing" textLength="14" x="289" y="68.1211">UI</text></g><!--cluster Infrastructure--><g id="cluster_Infrastructure"><path d="M292.5,214.0137 L390.5,214.0137 A3.75,3.75 0 0 1 393,216.5137 L400,238.6348 L456.5,238.6348 A2.5,2.5 0 0 1 459,241.1348 L459,447.5137 A2.5,2.5 0 0 1 456.5,450.0137 L292.5,450.0137 A2.5,2.5 0 0 1 290,447.5137 L290,216.5137 A2.5,2.5 0 0 1 292.5,214.0137 " fill="none" style="stroke:#000000;stroke-width:1.5;"/><line style="stroke:#000000;stroke-width:1.5;" x1="290" x2="400" y1="238.6348" y2="238.6348"/><text fill="#000000" font-family="sans-serif" font-size="14" font-weight="bold" lengthAdjust="spacing" textLength="97" x="294" y="231.1211">Infrastructure</text></g><!--cluster Domain--><g id="cluster_Domain"><path d="M501.5,332.0137 L554.5,332.0137 A3.75,3.75 0 0 1 557,334.5137 L564,356.6348 L840.5,356.6348 A2.5,2.5 0 0 1 843,359.1348 L843,447.5137 A2.5,2.5 0 0 1 840.5,450.0137 L501.5,450.0137 A2.5,2.5 0 0 1 499,447.5137 L499,334.5137 A2.5,2.5 0 0 1 501.5,332.0137 " fill="none" style="stroke:#000000;stroke-width:1.5;"/><line style="stroke:#000000;stroke-width:1.5;" x1="499" x2="564" y1="356.6348" y2="356.6348"/><text fill="#000000" font-family="sans-serif" font-size="14" font-weight="bold" lengthAdjust="spacing" textLength="52" x="503" y="349.1211">Domain</text></g><!--cluster Application--><g id="cluster_Application"><path d="M32.5,177.0137 L111.5,177.0137 A3.75,3.75 0 0 1 114,179.5137 L121,201.6348 L255.5,201.6348 A2.5,2.5 0 0 1 258,204.1348 L258,463.5137 A2.5,2.5 0 0 1 255.5,466.0137 L32.5,466.0137 A2.5,2.5 0 0 1 30,463.5137 L30,179.5137 A2.5,2.5 0 0 1 32.5,177.0137 " fill="none" style="stroke:#000000;stroke-width:1.5;"/><line style="stroke:#000000;stroke-width:1.5;" x1="30" x2="121" y1="201.6348" y2="201.6348"/><text fill="#000000" font-family="sans-serif" font-size="14" font-weight="bold" lengthAdjust="spacing" textLength="78" x="34" y="194.1211">Application</text></g><!--cluster Module Public API--><g id="cluster_Module Public API"><path d="M56.5,222.0137 L183.5,222.0137 A3.75,3.75 0 0 1 186,224.5137 L193,246.6348 L231.5,246.6348 A2.5,2.5 0 0 1 234,249.1348 L234,439.5137 A2.5,2.5 0 0 1 231.5,442.0137 L56.5,442.0137 A2.5,2.5 0 0 1 54,439.5137 L54,224.5137 A2.5,2.5 0 0 1 56.5,222.0137 " fill="none" style="stroke:#000000;stroke-width:1.5;"/><line style="stroke:#000000;stroke-width:1.5;" x1="54" x2="193" y1="246.6348" y2="246.6348"/><text fill="#000000" font-family="sans-serif" font-size="14" font-weight="bold" lengthAdjust="spacing" textLength="126" x="58" y="239.1211">Module Public API</text></g><!--entity User Interface--><g id="elem_User Interface"><rect fill="#F1F1F1" height="48.6211" rx="2.5" ry="2.5" style="stroke:#181818;stroke-width:0.5;" width="128" x="301" y="88.0137"/><rect fill="#F1F1F1" height="10" style="stroke:#181818;stroke-width:0.5;" width="15" x="409" y="93.0137"/><rect fill="#F1F1F1" height="2" style="stroke:#181818;stroke-width:0.5;" width="4" x="407" y="95.0137"/><rect fill="#F1F1F1" height="2" style="stroke:#181818;stroke-width:0.5;" width="4" x="407" y="99.0137"/><text fill="#000000" font-family="sans-serif" font-size="14" lengthAdjust="spacing" textLength="88" x="316" y="123.1211">User Interface</text></g><!--entity Controller--><g id="elem_Controller"><rect fill="#F1F1F1" height="48.6211" rx="2.5" ry="2.5" style="stroke:#181818;stroke-width:0.5;" width="102" x="314" y="259.0137"/><rect fill="#F1F1F1" height="10" style="stroke:#181818;stroke-width:0.5;" width="15" x="396" y="264.0137"/><rect fill="#F1F1F1" height="2" style="stroke:#181818;stroke-width:0.5;" width="4" x="394" y="266.0137"/><rect fill="#F1F1F1" height="2" style="stroke:#181818;stroke-width:0.5;" width="4" x="394" y="270.0137"/><text fill="#000000" font-family="sans-serif" font-size="14" lengthAdjust="spacing" textLength="62" x="329" y="294.1211">Controller</text></g><!--entity Repository--><g id="elem_Repository"><rect fill="#F1F1F1" height="48.6211" rx="2.5" ry="2.5" style="stroke:#181818;stroke-width:0.5;" width="108" x="314" y="377.0137"/><rect fill="#F1F1F1" height="10" style="stroke:#181818;stroke-width:0.5;" width="15" x="402" y="382.0137"/><rect fill="#F1F1F1" height="2" style="stroke:#181818;stroke-width:0.5;" width="4" x="400" y="384.0137"/><rect fill="#F1F1F1" height="2" style="stroke:#181818;stroke-width:0.5;" width="4" x="400" y="388.0137"/><text fill="#000000" font-family="sans-serif" font-size="14" lengthAdjust="spacing" textLength="68" x="329" y="412.1211">Repository</text></g><!--entity Aggregates--><g id="elem_Aggregates"><rect fill="#F1F1F1" height="48.6211" rx="2.5" ry="2.5" style="stroke:#181818;stroke-width:0.5;" width="113" x="705.5" y="377.0137"/><rect fill="#F1F1F1" height="10" style="stroke:#181818;stroke-width:0.5;" width="15" x="798.5" y="382.0137"/><rect fill="#F1F1F1" height="2" style="stroke:#181818;stroke-width:0.5;" width="4" x="796.5" y="384.0137"/><rect fill="#F1F1F1" height="2" style="stroke:#181818;stroke-width:0.5;" width="4" x="796.5" y="388.0137"/><text fill="#000000" font-family="sans-serif" font-size="14" lengthAdjust="spacing" textLength="73" x="720.5" y="412.1211">Aggregates</text></g><!--entity Value Objects--><g id="elem_Value Objects"><rect fill="#F1F1F1" height="48.6211" rx="2.5" ry="2.5" style="stroke:#181818;stroke-width:0.5;" width="128" x="542" y="377.0137"/><rect fill="#F1F1F1" height="10" style="stroke:#181818;stroke-width:0.5;" width="15" x="650" y="382.0137"/><rect fill="#F1F1F1" height="2" style="stroke:#181818;stroke-width:0.5;" width="4" x="648" y="384.0137"/><rect fill="#F1F1F1" height="2" style="stroke:#181818;stroke-width:0.5;" width="4" x="648" y="388.0137"/><text fill="#000000" font-family="sans-serif" font-size="14" lengthAdjust="spacing" textLength="88" x="557" y="412.1211">Value Objects</text></g><!--entity IManagement--><g id="elem_IManagement"><rect fill="#F1F1F1" height="48.6211" rx="2.5" ry="2.5" style="stroke:#181818;stroke-width:0.5;" width="125" x="86.5" y="377.0137"/><rect fill="#F1F1F1" height="10" style="stroke:#181818;stroke-width:0.5;" width="15" x="191.5" y="382.0137"/><rect fill="#F1F1F1" height="2" style="stroke:#181818;stroke-width:0.5;" width="4" x="189.5" y="384.0137"/><rect fill="#F1F1F1" height="2" style="stroke:#181818;stroke-width:0.5;" width="4" x="189.5" y="388.0137"/><text fill="#000000" font-family="sans-serif" font-size="14" lengthAdjust="spacing" textLength="85" x="101.5" y="412.1211">IManagement</text></g><!--entity ManagementImpl--><g id="elem_ManagementImpl"><rect fill="#F1F1F1" height="48.6211" rx="2.5" ry="2.5" style="stroke:#181818;stroke-width:0.5;" width="147" x="70.5" y="259.0137"/><rect fill="#F1F1F1" height="10" style="stroke:#181818;stroke-width:0.5;" width="15" x="197.5" y="264.0137"/><rect fill="#F1F1F1" height="2" style="stroke:#181818;stroke-width:0.5;" width="4" x="195.5" y="266.0137"/><rect fill="#F1F1F1" height="2" style="stroke:#181818;stroke-width:0.5;" width="4" x="195.5" y="270.0137"/><text fill="#000000" font-family="sans-serif" font-size="14" lengthAdjust="spacing" textLength="107" x="85.5" y="294.1211">ManagementImpl</text></g><!--link User Interface to Controller--><g id="link_User Interface_Controller"><path d="M365,137.3737 C365,169.5737 365,220.6337 365,252.7837 " fill="none" id="User Interface-to-Controller" style="stroke:#181818;stroke-width:1.0;stroke-dasharray:7.0,7.0;"/><polygon fill="#181818" points="365,258.7837,369,249.7837,365,253.7837,361,249.7837,365,258.7837" style="stroke:#181818;stroke-width:1.0;"/></g><!--link Controller to Repository--><g id="link_Controller_Repository"><path d="M365.61,308.2637 C366.13,328.2837 366.7141,350.7857 367.2341,370.7957 " fill="none" id="Controller-to-Repository" style="stroke:#181818;stroke-width:1.0;stroke-dasharray:7.0,7.0;"/><polygon fill="#181818" points="367.39,376.7937,371.1548,367.6928,367.2601,371.7954,363.1575,367.9006,367.39,376.7937" style="stroke:#181818;stroke-width:1.0;"/></g><!--link Infrastructure to Domain--><g id="link_Infrastructure_Domain"><path d="M459.0643,301.2149 C459.1414,301.3746 459.2189,301.5351 459.2968,301.6966 C459.6085,302.3422 459.9269,303.0016 460.2514,303.6738 C465.4441,314.4296 472.2281,328.4818 479.0113,342.5324 C485.7944,356.583 492.5766,370.6321 497.7655,381.3816 C498.0898,382.0535 498.4079,382.7124 498.7193,383.3577 C498.7972,383.519 496.2664,378.2761 496.3434,378.4356 " fill="none" id="Infrastructure-to-Domain" style="stroke:#181818;stroke-width:1.0;stroke-dasharray:7.0,7.0;"/><polygon fill="#181818" points="498.9517,383.8391,498.6416,373.9951,496.7782,379.3362,491.437,377.4728,498.9517,383.8391" style="stroke:#181818;stroke-width:1.0;"/></g><!--link Controller to IManagement--><g id="link_Controller_IManagement"><path d="M313.95,308.0137 C308.54,310.6537 303.14,313.3537 298,316.0137 C260.37,335.4937 223.6374,356.4414 193.8774,373.8714 " fill="none" id="Controller-to-IManagement" style="stroke:#181818;stroke-width:1.0;stroke-dasharray:7.0,7.0;"/><polygon fill="#181818" points="188.7,376.9037,198.4876,375.8068,193.0145,374.3767,194.4445,368.9036,188.7,376.9037" style="stroke:#181818;stroke-width:1.0;"/></g><!--link ManagementImpl to IManagement--><g id="link_ManagementImpl_IManagement"><path d="M145.02,308.2637 C145.89,328.2837 146.8624,350.7892 147.7224,370.7992 " fill="none" id="ManagementImpl-to-IManagement" style="stroke:#181818;stroke-width:1.0;stroke-dasharray:7.0,7.0;"/><polygon fill="#181818" points="147.98,376.7937,151.5899,367.6302,147.7653,371.7983,143.5972,367.9737,147.98,376.7937" style="stroke:#181818;stroke-width:1.0;"/></g><!--SRC=[RL0zRuCm4Dtv5QSidGfxXqeeNHYYeahfKZ4OSw5kR9zbduUgod-lAGaGg2KFVb- -Um-Vp2uy5ONJmd8qEfTaYdGTMRJys2dHUs4o9WTCq18p6UYKHycAR9Ov8S-YHzZLo7kjh98x-CaoW8auLWC2m_au1lHGMKP_4XARX5xkj9KzUH7OHydHu-pRasLFMgDlhiWREWgAoNzlKrx826LdTzdt7dl166xkTw4ZmclxbTO8su3IEQsa63QSKYRoG5tK27LiamRAUbvlpAuEmYQXIVKrIto6A-FqbRgCVw-BWJn_ljzw-HZPPGERuWR5hOUjTpNaUhJ_D6d8l_CB]--></g></svg>