<?xml version="1.0" encoding="us-ascii" standalone="no"?><svg xmlns="http://www.w3.org/2000/svg" xmlns:xlink="http://www.w3.org/1999/xlink" contentStyleType="text/css" height="374px" preserveAspectRatio="none" style="width:968px;height:374px;background:#FFFFFF;" version="1.1" viewBox="0 0 968 374" width="968px" zoomAndPan="magnify"><defs/><g><!--cluster PetClinic Module--><g id="cluster_PetClinic Module"><path d="M8.5,6.0137 L128.5,6.0137 A3.75,3.75 0 0 1 131,8.5137 L138,30.6348 L958.5,30.6348 A2.5,2.5 0 0 1 961,33.1348 L961,284.5137 A2.5,2.5 0 0 1 958.5,287.0137 L8.5,287.0137 A2.5,2.5 0 0 1 6,284.5137 L6,8.5137 A2.5,2.5 0 0 1 8.5,6.0137 " fill="none" style="stroke:#000000;stroke-width:1.5;"/><line style="stroke:#000000;stroke-width:1.5;" x1="6" x2="138" y1="30.6348" y2="30.6348"/><text fill="#000000" font-family="sans-serif" font-size="14" font-weight="bold" lengthAdjust="spacing" textLength="119" x="10" y="23.1211">PetClinic Module</text></g><!--cluster UI Layer (View)--><g id="cluster_UI Layer (View)"><path d="M32.5,154.0137 L136.5,154.0137 A3.75,3.75 0 0 1 139,156.5137 L146,178.6348 L187.5,178.6348 A2.5,2.5 0 0 1 190,181.1348 L190,254.5137 A2.5,2.5 0 0 1 187.5,257.0137 L32.5,257.0137 A2.5,2.5 0 0 1 30,254.5137 L30,156.5137 A2.5,2.5 0 0 1 32.5,154.0137 " fill="none" style="stroke:#000000;stroke-width:1.5;"/><line style="stroke:#000000;stroke-width:1.5;" x1="30" x2="146" y1="178.6348" y2="178.6348"/><text fill="#000000" font-family="sans-serif" font-size="14" font-weight="bold" lengthAdjust="spacing" textLength="103" x="34" y="171.1211">UI Layer (View)</text></g><!--cluster Application Logic Layer (Controller)--><g id="cluster_Application Logic Layer (Controller)"><path d="M220.5,63.0137 L468.5,63.0137 A3.75,3.75 0 0 1 471,65.5137 L478,87.6348 L512.5,87.6348 A2.5,2.5 0 0 1 515,90.1348 L515,260.5137 A2.5,2.5 0 0 1 512.5,263.0137 L220.5,263.0137 A2.5,2.5 0 0 1 218,260.5137 L218,65.5137 A2.5,2.5 0 0 1 220.5,63.0137 " fill="none" style="stroke:#000000;stroke-width:1.5;"/><line style="stroke:#000000;stroke-width:1.5;" x1="218" x2="478" y1="87.6348" y2="87.6348"/><text fill="#000000" font-family="sans-serif" font-size="14" font-weight="bold" lengthAdjust="spacing" textLength="247" x="222" y="80.1211">Application Logic Layer (Controller)</text></g><!--cluster Business Logic Layer (Model)--><g id="cluster_Business Logic Layer (Model)"><path d="M594.5,51.0137 L802.5,51.0137 A3.75,3.75 0 0 1 805,53.5137 L812,75.6348 L934.5,75.6348 A2.5,2.5 0 0 1 937,78.1348 L937,260.5137 A2.5,2.5 0 0 1 934.5,263.0137 L594.5,263.0137 A2.5,2.5 0 0 1 592,260.5137 L592,53.5137 A2.5,2.5 0 0 1 594.5,51.0137 " fill="none" style="stroke:#000000;stroke-width:1.5;"/><line style="stroke:#000000;stroke-width:1.5;" x1="592" x2="812" y1="75.6348" y2="75.6348"/><text fill="#000000" font-family="sans-serif" font-size="14" font-weight="bold" lengthAdjust="spacing" textLength="207" x="596" y="68.1211">Business Logic Layer (Model)</text></g><!--entity User Interface--><g id="elem_User Interface"><rect fill="#F1F1F1" height="48.6211" rx="2.5" ry="2.5" style="stroke:#181818;stroke-width:0.5;" width="128" x="46" y="191.5137"/><rect fill="#F1F1F1" height="10" style="stroke:#181818;stroke-width:0.5;" width="15" x="154" y="196.5137"/><rect fill="#F1F1F1" height="2" style="stroke:#181818;stroke-width:0.5;" width="4" x="152" y="198.5137"/><rect fill="#F1F1F1" height="2" style="stroke:#181818;stroke-width:0.5;" width="4" x="152" y="202.5137"/><text fill="#000000" font-family="sans-serif" font-size="14" lengthAdjust="spacing" textLength="88" x="61" y="226.6211">User Interface</text></g><!--entity ControllerAPI--><g id="elem_ControllerAPI"><ellipse cx="285.5" cy="216.0137" fill="#F1F1F1" rx="8" ry="8" style="stroke:#181818;stroke-width:0.5;"/><text fill="#000000" font-family="sans-serif" font-size="14" lengthAdjust="spacing" textLength="83" x="244" y="248.1211">ControllerAPI</text></g><!--entity Controller--><g id="elem_Controller"><rect fill="#F1F1F1" height="48.6211" rx="2.5" ry="2.5" style="stroke:#181818;stroke-width:0.5;" width="102" x="397" y="192.5137"/><rect fill="#F1F1F1" height="10" style="stroke:#181818;stroke-width:0.5;" width="15" x="479" y="197.5137"/><rect fill="#F1F1F1" height="2" style="stroke:#181818;stroke-width:0.5;" width="4" x="477" y="199.5137"/><rect fill="#F1F1F1" height="2" style="stroke:#181818;stroke-width:0.5;" width="4" x="477" y="203.5137"/><text fill="#000000" font-family="sans-serif" font-size="14" lengthAdjust="spacing" textLength="62" x="412" y="227.6211">Controller</text></g><!--entity Public API--><g id="elem_Public API"><rect fill="#F1F1F1" height="48.6211" rx="2.5" ry="2.5" style="stroke:#181818;stroke-width:0.5;" width="103" x="234" y="100.5137"/><rect fill="#F1F1F1" height="10" style="stroke:#181818;stroke-width:0.5;" width="15" x="317" y="105.5137"/><rect fill="#F1F1F1" height="2" style="stroke:#181818;stroke-width:0.5;" width="4" x="315" y="107.5137"/><rect fill="#F1F1F1" height="2" style="stroke:#181818;stroke-width:0.5;" width="4" x="315" y="111.5137"/><text fill="#000000" font-family="sans-serif" font-size="14" lengthAdjust="spacing" textLength="63" x="249" y="135.6211">Public API</text></g><!--entity ModelAPI--><g id="elem_ModelAPI"><ellipse cx="645" cy="216.0137" fill="#F1F1F1" rx="8" ry="8" style="stroke:#181818;stroke-width:0.5;"/><text fill="#000000" font-family="sans-serif" font-size="14" lengthAdjust="spacing" textLength="59" x="615.5" y="248.1211">ModelAPI</text></g><!--entity Domain Model--><g id="elem_Domain Model"><rect fill="#F1F1F1" height="48.6211" rx="2.5" ry="2.5" style="stroke:#181818;stroke-width:0.5;" width="130" x="791" y="191.5137"/><rect fill="#F1F1F1" height="10" style="stroke:#181818;stroke-width:0.5;" width="15" x="901" y="196.5137"/><rect fill="#F1F1F1" height="2" style="stroke:#181818;stroke-width:0.5;" width="4" x="899" y="198.5137"/><rect fill="#F1F1F1" height="2" style="stroke:#181818;stroke-width:0.5;" width="4" x="899" y="202.5137"/><text fill="#000000" font-family="sans-serif" font-size="14" lengthAdjust="spacing" textLength="90" x="806" y="226.6211">Domain Model</text></g><!--entity RepoAPI--><g id="elem_RepoAPI"><ellipse cx="645" cy="119.0137" fill="#F1F1F1" rx="8" ry="8" style="stroke:#181818;stroke-width:0.5;"/><text fill="#000000" font-family="sans-serif" font-size="14" lengthAdjust="spacing" textLength="55" x="617.5" y="151.1211">RepoAPI</text></g><!--entity Repository--><g id="elem_Repository"><rect fill="#F1F1F1" height="48.6211" rx="2.5" ry="2.5" style="stroke:#181818;stroke-width:0.5;" width="108" x="802" y="94.5137"/><rect fill="#F1F1F1" height="10" style="stroke:#181818;stroke-width:0.5;" width="15" x="890" y="99.5137"/><rect fill="#F1F1F1" height="2" style="stroke:#181818;stroke-width:0.5;" width="4" x="888" y="101.5137"/><rect fill="#F1F1F1" height="2" style="stroke:#181818;stroke-width:0.5;" width="4" x="888" y="105.5137"/><text fill="#000000" font-family="sans-serif" font-size="14" lengthAdjust="spacing" textLength="68" x="817" y="129.6211">Repository</text></g><!--entity PublicAPI--><g id="elem_PublicAPI"><ellipse cx="285.5" cy="312.0137" fill="#F1F1F1" rx="8" ry="8" style="stroke:#181818;stroke-width:0.5;"/><text fill="#000000" font-family="sans-serif" font-size="14" lengthAdjust="spacing" textLength="59" x="256" y="344.1211">PublicAPI</text></g><!--entity ExternalModulePublicAPI--><g id="elem_ExternalModulePublicAPI"><ellipse cx="645" cy="334.0137" fill="#F1F1F1" rx="8" ry="8" style="stroke:#181818;stroke-width:0.5;"/><text fill="#000000" font-family="sans-serif" font-size="14" lengthAdjust="spacing" textLength="156" x="567" y="366.1211">ExternalModulePublicAPI</text></g><!--link ControllerAPI to Controller--><g id="link_ControllerAPI_Controller"><path d="M294.68,216.0637 C313.27,216.1837 359.93,216.4737 396.75,216.7037 " fill="none" id="ControllerAPI-Controller" style="stroke:#181818;stroke-width:1.0;"/></g><!--link ModelAPI to Domain Model--><g id="link_ModelAPI_Domain Model"><path d="M654.19,216.0137 C676.68,216.0137 741.02,216.0137 790.87,216.0137 " fill="none" id="ModelAPI-Domain Model" style="stroke:#181818;stroke-width:1.0;"/></g><!--link RepoAPI to Repository--><g id="link_RepoAPI_Repository"><path d="M654.19,119.0137 C678.34,119.0137 750.75,119.0137 801.65,119.0137 " fill="none" id="RepoAPI-Repository" style="stroke:#181818;stroke-width:1.0;"/></g><!--link PublicAPI to Public API--><g id="link_PublicAPI_Public API"><path d="M276.43,308.4837 C260.66,301.9037 228.17,286.2937 210,263.0137 C204.94,256.5337 205.35,253.6237 204,245.5137 C201.12,228.2537 198.77,180.4337 210,167.0137 C216.55,159.1937 224.94,152.5637 233.74,147.0437 " fill="none" id="PublicAPI-Public API" style="stroke:#181818;stroke-width:1.0;"/></g><!--link User Interface to ControllerAPI--><g id="link_User Interface_ControllerAPI"><path d="M174.13,216.0137 C212.69,216.0137 247.99,216.0137 266.26,216.0137 " fill="none" id="User Interface-to-ControllerAPI" style="stroke:#181818;stroke-width:1.0;"/><path d="M273.1818,207.5564 A9,9 0 0 0 273.1818 224.4709" fill="none" style="stroke:#181818;stroke-width:1.5;"/></g><!--link Controller to ModelAPI--><g id="link_Controller_ModelAPI"><path d="M499.22,216.7537 C546.39,216.5137 603.0401,216.2261 625.9201,216.1061 " fill="none" id="Controller-to-ModelAPI" style="stroke:#181818;stroke-width:1.0;"/><path d="M632.7975,207.6127 A9,9 0 0 0 632.8862 224.5269" fill="none" style="stroke:#181818;stroke-width:1.5;"/></g><!--link Controller to RepoAPI--><g id="link_Controller_RepoAPI"><path d="M497.96,192.4137 C545.11,168.7137 603.6734,139.2712 626.8734,127.6212 " fill="none" id="Controller-to-RepoAPI" style="stroke:#181818;stroke-width:1.0;"/><path d="M629.264,116.9572 A9,9 0 0 0 636.8544 132.0729" fill="none" style="stroke:#181818;stroke-width:1.5;"/></g><!--link Controller to ExternalModulePublicAPI--><g id="link_Controller_ExternalModulePublicAPI"><path d="M489.88,241.5437 C537.01,269.8137 602.5741,309.1603 627.1841,323.9203 " fill="none" id="Controller-to-ExternalModulePublicAPI" style="stroke:#181818;stroke-width:1.0;"/><path d="M637.4701,320.2276 A9,9 0 0 0 628.7703 334.7332" fill="none" style="stroke:#181818;stroke-width:1.5;"/></g><!--link Public API to ModelAPI--><g id="link_Public API_ModelAPI"><path d="M337.2,133.9337 C385.38,142.8337 459.66,157.6537 523,175.0137 C566.21,186.8537 607.2251,201.9737 626.5451,209.3337 " fill="none" id="Public API-to-ModelAPI" style="stroke:#181818;stroke-width:1.0;"/><path d="M636.0242,203.8947 A9,9 0 0 0 630.0027 219.701" fill="none" style="stroke:#181818;stroke-width:1.5;"/></g><!--link Public API to RepoAPI--><g id="link_Public API_RepoAPI"><path d="M337.34,124.1637 C424.47,122.6937 586.7614,119.9696 625.9414,119.3196 " fill="none" id="Public API-to-RepoAPI" style="stroke:#181818;stroke-width:1.0;"/><path d="M632.722,110.7487 A9,9 0 0 0 633.0025 127.6608" fill="none" style="stroke:#181818;stroke-width:1.5;"/></g><!--SRC=[PP4nRyCW48LtViKfIzF1zTujJJjOIYMhKhf46IY-E2YOGt1M6rNzxyKnYMCRWGJtnFlUmSEHsONdF7T6McuRywIeoUDoPD5oLcbPUza8WmS69l2wFZ9KsgDYJLO89zL9rWYB4dbjjDKAtgbg3IxWLmY0cxujO2FFw67vgV7xiPEX6xjjYCN2Clg3LBYFrR_HnPLpHYlPuM13TGGadpLPzcGC-i5jgAtA8ijsmtcVS6Nx5UqWodFKInkqnH36dDWFcW5nEVRkhzH8RVjAylz0HxtOxO9cykS4YhE7T_een_GD8CkMurR4VISN-HfZhgG8S-7j9mAiDFq7tRA8-omJxwbozHR_]--></g></svg>