<?xml version="1.0" encoding="us-ascii" standalone="no"?><svg xmlns="http://www.w3.org/2000/svg" xmlns:xlink="http://www.w3.org/1999/xlink" contentStyleType="text/css" height="443px" preserveAspectRatio="none" style="width:807px;height:443px;background:#FFFFFF;" version="1.1" viewBox="0 0 807 443" width="807px" zoomAndPan="magnify"><defs/><g><!--cluster PetClinic Module--><g id="cluster_PetClinic Module"><path d="M8.5,6.0137 L128.5,6.0137 A3.75,3.75 0 0 1 131,8.5137 L138,30.6348 L797.5,30.6348 A2.5,2.5 0 0 1 800,33.1348 L800,433.5137 A2.5,2.5 0 0 1 797.5,436.0137 L8.5,436.0137 A2.5,2.5 0 0 1 6,433.5137 L6,8.5137 A2.5,2.5 0 0 1 8.5,6.0137 " fill="none" style="stroke:#000000;stroke-width:1.5;"/><line style="stroke:#000000;stroke-width:1.5;" x1="6" x2="138" y1="30.6348" y2="30.6348"/><text fill="#000000" font-family="sans-serif" font-size="14" font-weight="bold" lengthAdjust="spacing" textLength="119" x="10" y="23.1211">PetClinic Module</text></g><!--cluster Infrastructure--><g id="cluster_Infrastructure"><path d="M40.5,59.0137 L138.5,59.0137 A3.75,3.75 0 0 1 141,61.5137 L148,83.6348 L371.5,83.6348 A2.5,2.5 0 0 1 374,86.1348 L374,292.5137 A2.5,2.5 0 0 1 371.5,295.0137 L40.5,295.0137 A2.5,2.5 0 0 1 38,292.5137 L38,61.5137 A2.5,2.5 0 0 1 40.5,59.0137 " fill="none" style="stroke:#000000;stroke-width:1.5;"/><line style="stroke:#000000;stroke-width:1.5;" x1="38" x2="148" y1="83.6348" y2="83.6348"/><text fill="#000000" font-family="sans-serif" font-size="14" font-weight="bold" lengthAdjust="spacing" textLength="97" x="42" y="76.1211">Infrastructure</text></g><!--cluster Domain--><g id="cluster_Domain"><path d="M416.5,177.0137 L469.5,177.0137 A3.75,3.75 0 0 1 472,179.5137 L479,201.6348 L595.5,201.6348 A2.5,2.5 0 0 1 598,204.1348 L598,401.5137 A2.5,2.5 0 0 1 595.5,404.0137 L416.5,404.0137 A2.5,2.5 0 0 1 414,401.5137 L414,179.5137 A2.5,2.5 0 0 1 416.5,177.0137 " fill="none" style="stroke:#000000;stroke-width:1.5;"/><line style="stroke:#000000;stroke-width:1.5;" x1="414" x2="479" y1="201.6348" y2="201.6348"/><text fill="#000000" font-family="sans-serif" font-size="14" font-weight="bold" lengthAdjust="spacing" textLength="52" x="418" y="194.1211">Domain</text></g><!--entity Public API Interface--><g id="elem_Public API Interface"><rect fill="#F1F1F1" height="48.6211" rx="2.5" ry="2.5" style="stroke:#181818;stroke-width:0.5;" width="162" x="622" y="222.0137"/><rect fill="#F1F1F1" height="10" style="stroke:#181818;stroke-width:0.5;" width="15" x="764" y="227.0137"/><rect fill="#F1F1F1" height="2" style="stroke:#181818;stroke-width:0.5;" width="4" x="762" y="229.0137"/><rect fill="#F1F1F1" height="2" style="stroke:#181818;stroke-width:0.5;" width="4" x="762" y="233.0137"/><text fill="#000000" font-family="sans-serif" font-size="14" lengthAdjust="spacing" textLength="122" x="637" y="257.1211">Public API Interface</text></g><!--entity Controller--><g id="elem_Controller"><rect fill="#F1F1F1" height="48.6211" rx="2.5" ry="2.5" style="stroke:#181818;stroke-width:0.5;" width="102" x="62" y="104.0137"/><rect fill="#F1F1F1" height="10" style="stroke:#181818;stroke-width:0.5;" width="15" x="144" y="109.0137"/><rect fill="#F1F1F1" height="2" style="stroke:#181818;stroke-width:0.5;" width="4" x="142" y="111.0137"/><rect fill="#F1F1F1" height="2" style="stroke:#181818;stroke-width:0.5;" width="4" x="142" y="115.0137"/><text fill="#000000" font-family="sans-serif" font-size="14" lengthAdjust="spacing" textLength="62" x="77" y="139.1211">Controller</text></g><!--entity Repository--><g id="elem_Repository"><rect fill="#F1F1F1" height="48.6211" rx="2.5" ry="2.5" style="stroke:#181818;stroke-width:0.5;" width="108" x="136" y="222.0137"/><rect fill="#F1F1F1" height="10" style="stroke:#181818;stroke-width:0.5;" width="15" x="224" y="227.0137"/><rect fill="#F1F1F1" height="2" style="stroke:#181818;stroke-width:0.5;" width="4" x="222" y="229.0137"/><rect fill="#F1F1F1" height="2" style="stroke:#181818;stroke-width:0.5;" width="4" x="222" y="233.0137"/><text fill="#000000" font-family="sans-serif" font-size="14" lengthAdjust="spacing" textLength="68" x="151" y="257.1211">Repository</text></g><!--entity Public API Impl--><g id="elem_Public API Impl"><rect fill="#F1F1F1" height="48.6211" rx="2.5" ry="2.5" style="stroke:#181818;stroke-width:0.5;" width="132" x="199" y="104.0137"/><rect fill="#F1F1F1" height="10" style="stroke:#181818;stroke-width:0.5;" width="15" x="311" y="109.0137"/><rect fill="#F1F1F1" height="2" style="stroke:#181818;stroke-width:0.5;" width="4" x="309" y="111.0137"/><rect fill="#F1F1F1" height="2" style="stroke:#181818;stroke-width:0.5;" width="4" x="309" y="115.0137"/><text fill="#000000" font-family="sans-serif" font-size="14" lengthAdjust="spacing" textLength="92" x="214" y="139.1211">Public API Impl</text></g><!--entity Aggregates--><g id="elem_Aggregates"><rect fill="#F1F1F1" height="48.6211" rx="2.5" ry="2.5" style="stroke:#181818;stroke-width:0.5;" width="113" x="457.5" y="222.0137"/><rect fill="#F1F1F1" height="10" style="stroke:#181818;stroke-width:0.5;" width="15" x="550.5" y="227.0137"/><rect fill="#F1F1F1" height="2" style="stroke:#181818;stroke-width:0.5;" width="4" x="548.5" y="229.0137"/><rect fill="#F1F1F1" height="2" style="stroke:#181818;stroke-width:0.5;" width="4" x="548.5" y="233.0137"/><text fill="#000000" font-family="sans-serif" font-size="14" lengthAdjust="spacing" textLength="73" x="472.5" y="257.1211">Aggregates</text></g><!--entity Value Objects--><g id="elem_Value Objects"><rect fill="#F1F1F1" height="48.6211" rx="2.5" ry="2.5" style="stroke:#181818;stroke-width:0.5;" width="128" x="446" y="331.0137"/><rect fill="#F1F1F1" height="10" style="stroke:#181818;stroke-width:0.5;" width="15" x="554" y="336.0137"/><rect fill="#F1F1F1" height="2" style="stroke:#181818;stroke-width:0.5;" width="4" x="552" y="338.0137"/><rect fill="#F1F1F1" height="2" style="stroke:#181818;stroke-width:0.5;" width="4" x="552" y="342.0137"/><text fill="#000000" font-family="sans-serif" font-size="14" lengthAdjust="spacing" textLength="88" x="461" y="366.1211">Value Objects</text></g><!--link Controller to Repository--><g id="link_Controller_Repository"><path d="M128.77,153.2637 C142.06,173.2837 157.6522,196.7845 170.9322,216.7945 " fill="none" id="Controller-to-Repository" style="stroke:#181818;stroke-width:1.0;stroke-dasharray:7.0,7.0;"/><polygon fill="#181818" points="174.25,221.7937,172.6061,212.083,171.4852,217.6277,165.9405,216.5067,174.25,221.7937" style="stroke:#181818;stroke-width:1.0;"/></g><!--link Public API Impl to Repository--><g id="link_Public API Impl_Repository"><path d="M249.64,153.2637 C236.7,173.2837 221.5264,196.7442 208.5964,216.7542 " fill="none" id="Public API Impl-to-Repository" style="stroke:#181818;stroke-width:1.0;stroke-dasharray:7.0,7.0;"/><polygon fill="#181818" points="205.34,221.7937,213.5842,216.4054,208.0536,217.5941,206.8649,212.0636,205.34,221.7937" style="stroke:#181818;stroke-width:1.0;"/></g><!--link Infrastructure to Domain--><g id="link_Infrastructure_Domain"><path d="M374.0643,146.2149 C374.1414,146.3746 374.2189,146.5351 374.2968,146.6966 C374.6085,147.3422 374.9269,148.0016 375.2514,148.6738 C380.4441,159.4296 387.2281,173.4818 394.0113,187.5324 C400.7944,201.583 407.5766,215.6321 412.7655,226.3816 C413.0898,227.0535 413.4079,227.7124 413.7193,228.3577 C413.7972,228.519 411.2664,223.2761 411.3434,223.4356 " fill="none" id="Infrastructure-to-Domain" style="stroke:#181818;stroke-width:1.0;stroke-dasharray:7.0,7.0;"/><polygon fill="#181818" points="413.9517,228.8391,413.6416,218.9951,411.7782,224.3362,406.437,222.4728,413.9517,228.8391" style="stroke:#181818;stroke-width:1.0;"/></g><!--link Aggregates to Value Objects--><g id="link_Aggregates_Value Objects"><path d="M513.11,271.2637 C512.45,288.9937 511.7733,307.1178 511.1133,324.8378 " fill="none" id="Aggregates-to-Value Objects" style="stroke:#181818;stroke-width:1.0;stroke-dasharray:7.0,7.0;"/><polygon fill="#181818" points="510.89,330.8337,515.2222,321.9888,511.0761,325.8371,507.2278,321.691,510.89,330.8337" style="stroke:#181818;stroke-width:1.0;"/></g><!--link Public API Impl to Public API Interface--><g id="link_Public API Impl_Public API Interface"><path d="M331.19,152.2837 C332.47,152.5437 333.74,152.7837 335,153.0137 C362.9,158.0237 563.24,151.6437 590,161.0137 C625.61,173.4737 654.9465,197.3635 676.1165,217.7335 " fill="none" id="Public API Impl-to-Public API Interface" style="stroke:#181818;stroke-width:1.0;stroke-dasharray:7.0,7.0;"/><polygon fill="#181818" points="680.44,221.8937,676.7281,212.7711,676.837,218.4269,671.1812,218.5358,680.44,221.8937" style="stroke:#181818;stroke-width:1.0;"/></g><!--SRC=[TP0nJyGm38Nt_0hh5YRQdG7fT2mT4DKDBASRtDGN0aaSkSw04F-T5kXHhc39oulzlUTSFQdcuQQkSy2a9ORASgp7pfmewNNlqGb6evn16JfMvGYz5xBgEHcJqRwW8zYqfBlWaxTmptq9j84tOm0ERUd2A6xR1fga92UqT9nUpfjDEWaEAiLgaSyzcEgmuwJ28P0SlvKzPHwyihpEof8USvZazr_mEuxeqmzqwvoGGwLXHZnYA0GFtVDuqd06BDsXgculpLVEwo5ZHjBgkcbiJcMMSRu05sd-iVdpKpy0]--></g></svg>