<?xml version="1.0" encoding="us-ascii" standalone="no"?><svg xmlns="http://www.w3.org/2000/svg" xmlns:xlink="http://www.w3.org/1999/xlink" contentStyleType="text/css" height="389px" preserveAspectRatio="none" style="width:914px;height:389px;background:#FFFFFF;" version="1.1" viewBox="0 0 914 389" width="914px" zoomAndPan="magnify"><defs/><g><!--cluster PetClinic Application--><g id="cluster_PetClinic Application"><path d="M8.5,6.0137 L153.5,6.0137 A3.75,3.75 0 0 1 156,8.5137 L163,30.6348 L904.5,30.6348 A2.5,2.5 0 0 1 907,33.1348 L907,379.5137 A2.5,2.5 0 0 1 904.5,382.0137 L8.5,382.0137 A2.5,2.5 0 0 1 6,379.5137 L6,8.5137 A2.5,2.5 0 0 1 8.5,6.0137 " fill="none" style="stroke:#000000;stroke-width:1.5;"/><line style="stroke:#000000;stroke-width:1.5;" x1="6" x2="163" y1="30.6348" y2="30.6348"/><text fill="#000000" font-family="sans-serif" font-size="14" font-weight="bold" lengthAdjust="spacing" textLength="144" x="10" y="23.1211">PetClinic Application</text></g><!--cluster UI Layer (View)--><g id="cluster_UI Layer (View)"><path d="M32.5,117.0137 L136.5,117.0137 A3.75,3.75 0 0 1 139,119.5137 L146,141.6348 L187.5,141.6348 A2.5,2.5 0 0 1 190,144.1348 L190,217.5137 A2.5,2.5 0 0 1 187.5,220.0137 L32.5,220.0137 A2.5,2.5 0 0 1 30,217.5137 L30,119.5137 A2.5,2.5 0 0 1 32.5,117.0137 " fill="none" style="stroke:#000000;stroke-width:1.5;"/><line style="stroke:#000000;stroke-width:1.5;" x1="30" x2="146" y1="141.6348" y2="141.6348"/><text fill="#000000" font-family="sans-serif" font-size="14" font-weight="bold" lengthAdjust="spacing" textLength="103" x="34" y="134.1211">UI Layer (View)</text></g><!--cluster PetClinic Module--><g id="cluster_PetClinic Module"><path d="M216.5,77.0137 L336.5,77.0137 A3.75,3.75 0 0 1 339,79.5137 L346,101.6348 L880.5,101.6348 A2.5,2.5 0 0 1 883,104.1348 L883,355.5137 A2.5,2.5 0 0 1 880.5,358.0137 L216.5,358.0137 A2.5,2.5 0 0 1 214,355.5137 L214,79.5137 A2.5,2.5 0 0 1 216.5,77.0137 " fill="none" style="stroke:#000000;stroke-width:1.5;"/><line style="stroke:#000000;stroke-width:1.5;" x1="214" x2="346" y1="101.6348" y2="101.6348"/><text fill="#000000" font-family="sans-serif" font-size="14" font-weight="bold" lengthAdjust="spacing" textLength="119" x="218" y="94.1211">PetClinic Module</text></g><!--cluster Application Logic Layer (Controller)--><g id="cluster_Application Logic Layer (Controller)"><path d="M240.5,134.0137 L488.5,134.0137 A3.75,3.75 0 0 1 491,136.5137 L498,158.6348 L532.5,158.6348 A2.5,2.5 0 0 1 535,161.1348 L535,331.5137 A2.5,2.5 0 0 1 532.5,334.0137 L240.5,334.0137 A2.5,2.5 0 0 1 238,331.5137 L238,136.5137 A2.5,2.5 0 0 1 240.5,134.0137 " fill="none" style="stroke:#000000;stroke-width:1.5;"/><line style="stroke:#000000;stroke-width:1.5;" x1="238" x2="498" y1="158.6348" y2="158.6348"/><text fill="#000000" font-family="sans-serif" font-size="14" font-weight="bold" lengthAdjust="spacing" textLength="247" x="242" y="151.1211">Application Logic Layer (Controller)</text></g><!--cluster Business Logic Layer (Model)--><g id="cluster_Business Logic Layer (Model)"><path d="M565.5,122.0137 L773.5,122.0137 A3.75,3.75 0 0 1 776,124.5137 L783,146.6348 L856.5,146.6348 A2.5,2.5 0 0 1 859,149.1348 L859,331.5137 A2.5,2.5 0 0 1 856.5,334.0137 L565.5,334.0137 A2.5,2.5 0 0 1 563,331.5137 L563,124.5137 A2.5,2.5 0 0 1 565.5,122.0137 " fill="none" style="stroke:#000000;stroke-width:1.5;"/><line style="stroke:#000000;stroke-width:1.5;" x1="563" x2="783" y1="146.6348" y2="146.6348"/><text fill="#000000" font-family="sans-serif" font-size="14" font-weight="bold" lengthAdjust="spacing" textLength="207" x="567" y="139.1211">Business Logic Layer (Model)</text></g><!--entity PublicAPI--><g id="elem_PublicAPI"><ellipse cx="110" cy="270.0137" fill="#F1F1F1" rx="8" ry="8" style="stroke:#181818;stroke-width:0.5;"/><text fill="#000000" font-family="sans-serif" font-size="14" lengthAdjust="spacing" textLength="59" x="80.5" y="302.1211">PublicAPI</text></g><!--entity ExternalModulePublicAPI--><g id="elem_ExternalModulePublicAPI"><ellipse cx="468" cy="52.0137" fill="#F1F1F1" rx="8" ry="8" style="stroke:#181818;stroke-width:0.5;"/><text fill="#000000" font-family="sans-serif" font-size="14" lengthAdjust="spacing" textLength="156" x="390" y="84.1211">ExternalModulePublicAPI</text></g><!--entity User Interface--><g id="elem_User Interface"><rect fill="#F1F1F1" height="48.6211" rx="2.5" ry="2.5" style="stroke:#181818;stroke-width:0.5;" width="128" x="46" y="154.5137"/><rect fill="#F1F1F1" height="10" style="stroke:#181818;stroke-width:0.5;" width="15" x="154" y="159.5137"/><rect fill="#F1F1F1" height="2" style="stroke:#181818;stroke-width:0.5;" width="4" x="152" y="161.5137"/><rect fill="#F1F1F1" height="2" style="stroke:#181818;stroke-width:0.5;" width="4" x="152" y="165.5137"/><text fill="#000000" font-family="sans-serif" font-size="14" lengthAdjust="spacing" textLength="88" x="61" y="189.6211">User Interface</text></g><!--entity ControllerAPI--><g id="elem_ControllerAPI"><ellipse cx="305.5" cy="287.0137" fill="#F1F1F1" rx="8" ry="8" style="stroke:#181818;stroke-width:0.5;"/><text fill="#000000" font-family="sans-serif" font-size="14" lengthAdjust="spacing" textLength="83" x="264" y="319.1211">ControllerAPI</text></g><!--entity Controller--><g id="elem_Controller"><rect fill="#F1F1F1" height="48.6211" rx="2.5" ry="2.5" style="stroke:#181818;stroke-width:0.5;" width="102" x="417" y="262.5137"/><rect fill="#F1F1F1" height="10" style="stroke:#181818;stroke-width:0.5;" width="15" x="499" y="267.5137"/><rect fill="#F1F1F1" height="2" style="stroke:#181818;stroke-width:0.5;" width="4" x="497" y="269.5137"/><rect fill="#F1F1F1" height="2" style="stroke:#181818;stroke-width:0.5;" width="4" x="497" y="273.5137"/><text fill="#000000" font-family="sans-serif" font-size="14" lengthAdjust="spacing" textLength="62" x="432" y="297.6211">Controller</text></g><!--entity Public API--><g id="elem_Public API"><rect fill="#F1F1F1" height="48.6211" rx="2.5" ry="2.5" style="stroke:#181818;stroke-width:0.5;" width="103" x="254" y="171.5137"/><rect fill="#F1F1F1" height="10" style="stroke:#181818;stroke-width:0.5;" width="15" x="337" y="176.5137"/><rect fill="#F1F1F1" height="2" style="stroke:#181818;stroke-width:0.5;" width="4" x="335" y="178.5137"/><rect fill="#F1F1F1" height="2" style="stroke:#181818;stroke-width:0.5;" width="4" x="335" y="182.5137"/><text fill="#000000" font-family="sans-serif" font-size="14" lengthAdjust="spacing" textLength="63" x="269" y="206.6211">Public API</text></g><!--entity ModelAPI--><g id="elem_ModelAPI"><ellipse cx="616" cy="287.0137" fill="#F1F1F1" rx="8" ry="8" style="stroke:#181818;stroke-width:0.5;"/><text fill="#000000" font-family="sans-serif" font-size="14" lengthAdjust="spacing" textLength="59" x="586.5" y="319.1211">ModelAPI</text></g><!--entity Domain Model--><g id="elem_Domain Model"><rect fill="#F1F1F1" height="48.6211" rx="2.5" ry="2.5" style="stroke:#181818;stroke-width:0.5;" width="130" x="713" y="262.5137"/><rect fill="#F1F1F1" height="10" style="stroke:#181818;stroke-width:0.5;" width="15" x="823" y="267.5137"/><rect fill="#F1F1F1" height="2" style="stroke:#181818;stroke-width:0.5;" width="4" x="821" y="269.5137"/><rect fill="#F1F1F1" height="2" style="stroke:#181818;stroke-width:0.5;" width="4" x="821" y="273.5137"/><text fill="#000000" font-family="sans-serif" font-size="14" lengthAdjust="spacing" textLength="90" x="728" y="297.6211">Domain Model</text></g><!--entity RepoAPI--><g id="elem_RepoAPI"><ellipse cx="616" cy="190.0137" fill="#F1F1F1" rx="8" ry="8" style="stroke:#181818;stroke-width:0.5;"/><text fill="#000000" font-family="sans-serif" font-size="14" lengthAdjust="spacing" textLength="55" x="588.5" y="222.1211">RepoAPI</text></g><!--entity Repository--><g id="elem_Repository"><rect fill="#F1F1F1" height="48.6211" rx="2.5" ry="2.5" style="stroke:#181818;stroke-width:0.5;" width="108" x="724" y="165.5137"/><rect fill="#F1F1F1" height="10" style="stroke:#181818;stroke-width:0.5;" width="15" x="812" y="170.5137"/><rect fill="#F1F1F1" height="2" style="stroke:#181818;stroke-width:0.5;" width="4" x="810" y="172.5137"/><rect fill="#F1F1F1" height="2" style="stroke:#181818;stroke-width:0.5;" width="4" x="810" y="176.5137"/><text fill="#000000" font-family="sans-serif" font-size="14" lengthAdjust="spacing" textLength="68" x="739" y="200.6211">Repository</text></g><!--link ControllerAPI to Controller--><g id="link_ControllerAPI_Controller"><path d="M314.68,287.0137 C333.27,287.0137 379.93,287.0137 416.75,287.0137 " fill="none" id="ControllerAPI-Controller" style="stroke:#181818;stroke-width:1.0;"/></g><!--link ModelAPI to Domain Model--><g id="link_ModelAPI_Domain Model"><path d="M625.15,287.0137 C641.39,287.0137 679.12,287.0137 712.91,287.0137 " fill="none" id="ModelAPI-Domain Model" style="stroke:#181818;stroke-width:1.0;"/></g><!--link RepoAPI to Repository--><g id="link_RepoAPI_Repository"><path d="M625.15,190.0137 C643.18,190.0137 687.67,190.0137 723.86,190.0137 " fill="none" id="RepoAPI-Repository" style="stroke:#181818;stroke-width:1.0;"/></g><!--link PublicAPI to Public API--><g id="link_PublicAPI_Public API"><path d="M119.31,266.8337 C142.17,258.0937 207.36,233.1637 253.91,215.3637 " fill="none" id="PublicAPI-Public API" style="stroke:#181818;stroke-width:1.0;"/></g><!--link Controller to ExternalModulePublicAPI--><g id="link_Controller_ExternalModulePublicAPI"><path d="M468,262.2237 C468,195.1637 468,138.1037 468,71.0437 " fill="none" id="Controller-to-ExternalModulePublicAPI" style="stroke:#181818;stroke-width:1.0;"/><path d="M459.5428,64.1219 A9,9 0 0 0 476.4572 64.1219" fill="none" style="stroke:#181818;stroke-width:1.5;"/></g><!--link User Interface to ControllerAPI--><g id="link_User Interface_ControllerAPI"><path d="M174.42,190.9437 C183.22,194.8737 191.47,200.0837 198,207.0137 C207.76,217.3637 197.04,226.9537 206,238.0137 C230.29,267.9937 267.8111,278.9912 286.6811,283.2112 " fill="none" id="User Interface-to-ControllerAPI" style="stroke:#181818;stroke-width:1.0;"/><path d="M295.2818,276.4685 A9,9 0 0 0 291.5903 292.9752" fill="none" style="stroke:#181818;stroke-width:1.5;"/></g><!--link Controller to ModelAPI--><g id="link_Controller_ModelAPI"><path d="M519.24,287.0137 C551.41,287.0137 580.13,287.0137 596.76,287.0137 " fill="none" id="Controller-to-ModelAPI" style="stroke:#181818;stroke-width:1.0;"/><path d="M603.6818,278.5564 A9,9 0 0 0 603.6818 295.4709" fill="none" style="stroke:#181818;stroke-width:1.5;"/></g><!--link Controller to RepoAPI--><g id="link_Controller_RepoAPI"><path d="M506.22,262.2837 C540.18,239.7237 579.5394,213.5654 598.4694,200.9954 " fill="none" id="Controller-to-RepoAPI" style="stroke:#181818;stroke-width:1.0;"/><path d="M599.5573,190.121 A9,9 0 0 0 608.914 204.2119" fill="none" style="stroke:#181818;stroke-width:1.5;"/></g><!--link Public API to ModelAPI--><g id="link_Public API_ModelAPI"><path d="M357.21,201.6937 C406.03,208.2737 481.34,221.3637 543,245.0137 C567.59,254.4437 585.4456,265.9194 598.4256,275.0994 " fill="none" id="Public API-to-ModelAPI" style="stroke:#181818;stroke-width:1.0;"/><path d="M608.9602,272.1914 A9,9 0 0 0 599.1934 286.0011" fill="none" style="stroke:#181818;stroke-width:1.5;"/></g><!--link Public API to RepoAPI--><g id="link_Public API_RepoAPI"><path d="M357.1,195.0337 C432.99,193.5537 561.2019,191.0587 596.5819,190.3687 " fill="none" id="Public API-to-RepoAPI" style="stroke:#181818;stroke-width:1.0;"/><path d="M603.3375,181.7781 A9,9 0 0 0 603.6673 198.6893" fill="none" style="stroke:#181818;stroke-width:1.5;"/></g><!--SRC=[RL3BQiCm4BphAvPSaXvSttjBqnuC2PX2UWavgFB64PKb8QrfG_6_LugS-D4A1DgPtPdHBiz4rZ_bkLLSKzkeHs6QF5nhD6hAAibhnnkcy4H01foipmILT2X86isOvUAJrmYB4ccZf9O2rjOgANZa5_0pQjaNiEKNTB1wb_Zr44c8vx3t0ImqeJjnWKVM_QkxCrMhy2e9SET7Rh0rTUZhFJP6apDAeHkS1cnT5bbs6EfZ7wLiFrJyGrb4f9jOFRTUQlH-wXDYeHeihcLIVp4DbpeXlVuRMfF8-FAIZBlqHXrBteaUvnZ7X6m5hzzXKvghj93xL5pRV9MGXVx9hsTgWRub_ilqQTaupMnapjn6s2y0]--></g></svg>