<?xml version="1.0" encoding="us-ascii" standalone="no"?><svg xmlns="http://www.w3.org/2000/svg" xmlns:xlink="http://www.w3.org/1999/xlink" contentStyleType="text/css" height="334px" preserveAspectRatio="none" style="width:790px;height:334px;background:#FFFFFF;" version="1.1" viewBox="0 0 790 334" width="790px" zoomAndPan="magnify"><defs/><g><!--cluster PetClinic Module--><g id="cluster_PetClinic Module"><path d="M8.5,6.0137 L128.5,6.0137 A3.75,3.75 0 0 1 131,8.5137 L138,30.6348 L620.5,30.6348 A2.5,2.5 0 0 1 623,33.1348 L623,324.5137 A2.5,2.5 0 0 1 620.5,327.0137 L8.5,327.0137 A2.5,2.5 0 0 1 6,324.5137 L6,8.5137 A2.5,2.5 0 0 1 8.5,6.0137 " fill="none" style="stroke:#000000;stroke-width:1.5;"/><line style="stroke:#000000;stroke-width:1.5;" x1="6" x2="138" y1="30.6348" y2="30.6348"/><text fill="#000000" font-family="sans-serif" font-size="14" font-weight="bold" lengthAdjust="spacing" textLength="119" x="10" y="23.1211">PetClinic Module</text></g><!--cluster Infrastructure--><g id="cluster_Infrastructure"><path d="M40.5,59.0137 L138.5,59.0137 A3.75,3.75 0 0 1 141,61.5137 L148,83.6348 L204.5,83.6348 A2.5,2.5 0 0 1 207,86.1348 L207,292.5137 A2.5,2.5 0 0 1 204.5,295.0137 L40.5,295.0137 A2.5,2.5 0 0 1 38,292.5137 L38,61.5137 A2.5,2.5 0 0 1 40.5,59.0137 " fill="none" style="stroke:#000000;stroke-width:1.5;"/><line style="stroke:#000000;stroke-width:1.5;" x1="38" x2="148" y1="83.6348" y2="83.6348"/><text fill="#000000" font-family="sans-serif" font-size="14" font-weight="bold" lengthAdjust="spacing" textLength="97" x="42" y="76.1211">Infrastructure</text></g><!--cluster Domain--><g id="cluster_Domain"><path d="M249.5,177.0137 L302.5,177.0137 A3.75,3.75 0 0 1 305,179.5137 L312,201.6348 L588.5,201.6348 A2.5,2.5 0 0 1 591,204.1348 L591,292.5137 A2.5,2.5 0 0 1 588.5,295.0137 L249.5,295.0137 A2.5,2.5 0 0 1 247,292.5137 L247,179.5137 A2.5,2.5 0 0 1 249.5,177.0137 " fill="none" style="stroke:#000000;stroke-width:1.5;"/><line style="stroke:#000000;stroke-width:1.5;" x1="247" x2="312" y1="201.6348" y2="201.6348"/><text fill="#000000" font-family="sans-serif" font-size="14" font-weight="bold" lengthAdjust="spacing" textLength="52" x="251" y="194.1211">Domain</text></g><!--cluster External Module--><g id="cluster_External Module"><path d="M649.5,185.0137 L765.5,185.0137 A3.75,3.75 0 0 1 768,187.5137 L775,209.6348 L780.5,209.6348 A2.5,2.5 0 0 1 783,212.1348 L783,284.5137 A2.5,2.5 0 0 1 780.5,287.0137 L649.5,287.0137 A2.5,2.5 0 0 1 647,284.5137 L647,187.5137 A2.5,2.5 0 0 1 649.5,185.0137 " fill="none" style="stroke:#000000;stroke-width:1.5;"/><line style="stroke:#000000;stroke-width:1.5;" x1="647" x2="775" y1="209.6348" y2="209.6348"/><text fill="#000000" font-family="sans-serif" font-size="14" font-weight="bold" lengthAdjust="spacing" textLength="115" x="651" y="202.1211">External Module</text></g><!--entity Controller--><g id="elem_Controller"><rect fill="#F1F1F1" height="48.6211" rx="2.5" ry="2.5" style="stroke:#181818;stroke-width:0.5;" width="102" x="62" y="104.0137"/><rect fill="#F1F1F1" height="10" style="stroke:#181818;stroke-width:0.5;" width="15" x="144" y="109.0137"/><rect fill="#F1F1F1" height="2" style="stroke:#181818;stroke-width:0.5;" width="4" x="142" y="111.0137"/><rect fill="#F1F1F1" height="2" style="stroke:#181818;stroke-width:0.5;" width="4" x="142" y="115.0137"/><text fill="#000000" font-family="sans-serif" font-size="14" lengthAdjust="spacing" textLength="62" x="77" y="139.1211">Controller</text></g><!--entity Repository--><g id="elem_Repository"><rect fill="#F1F1F1" height="48.6211" rx="2.5" ry="2.5" style="stroke:#181818;stroke-width:0.5;" width="108" x="62" y="222.0137"/><rect fill="#F1F1F1" height="10" style="stroke:#181818;stroke-width:0.5;" width="15" x="150" y="227.0137"/><rect fill="#F1F1F1" height="2" style="stroke:#181818;stroke-width:0.5;" width="4" x="148" y="229.0137"/><rect fill="#F1F1F1" height="2" style="stroke:#181818;stroke-width:0.5;" width="4" x="148" y="233.0137"/><text fill="#000000" font-family="sans-serif" font-size="14" lengthAdjust="spacing" textLength="68" x="77" y="257.1211">Repository</text></g><!--entity Aggregates--><g id="elem_Aggregates"><rect fill="#F1F1F1" height="48.6211" rx="2.5" ry="2.5" style="stroke:#181818;stroke-width:0.5;" width="113" x="453.5" y="222.0137"/><rect fill="#F1F1F1" height="10" style="stroke:#181818;stroke-width:0.5;" width="15" x="546.5" y="227.0137"/><rect fill="#F1F1F1" height="2" style="stroke:#181818;stroke-width:0.5;" width="4" x="544.5" y="229.0137"/><rect fill="#F1F1F1" height="2" style="stroke:#181818;stroke-width:0.5;" width="4" x="544.5" y="233.0137"/><text fill="#000000" font-family="sans-serif" font-size="14" lengthAdjust="spacing" textLength="73" x="468.5" y="257.1211">Aggregates</text></g><!--entity Value Objects--><g id="elem_Value Objects"><rect fill="#F1F1F1" height="48.6211" rx="2.5" ry="2.5" style="stroke:#181818;stroke-width:0.5;" width="128" x="290" y="222.0137"/><rect fill="#F1F1F1" height="10" style="stroke:#181818;stroke-width:0.5;" width="15" x="398" y="227.0137"/><rect fill="#F1F1F1" height="2" style="stroke:#181818;stroke-width:0.5;" width="4" x="396" y="229.0137"/><rect fill="#F1F1F1" height="2" style="stroke:#181818;stroke-width:0.5;" width="4" x="396" y="233.0137"/><text fill="#000000" font-family="sans-serif" font-size="14" lengthAdjust="spacing" textLength="88" x="305" y="257.1211">Value Objects</text></g><!--entity Public API--><g id="elem_Public API"><rect fill="#F1F1F1" height="48.6211" rx="2.5" ry="2.5" style="stroke:#181818;stroke-width:0.5;" width="103" x="663.5" y="222.0137"/><rect fill="#F1F1F1" height="10" style="stroke:#181818;stroke-width:0.5;" width="15" x="746.5" y="227.0137"/><rect fill="#F1F1F1" height="2" style="stroke:#181818;stroke-width:0.5;" width="4" x="744.5" y="229.0137"/><rect fill="#F1F1F1" height="2" style="stroke:#181818;stroke-width:0.5;" width="4" x="744.5" y="233.0137"/><text fill="#000000" font-family="sans-serif" font-size="14" lengthAdjust="spacing" textLength="63" x="678.5" y="257.1211">Public API</text></g><!--link Controller to Repository--><g id="link_Controller_Repository"><path d="M113.61,153.2637 C114.13,173.2837 114.7141,195.7857 115.2341,215.7957 " fill="none" id="Controller-to-Repository" style="stroke:#181818;stroke-width:1.0;stroke-dasharray:7.0,7.0;"/><polygon fill="#181818" points="115.39,221.7937,119.1548,212.6928,115.2601,216.7954,111.1575,212.9006,115.39,221.7937" style="stroke:#181818;stroke-width:1.0;"/></g><!--link Infrastructure to Domain--><g id="link_Infrastructure_Domain"><path d="M207.0643,146.2149 C207.1414,146.3746 207.2189,146.5351 207.2968,146.6966 C207.6085,147.3422 207.9269,148.0016 208.2514,148.6738 C213.4441,159.4296 220.2281,173.4818 227.0113,187.5324 C233.7944,201.583 240.5766,215.6321 245.7655,226.3816 C246.0898,227.0535 246.4079,227.7124 246.7193,228.3577 C246.7972,228.519 244.2664,223.2761 244.3434,223.4356 " fill="none" id="Infrastructure-to-Domain" style="stroke:#181818;stroke-width:1.0;stroke-dasharray:7.0,7.0;"/><polygon fill="#181818" points="246.9517,228.8391,246.6416,218.9951,244.7782,224.3362,239.437,222.4728,246.9517,228.8391" style="stroke:#181818;stroke-width:1.0;"/></g><!--link Controller to Public API--><g id="link_Controller_Public API"><path d="M164.02,152.0737 C165.35,152.4137 166.68,152.7337 168,153.0137 C213.09,162.6937 538.86,147.6337 583,161.0137 C623.1,173.1737 658.0621,197.5016 683.2721,217.9716 " fill="none" id="Controller-to-Public API" style="stroke:#181818;stroke-width:1.0;stroke-dasharray:7.0,7.0;"/><polygon fill="#181818" points="687.93,221.7537,683.4646,212.9753,684.0484,218.6019,678.4218,219.1858,687.93,221.7537" style="stroke:#181818;stroke-width:1.0;"/></g><!--SRC=[PKyzJmCn3DtpAwmkJDpj7IfLfKC7nAb35zJ1btD388aZnv50gF-TEqJBGIrvUNuVVdSlghaispO7J5fZQ2p7TjpCYPBU3nwTO3JA6PIXPrMEC7WXgvwJCHdj6pg2HKUw2Jvv2uyyr40B-3G6u7hVfPDWKQbMgtnVOPhd3ISL3e7a-8FiANFnol8n8US_BWySqQTVzTev8OTAvQ8-OAW4J_th-66v6inZe6bM_rDktfiubpHZphEYstSbIHXcFKV_hlPXxBxkTiU9VPit8tm1]--></g></svg>