<?xml version="1.0" encoding="us-ascii" standalone="no"?><svg xmlns="http://www.w3.org/2000/svg" xmlns:xlink="http://www.w3.org/1999/xlink" contentStyleType="text/css" height="826.4px" preserveAspectRatio="none" style="width:1069px;height:826px;background:#FFFFFF;" version="1.1" viewBox="0 0 1069 826" width="1069.6px" zoomAndPan="magnify"><defs/><g><!--cluster PetClinic Application--><g id="cluster_PetClinic Application"><path d="M6.8,4.8109 L122.8,4.8109 A3,3 0 0 1 124.8,6.8109 L130.4,24.5078 L1062,24.5078 A2,2 0 0 1 1064,26.5078 L1064,818.8109 A2,2 0 0 1 1062,820.8109 L6.8,820.8109 A2,2 0 0 1 4.8,818.8109 L4.8,6.8109 A2,2 0 0 1 6.8,4.8109 " fill="none" style="stroke:#000000;stroke-width:1.2000000000000002;"/><line style="stroke:#000000;stroke-width:1.2000000000000002;" x1="4.8" x2="130.4" y1="24.5078" y2="24.5078"/><text fill="#000000" font-family="sans-serif" font-size="11.2" font-weight="bold" lengthAdjust="spacing" textLength="115.2" x="8" y="18.4969">PetClinic Application</text></g><!--cluster UI Layer (View)--><g id="cluster_UI Layer (View)"><path d="M26,372.0109 L109.2,372.0109 A3,3 0 0 1 111.2,374.0109 L116.8,391.7078 L150,391.7078 A2,2 0 0 1 152,393.7078 L152,452.4109 A2,2 0 0 1 150,454.4109 L26,454.4109 A2,2 0 0 1 24,452.4109 L24,374.0109 A2,2 0 0 1 26,372.0109 " fill="none" style="stroke:#000000;stroke-width:1.2000000000000002;"/><line style="stroke:#000000;stroke-width:1.2000000000000002;" x1="24" x2="116.8" y1="391.7078" y2="391.7078"/><text fill="#000000" font-family="sans-serif" font-size="11.2" font-weight="bold" lengthAdjust="spacing" textLength="82.4" x="27.2" y="385.6969">UI Layer (View)</text></g><!--cluster Owner Module--><g id="cluster_Owner Module"><path d="M176.4,621.6109 L259.6,621.6109 A3,3 0 0 1 261.6,623.6109 L267.2,641.3078 L1042.8,641.3078 A2,2 0 0 1 1044.8,643.3078 L1044.8,799.6109 A2,2 0 0 1 1042.8,801.6109 L176.4,801.6109 A2,2 0 0 1 174.4,799.6109 L174.4,623.6109 A2,2 0 0 1 176.4,621.6109 " fill="none" style="stroke:#000000;stroke-width:1.2000000000000002;"/><line style="stroke:#000000;stroke-width:1.2000000000000002;" x1="174.4" x2="267.2" y1="641.3078" y2="641.3078"/><text fill="#000000" font-family="sans-serif" font-size="11.2" font-weight="bold" lengthAdjust="spacing" textLength="82.4" x="177.6" y="635.2969">Owner Module</text></g><!--cluster Application Logic Layer (Owner)--><g id="cluster_Application Logic Layer (Owner)"><path d="M195.6,657.6109 L374,657.6109 A3,3 0 0 1 376,659.6109 L381.6,677.3078 L494.8,677.3078 A2,2 0 0 1 496.8,679.3078 L496.8,747.6109 A2,2 0 0 1 494.8,749.6109 L195.6,749.6109 A2,2 0 0 1 193.6,747.6109 L193.6,659.6109 A2,2 0 0 1 195.6,657.6109 " fill="none" style="stroke:#000000;stroke-width:1.2000000000000002;"/><line style="stroke:#000000;stroke-width:1.2000000000000002;" x1="193.6" x2="381.6" y1="677.3078" y2="677.3078"/><text fill="#000000" font-family="sans-serif" font-size="11.2" font-weight="bold" lengthAdjust="spacing" textLength="177.6" x="196.8" y="671.2969">Application Logic Layer (Owner)</text></g><!--cluster Business Logic Layer (Owner)--><g id="cluster_Business Logic Layer (Owner)"><path d="M521.2,657.6109 L689.2,657.6109 A3,3 0 0 1 691.2,659.6109 L696.8,677.3078 L1023.6,677.3078 A2,2 0 0 1 1025.6,679.3078 L1025.6,780.4109 A2,2 0 0 1 1023.6,782.4109 L521.2,782.4109 A2,2 0 0 1 519.2,780.4109 L519.2,659.6109 A2,2 0 0 1 521.2,657.6109 " fill="none" style="stroke:#000000;stroke-width:1.2000000000000002;"/><line style="stroke:#000000;stroke-width:1.2000000000000002;" x1="519.2" x2="696.8" y1="677.3078" y2="677.3078"/><text fill="#000000" font-family="sans-serif" font-size="11.2" font-weight="bold" lengthAdjust="spacing" textLength="167.2" x="522.4" y="671.2969">Business Logic Layer (Owner)</text></g><!--cluster Pet Module--><g id="cluster_Pet Module"><path d="M175.2,331.2109 L240,331.2109 A3,3 0 0 1 242,333.2109 L247.6,350.9078 L1034.8,350.9078 A2,2 0 0 1 1036.8,352.9078 L1036.8,544.4109 A2,2 0 0 1 1034.8,546.4109 L175.2,546.4109 A2,2 0 0 1 173.2,544.4109 L173.2,333.2109 A2,2 0 0 1 175.2,331.2109 " fill="none" style="stroke:#000000;stroke-width:1.2000000000000002;"/><line style="stroke:#000000;stroke-width:1.2000000000000002;" x1="173.2" x2="247.6" y1="350.9078" y2="350.9078"/><text fill="#000000" font-family="sans-serif" font-size="11.2" font-weight="bold" lengthAdjust="spacing" textLength="64" x="176.4" y="344.8969">Pet Module</text></g><!--cluster Application Logic Layer (Pet)--><g id="cluster_Application Logic Layer (Pet)"><path d="M194.4,367.2109 L354.4,367.2109 A3,3 0 0 1 356.4,369.2109 L362,386.9078 L486.8,386.9078 A2,2 0 0 1 488.8,388.9078 L488.8,525.2109 A2,2 0 0 1 486.8,527.2109 L194.4,527.2109 A2,2 0 0 1 192.4,525.2109 L192.4,369.2109 A2,2 0 0 1 194.4,367.2109 " fill="none" style="stroke:#000000;stroke-width:1.2000000000000002;"/><line style="stroke:#000000;stroke-width:1.2000000000000002;" x1="192.4" x2="362" y1="386.9078" y2="386.9078"/><text fill="#000000" font-family="sans-serif" font-size="11.2" font-weight="bold" lengthAdjust="spacing" textLength="159.2" x="195.6" y="380.8969">Application Logic Layer (Pet)</text></g><!--cluster Business Logic Layer (Pet)--><g id="cluster_Business Logic Layer (Pet)"><path d="M529.2,400.0109 L678.8,400.0109 A3,3 0 0 1 680.8,402.0109 L686.4,419.7078 L1015.6,419.7078 A2,2 0 0 1 1017.6,421.7078 L1017.6,522.8109 A2,2 0 0 1 1015.6,524.8109 L529.2,524.8109 A2,2 0 0 1 527.2,522.8109 L527.2,402.0109 A2,2 0 0 1 529.2,400.0109 " fill="none" style="stroke:#000000;stroke-width:1.2000000000000002;"/><line style="stroke:#000000;stroke-width:1.2000000000000002;" x1="527.2" x2="686.4" y1="419.7078" y2="419.7078"/><text fill="#000000" font-family="sans-serif" font-size="11.2" font-weight="bold" lengthAdjust="spacing" textLength="148.8" x="530.4" y="413.6969">Business Logic Layer (Pet)</text></g><!--cluster Visit Module--><g id="cluster_Visit Module"><path d="M173.2,40.8109 L243.6,40.8109 A3,3 0 0 1 245.6,42.8109 L251.2,60.5078 L1036.8,60.5078 A2,2 0 0 1 1038.8,62.5078 L1038.8,254.0109 A2,2 0 0 1 1036.8,256.0109 L173.2,256.0109 A2,2 0 0 1 171.2,254.0109 L171.2,42.8109 A2,2 0 0 1 173.2,40.8109 " fill="none" style="stroke:#000000;stroke-width:1.2000000000000002;"/><line style="stroke:#000000;stroke-width:1.2000000000000002;" x1="171.2" x2="251.2" y1="60.5078" y2="60.5078"/><text fill="#000000" font-family="sans-serif" font-size="11.2" font-weight="bold" lengthAdjust="spacing" textLength="69.6" x="174.4" y="54.4969">Visit Module</text></g><!--cluster Application Logic Layer (Visit)--><g id="cluster_Application Logic Layer (Visit)"><path d="M192.4,76.8109 L358,76.8109 A3,3 0 0 1 360,78.8109 L365.6,96.5078 L488.8,96.5078 A2,2 0 0 1 490.8,98.5078 L490.8,234.8109 A2,2 0 0 1 488.8,236.8109 L192.4,236.8109 A2,2 0 0 1 190.4,234.8109 L190.4,78.8109 A2,2 0 0 1 192.4,76.8109 " fill="none" style="stroke:#000000;stroke-width:1.2000000000000002;"/><line style="stroke:#000000;stroke-width:1.2000000000000002;" x1="190.4" x2="365.6" y1="96.5078" y2="96.5078"/><text fill="#000000" font-family="sans-serif" font-size="11.2" font-weight="bold" lengthAdjust="spacing" textLength="164.8" x="193.6" y="90.4969">Application Logic Layer (Visit)</text></g><!--cluster Business Logic Layer (Visit)--><g id="cluster_Business Logic Layer (Visit)"><path d="M527.6,76.8109 L682.8,76.8109 A3,3 0 0 1 684.8,78.8109 L690.4,96.5078 L1017.6,96.5078 A2,2 0 0 1 1019.6,98.5078 L1019.6,199.6109 A2,2 0 0 1 1017.6,201.6109 L527.6,201.6109 A2,2 0 0 1 525.6,199.6109 L525.6,78.8109 A2,2 0 0 1 527.6,76.8109 " fill="none" style="stroke:#000000;stroke-width:1.2000000000000002;"/><line style="stroke:#000000;stroke-width:1.2000000000000002;" x1="525.6" x2="690.4" y1="96.5078" y2="96.5078"/><text fill="#000000" font-family="sans-serif" font-size="11.2" font-weight="bold" lengthAdjust="spacing" textLength="154.4" x="528.8" y="90.4969">Business Logic Layer (Visit)</text></g><!--entity PetManagementAPI--><g id="elem_PetManagementAPI"><ellipse cx="576.8" cy="584.0109" fill="#F1F1F1" rx="6.4" ry="6.4" style="stroke:#181818;stroke-width:0.4000000000000001;"/><text fill="#000000" font-family="sans-serif" font-size="11.2" lengthAdjust="spacing" textLength="99.2" x="527.2" y="609.6969">PetManagementAPI</text></g><!--entity VisitManagementAPI--><g id="elem_VisitManagementAPI"><ellipse cx="576.8" cy="293.6109" fill="#F1F1F1" rx="6.4" ry="6.4" style="stroke:#181818;stroke-width:0.4000000000000001;"/><text fill="#000000" font-family="sans-serif" font-size="11.2" lengthAdjust="spacing" textLength="103.2" x="525.2" y="319.2969">VisitManagementAPI</text></g><g id="elem_GMN67"><path d="M669.6,559.2109 L669.6,580.8109 L584.208,584.0109 L669.6,587.2109 L669.6,608.7094 A0,0 0 0 0 669.6,608.7094 L858.4,608.7094 A0,0 0 0 0 858.4,608.7094 L858.4,567.2109 L850.4,559.2109 L669.6,559.2109 A0,0 0 0 0 669.6,559.2109 " fill="#FEFFDD" style="stroke:#181818;stroke-width:0.4000000000000001;"/><path d="M850.4,559.2109 L850.4,567.2109 L858.4,567.2109 L850.4,559.2109 " fill="#FEFFDD" style="stroke:#181818;stroke-width:0.4000000000000001;"/><text fill="#000000" font-family="sans-serif" font-size="10.4" lengthAdjust="spacing" textLength="119.2" x="674.4" y="574.4336">Public API for Pet Module</text><text fill="#000000" font-family="sans-serif" font-size="10.4" lengthAdjust="spacing" textLength="172" x="674.4" y="588.2664">enabling inter-module communication</text><text fill="#000000" font-family="sans-serif" font-size="10.4" lengthAdjust="spacing" textLength="88" x="674.4" y="602.0992">with Owner Module</text></g><g id="elem_GMN70"><path d="M669.6,268.8109 L669.6,290.4109 L584.208,293.6109 L669.6,296.8109 L669.6,318.3094 A0,0 0 0 0 669.6,318.3094 L858.4,318.3094 A0,0 0 0 0 858.4,318.3094 L858.4,276.8109 L850.4,268.8109 L669.6,268.8109 A0,0 0 0 0 669.6,268.8109 " fill="#FEFFDD" style="stroke:#181818;stroke-width:0.4000000000000001;"/><path d="M850.4,268.8109 L850.4,276.8109 L858.4,276.8109 L850.4,268.8109 " fill="#FEFFDD" style="stroke:#181818;stroke-width:0.4000000000000001;"/><text fill="#000000" font-family="sans-serif" font-size="10.4" lengthAdjust="spacing" textLength="124" x="674.4" y="284.0336">Public API for Visit Module</text><text fill="#000000" font-family="sans-serif" font-size="10.4" lengthAdjust="spacing" textLength="172" x="674.4" y="297.8664">enabling inter-module communication</text><text fill="#000000" font-family="sans-serif" font-size="10.4" lengthAdjust="spacing" textLength="74.4" x="674.4" y="311.6992">with Pet Module</text></g><!--entity User Interface--><g id="elem_User Interface"><rect fill="#F1F1F1" height="38.8969" rx="2" ry="2" style="stroke:#181818;stroke-width:0.4000000000000001;" width="102.4" x="36.8" y="402.0109"/><rect fill="#F1F1F1" height="8" style="stroke:#181818;stroke-width:0.4000000000000001;" width="12" x="123.2" y="406.0109"/><rect fill="#F1F1F1" height="1.6" style="stroke:#181818;stroke-width:0.4000000000000001;" width="3.2" x="121.6" y="407.6109"/><rect fill="#F1F1F1" height="1.6" style="stroke:#181818;stroke-width:0.4000000000000001;" width="3.2" x="121.6" y="410.8109"/><text fill="#000000" font-family="sans-serif" font-size="11.2" lengthAdjust="spacing" textLength="70.4" x="48.8" y="430.0969">User Interface</text></g><!--entity OwnerControllerAPI--><g id="elem_OwnerControllerAPI"><ellipse cx="262.4" cy="712.0109" fill="#F1F1F1" rx="6.4" ry="6.4" style="stroke:#181818;stroke-width:0.4000000000000001;"/><text fill="#000000" font-family="sans-serif" font-size="11.2" lengthAdjust="spacing" textLength="99.2" x="212.8" y="737.6969">OwnerControllerAPI</text></g><!--entity OwnerController--><g id="elem_OwnerController"><rect fill="#F1F1F1" height="38.8969" rx="2" ry="2" style="stroke:#181818;stroke-width:0.4000000000000001;" width="114.4" x="369.6" y="690.0109"/><rect fill="#F1F1F1" height="8" style="stroke:#181818;stroke-width:0.4000000000000001;" width="12" x="468" y="694.0109"/><rect fill="#F1F1F1" height="1.6" style="stroke:#181818;stroke-width:0.4000000000000001;" width="3.2" x="466.4" y="695.6109"/><rect fill="#F1F1F1" height="1.6" style="stroke:#181818;stroke-width:0.4000000000000001;" width="3.2" x="466.4" y="698.8109"/><text fill="#000000" font-family="sans-serif" font-size="11.2" lengthAdjust="spacing" textLength="82.4" x="381.6" y="718.0969">OwnerController</text></g><!--entity OwnerModelAPI--><g id="elem_OwnerModelAPI"><ellipse cx="764" cy="762.4109" fill="#F1F1F1" rx="6.4" ry="6.4" style="stroke:#181818;stroke-width:0.4000000000000001;"/><text fill="#000000" font-family="sans-serif" font-size="11.2" lengthAdjust="spacing" textLength="80" x="724" y="788.0969">OwnerModelAPI</text></g><!--entity Domain Owner--><g id="elem_Domain Owner"><rect fill="#F1F1F1" height="38.8969" rx="2" ry="2" style="stroke:#181818;stroke-width:0.4000000000000001;" width="106.4" x="906.4" y="730.0109"/><rect fill="#F1F1F1" height="8" style="stroke:#181818;stroke-width:0.4000000000000001;" width="12" x="996.8" y="734.0109"/><rect fill="#F1F1F1" height="1.6" style="stroke:#181818;stroke-width:0.4000000000000001;" width="3.2" x="995.2" y="735.6109"/><rect fill="#F1F1F1" height="1.6" style="stroke:#181818;stroke-width:0.4000000000000001;" width="3.2" x="995.2" y="738.8109"/><text fill="#000000" font-family="sans-serif" font-size="11.2" lengthAdjust="spacing" textLength="74.4" x="918.4" y="758.0969">Domain Owner</text></g><!--entity OwnerRepoAPI--><g id="elem_OwnerRepoAPI"><ellipse cx="576.8" cy="712.0109" fill="#F1F1F1" rx="6.4" ry="6.4" style="stroke:#181818;stroke-width:0.4000000000000001;"/><text fill="#000000" font-family="sans-serif" font-size="11.2" lengthAdjust="spacing" textLength="76.8" x="538.4" y="737.6969">OwnerRepoAPI</text></g><!--entity OwnerRepository--><g id="elem_OwnerRepository"><rect fill="#F1F1F1" height="38.8969" rx="2" ry="2" style="stroke:#181818;stroke-width:0.4000000000000001;" width="119.2" x="704.4" y="687.6109"/><rect fill="#F1F1F1" height="8" style="stroke:#181818;stroke-width:0.4000000000000001;" width="12" x="807.6" y="691.6109"/><rect fill="#F1F1F1" height="1.6" style="stroke:#181818;stroke-width:0.4000000000000001;" width="3.2" x="806" y="693.2109"/><rect fill="#F1F1F1" height="1.6" style="stroke:#181818;stroke-width:0.4000000000000001;" width="3.2" x="806" y="696.4109"/><text fill="#000000" font-family="sans-serif" font-size="11.2" lengthAdjust="spacing" textLength="87.2" x="716.4" y="715.6969">OwnerRepository</text></g><!--entity PetControllerAPI--><g id="elem_PetControllerAPI"><ellipse cx="262.4" cy="421.6109" fill="#F1F1F1" rx="6.4" ry="6.4" style="stroke:#181818;stroke-width:0.4000000000000001;"/><text fill="#000000" font-family="sans-serif" font-size="11.2" lengthAdjust="spacing" textLength="83.2" x="220.8" y="447.2969">PetControllerAPI</text></g><!--entity PetController--><g id="elem_PetController"><rect fill="#F1F1F1" height="38.8969" rx="2" ry="2" style="stroke:#181818;stroke-width:0.4000000000000001;" width="98.4" x="377.6" y="399.6109"/><rect fill="#F1F1F1" height="8" style="stroke:#181818;stroke-width:0.4000000000000001;" width="12" x="460" y="403.6109"/><rect fill="#F1F1F1" height="1.6" style="stroke:#181818;stroke-width:0.4000000000000001;" width="3.2" x="458.4" y="405.2109"/><rect fill="#F1F1F1" height="1.6" style="stroke:#181818;stroke-width:0.4000000000000001;" width="3.2" x="458.4" y="408.4109"/><text fill="#000000" font-family="sans-serif" font-size="11.2" lengthAdjust="spacing" textLength="66.4" x="389.6" y="427.6969">PetController</text></g><!--entity PetManagement--><g id="elem_PetManagement"><rect fill="#F1F1F1" height="38.8969" rx="2" ry="2" style="stroke:#181818;stroke-width:0.4000000000000001;" width="114.4" x="205.2" y="474.8109"/><rect fill="#F1F1F1" height="8" style="stroke:#181818;stroke-width:0.4000000000000001;" width="12" x="303.6" y="478.8109"/><rect fill="#F1F1F1" height="1.6" style="stroke:#181818;stroke-width:0.4000000000000001;" width="3.2" x="302" y="480.4109"/><rect fill="#F1F1F1" height="1.6" style="stroke:#181818;stroke-width:0.4000000000000001;" width="3.2" x="302" y="483.6109"/><text fill="#000000" font-family="sans-serif" font-size="11.2" lengthAdjust="spacing" textLength="82.4" x="217.2" y="502.8969">PetManagement</text></g><!--entity PetModelAPI--><g id="elem_PetModelAPI"><ellipse cx="764" cy="504.8109" fill="#F1F1F1" rx="6.4" ry="6.4" style="stroke:#181818;stroke-width:0.4000000000000001;"/><text fill="#000000" font-family="sans-serif" font-size="11.2" lengthAdjust="spacing" textLength="64" x="732" y="530.4969">PetModelAPI</text></g><!--entity Domain Pet--><g id="elem_Domain Pet"><rect fill="#F1F1F1" height="38.8969" rx="2" ry="2" style="stroke:#181818;stroke-width:0.4000000000000001;" width="90.4" x="914.4" y="472.4109"/><rect fill="#F1F1F1" height="8" style="stroke:#181818;stroke-width:0.4000000000000001;" width="12" x="988.8" y="476.4109"/><rect fill="#F1F1F1" height="1.6" style="stroke:#181818;stroke-width:0.4000000000000001;" width="3.2" x="987.2" y="478.0109"/><rect fill="#F1F1F1" height="1.6" style="stroke:#181818;stroke-width:0.4000000000000001;" width="3.2" x="987.2" y="481.2109"/><text fill="#000000" font-family="sans-serif" font-size="11.2" lengthAdjust="spacing" textLength="58.4" x="926.4" y="500.4969">Domain Pet</text></g><!--entity PetRepoAPI--><g id="elem_PetRepoAPI"><ellipse cx="576.8" cy="454.4109" fill="#F1F1F1" rx="6.4" ry="6.4" style="stroke:#181818;stroke-width:0.4000000000000001;"/><text fill="#000000" font-family="sans-serif" font-size="11.2" lengthAdjust="spacing" textLength="60.8" x="546.4" y="480.0969">PetRepoAPI</text></g><!--entity PetRepository--><g id="elem_PetRepository"><rect fill="#F1F1F1" height="38.8969" rx="2" ry="2" style="stroke:#181818;stroke-width:0.4000000000000001;" width="103.2" x="712.4" y="430.0109"/><rect fill="#F1F1F1" height="8" style="stroke:#181818;stroke-width:0.4000000000000001;" width="12" x="799.6" y="434.0109"/><rect fill="#F1F1F1" height="1.6" style="stroke:#181818;stroke-width:0.4000000000000001;" width="3.2" x="798" y="435.6109"/><rect fill="#F1F1F1" height="1.6" style="stroke:#181818;stroke-width:0.4000000000000001;" width="3.2" x="798" y="438.8109"/><text fill="#000000" font-family="sans-serif" font-size="11.2" lengthAdjust="spacing" textLength="71.2" x="724.4" y="458.0969">PetRepository</text></g><!--entity VisitControllerAPI--><g id="elem_VisitControllerAPI"><ellipse cx="262.4" cy="131.2109" fill="#F1F1F1" rx="6.4" ry="6.4" style="stroke:#181818;stroke-width:0.4000000000000001;"/><text fill="#000000" font-family="sans-serif" font-size="11.2" lengthAdjust="spacing" textLength="87.2" x="218.8" y="156.8969">VisitControllerAPI</text></g><!--entity VisitController--><g id="elem_VisitController"><rect fill="#F1F1F1" height="38.8969" rx="2" ry="2" style="stroke:#181818;stroke-width:0.4000000000000001;" width="102.4" x="375.6" y="146.0109"/><rect fill="#F1F1F1" height="8" style="stroke:#181818;stroke-width:0.4000000000000001;" width="12" x="462" y="150.0109"/><rect fill="#F1F1F1" height="1.6" style="stroke:#181818;stroke-width:0.4000000000000001;" width="3.2" x="460.4" y="151.6109"/><rect fill="#F1F1F1" height="1.6" style="stroke:#181818;stroke-width:0.4000000000000001;" width="3.2" x="460.4" y="154.8109"/><text fill="#000000" font-family="sans-serif" font-size="11.2" lengthAdjust="spacing" textLength="70.4" x="387.6" y="174.0969">VisitController</text></g><!--entity VisitManagement--><g id="elem_VisitManagement"><rect fill="#F1F1F1" height="38.8969" rx="2" ry="2" style="stroke:#181818;stroke-width:0.4000000000000001;" width="118.4" x="203.2" y="184.4109"/><rect fill="#F1F1F1" height="8" style="stroke:#181818;stroke-width:0.4000000000000001;" width="12" x="305.6" y="188.4109"/><rect fill="#F1F1F1" height="1.6" style="stroke:#181818;stroke-width:0.4000000000000001;" width="3.2" x="304" y="190.0109"/><rect fill="#F1F1F1" height="1.6" style="stroke:#181818;stroke-width:0.4000000000000001;" width="3.2" x="304" y="193.2109"/><text fill="#000000" font-family="sans-serif" font-size="11.2" lengthAdjust="spacing" textLength="86.4" x="215.2" y="212.4969">VisitManagement</text></g><!--entity VisitModelAPI--><g id="elem_VisitModelAPI"><ellipse cx="764" cy="181.6109" fill="#F1F1F1" rx="6.4" ry="6.4" style="stroke:#181818;stroke-width:0.4000000000000001;"/><text fill="#000000" font-family="sans-serif" font-size="11.2" lengthAdjust="spacing" textLength="68" x="730" y="207.2969">VisitModelAPI</text></g><!--entity Domain Visit--><g id="elem_Domain Visit"><rect fill="#F1F1F1" height="38.8969" rx="2" ry="2" style="stroke:#181818;stroke-width:0.4000000000000001;" width="94.4" x="912.4" y="149.2109"/><rect fill="#F1F1F1" height="8" style="stroke:#181818;stroke-width:0.4000000000000001;" width="12" x="990.8" y="153.2109"/><rect fill="#F1F1F1" height="1.6" style="stroke:#181818;stroke-width:0.4000000000000001;" width="3.2" x="989.2" y="154.8109"/><rect fill="#F1F1F1" height="1.6" style="stroke:#181818;stroke-width:0.4000000000000001;" width="3.2" x="989.2" y="158.0109"/><text fill="#000000" font-family="sans-serif" font-size="11.2" lengthAdjust="spacing" textLength="62.4" x="924.4" y="177.2969">Domain Visit</text></g><!--entity VisitRepoAPI--><g id="elem_VisitRepoAPI"><ellipse cx="576.8" cy="131.2109" fill="#F1F1F1" rx="6.4" ry="6.4" style="stroke:#181818;stroke-width:0.4000000000000001;"/><text fill="#000000" font-family="sans-serif" font-size="11.2" lengthAdjust="spacing" textLength="64.8" x="544.4" y="156.8969">VisitRepoAPI</text></g><!--entity VisitRepository--><g id="elem_VisitRepository"><rect fill="#F1F1F1" height="38.8969" rx="2" ry="2" style="stroke:#181818;stroke-width:0.4000000000000001;" width="107.2" x="710.4" y="106.8109"/><rect fill="#F1F1F1" height="8" style="stroke:#181818;stroke-width:0.4000000000000001;" width="12" x="801.6" y="110.8109"/><rect fill="#F1F1F1" height="1.6" style="stroke:#181818;stroke-width:0.4000000000000001;" width="3.2" x="800" y="112.4109"/><rect fill="#F1F1F1" height="1.6" style="stroke:#181818;stroke-width:0.4000000000000001;" width="3.2" x="800" y="115.6109"/><text fill="#000000" font-family="sans-serif" font-size="11.2" lengthAdjust="spacing" textLength="75.2" x="722.4" y="134.8969">VisitRepository</text></g><!--link OwnerControllerAPI to OwnerController--><g id="link_OwnerControllerAPI_OwnerController"><path d="M269.784,711.9149 C286.496,711.6669 331.92,710.9949 369.504,710.4429 " fill="none" id="OwnerControllerAPI-OwnerController" style="stroke:#181818;stroke-width:0.8000000000000002;"/></g><!--link OwnerModelAPI to Domain Owner--><g id="link_OwnerModelAPI_Domain Owner"><path d="M771.256,761.9869 C792,760.6189 858.392,756.2349 906.296,753.0749 " fill="none" id="OwnerModelAPI-Domain Owner" style="stroke:#181818;stroke-width:0.8000000000000002;"/></g><!--link OwnerRepoAPI to OwnerRepository--><g id="link_OwnerRepoAPI_OwnerRepository"><path d="M584.208,711.8429 C603.256,711.3469 659.776,709.8829 704.264,708.7389 " fill="none" id="OwnerRepoAPI-OwnerRepository" style="stroke:#181818;stroke-width:0.8000000000000002;"/></g><!--link OwnerController to OwnerModelAPI--><g id="link_OwnerController_OwnerModelAPI"><path d="M459.976,729.3149 C475.4,737.6669 494.456,746.5389 512.8,751.2109 C607.048,775.2189 719.62,766.6008 748.708,763.8328 " fill="none" id="OwnerController-to-OwnerModelAPI" style="stroke:#181818;stroke-width:0.8000000000000002;"/><path d="M753.5796,756.5729 A7.2,7.2 0 0 0 754.8615 770.0436" fill="none" style="stroke:#181818;stroke-width:1.2000000000000002;"/></g><!--link OwnerController to OwnerRepoAPI--><g id="link_OwnerController_OwnerRepoAPI"><path d="M484.128,710.5229 C516.888,711.0589 546.537,711.5381 561.441,711.7781 " fill="none" id="OwnerController-to-OwnerRepoAPI" style="stroke:#181818;stroke-width:0.8000000000000002;"/><path d="M567.0867,705.1024 A7.2,7.2 0 0 0 566.8688 718.6322" fill="none" style="stroke:#181818;stroke-width:1.2000000000000002;"/></g><!--link OwnerRepository to OwnerModelAPI--><g id="link_OwnerRepository_OwnerModelAPI"><path d="M764,727.0349 C764,736.3789 764,737.7309 764,747.0829 " fill="none" id="OwnerRepository-to-OwnerModelAPI" style="stroke:#181818;stroke-width:0.8000000000000002;"/><path d="M770.7658,752.6204 A7.2,7.2 0 0 0 757.2342 752.6204" fill="none" style="stroke:#181818;stroke-width:1.2000000000000002;"/></g><!--link PetControllerAPI to PetController--><g id="link_PetControllerAPI_PetController"><path d="M269.784,421.5149 C287.688,421.2509 338.536,420.4989 377.4,419.9309 " fill="none" id="PetControllerAPI-PetController" style="stroke:#181818;stroke-width:0.8000000000000002;"/></g><!--link PetModelAPI to Domain Pet--><g id="link_PetModelAPI_Domain Pet"><path d="M771.256,504.3869 C793.184,502.9389 866.112,498.1229 914.304,494.9469 " fill="none" id="PetModelAPI-Domain Pet" style="stroke:#181818;stroke-width:0.8000000000000002;"/></g><!--link PetRepoAPI to PetRepository--><g id="link_PetRepoAPI_PetRepository"><path d="M584.208,454.2429 C604.416,453.7149 666.808,452.1069 712.256,450.9309 " fill="none" id="PetRepoAPI-PetRepository" style="stroke:#181818;stroke-width:0.8000000000000002;"/></g><!--link PetController to PetModelAPI--><g id="link_PetController_PetModelAPI"><path d="M476.144,405.8909 C517.248,397.3869 576.512,391.8509 621.6,415.2109 C654.448,432.2269 638.888,462.5869 669.6,483.2109 C697.84,502.1789 732.5127,504.5281 748.6807,504.7441 " fill="none" id="PetController-to-PetModelAPI" style="stroke:#181818;stroke-width:0.8000000000000002;"/><path d="M754.3081,498.0529 A7.2,7.2 0 0 0 754.1273 511.5832" fill="none" style="stroke:#181818;stroke-width:1.2000000000000002;"/></g><!--link PetController to PetRepoAPI--><g id="link_PetController_PetRepoAPI"><path d="M476.192,430.7389 C510.68,438.9149 545.8005,447.2424 561.8005,451.0424 " fill="none" id="PetController-to-PetRepoAPI" style="stroke:#181818;stroke-width:0.8000000000000002;"/><path d="M568.7515,445.7392 A7.2,7.2 0 0 0 565.6247 458.9046" fill="none" style="stroke:#181818;stroke-width:1.2000000000000002;"/></g><!--link PetManagement to PetModelAPI--><g id="link_PetManagement_PetModelAPI"><path d="M319.824,495.5869 C439.48,498.0749 702.8337,503.5565 748.5937,504.5085 " fill="none" id="PetManagement-to-PetModelAPI" style="stroke:#181818;stroke-width:0.8000000000000002;"/><path d="M754.2707,497.8594 A7.2,7.2 0 0 0 753.9893 511.388" fill="none" style="stroke:#181818;stroke-width:1.2000000000000002;"/></g><!--link PetManagement to PetRepoAPI--><g id="link_PetManagement_PetRepoAPI"><path d="M319.848,487.1709 C399.424,476.9949 530.2006,460.2653 561.6166,456.2493 " fill="none" id="PetManagement-to-PetRepoAPI" style="stroke:#181818;stroke-width:0.8000000000000002;"/><path d="M566.2514,448.836 A7.2,7.2 0 0 0 567.9672 462.2584" fill="none" style="stroke:#181818;stroke-width:1.2000000000000002;"/></g><!--link PetRepository to PetModelAPI--><g id="link_PetRepository_PetModelAPI"><path d="M764,469.4349 C764,478.7789 764,480.1309 764,489.4829 " fill="none" id="PetRepository-to-PetModelAPI" style="stroke:#181818;stroke-width:0.8000000000000002;"/><path d="M770.7658,495.0204 A7.2,7.2 0 0 0 757.2342 495.0204" fill="none" style="stroke:#181818;stroke-width:1.2000000000000002;"/></g><!--link VisitControllerAPI to VisitController--><g id="link_VisitControllerAPI_VisitController"><path d="M269.784,132.6029 C287.392,136.3229 336.856,146.7709 375.448,154.9309 " fill="none" id="VisitControllerAPI-VisitController" style="stroke:#181818;stroke-width:0.8000000000000002;"/></g><!--link VisitModelAPI to Domain Visit--><g id="link_VisitModelAPI_Domain Visit"><path d="M771.256,181.1869 C792.888,179.7549 864.152,175.0589 912.336,171.8749 " fill="none" id="VisitModelAPI-Domain Visit" style="stroke:#181818;stroke-width:0.8000000000000002;"/></g><!--link VisitRepoAPI to VisitRepository--><g id="link_VisitRepoAPI_VisitRepository"><path d="M584.208,131.0429 C604.128,130.5229 665.024,128.9469 710.288,127.7789 " fill="none" id="VisitRepoAPI-VisitRepository" style="stroke:#181818;stroke-width:0.8000000000000002;"/></g><!--link VisitController to VisitModelAPI--><g id="link_VisitController_VisitModelAPI"><path d="M478.208,168.0269 C561.704,172.0029 714.545,179.2952 748.721,180.9192 " fill="none" id="VisitController-to-VisitModelAPI" style="stroke:#181818;stroke-width:0.8000000000000002;"/><path d="M754.5734,174.4239 A7.2,7.2 0 0 0 753.9311 187.9402" fill="none" style="stroke:#181818;stroke-width:1.2000000000000002;"/></g><!--link VisitController to VisitRepoAPI--><g id="link_VisitController_VisitRepoAPI"><path d="M478.048,153.9149 C512.16,146.0109 545.9749,138.1708 561.7349,134.5148 " fill="none" id="VisitController-to-VisitRepoAPI" style="stroke:#181818;stroke-width:0.8000000000000002;"/><path d="M565.6002,126.6726 A7.2,7.2 0 0 0 568.6581 139.8542" fill="none" style="stroke:#181818;stroke-width:1.2000000000000002;"/></g><!--link VisitManagement to VisitModelAPI--><g id="link_VisitManagement_VisitModelAPI"><path d="M321.664,203.6189 C370.28,203.1069 441.264,201.9229 503.2,199.2109 C604.448,194.7709 719.6043,185.2996 748.8043,182.8356 " fill="none" id="VisitManagement-to-VisitModelAPI" style="stroke:#181818;stroke-width:0.8000000000000002;"/><path d="M753.7533,175.6282 A7.2,7.2 0 0 0 754.8911 189.1118" fill="none" style="stroke:#181818;stroke-width:1.2000000000000002;"/></g><!--link VisitManagement to VisitRepoAPI--><g id="link_VisitManagement_VisitRepoAPI"><path d="M298.256,184.3789 C306.064,179.7309 314.208,174.6509 321.6,169.6109 C343.992,154.3469 344,140.8989 369.6,132.0109 C444.072,106.1549 535.1494,122.4904 561.4934,128.0664 " fill="none" id="VisitManagement-to-VisitRepoAPI" style="stroke:#181818;stroke-width:0.8000000000000002;"/><path d="M568.3118,122.5939 A7.2,7.2 0 0 0 565.5098 135.8322" fill="none" style="stroke:#181818;stroke-width:1.2000000000000002;"/></g><!--link VisitRepository to VisitModelAPI--><g id="link_VisitRepository_VisitModelAPI"><path d="M764,146.2349 C764,155.5789 764,156.9309 764,166.2829 " fill="none" id="VisitRepository-to-VisitModelAPI" style="stroke:#181818;stroke-width:0.8000000000000002;"/><path d="M770.7658,171.8204 A7.2,7.2 0 0 0 757.2342 171.8204" fill="none" style="stroke:#181818;stroke-width:1.2000000000000002;"/></g><!--link User Interface to OwnerControllerAPI--><g id="link_User Interface_OwnerControllerAPI"><path d="M100.544,441.3469 C135.032,499.2989 230.9021,660.4154 253.1021,697.7354 " fill="none" id="User Interface-to-OwnerControllerAPI" style="stroke:#181818;stroke-width:0.8000000000000002;"/><path d="M261.7478,699.0356 A7.2,7.2 0 0 0 250.1183 705.9535" fill="none" style="stroke:#181818;stroke-width:1.2000000000000002;"/></g><!--link User Interface to PetControllerAPI--><g id="link_User Interface_PetControllerAPI"><path d="M139.248,421.6109 C180.888,421.6109 228.088,421.6109 246.952,421.6109 " fill="none" id="User Interface-to-PetControllerAPI" style="stroke:#181818;stroke-width:0.8000000000000002;"/><path d="M252.4895,414.8452 A7.2,7.2 0 0 0 252.4895 428.3767" fill="none" style="stroke:#181818;stroke-width:1.2000000000000002;"/></g><!--link User Interface to VisitControllerAPI--><g id="link_User Interface_VisitControllerAPI"><path d="M89.232,401.8669 C91.304,355.4909 102.744,238.3869 164.8,170.4109 C190.104,142.6909 229.8425,135.2006 247.1625,132.9526 " fill="none" id="User Interface-to-VisitControllerAPI" style="stroke:#181818;stroke-width:0.8000000000000002;"/><path d="M251.7831,125.5304 A7.2,7.2 0 0 0 253.5248 138.9494" fill="none" style="stroke:#181818;stroke-width:1.2000000000000002;"/></g><!--link PetManagementAPI to PetManagement--><g id="link_PetManagementAPI_PetManagement"><path d="M569.552,582.1629 C538.136,573.1629 399.424,533.4349 319.848,510.6349 " fill="none" id="PetManagementAPI-PetManagement" style="stroke:#181818;stroke-width:0.8000000000000002;"/></g><!--link VisitManagementAPI to VisitManagement--><g id="link_VisitManagementAPI_VisitManagement"><path d="M569.424,291.7309 C538.008,282.7309 401.416,243.6029 321.672,220.7549 " fill="none" id="VisitManagementAPI-VisitManagement" style="stroke:#181818;stroke-width:0.8000000000000002;"/></g><!--link OwnerController to PetManagementAPI--><g id="link_OwnerController_PetManagementAPI"><path d="M484.088,697.5149 C490.864,694.7469 497.416,691.3629 503.2,687.2109 C505.584,685.4989 550.2995,621.1065 566.4035,597.8665 " fill="none" id="OwnerController-to-PetManagementAPI" style="stroke:#181818;stroke-width:0.8000000000000002;"/><path d="M563.9963,589.4615 A7.2,7.2 0 0 0 575.1185 597.1686" fill="none" style="stroke:#181818;stroke-width:1.2000000000000002;"/></g><!--link PetController to VisitManagementAPI--><g id="link_PetController_VisitManagementAPI"><path d="M476.2,409.4509 C485.696,406.1629 495.184,401.7949 503.2,396.0109 C539.456,369.8349 561.0482,327.2117 569.5202,308.3637 " fill="none" id="PetController-to-VisitManagementAPI" style="stroke:#181818;stroke-width:0.8000000000000002;"/><path d="M565.6194,300.5392 A7.2,7.2 0 0 0 577.9615 306.0868" fill="none" style="stroke:#181818;stroke-width:1.2000000000000002;"/></g><!--link PetManagement to OwnerController--><!--link VisitManagement to OwnerController--><!--SRC=[bLN1RjmW5Bpp5K-v93suU-yjJIyh9UegKd9P-K3jjrvK31R6MaNL_dk1k3Oyo3QxqXvu33CmumUtHsk7yTjcCqYkxDJBhutkD-u_Q8NALgtWdU4zatYmO3KOqHqjjC9WOuLMZB61DxzvXt2pG_iWXH8Dt0-350ttW1lu4q5Ujl38tz30tQl0qnS_2VwtVnbTSQiicWDli6RdQD7FatAJJxgT90OwW6KkKe97tJdjcJyiMWN2y44hQxIKQEvtswhQasBjeEU4_Viq2eNZ-7zgjpkKxwm_TC-5UY_N4UGP1ntf-k4eh3PlYsws8QYgkvJ_CcgMM42H1cHCYSSkksiTTajM4tpsnDsaD1lXYqzSEUBUVLoVDPmgvMQxOhrChqRF0sfpkhDWNyJwCIAoDpt71nG5H4f1yeaPud1UXGDT6qzOjDeMXZGYKlmNKYXV7rD9COygbEi8iiQr36bWT9_1pOJ_CYfodPxj0bKHHQb8X2cJspszsTPcJS8eusXNbL5vj8mbNvztbtOUEM60PBcNhnhApKhjalCpblN4_YZQ5bNTLlcjnWeXNCGpfItExvC-vBlSJR-aVvjsMpXe0-kDnr1nDwKw4DxOgWzLS6zWFwcvjzX9s2F4Bv5RrOANfCA5anFfk9y_BvviU9O-_mK0]--></g></svg>