<?xml version="1.0" encoding="us-ascii" standalone="no"?><svg xmlns="http://www.w3.org/2000/svg" xmlns:xlink="http://www.w3.org/1999/xlink" contentStyleType="text/css" height="830.4px" preserveAspectRatio="none" style="width:1245px;height:830px;background:#FFFFFF;" version="1.1" viewBox="0 0 1245 830" width="1245.6px" zoomAndPan="magnify"><defs/><g><!--cluster PetClinic Application--><g id="cluster_PetClinic Application"><path d="M6.8,4.8109 L122.8,4.8109 A3,3 0 0 1 124.8,6.8109 L130.4,24.5078 L1238.4,24.5078 A2,2 0 0 1 1240.4,26.5078 L1240.4,822.8109 A2,2 0 0 1 1238.4,824.8109 L6.8,824.8109 A2,2 0 0 1 4.8,822.8109 L4.8,6.8109 A2,2 0 0 1 6.8,4.8109 " fill="none" style="stroke:#000000;stroke-width:1.2000000000000002;"/><line style="stroke:#000000;stroke-width:1.2000000000000002;" x1="4.8" x2="130.4" y1="24.5078" y2="24.5078"/><text fill="#000000" font-family="sans-serif" font-size="11.2" font-weight="bold" lengthAdjust="spacing" textLength="115.2" x="8" y="18.4969">PetClinic Application</text></g><!--cluster UI Layer (View)--><g id="cluster_UI Layer (View)"><path d="M26,424.0109 L109.2,424.0109 A3,3 0 0 1 111.2,426.0109 L116.8,443.7078 L150,443.7078 A2,2 0 0 1 152,445.7078 L152,504.4109 A2,2 0 0 1 150,506.4109 L26,506.4109 A2,2 0 0 1 24,504.4109 L24,426.0109 A2,2 0 0 1 26,424.0109 " fill="none" style="stroke:#000000;stroke-width:1.2000000000000002;"/><line style="stroke:#000000;stroke-width:1.2000000000000002;" x1="24" x2="116.8" y1="443.7078" y2="443.7078"/><text fill="#000000" font-family="sans-serif" font-size="11.2" font-weight="bold" lengthAdjust="spacing" textLength="82.4" x="27.2" y="437.6969">UI Layer (View)</text></g><!--cluster Owner Module--><g id="cluster_Owner Module"><path d="M397.6,40.8109 L480.8,40.8109 A3,3 0 0 1 482.8,42.8109 L488.4,60.5078 L1219.2,60.5078 A2,2 0 0 1 1221.2,62.5078 L1221.2,243.6109 A2,2 0 0 1 1219.2,245.6109 L397.6,245.6109 A2,2 0 0 1 395.6,243.6109 L395.6,42.8109 A2,2 0 0 1 397.6,40.8109 " fill="none" style="stroke:#000000;stroke-width:1.2000000000000002;"/><line style="stroke:#000000;stroke-width:1.2000000000000002;" x1="395.6" x2="488.4" y1="60.5078" y2="60.5078"/><text fill="#000000" font-family="sans-serif" font-size="11.2" font-weight="bold" lengthAdjust="spacing" textLength="82.4" x="398.8" y="54.4969">Owner Module</text></g><!--cluster Application Logic Layer (Owner)--><g id="cluster_Application Logic Layer (Owner)"><path d="M416.8,144.0109 L595.2,144.0109 A3,3 0 0 1 597.2,146.0109 L602.8,163.7078 L603.2,163.7078 A2,2 0 0 1 605.2,165.7078 L605.2,224.4109 A2,2 0 0 1 603.2,226.4109 L416.8,226.4109 A2,2 0 0 1 414.8,224.4109 L414.8,146.0109 A2,2 0 0 1 416.8,144.0109 " fill="none" style="stroke:#000000;stroke-width:1.2000000000000002;"/><line style="stroke:#000000;stroke-width:1.2000000000000002;" x1="414.8" x2="602.8" y1="163.7078" y2="163.7078"/><text fill="#000000" font-family="sans-serif" font-size="11.2" font-weight="bold" lengthAdjust="spacing" textLength="177.6" x="418" y="157.6969">Application Logic Layer (Owner)</text></g><!--cluster Business Logic Layer (Owner)--><g id="cluster_Business Logic Layer (Owner)"><path d="M1024,76.8109 L1192,76.8109 A3,3 0 0 1 1194,78.8109 L1199.6,96.5078 L1200,96.5078 A2,2 0 0 1 1202,98.5078 L1202,224.4109 A2,2 0 0 1 1200,226.4109 L1024,226.4109 A2,2 0 0 1 1022,224.4109 L1022,78.8109 A2,2 0 0 1 1024,76.8109 " fill="none" style="stroke:#000000;stroke-width:1.2000000000000002;"/><line style="stroke:#000000;stroke-width:1.2000000000000002;" x1="1022" x2="1199.6" y1="96.5078" y2="96.5078"/><text fill="#000000" font-family="sans-serif" font-size="11.2" font-weight="bold" lengthAdjust="spacing" textLength="167.2" x="1025.2" y="90.4969">Business Logic Layer (Owner)</text></g><!--cluster Pet Module--><g id="cluster_Pet Module"><path d="M406.4,320.8109 L471.2,320.8109 A3,3 0 0 1 473.2,322.8109 L478.8,340.5078 L1210.4,340.5078 A2,2 0 0 1 1212.4,342.5078 L1212.4,523.6109 A2,2 0 0 1 1210.4,525.6109 L406.4,525.6109 A2,2 0 0 1 404.4,523.6109 L404.4,322.8109 A2,2 0 0 1 406.4,320.8109 " fill="none" style="stroke:#000000;stroke-width:1.2000000000000002;"/><line style="stroke:#000000;stroke-width:1.2000000000000002;" x1="404.4" x2="478.8" y1="340.5078" y2="340.5078"/><text fill="#000000" font-family="sans-serif" font-size="11.2" font-weight="bold" lengthAdjust="spacing" textLength="64" x="407.6" y="334.4969">Pet Module</text></g><!--cluster Application Logic Layer (Pet)--><g id="cluster_Application Logic Layer (Pet)"><path d="M425.6,356.8109 L585.6,356.8109 A3,3 0 0 1 587.6,358.8109 L593.2,376.5078 L593.6,376.5078 A2,2 0 0 1 595.6,378.5078 L595.6,504.4109 A2,2 0 0 1 593.6,506.4109 L425.6,506.4109 A2,2 0 0 1 423.6,504.4109 L423.6,358.8109 A2,2 0 0 1 425.6,356.8109 " fill="none" style="stroke:#000000;stroke-width:1.2000000000000002;"/><line style="stroke:#000000;stroke-width:1.2000000000000002;" x1="423.6" x2="593.2" y1="376.5078" y2="376.5078"/><text fill="#000000" font-family="sans-serif" font-size="11.2" font-weight="bold" lengthAdjust="spacing" textLength="159.2" x="426.8" y="370.4969">Application Logic Layer (Pet)</text></g><!--cluster Business Logic Layer (Pet)--><g id="cluster_Business Logic Layer (Pet)"><path d="M1033.6,356.8109 L1183.2,356.8109 A3,3 0 0 1 1185.2,358.8109 L1190.8,376.5078 L1191.2,376.5078 A2,2 0 0 1 1193.2,378.5078 L1193.2,504.4109 A2,2 0 0 1 1191.2,506.4109 L1033.6,506.4109 A2,2 0 0 1 1031.6,504.4109 L1031.6,358.8109 A2,2 0 0 1 1033.6,356.8109 " fill="none" style="stroke:#000000;stroke-width:1.2000000000000002;"/><line style="stroke:#000000;stroke-width:1.2000000000000002;" x1="1031.6" x2="1190.8" y1="376.5078" y2="376.5078"/><text fill="#000000" font-family="sans-serif" font-size="11.2" font-weight="bold" lengthAdjust="spacing" textLength="148.8" x="1034.8" y="370.4969">Business Logic Layer (Pet)</text></g><!--cluster Visit Module--><g id="cluster_Visit Module"><path d="M403.6,600.8109 L474,600.8109 A3,3 0 0 1 476,602.8109 L481.6,620.5078 L1213.2,620.5078 A2,2 0 0 1 1215.2,622.5078 L1215.2,803.6109 A2,2 0 0 1 1213.2,805.6109 L403.6,805.6109 A2,2 0 0 1 401.6,803.6109 L401.6,602.8109 A2,2 0 0 1 403.6,600.8109 " fill="none" style="stroke:#000000;stroke-width:1.2000000000000002;"/><line style="stroke:#000000;stroke-width:1.2000000000000002;" x1="401.6" x2="481.6" y1="620.5078" y2="620.5078"/><text fill="#000000" font-family="sans-serif" font-size="11.2" font-weight="bold" lengthAdjust="spacing" textLength="69.6" x="404.8" y="614.4969">Visit Module</text></g><!--cluster Application Logic Layer (Visit)--><g id="cluster_Application Logic Layer (Visit)"><path d="M422.8,636.8109 L588.4,636.8109 A3,3 0 0 1 590.4,638.8109 L596,656.5078 L596.4,656.5078 A2,2 0 0 1 598.4,658.5078 L598.4,784.4109 A2,2 0 0 1 596.4,786.4109 L422.8,786.4109 A2,2 0 0 1 420.8,784.4109 L420.8,638.8109 A2,2 0 0 1 422.8,636.8109 " fill="none" style="stroke:#000000;stroke-width:1.2000000000000002;"/><line style="stroke:#000000;stroke-width:1.2000000000000002;" x1="420.8" x2="596" y1="656.5078" y2="656.5078"/><text fill="#000000" font-family="sans-serif" font-size="11.2" font-weight="bold" lengthAdjust="spacing" textLength="164.8" x="424" y="650.4969">Application Logic Layer (Visit)</text></g><!--cluster Business Logic Layer (Visit)--><g id="cluster_Business Logic Layer (Visit)"><path d="M1030.8,636.8109 L1186,636.8109 A3,3 0 0 1 1188,638.8109 L1193.6,656.5078 L1194,656.5078 A2,2 0 0 1 1196,658.5078 L1196,784.4109 A2,2 0 0 1 1194,786.4109 L1030.8,786.4109 A2,2 0 0 1 1028.8,784.4109 L1028.8,638.8109 A2,2 0 0 1 1030.8,636.8109 " fill="none" style="stroke:#000000;stroke-width:1.2000000000000002;"/><line style="stroke:#000000;stroke-width:1.2000000000000002;" x1="1028.8" x2="1193.6" y1="656.5078" y2="656.5078"/><text fill="#000000" font-family="sans-serif" font-size="11.2" font-weight="bold" lengthAdjust="spacing" textLength="154.4" x="1032" y="650.4969">Business Logic Layer (Visit)</text></g><!--entity OwnerControllerAPI--><g id="elem_OwnerControllerAPI"><ellipse cx="244.8" cy="295.2109" fill="#F1F1F1" rx="6.4" ry="6.4" style="stroke:#181818;stroke-width:0.4000000000000001;"/><text fill="#000000" font-family="sans-serif" font-size="11.2" lengthAdjust="spacing" textLength="99.2" x="195.2" y="320.8969">OwnerControllerAPI</text></g><!--entity PetControllerAPI--><g id="elem_PetControllerAPI"><ellipse cx="244.8" cy="473.6109" fill="#F1F1F1" rx="6.4" ry="6.4" style="stroke:#181818;stroke-width:0.4000000000000001;"/><text fill="#000000" font-family="sans-serif" font-size="11.2" lengthAdjust="spacing" textLength="83.2" x="203.2" y="499.2969">PetControllerAPI</text></g><!--entity VisitControllerAPI--><g id="elem_VisitControllerAPI"><ellipse cx="244.8" cy="696.8109" fill="#F1F1F1" rx="6.4" ry="6.4" style="stroke:#181818;stroke-width:0.4000000000000001;"/><text fill="#000000" font-family="sans-serif" font-size="11.2" lengthAdjust="spacing" textLength="87.2" x="201.2" y="722.4969">VisitControllerAPI</text></g><!--entity PetManagementAPI--><g id="elem_PetManagementAPI"><ellipse cx="813.6" cy="283.2109" fill="#F1F1F1" rx="6.4" ry="6.4" style="stroke:#181818;stroke-width:0.4000000000000001;"/><text fill="#000000" font-family="sans-serif" font-size="11.2" lengthAdjust="spacing" textLength="99.2" x="764" y="308.8969">PetManagementAPI</text></g><!--entity VisitManagementAPI--><g id="elem_VisitManagementAPI"><ellipse cx="244.8" cy="563.2109" fill="#F1F1F1" rx="6.4" ry="6.4" style="stroke:#181818;stroke-width:0.4000000000000001;"/><text fill="#000000" font-family="sans-serif" font-size="11.2" lengthAdjust="spacing" textLength="103.2" x="193.2" y="588.8969">VisitManagementAPI</text></g><g id="elem_GMN66"><path d="M1017.6,258.4109 L1017.6,280.0109 L820.872,283.2109 L1017.6,286.4109 L1017.6,307.9094 A0,0 0 0 0 1017.6,307.9094 L1206.4,307.9094 A0,0 0 0 0 1206.4,307.9094 L1206.4,266.4109 L1198.4,258.4109 L1017.6,258.4109 A0,0 0 0 0 1017.6,258.4109 " fill="#FEFFDD" style="stroke:#181818;stroke-width:0.4000000000000001;"/><path d="M1198.4,258.4109 L1198.4,266.4109 L1206.4,266.4109 L1198.4,258.4109 " fill="#FEFFDD" style="stroke:#181818;stroke-width:0.4000000000000001;"/><text fill="#000000" font-family="sans-serif" font-size="10.4" lengthAdjust="spacing" textLength="119.2" x="1022.4" y="273.6336">Public API for Pet Module</text><text fill="#000000" font-family="sans-serif" font-size="10.4" lengthAdjust="spacing" textLength="172" x="1022.4" y="287.4664">enabling inter-module communication</text><text fill="#000000" font-family="sans-serif" font-size="10.4" lengthAdjust="spacing" textLength="88" x="1022.4" y="301.2992">with Owner Module</text></g><g id="elem_GMN69"><path d="M415.2,538.4109 L415.2,560.0109 L252.104,563.2109 L415.2,566.4109 L415.2,587.9094 A0,0 0 0 0 415.2,587.9094 L604,587.9094 A0,0 0 0 0 604,587.9094 L604,546.4109 L596,538.4109 L415.2,538.4109 A0,0 0 0 0 415.2,538.4109 " fill="#FEFFDD" style="stroke:#181818;stroke-width:0.4000000000000001;"/><path d="M596,538.4109 L596,546.4109 L604,546.4109 L596,538.4109 " fill="#FEFFDD" style="stroke:#181818;stroke-width:0.4000000000000001;"/><text fill="#000000" font-family="sans-serif" font-size="10.4" lengthAdjust="spacing" textLength="124" x="420" y="553.6336">Public API for Visit Module</text><text fill="#000000" font-family="sans-serif" font-size="10.4" lengthAdjust="spacing" textLength="172" x="420" y="567.4664">enabling inter-module communication</text><text fill="#000000" font-family="sans-serif" font-size="10.4" lengthAdjust="spacing" textLength="74.4" x="420" y="581.2992">with Pet Module</text></g><!--entity User Interface--><g id="elem_User Interface"><rect fill="#F1F1F1" height="38.8969" rx="2" ry="2" style="stroke:#181818;stroke-width:0.4000000000000001;" width="102.4" x="36.8" y="454.0109"/><rect fill="#F1F1F1" height="8" style="stroke:#181818;stroke-width:0.4000000000000001;" width="12" x="123.2" y="458.0109"/><rect fill="#F1F1F1" height="1.6" style="stroke:#181818;stroke-width:0.4000000000000001;" width="3.2" x="121.6" y="459.6109"/><rect fill="#F1F1F1" height="1.6" style="stroke:#181818;stroke-width:0.4000000000000001;" width="3.2" x="121.6" y="462.8109"/><text fill="#000000" font-family="sans-serif" font-size="11.2" lengthAdjust="spacing" textLength="70.4" x="48.8" y="482.0969">User Interface</text></g><!--entity OwnerModelAPI--><g id="elem_OwnerModelAPI"><ellipse cx="813.6" cy="193.6109" fill="#F1F1F1" rx="6.4" ry="6.4" style="stroke:#181818;stroke-width:0.4000000000000001;"/><text fill="#000000" font-family="sans-serif" font-size="11.2" lengthAdjust="spacing" textLength="80" x="773.6" y="219.2969">OwnerModelAPI</text></g><!--entity OwnerRepoAPI--><g id="elem_OwnerRepoAPI"><ellipse cx="813.6" cy="116.0109" fill="#F1F1F1" rx="6.4" ry="6.4" style="stroke:#181818;stroke-width:0.4000000000000001;"/><text fill="#000000" font-family="sans-serif" font-size="11.2" lengthAdjust="spacing" textLength="76.8" x="775.2" y="141.6969">OwnerRepoAPI</text></g><!--entity OwnerController--><g id="elem_OwnerController"><rect fill="#F1F1F1" height="38.8969" rx="2" ry="2" style="stroke:#181818;stroke-width:0.4000000000000001;" width="114.4" x="452.4" y="174.0109"/><rect fill="#F1F1F1" height="8" style="stroke:#181818;stroke-width:0.4000000000000001;" width="12" x="550.8" y="178.0109"/><rect fill="#F1F1F1" height="1.6" style="stroke:#181818;stroke-width:0.4000000000000001;" width="3.2" x="549.2" y="179.6109"/><rect fill="#F1F1F1" height="1.6" style="stroke:#181818;stroke-width:0.4000000000000001;" width="3.2" x="549.2" y="182.8109"/><text fill="#000000" font-family="sans-serif" font-size="11.2" lengthAdjust="spacing" textLength="82.4" x="464.4" y="202.0969">OwnerController</text></g><!--entity Domain Owner--><g id="elem_Domain Owner"><rect fill="#F1F1F1" height="38.8969" rx="2" ry="2" style="stroke:#181818;stroke-width:0.4000000000000001;" width="106.4" x="1058.8" y="174.0109"/><rect fill="#F1F1F1" height="8" style="stroke:#181818;stroke-width:0.4000000000000001;" width="12" x="1149.2" y="178.0109"/><rect fill="#F1F1F1" height="1.6" style="stroke:#181818;stroke-width:0.4000000000000001;" width="3.2" x="1147.6" y="179.6109"/><rect fill="#F1F1F1" height="1.6" style="stroke:#181818;stroke-width:0.4000000000000001;" width="3.2" x="1147.6" y="182.8109"/><text fill="#000000" font-family="sans-serif" font-size="11.2" lengthAdjust="spacing" textLength="74.4" x="1070.8" y="202.0969">Domain Owner</text></g><!--entity OwnerRepository--><g id="elem_OwnerRepository"><rect fill="#F1F1F1" height="38.8969" rx="2" ry="2" style="stroke:#181818;stroke-width:0.4000000000000001;" width="119.2" x="1052.4" y="106.8109"/><rect fill="#F1F1F1" height="8" style="stroke:#181818;stroke-width:0.4000000000000001;" width="12" x="1155.6" y="110.8109"/><rect fill="#F1F1F1" height="1.6" style="stroke:#181818;stroke-width:0.4000000000000001;" width="3.2" x="1154" y="112.4109"/><rect fill="#F1F1F1" height="1.6" style="stroke:#181818;stroke-width:0.4000000000000001;" width="3.2" x="1154" y="115.6109"/><text fill="#000000" font-family="sans-serif" font-size="11.2" lengthAdjust="spacing" textLength="87.2" x="1064.4" y="134.8969">OwnerRepository</text></g><!--entity PetModelAPI--><g id="elem_PetModelAPI"><ellipse cx="813.6" cy="473.6109" fill="#F1F1F1" rx="6.4" ry="6.4" style="stroke:#181818;stroke-width:0.4000000000000001;"/><text fill="#000000" font-family="sans-serif" font-size="11.2" lengthAdjust="spacing" textLength="64" x="781.6" y="499.2969">PetModelAPI</text></g><!--entity PetRepoAPI--><g id="elem_PetRepoAPI"><ellipse cx="813.6" cy="396.0109" fill="#F1F1F1" rx="6.4" ry="6.4" style="stroke:#181818;stroke-width:0.4000000000000001;"/><text fill="#000000" font-family="sans-serif" font-size="11.2" lengthAdjust="spacing" textLength="60.8" x="783.2" y="421.6969">PetRepoAPI</text></g><!--entity PetController--><g id="elem_PetController"><rect fill="#F1F1F1" height="38.8969" rx="2" ry="2" style="stroke:#181818;stroke-width:0.4000000000000001;" width="98.4" x="460.4" y="454.0109"/><rect fill="#F1F1F1" height="8" style="stroke:#181818;stroke-width:0.4000000000000001;" width="12" x="542.8" y="458.0109"/><rect fill="#F1F1F1" height="1.6" style="stroke:#181818;stroke-width:0.4000000000000001;" width="3.2" x="541.2" y="459.6109"/><rect fill="#F1F1F1" height="1.6" style="stroke:#181818;stroke-width:0.4000000000000001;" width="3.2" x="541.2" y="462.8109"/><text fill="#000000" font-family="sans-serif" font-size="11.2" lengthAdjust="spacing" textLength="66.4" x="472.4" y="482.0969">PetController</text></g><!--entity PetManagement--><g id="elem_PetManagement"><rect fill="#F1F1F1" height="38.8969" rx="2" ry="2" style="stroke:#181818;stroke-width:0.4000000000000001;" width="114.4" x="452.4" y="386.8109"/><rect fill="#F1F1F1" height="8" style="stroke:#181818;stroke-width:0.4000000000000001;" width="12" x="550.8" y="390.8109"/><rect fill="#F1F1F1" height="1.6" style="stroke:#181818;stroke-width:0.4000000000000001;" width="3.2" x="549.2" y="392.4109"/><rect fill="#F1F1F1" height="1.6" style="stroke:#181818;stroke-width:0.4000000000000001;" width="3.2" x="549.2" y="395.6109"/><text fill="#000000" font-family="sans-serif" font-size="11.2" lengthAdjust="spacing" textLength="82.4" x="464.4" y="414.8969">PetManagement</text></g><!--entity Domain Pet--><g id="elem_Domain Pet"><rect fill="#F1F1F1" height="38.8969" rx="2" ry="2" style="stroke:#181818;stroke-width:0.4000000000000001;" width="90.4" x="1066.8" y="454.0109"/><rect fill="#F1F1F1" height="8" style="stroke:#181818;stroke-width:0.4000000000000001;" width="12" x="1141.2" y="458.0109"/><rect fill="#F1F1F1" height="1.6" style="stroke:#181818;stroke-width:0.4000000000000001;" width="3.2" x="1139.6" y="459.6109"/><rect fill="#F1F1F1" height="1.6" style="stroke:#181818;stroke-width:0.4000000000000001;" width="3.2" x="1139.6" y="462.8109"/><text fill="#000000" font-family="sans-serif" font-size="11.2" lengthAdjust="spacing" textLength="58.4" x="1078.8" y="482.0969">Domain Pet</text></g><!--entity PetRepository--><g id="elem_PetRepository"><rect fill="#F1F1F1" height="38.8969" rx="2" ry="2" style="stroke:#181818;stroke-width:0.4000000000000001;" width="103.2" x="1060.4" y="386.8109"/><rect fill="#F1F1F1" height="8" style="stroke:#181818;stroke-width:0.4000000000000001;" width="12" x="1147.6" y="390.8109"/><rect fill="#F1F1F1" height="1.6" style="stroke:#181818;stroke-width:0.4000000000000001;" width="3.2" x="1146" y="392.4109"/><rect fill="#F1F1F1" height="1.6" style="stroke:#181818;stroke-width:0.4000000000000001;" width="3.2" x="1146" y="395.6109"/><text fill="#000000" font-family="sans-serif" font-size="11.2" lengthAdjust="spacing" textLength="71.2" x="1072.4" y="414.8969">PetRepository</text></g><!--entity VisitModelAPI--><g id="elem_VisitModelAPI"><ellipse cx="813.6" cy="753.6109" fill="#F1F1F1" rx="6.4" ry="6.4" style="stroke:#181818;stroke-width:0.4000000000000001;"/><text fill="#000000" font-family="sans-serif" font-size="11.2" lengthAdjust="spacing" textLength="68" x="779.6" y="779.2969">VisitModelAPI</text></g><!--entity VisitRepoAPI--><g id="elem_VisitRepoAPI"><ellipse cx="813.6" cy="676.0109" fill="#F1F1F1" rx="6.4" ry="6.4" style="stroke:#181818;stroke-width:0.4000000000000001;"/><text fill="#000000" font-family="sans-serif" font-size="11.2" lengthAdjust="spacing" textLength="64.8" x="781.2" y="701.6969">VisitRepoAPI</text></g><!--entity VisitController--><g id="elem_VisitController"><rect fill="#F1F1F1" height="38.8969" rx="2" ry="2" style="stroke:#181818;stroke-width:0.4000000000000001;" width="102.4" x="458.4" y="734.0109"/><rect fill="#F1F1F1" height="8" style="stroke:#181818;stroke-width:0.4000000000000001;" width="12" x="544.8" y="738.0109"/><rect fill="#F1F1F1" height="1.6" style="stroke:#181818;stroke-width:0.4000000000000001;" width="3.2" x="543.2" y="739.6109"/><rect fill="#F1F1F1" height="1.6" style="stroke:#181818;stroke-width:0.4000000000000001;" width="3.2" x="543.2" y="742.8109"/><text fill="#000000" font-family="sans-serif" font-size="11.2" lengthAdjust="spacing" textLength="70.4" x="470.4" y="762.0969">VisitController</text></g><!--entity VisitManagement--><g id="elem_VisitManagement"><rect fill="#F1F1F1" height="38.8969" rx="2" ry="2" style="stroke:#181818;stroke-width:0.4000000000000001;" width="118.4" x="450.4" y="666.8109"/><rect fill="#F1F1F1" height="8" style="stroke:#181818;stroke-width:0.4000000000000001;" width="12" x="552.8" y="670.8109"/><rect fill="#F1F1F1" height="1.6" style="stroke:#181818;stroke-width:0.4000000000000001;" width="3.2" x="551.2" y="672.4109"/><rect fill="#F1F1F1" height="1.6" style="stroke:#181818;stroke-width:0.4000000000000001;" width="3.2" x="551.2" y="675.6109"/><text fill="#000000" font-family="sans-serif" font-size="11.2" lengthAdjust="spacing" textLength="86.4" x="462.4" y="694.8969">VisitManagement</text></g><!--entity Domain Visit--><g id="elem_Domain Visit"><rect fill="#F1F1F1" height="38.8969" rx="2" ry="2" style="stroke:#181818;stroke-width:0.4000000000000001;" width="94.4" x="1064.8" y="734.0109"/><rect fill="#F1F1F1" height="8" style="stroke:#181818;stroke-width:0.4000000000000001;" width="12" x="1143.2" y="738.0109"/><rect fill="#F1F1F1" height="1.6" style="stroke:#181818;stroke-width:0.4000000000000001;" width="3.2" x="1141.6" y="739.6109"/><rect fill="#F1F1F1" height="1.6" style="stroke:#181818;stroke-width:0.4000000000000001;" width="3.2" x="1141.6" y="742.8109"/><text fill="#000000" font-family="sans-serif" font-size="11.2" lengthAdjust="spacing" textLength="62.4" x="1076.8" y="762.0969">Domain Visit</text></g><!--entity VisitRepository--><g id="elem_VisitRepository"><rect fill="#F1F1F1" height="38.8969" rx="2" ry="2" style="stroke:#181818;stroke-width:0.4000000000000001;" width="107.2" x="1058.4" y="666.8109"/><rect fill="#F1F1F1" height="8" style="stroke:#181818;stroke-width:0.4000000000000001;" width="12" x="1149.6" y="670.8109"/><rect fill="#F1F1F1" height="1.6" style="stroke:#181818;stroke-width:0.4000000000000001;" width="3.2" x="1148" y="672.4109"/><rect fill="#F1F1F1" height="1.6" style="stroke:#181818;stroke-width:0.4000000000000001;" width="3.2" x="1148" y="675.6109"/><text fill="#000000" font-family="sans-serif" font-size="11.2" lengthAdjust="spacing" textLength="75.2" x="1070.4" y="694.8969">VisitRepository</text></g><!--link OwnerModelAPI to Domain Owner--><g id="link_OwnerModelAPI_Domain Owner"><path d="M820.872,193.6109 C851.52,193.6109 983.624,193.6109 1058.632,193.6109 " fill="none" id="OwnerModelAPI-Domain Owner" style="stroke:#181818;stroke-width:0.8000000000000002;"/></g><!--link OwnerRepoAPI to OwnerRepository--><g id="link_OwnerRepoAPI_OwnerRepository"><path d="M820.872,116.2349 C850.672,117.2829 976.392,121.6909 1052.28,124.3469 " fill="none" id="OwnerRepoAPI-OwnerRepository" style="stroke:#181818;stroke-width:0.8000000000000002;"/></g><!--link OwnerController to OwnerModelAPI--><g id="link_OwnerController_OwnerModelAPI"><path d="M566.928,193.6109 C643.848,193.6109 767.488,193.6109 798.24,193.6109 " fill="none" id="OwnerController-to-OwnerModelAPI" style="stroke:#181818;stroke-width:0.8000000000000002;"/><path d="M803.7775,186.8452 A7.2,7.2 0 0 0 803.7775 200.3767" fill="none" style="stroke:#181818;stroke-width:1.2000000000000002;"/></g><!--link OwnerController to OwnerRepoAPI--><g id="link_OwnerController_OwnerRepoAPI"><path d="M566.928,179.1069 C643.848,159.3629 767.7393,127.5765 798.4913,119.6805 " fill="none" id="OwnerController-to-OwnerRepoAPI" style="stroke:#181818;stroke-width:0.8000000000000002;"/><path d="M802.1722,111.7501 A7.2,7.2 0 0 0 805.5375 124.8566" fill="none" style="stroke:#181818;stroke-width:1.2000000000000002;"/></g><!--link OwnerRepository to OwnerModelAPI--><g id="link_OwnerRepository_OwnerModelAPI"><path d="M1052.28,139.7469 C976.392,156.9309 858.4742,183.6271 828.6742,190.3791 " fill="none" id="OwnerRepository-to-OwnerModelAPI" style="stroke:#181818;stroke-width:0.8000000000000002;"/><path d="M824.7687,198.2013 A7.2,7.2 0 0 0 821.7786 185.0042" fill="none" style="stroke:#181818;stroke-width:1.2000000000000002;"/></g><!--link OwnerControllerAPI to OwnerController--><g id="link_OwnerControllerAPI_OwnerController"><path d="M252.104,292.6989 C280.048,281.9149 391.48,238.8989 457.992,213.2269 " fill="none" id="OwnerControllerAPI-OwnerController" style="stroke:#181818;stroke-width:0.8000000000000002;"/></g><!--link PetModelAPI to Domain Pet--><g id="link_PetModelAPI_Domain Pet"><path d="M820.872,473.6109 C852.664,473.6109 993.632,473.6109 1066.792,473.6109 " fill="none" id="PetModelAPI-Domain Pet" style="stroke:#181818;stroke-width:0.8000000000000002;"/></g><!--link PetRepoAPI to PetRepository--><g id="link_PetRepoAPI_PetRepository"><path d="M820.872,396.2349 C851.736,397.3229 985.456,402.0029 1060.184,404.6269 " fill="none" id="PetRepoAPI-PetRepository" style="stroke:#181818;stroke-width:0.8000000000000002;"/></g><!--link PetController to PetModelAPI--><g id="link_PetController_PetModelAPI"><path d="M558.984,473.6109 C634.448,473.6109 766.488,473.6109 798.272,473.6109 " fill="none" id="PetController-to-PetModelAPI" style="stroke:#181818;stroke-width:0.8000000000000002;"/><path d="M803.8095,466.8452 A7.2,7.2 0 0 0 803.8095 480.3767" fill="none" style="stroke:#181818;stroke-width:1.2000000000000002;"/></g><!--link PetController to PetRepoAPI--><g id="link_PetController_PetRepoAPI"><path d="M558.984,461.1469 C634.448,441.7789 766.7393,407.8323 798.5233,399.6723 " fill="none" id="PetController-to-PetRepoAPI" style="stroke:#181818;stroke-width:0.8000000000000002;"/><path d="M802.2044,391.742 A7.2,7.2 0 0 0 805.5692 404.8486" fill="none" style="stroke:#181818;stroke-width:1.2000000000000002;"/></g><!--link PetManagement to PetModelAPI--><g id="link_PetManagement_PetModelAPI"><path d="M566.928,418.9709 C643.848,436.0669 767.6784,463.5879 798.4304,470.4199 " fill="none" id="PetManagement-to-PetModelAPI" style="stroke:#181818;stroke-width:0.8000000000000002;"/><path d="M805.3034,465.0161 A7.2,7.2 0 0 0 802.3687 478.2256" fill="none" style="stroke:#181818;stroke-width:1.2000000000000002;"/></g><!--link PetManagement to PetRepoAPI--><g id="link_PetManagement_PetRepoAPI"><path d="M566.928,404.4669 C643.848,401.8189 767.4927,397.5655 798.2447,396.5095 " fill="none" id="PetManagement-to-PetRepoAPI" style="stroke:#181818;stroke-width:0.8000000000000002;"/><path d="M803.5467,389.5576 A7.2,7.2 0 0 0 804.0111 403.0813" fill="none" style="stroke:#181818;stroke-width:1.2000000000000002;"/></g><!--link PetRepository to PetModelAPI--><g id="link_PetRepository_PetModelAPI"><path d="M1060.184,417.9629 C985.456,434.8829 859.5383,463.3874 828.6743,470.3794 " fill="none" id="PetRepository-to-PetModelAPI" style="stroke:#181818;stroke-width:0.8000000000000002;"/><path d="M824.7685,478.2014 A7.2,7.2 0 0 0 821.7788 465.0043" fill="none" style="stroke:#181818;stroke-width:1.2000000000000002;"/></g><!--link PetControllerAPI to PetController--><g id="link_PetControllerAPI_PetController"><path d="M252.104,473.6109 C280.368,473.6109 394.016,473.6109 460.24,473.6109 " fill="none" id="PetControllerAPI-PetController" style="stroke:#181818;stroke-width:0.8000000000000002;"/></g><!--link VisitModelAPI to Domain Visit--><g id="link_VisitModelAPI_Domain Visit"><path d="M820.872,753.6109 C852.368,753.6109 991.008,753.6109 1064.728,753.6109 " fill="none" id="VisitModelAPI-Domain Visit" style="stroke:#181818;stroke-width:0.8000000000000002;"/></g><!--link VisitRepoAPI to VisitRepository--><g id="link_VisitRepoAPI_VisitRepository"><path d="M820.872,676.2349 C851.48,677.3069 983.256,681.9309 1058.32,684.5549 " fill="none" id="VisitRepoAPI-VisitRepository" style="stroke:#181818;stroke-width:0.8000000000000002;"/></g><!--link VisitController to VisitModelAPI--><g id="link_VisitController_VisitModelAPI"><path d="M561.016,753.6109 C637.016,753.6109 767.056,753.6109 798.368,753.6109 " fill="none" id="VisitController-to-VisitModelAPI" style="stroke:#181818;stroke-width:0.8000000000000002;"/><path d="M803.9055,746.8452 A7.2,7.2 0 0 0 803.9055 760.3767" fill="none" style="stroke:#181818;stroke-width:1.2000000000000002;"/></g><!--link VisitController to VisitRepoAPI--><g id="link_VisitController_VisitRepoAPI"><path d="M561.016,740.6189 C637.016,721.1229 767.3074,687.6886 798.6194,679.6486 " fill="none" id="VisitController-to-VisitRepoAPI" style="stroke:#181818;stroke-width:0.8000000000000002;"/><path d="M802.3002,671.7182 A7.2,7.2 0 0 0 805.6655 684.8246" fill="none" style="stroke:#181818;stroke-width:1.2000000000000002;"/></g><!--link VisitManagement to VisitModelAPI--><g id="link_VisitManagement_VisitModelAPI"><path d="M569.064,699.4509 C646.352,716.6269 768.2545,743.7157 798.5345,750.4437 " fill="none" id="VisitManagement-to-VisitModelAPI" style="stroke:#181818;stroke-width:0.8000000000000002;"/><path d="M805.4076,745.0401 A7.2,7.2 0 0 0 802.4726 758.2495" fill="none" style="stroke:#181818;stroke-width:1.2000000000000002;"/></g><!--link VisitManagement to VisitRepoAPI--><g id="link_VisitManagement_VisitRepoAPI"><path d="M569.064,684.3949 C646.352,681.7389 768.0687,677.5495 798.3487,676.5095 " fill="none" id="VisitManagement-to-VisitRepoAPI" style="stroke:#181818;stroke-width:0.8000000000000002;"/><path d="M803.6507,669.5577 A7.2,7.2 0 0 0 804.1151 683.0813" fill="none" style="stroke:#181818;stroke-width:1.2000000000000002;"/></g><!--link VisitRepository to VisitModelAPI--><g id="link_VisitRepository_VisitModelAPI"><path d="M1058.32,698.3789 C983.256,715.3789 859.2826,743.4528 828.6746,750.3808 " fill="none" id="VisitRepository-to-VisitModelAPI" style="stroke:#181818;stroke-width:0.8000000000000002;"/><path d="M824.7674,758.2022 A7.2,7.2 0 0 0 821.7802 745.0044" fill="none" style="stroke:#181818;stroke-width:1.2000000000000002;"/></g><!--link VisitControllerAPI to VisitController--><g id="link_VisitControllerAPI_VisitController"><path d="M252.104,698.2189 C280.088,704.2509 391.8,728.3629 458.28,742.7069 " fill="none" id="VisitControllerAPI-VisitController" style="stroke:#181818;stroke-width:0.8000000000000002;"/></g><!--link User Interface to OwnerControllerAPI--><g id="link_User Interface_OwnerControllerAPI"><path d="M106,453.8349 C140.096,414.6429 209.645,334.6944 232.189,308.7824 " fill="none" id="User Interface-to-OwnerControllerAPI" style="stroke:#181818;stroke-width:0.8000000000000002;"/><path d="M230.7193,300.1639 A7.2,7.2 0 0 0 240.928 309.0457" fill="none" style="stroke:#181818;stroke-width:1.2000000000000002;"/></g><!--link User Interface to PetControllerAPI--><g id="link_User Interface_PetControllerAPI"><path d="M139.4,473.6109 C175.672,473.6109 212.928,473.6109 229.52,473.6109 " fill="none" id="User Interface-to-PetControllerAPI" style="stroke:#181818;stroke-width:0.8000000000000002;"/><path d="M235.0575,466.8452 A7.2,7.2 0 0 0 235.0575 480.3767" fill="none" style="stroke:#181818;stroke-width:1.2000000000000002;"/></g><!--link User Interface to VisitControllerAPI--><g id="link_User Interface_VisitControllerAPI"><path d="M102.576,493.4189 C135.512,540.7869 213.1134,652.3863 234.3534,682.9383 " fill="none" id="User Interface-to-VisitControllerAPI" style="stroke:#181818;stroke-width:0.8000000000000002;"/><path d="M243.0696,683.623 A7.2,7.2 0 0 0 231.9591 691.347" fill="none" style="stroke:#181818;stroke-width:1.2000000000000002;"/></g><!--link PetManagementAPI to PetManagement--><g id="link_PetManagementAPI_PetManagement"><path d="M806.256,285.8749 C774.392,298.8589 634.024,356.0429 558.648,386.7549 " fill="none" id="PetManagementAPI-PetManagement" style="stroke:#181818;stroke-width:0.8000000000000002;"/></g><!--link VisitManagementAPI to VisitManagement--><g id="link_VisitManagementAPI_VisitManagement"><path d="M252.152,569.3309 C271.448,586.9949 330.44,638.3709 389.2,663.2109 C408.296,671.2829 430.296,676.5709 450.176,680.0269 " fill="none" id="VisitManagementAPI-VisitManagement" style="stroke:#181818;stroke-width:0.8000000000000002;"/></g><!--link OwnerController to PetManagementAPI--><g id="link_OwnerController_PetManagementAPI"><path d="M566.928,210.3549 C643.848,233.1549 767.8176,269.8822 798.5696,278.9942 " fill="none" id="OwnerController-to-PetManagementAPI" style="stroke:#181818;stroke-width:0.8000000000000002;"/><path d="M805.8011,274.0803 A7.2,7.2 0 0 0 801.9568 287.0543" fill="none" style="stroke:#181818;stroke-width:1.2000000000000002;"/></g><!--link PetController to VisitManagementAPI--><g id="link_PetController_VisitManagementAPI"><path d="M460.384,479.8269 C438.352,483.3789 412.128,488.6349 389.2,496.0109 C333.912,513.8029 279.1497,543.9383 259.1657,555.3863 " fill="none" id="PetController-to-VisitManagementAPI" style="stroke:#181818;stroke-width:0.8000000000000002;"/><path d="M257.7239,564.0096 A7.2,7.2 0 0 0 250.9977 552.2681" fill="none" style="stroke:#181818;stroke-width:1.2000000000000002;"/></g><!--link VisitController to OwnerController--><!--SRC=[bPLBQ-Cm4CVl-XH3BsqFtjptriSbqDAmq5vA3gezSSJAaf5bGbdytLUMXJjwD3I173oFtupchyVrqTf- -BtPz98hEtRoLwsxZVltMg6oLIDuQtZ791uiM0r6j4SBZJ1OMw4LOwpdzL_U8bpjq3v8eKGDTtqlHStdW2luHq9Uj_34Fz70pPl0q-tiXFdt_ZeuurPPD0TUuvvD9Edbf9ppMJUZH8y3M7sa4ZpfrjKEV9z42lZl1wsiqLAYsJlp597knq4e78Rpc4VTSQ70c_SK_GTxFGYhpUU2XYN6TOtoRhUjgYnrJLlS1KhMD5JLJSmz7nNehD1a0UM6dg18PtHqaUIN2kDIo3pdFHE94epFN3bCvtRWJvMAkM7OpaYWkKPpfKoXa1GI5bUMdNJknqbetqSGJU9rVeCeHCI8L5IAc5ZKnBgMifflmd4krTCdaSdxxrnJRxvSrPGU9FBc29rhkrJCr5rJrxJ5NQ1aQ_7pZRZdeuXGwVhFe8fHAIfLFKPDB6cAh37IFhrulww5ABSSb-wjSbJU2MFHlbvt9TqUoIH8_pIgVFUbT5OwYda1DurSolUZQ1fK-wOgl26CAMqnl8dwa1VUZHzoVWztMpXe0r_N9KF5dKkr8EPfLPstWdjtkr65SyPEmXw1ldukgu6vP5gui9YaD3tRFoyUDHnAJ_y1]--></g></svg>