<?xml version="1.0" encoding="us-ascii" standalone="no"?><svg xmlns="http://www.w3.org/2000/svg" xmlns:xlink="http://www.w3.org/1999/xlink" contentStyleType="text/css" height="898px" preserveAspectRatio="none" style="width:1419px;height:898px;background:#FFFFFF;" version="1.1" viewBox="0 0 1419 898" width="1419px" zoomAndPan="magnify"><defs/><g><!--cluster PetClinic Application--><g id="cluster_PetClinic Application"><path d="M8.5,6.0137 L153.5,6.0137 A3.75,3.75 0 0 1 156,8.5137 L163,30.6348 L1409.5,30.6348 A2.5,2.5 0 0 1 1412,33.1348 L1412,888.5137 A2.5,2.5 0 0 1 1409.5,891.0137 L8.5,891.0137 A2.5,2.5 0 0 1 6,888.5137 L6,8.5137 A2.5,2.5 0 0 1 8.5,6.0137 " fill="none" style="stroke:#000000;stroke-width:1.5;"/><line style="stroke:#000000;stroke-width:1.5;" x1="6" x2="163" y1="30.6348" y2="30.6348"/><text fill="#000000" font-family="sans-serif" font-size="14" font-weight="bold" lengthAdjust="spacing" textLength="144" x="10" y="23.1211">PetClinic Application</text></g><!--cluster UI Layer (View)--><g id="cluster_UI Layer (View)"><path d="M32.5,429.0137 L136.5,429.0137 A3.75,3.75 0 0 1 139,431.5137 L146,453.6348 L187.5,453.6348 A2.5,2.5 0 0 1 190,456.1348 L190,529.5137 A2.5,2.5 0 0 1 187.5,532.0137 L32.5,532.0137 A2.5,2.5 0 0 1 30,529.5137 L30,431.5137 A2.5,2.5 0 0 1 32.5,429.0137 " fill="none" style="stroke:#000000;stroke-width:1.5;"/><line style="stroke:#000000;stroke-width:1.5;" x1="30" x2="146" y1="453.6348" y2="453.6348"/><text fill="#000000" font-family="sans-serif" font-size="14" font-weight="bold" lengthAdjust="spacing" textLength="103" x="34" y="446.1211">UI Layer (View)</text></g><!--cluster Owner Module--><g id="cluster_Owner Module"><path d="M396.5,331.0137 L500.5,331.0137 A3.75,3.75 0 0 1 503,333.5137 L510,355.6348 L1385.5,355.6348 A2.5,2.5 0 0 1 1388,358.1348 L1388,584.5137 A2.5,2.5 0 0 1 1385.5,587.0137 L396.5,587.0137 A2.5,2.5 0 0 1 394,584.5137 L394,333.5137 A2.5,2.5 0 0 1 396.5,331.0137 " fill="none" style="stroke:#000000;stroke-width:1.5;"/><line style="stroke:#000000;stroke-width:1.5;" x1="394" x2="510" y1="355.6348" y2="355.6348"/><text fill="#000000" font-family="sans-serif" font-size="14" font-weight="bold" lengthAdjust="spacing" textLength="103" x="398" y="348.1211">Owner Module</text></g><!--cluster Application Logic Layer (Owner)--><g id="cluster_Application Logic Layer (Owner)"><path d="M420.5,376.0137 L643.5,376.0137 A3.75,3.75 0 0 1 646,378.5137 L653,400.6348 L813.5,400.6348 A2.5,2.5 0 0 1 816,403.1348 L816,529.5137 A2.5,2.5 0 0 1 813.5,532.0137 L420.5,532.0137 A2.5,2.5 0 0 1 418,529.5137 L418,378.5137 A2.5,2.5 0 0 1 420.5,376.0137 " fill="none" style="stroke:#000000;stroke-width:1.5;"/><line style="stroke:#000000;stroke-width:1.5;" x1="418" x2="653" y1="400.6348" y2="400.6348"/><text fill="#000000" font-family="sans-serif" font-size="14" font-weight="bold" lengthAdjust="spacing" textLength="222" x="422" y="393.1211">Application Logic Layer (Owner)</text></g><!--cluster Business Logic Layer (Owner)--><g id="cluster_Business Logic Layer (Owner)"><path d="M1141.5,376.0137 L1351.5,376.0137 A3.75,3.75 0 0 1 1354,378.5137 L1361,400.6348 L1361.5,400.6348 A2.5,2.5 0 0 1 1364,403.1348 L1364,560.5137 A2.5,2.5 0 0 1 1361.5,563.0137 L1141.5,563.0137 A2.5,2.5 0 0 1 1139,560.5137 L1139,378.5137 A2.5,2.5 0 0 1 1141.5,376.0137 " fill="none" style="stroke:#000000;stroke-width:1.5;"/><line style="stroke:#000000;stroke-width:1.5;" x1="1139" x2="1361" y1="400.6348" y2="400.6348"/><text fill="#000000" font-family="sans-serif" font-size="14" font-weight="bold" lengthAdjust="spacing" textLength="209" x="1143" y="393.1211">Business Logic Layer (Owner)</text></g><!--cluster Pet Module--><g id="cluster_Pet Module"><path d="M406.5,611.0137 L487.5,611.0137 A3.75,3.75 0 0 1 490,613.5137 L497,635.6348 L1374.5,635.6348 A2.5,2.5 0 0 1 1377,638.1348 L1377,864.5137 A2.5,2.5 0 0 1 1374.5,867.0137 L406.5,867.0137 A2.5,2.5 0 0 1 404,864.5137 L404,613.5137 A2.5,2.5 0 0 1 406.5,611.0137 " fill="none" style="stroke:#000000;stroke-width:1.5;"/><line style="stroke:#000000;stroke-width:1.5;" x1="404" x2="497" y1="635.6348" y2="635.6348"/><text fill="#000000" font-family="sans-serif" font-size="14" font-weight="bold" lengthAdjust="spacing" textLength="80" x="408" y="628.1211">Pet Module</text></g><!--cluster Application Logic Layer (Pet)--><g id="cluster_Application Logic Layer (Pet)"><path d="M430.5,660.0137 L630.5,660.0137 A3.75,3.75 0 0 1 633,662.5137 L640,684.6348 L803.5,684.6348 A2.5,2.5 0 0 1 806,687.1348 L806,813.5137 A2.5,2.5 0 0 1 803.5,816.0137 L430.5,816.0137 A2.5,2.5 0 0 1 428,813.5137 L428,662.5137 A2.5,2.5 0 0 1 430.5,660.0137 " fill="none" style="stroke:#000000;stroke-width:1.5;"/><line style="stroke:#000000;stroke-width:1.5;" x1="428" x2="640" y1="684.6348" y2="684.6348"/><text fill="#000000" font-family="sans-serif" font-size="14" font-weight="bold" lengthAdjust="spacing" textLength="199" x="432" y="677.1211">Application Logic Layer (Pet)</text></g><!--cluster Business Logic Layer (Pet)--><g id="cluster_Business Logic Layer (Pet)"><path d="M1153.5,656.0137 L1340.5,656.0137 A3.75,3.75 0 0 1 1343,658.5137 L1350,680.6348 L1350.5,680.6348 A2.5,2.5 0 0 1 1353,683.1348 L1353,840.5137 A2.5,2.5 0 0 1 1350.5,843.0137 L1153.5,843.0137 A2.5,2.5 0 0 1 1151,840.5137 L1151,658.5137 A2.5,2.5 0 0 1 1153.5,656.0137 " fill="none" style="stroke:#000000;stroke-width:1.5;"/><line style="stroke:#000000;stroke-width:1.5;" x1="1151" x2="1350" y1="680.6348" y2="680.6348"/><text fill="#000000" font-family="sans-serif" font-size="14" font-weight="bold" lengthAdjust="spacing" textLength="186" x="1155" y="673.1211">Business Logic Layer (Pet)</text></g><!--cluster Visit Module--><g id="cluster_Visit Module"><path d="M404,51.0137 L492,51.0137 A3.75,3.75 0 0 1 494.5,53.5137 L501.5,75.6348 L1378,75.6348 A2.5,2.5 0 0 1 1380.5,78.1348 L1380.5,304.5137 A2.5,2.5 0 0 1 1378,307.0137 L404,307.0137 A2.5,2.5 0 0 1 401.5,304.5137 L401.5,53.5137 A2.5,2.5 0 0 1 404,51.0137 " fill="none" style="stroke:#000000;stroke-width:1.5;"/><line style="stroke:#000000;stroke-width:1.5;" x1="401.5" x2="501.5" y1="75.6348" y2="75.6348"/><text fill="#000000" font-family="sans-serif" font-size="14" font-weight="bold" lengthAdjust="spacing" textLength="87" x="405.5" y="68.1211">Visit Module</text></g><!--cluster Application Logic Layer (Visit)--><g id="cluster_Application Logic Layer (Visit)"><path d="M428,127.0137 L635,127.0137 A3.75,3.75 0 0 1 637.5,129.5137 L644.5,151.6348 L806,151.6348 A2.5,2.5 0 0 1 808.5,154.1348 L808.5,280.5137 A2.5,2.5 0 0 1 806,283.0137 L428,283.0137 A2.5,2.5 0 0 1 425.5,280.5137 L425.5,129.5137 A2.5,2.5 0 0 1 428,127.0137 " fill="none" style="stroke:#000000;stroke-width:1.5;"/><line style="stroke:#000000;stroke-width:1.5;" x1="425.5" x2="644.5" y1="151.6348" y2="151.6348"/><text fill="#000000" font-family="sans-serif" font-size="14" font-weight="bold" lengthAdjust="spacing" textLength="206" x="429.5" y="144.1211">Application Logic Layer (Visit)</text></g><!--cluster Business Logic Layer (Visit)--><g id="cluster_Business Logic Layer (Visit)"><path d="M1150,96.0137 L1344,96.0137 A3.75,3.75 0 0 1 1346.5,98.5137 L1353.5,120.6348 L1354,120.6348 A2.5,2.5 0 0 1 1356.5,123.1348 L1356.5,280.5137 A2.5,2.5 0 0 1 1354,283.0137 L1150,283.0137 A2.5,2.5 0 0 1 1147.5,280.5137 L1147.5,98.5137 A2.5,2.5 0 0 1 1150,96.0137 " fill="none" style="stroke:#000000;stroke-width:1.5;"/><line style="stroke:#000000;stroke-width:1.5;" x1="1147.5" x2="1353.5" y1="120.6348" y2="120.6348"/><text fill="#000000" font-family="sans-serif" font-size="14" font-weight="bold" lengthAdjust="spacing" textLength="193" x="1151.5" y="113.1211">Business Logic Layer (Visit)</text></g><!--entity OwnerControllerAPI--><g id="elem_OwnerControllerAPI"><ellipse cx="304" cy="491.0137" fill="#F1F1F1" rx="8" ry="8" style="stroke:#181818;stroke-width:0.5;"/><text fill="#000000" font-family="sans-serif" font-size="14" lengthAdjust="spacing" textLength="124" x="242" y="523.1211">OwnerControllerAPI</text></g><!--entity PetControllerAPI--><g id="elem_PetControllerAPI"><ellipse cx="304" cy="682.0137" fill="#F1F1F1" rx="8" ry="8" style="stroke:#181818;stroke-width:0.5;"/><text fill="#000000" font-family="sans-serif" font-size="14" lengthAdjust="spacing" textLength="104" x="252" y="714.1211">PetControllerAPI</text></g><!--entity VisitControllerAPI--><g id="elem_VisitControllerAPI"><ellipse cx="304" cy="318.0137" fill="#F1F1F1" rx="8" ry="8" style="stroke:#181818;stroke-width:0.5;"/><text fill="#000000" font-family="sans-serif" font-size="14" lengthAdjust="spacing" textLength="109" x="249.5" y="350.1211">VisitControllerAPI</text></g><!--entity User Interface--><g id="elem_User Interface"><rect fill="#F1F1F1" height="48.6211" rx="2.5" ry="2.5" style="stroke:#181818;stroke-width:0.5;" width="128" x="46" y="466.5137"/><rect fill="#F1F1F1" height="10" style="stroke:#181818;stroke-width:0.5;" width="15" x="154" y="471.5137"/><rect fill="#F1F1F1" height="2" style="stroke:#181818;stroke-width:0.5;" width="4" x="152" y="473.5137"/><rect fill="#F1F1F1" height="2" style="stroke:#181818;stroke-width:0.5;" width="4" x="152" y="477.5137"/><text fill="#000000" font-family="sans-serif" font-size="14" lengthAdjust="spacing" textLength="88" x="61" y="501.6211">User Interface</text></g><!--entity OwnerModelAPI--><g id="elem_OwnerModelAPI"><ellipse cx="916" cy="518.0137" fill="#F1F1F1" rx="8" ry="8" style="stroke:#181818;stroke-width:0.5;"/><text fill="#000000" font-family="sans-serif" font-size="14" lengthAdjust="spacing" textLength="100" x="866" y="550.1211">OwnerModelAPI</text></g><!--entity OwnerRepoAPI--><g id="elem_OwnerRepoAPI"><ellipse cx="916" cy="438.0137" fill="#F1F1F1" rx="8" ry="8" style="stroke:#181818;stroke-width:0.5;"/><text fill="#000000" font-family="sans-serif" font-size="14" lengthAdjust="spacing" textLength="96" x="868" y="470.1211">OwnerRepoAPI</text></g><!--entity OwnerController--><g id="elem_OwnerController"><rect fill="#F1F1F1" height="48.6211" rx="2.5" ry="2.5" style="stroke:#181818;stroke-width:0.5;" width="143" x="434" y="466.5137"/><rect fill="#F1F1F1" height="10" style="stroke:#181818;stroke-width:0.5;" width="15" x="557" y="471.5137"/><rect fill="#F1F1F1" height="2" style="stroke:#181818;stroke-width:0.5;" width="4" x="555" y="473.5137"/><rect fill="#F1F1F1" height="2" style="stroke:#181818;stroke-width:0.5;" width="4" x="555" y="477.5137"/><text fill="#000000" font-family="sans-serif" font-size="14" lengthAdjust="spacing" textLength="103" x="449" y="501.6211">OwnerController</text></g><!--entity OwnerManagementAPI--><g id="elem_OwnerManagementAPI"><ellipse cx="505.5" cy="422.0137" fill="#F1F1F1" rx="8" ry="8" style="stroke:#181818;stroke-width:0.5;"/><text fill="#000000" font-family="sans-serif" font-size="14" lengthAdjust="spacing" textLength="144" x="433.5" y="454.1211">OwnerManagementAPI</text></g><!--entity OwnerManagement--><g id="elem_OwnerManagement"><rect fill="#F1F1F1" height="48.6211" rx="2.5" ry="2.5" style="stroke:#181818;stroke-width:0.5;" width="163" x="637" y="413.5137"/><rect fill="#F1F1F1" height="10" style="stroke:#181818;stroke-width:0.5;" width="15" x="780" y="418.5137"/><rect fill="#F1F1F1" height="2" style="stroke:#181818;stroke-width:0.5;" width="4" x="778" y="420.5137"/><rect fill="#F1F1F1" height="2" style="stroke:#181818;stroke-width:0.5;" width="4" x="778" y="424.5137"/><text fill="#000000" font-family="sans-serif" font-size="14" lengthAdjust="spacing" textLength="123" x="652" y="448.6211">OwnerManagement</text></g><!--entity Domain Owner--><g id="elem_Domain Owner"><rect fill="#F1F1F1" height="48.6211" rx="2.5" ry="2.5" style="stroke:#181818;stroke-width:0.5;" width="133" x="1185" y="497.5137"/><rect fill="#F1F1F1" height="10" style="stroke:#181818;stroke-width:0.5;" width="15" x="1298" y="502.5137"/><rect fill="#F1F1F1" height="2" style="stroke:#181818;stroke-width:0.5;" width="4" x="1296" y="504.5137"/><rect fill="#F1F1F1" height="2" style="stroke:#181818;stroke-width:0.5;" width="4" x="1296" y="508.5137"/><text fill="#000000" font-family="sans-serif" font-size="14" lengthAdjust="spacing" textLength="93" x="1200" y="532.6211">Domain Owner</text></g><!--entity OwnerRepository--><g id="elem_OwnerRepository"><rect fill="#F1F1F1" height="48.6211" rx="2.5" ry="2.5" style="stroke:#181818;stroke-width:0.5;" width="149" x="1177" y="413.5137"/><rect fill="#F1F1F1" height="10" style="stroke:#181818;stroke-width:0.5;" width="15" x="1306" y="418.5137"/><rect fill="#F1F1F1" height="2" style="stroke:#181818;stroke-width:0.5;" width="4" x="1304" y="420.5137"/><rect fill="#F1F1F1" height="2" style="stroke:#181818;stroke-width:0.5;" width="4" x="1304" y="424.5137"/><text fill="#000000" font-family="sans-serif" font-size="14" lengthAdjust="spacing" textLength="109" x="1192" y="448.6211">OwnerRepository</text></g><!--entity PetModelAPI--><g id="elem_PetModelAPI"><ellipse cx="916" cy="790.0137" fill="#F1F1F1" rx="8" ry="8" style="stroke:#181818;stroke-width:0.5;"/><text fill="#000000" font-family="sans-serif" font-size="14" lengthAdjust="spacing" textLength="80" x="876" y="822.1211">PetModelAPI</text></g><!--entity PetRepoAPI--><g id="elem_PetRepoAPI"><ellipse cx="916" cy="715.0137" fill="#F1F1F1" rx="8" ry="8" style="stroke:#181818;stroke-width:0.5;"/><text fill="#000000" font-family="sans-serif" font-size="14" lengthAdjust="spacing" textLength="76" x="878" y="747.1211">PetRepoAPI</text></g><!--entity PetController--><g id="elem_PetController"><rect fill="#F1F1F1" height="48.6211" rx="2.5" ry="2.5" style="stroke:#181818;stroke-width:0.5;" width="123" x="444" y="750.5137"/><rect fill="#F1F1F1" height="10" style="stroke:#181818;stroke-width:0.5;" width="15" x="547" y="755.5137"/><rect fill="#F1F1F1" height="2" style="stroke:#181818;stroke-width:0.5;" width="4" x="545" y="757.5137"/><rect fill="#F1F1F1" height="2" style="stroke:#181818;stroke-width:0.5;" width="4" x="545" y="761.5137"/><text fill="#000000" font-family="sans-serif" font-size="14" lengthAdjust="spacing" textLength="83" x="459" y="785.6211">PetController</text></g><!--entity PetManagementAPI--><g id="elem_PetManagementAPI"><ellipse cx="505.5" cy="706.0137" fill="#F1F1F1" rx="8" ry="8" style="stroke:#181818;stroke-width:0.5;"/><text fill="#000000" font-family="sans-serif" font-size="14" lengthAdjust="spacing" textLength="124" x="443.5" y="738.1211">PetManagementAPI</text></g><!--entity PetManagement--><g id="elem_PetManagement"><rect fill="#F1F1F1" height="48.6211" rx="2.5" ry="2.5" style="stroke:#181818;stroke-width:0.5;" width="143" x="647" y="704.5137"/><rect fill="#F1F1F1" height="10" style="stroke:#181818;stroke-width:0.5;" width="15" x="770" y="709.5137"/><rect fill="#F1F1F1" height="2" style="stroke:#181818;stroke-width:0.5;" width="4" x="768" y="711.5137"/><rect fill="#F1F1F1" height="2" style="stroke:#181818;stroke-width:0.5;" width="4" x="768" y="715.5137"/><text fill="#000000" font-family="sans-serif" font-size="14" lengthAdjust="spacing" textLength="103" x="662" y="739.6211">PetManagement</text></g><!--entity Domain Pet--><g id="elem_Domain Pet"><rect fill="#F1F1F1" height="48.6211" rx="2.5" ry="2.5" style="stroke:#181818;stroke-width:0.5;" width="113" x="1195" y="777.5137"/><rect fill="#F1F1F1" height="10" style="stroke:#181818;stroke-width:0.5;" width="15" x="1288" y="782.5137"/><rect fill="#F1F1F1" height="2" style="stroke:#181818;stroke-width:0.5;" width="4" x="1286" y="784.5137"/><rect fill="#F1F1F1" height="2" style="stroke:#181818;stroke-width:0.5;" width="4" x="1286" y="788.5137"/><text fill="#000000" font-family="sans-serif" font-size="14" lengthAdjust="spacing" textLength="73" x="1210" y="812.6211">Domain Pet</text></g><!--entity PetRepository--><g id="elem_PetRepository"><rect fill="#F1F1F1" height="48.6211" rx="2.5" ry="2.5" style="stroke:#181818;stroke-width:0.5;" width="129" x="1187" y="693.5137"/><rect fill="#F1F1F1" height="10" style="stroke:#181818;stroke-width:0.5;" width="15" x="1296" y="698.5137"/><rect fill="#F1F1F1" height="2" style="stroke:#181818;stroke-width:0.5;" width="4" x="1294" y="700.5137"/><rect fill="#F1F1F1" height="2" style="stroke:#181818;stroke-width:0.5;" width="4" x="1294" y="704.5137"/><text fill="#000000" font-family="sans-serif" font-size="14" lengthAdjust="spacing" textLength="89" x="1202" y="728.6211">PetRepository</text></g><!--entity VisitModelAPI--><g id="elem_VisitModelAPI"><ellipse cx="916" cy="242.0137" fill="#F1F1F1" rx="8" ry="8" style="stroke:#181818;stroke-width:0.5;"/><text fill="#000000" font-family="sans-serif" font-size="14" lengthAdjust="spacing" textLength="85" x="873.5" y="274.1211">VisitModelAPI</text></g><!--entity VisitRepoAPI--><g id="elem_VisitRepoAPI"><ellipse cx="916" cy="145.0137" fill="#F1F1F1" rx="8" ry="8" style="stroke:#181818;stroke-width:0.5;"/><text fill="#000000" font-family="sans-serif" font-size="14" lengthAdjust="spacing" textLength="81" x="875.5" y="177.1211">VisitRepoAPI</text></g><!--entity VisitController--><g id="elem_VisitController"><rect fill="#F1F1F1" height="48.6211" rx="2.5" ry="2.5" style="stroke:#181818;stroke-width:0.5;" width="128" x="441.5" y="217.5137"/><rect fill="#F1F1F1" height="10" style="stroke:#181818;stroke-width:0.5;" width="15" x="549.5" y="222.5137"/><rect fill="#F1F1F1" height="2" style="stroke:#181818;stroke-width:0.5;" width="4" x="547.5" y="224.5137"/><rect fill="#F1F1F1" height="2" style="stroke:#181818;stroke-width:0.5;" width="4" x="547.5" y="228.5137"/><text fill="#000000" font-family="sans-serif" font-size="14" lengthAdjust="spacing" textLength="88" x="456.5" y="252.6211">VisitController</text></g><!--entity VisitManagementAPI--><g id="elem_VisitManagementAPI"><ellipse cx="505.5" cy="173.0137" fill="#F1F1F1" rx="8" ry="8" style="stroke:#181818;stroke-width:0.5;"/><text fill="#000000" font-family="sans-serif" font-size="14" lengthAdjust="spacing" textLength="129" x="441" y="205.1211">VisitManagementAPI</text></g><!--entity VisitManagement--><g id="elem_VisitManagement"><rect fill="#F1F1F1" height="48.6211" rx="2.5" ry="2.5" style="stroke:#181818;stroke-width:0.5;" width="148" x="644.5" y="164.5137"/><rect fill="#F1F1F1" height="10" style="stroke:#181818;stroke-width:0.5;" width="15" x="772.5" y="169.5137"/><rect fill="#F1F1F1" height="2" style="stroke:#181818;stroke-width:0.5;" width="4" x="770.5" y="171.5137"/><rect fill="#F1F1F1" height="2" style="stroke:#181818;stroke-width:0.5;" width="4" x="770.5" y="175.5137"/><text fill="#000000" font-family="sans-serif" font-size="14" lengthAdjust="spacing" textLength="108" x="659.5" y="199.6211">VisitManagement</text></g><!--entity Domain Visit--><g id="elem_Domain Visit"><rect fill="#F1F1F1" height="48.6211" rx="2.5" ry="2.5" style="stroke:#181818;stroke-width:0.5;" width="118" x="1192.5" y="217.5137"/><rect fill="#F1F1F1" height="10" style="stroke:#181818;stroke-width:0.5;" width="15" x="1290.5" y="222.5137"/><rect fill="#F1F1F1" height="2" style="stroke:#181818;stroke-width:0.5;" width="4" x="1288.5" y="224.5137"/><rect fill="#F1F1F1" height="2" style="stroke:#181818;stroke-width:0.5;" width="4" x="1288.5" y="228.5137"/><text fill="#000000" font-family="sans-serif" font-size="14" lengthAdjust="spacing" textLength="78" x="1207.5" y="252.6211">Domain Visit</text></g><!--entity VisitRepository--><g id="elem_VisitRepository"><rect fill="#F1F1F1" height="48.6211" rx="2.5" ry="2.5" style="stroke:#181818;stroke-width:0.5;" width="134" x="1184.5" y="133.5137"/><rect fill="#F1F1F1" height="10" style="stroke:#181818;stroke-width:0.5;" width="15" x="1298.5" y="138.5137"/><rect fill="#F1F1F1" height="2" style="stroke:#181818;stroke-width:0.5;" width="4" x="1296.5" y="140.5137"/><rect fill="#F1F1F1" height="2" style="stroke:#181818;stroke-width:0.5;" width="4" x="1296.5" y="144.5137"/><text fill="#000000" font-family="sans-serif" font-size="14" lengthAdjust="spacing" textLength="94" x="1199.5" y="168.6211">VisitRepository</text></g><!--link OwnerManagementAPI to OwnerManagement--><g id="link_OwnerManagementAPI_OwnerManagement"><path d="M514.51,422.6237 C534.69,424.1537 589.36,428.2937 636.88,431.9037 " fill="none" id="OwnerManagementAPI-OwnerManagement" style="stroke:#181818;stroke-width:1.0;"/></g><!--link OwnerController to OwnerManagementAPI--><g id="link_OwnerController_OwnerManagementAPI"><path d="M505.5,466.4837 C505.5,454.6737 505.5,452.8637 505.5,441.0437 " fill="none" id="OwnerController-to-OwnerManagementAPI" style="stroke:#181818;stroke-width:1.0;"/><path d="M497.0428,434.1219 A9,9 0 0 0 513.9572 434.1219" fill="none" style="stroke:#181818;stroke-width:1.5;"/></g><!--link OwnerModelAPI to Domain Owner--><g id="link_OwnerModelAPI_Domain Owner"><path d="M925.24,518.1137 C960.45,518.5337 1100.25,520.2137 1184.69,521.2237 " fill="none" id="OwnerModelAPI-Domain Owner" style="stroke:#181818;stroke-width:1.0;"/></g><!--link OwnerRepoAPI to OwnerRepository--><g id="link_OwnerRepoAPI_OwnerRepository"><path d="M925.24,438.0137 C959.4,438.0137 1091.98,438.0137 1176.96,438.0137 " fill="none" id="OwnerRepoAPI-OwnerRepository" style="stroke:#181818;stroke-width:1.0;"/></g><!--link OwnerController to OwnerModelAPI--><g id="link_OwnerController_OwnerModelAPI"><path d="M577.15,501.4437 C596.51,503.9637 617.53,506.4037 637,508.0137 C743.37,516.8337 863.2701,517.8349 896.8001,517.9649 " fill="none" id="OwnerController-to-OwnerModelAPI" style="stroke:#181818;stroke-width:1.0;"/><path d="M903.7546,509.5346 A9,9 0 0 0 903.6891 526.4489" fill="none" style="stroke:#181818;stroke-width:1.5;"/></g><!--link OwnerController to OwnerRepoAPI--><g id="link_OwnerController_OwnerRepoAPI"><path d="M577.24,496.4837 C642.3,499.6537 740.96,499.7637 824,480.0137 C856.5,472.2837 882.8984,457.7238 898.3384,448.3238 " fill="none" id="OwnerController-to-OwnerRepoAPI" style="stroke:#181818;stroke-width:1.0;"/><path d="M899.8528,437.5006 A9,9 0 0 0 908.6487 451.9482" fill="none" style="stroke:#181818;stroke-width:1.5;"/></g><!--link OwnerRepository to OwnerModelAPI--><g id="link_OwnerRepository_OwnerModelAPI"><path d="M1176.96,455.6537 C1091.98,476.0437 969.1244,505.5122 934.9644,513.7022 " fill="none" id="OwnerRepository-to-OwnerModelAPI" style="stroke:#181818;stroke-width:1.0;"/><path d="M930.2051,523.5402 A9,9 0 0 0 926.2616 507.0918" fill="none" style="stroke:#181818;stroke-width:1.5;"/></g><!--link OwnerManagement to OwnerModelAPI--><g id="link_OwnerManagement_OwnerModelAPI"><path d="M800.08,457.3437 C808.26,459.9737 816.36,462.8637 824,466.0137 C828.35,467.8037 876.511,495.6742 898.101,508.2042 " fill="none" id="OwnerManagement-to-OwnerModelAPI" style="stroke:#181818;stroke-width:1.0;"/><path d="M908.3328,504.3639 A9,9 0 0 0 899.8426 518.9932" fill="none" style="stroke:#181818;stroke-width:1.5;"/></g><!--link OwnerManagement to OwnerRepoAPI--><g id="link_OwnerManagement_OwnerRepoAPI"><path d="M800.15,438.0137 C842.22,438.0137 878.65,438.0137 896.96,438.0137 " fill="none" id="OwnerManagement-to-OwnerRepoAPI" style="stroke:#181818;stroke-width:1.0;"/><path d="M903.8818,429.5564 A9,9 0 0 0 903.8818 446.4709" fill="none" style="stroke:#181818;stroke-width:1.5;"/></g><!--link OwnerControllerAPI to OwnerController--><g id="link_OwnerControllerAPI_OwnerController"><path d="M313.07,491.0137 C333.33,491.0137 388.03,491.0137 433.79,491.0137 " fill="none" id="OwnerControllerAPI-OwnerController" style="stroke:#181818;stroke-width:1.0;"/></g><!--link PetManagementAPI to PetManagement--><g id="link_PetManagementAPI_PetManagement"><path d="M514.51,706.8837 C536.12,709.2437 597.28,715.9137 646.87,721.3137 " fill="none" id="PetManagementAPI-PetManagement" style="stroke:#181818;stroke-width:1.0;"/></g><!--link PetController to PetManagementAPI--><g id="link_PetController_PetManagementAPI"><path d="M505.5,750.4837 C505.5,738.6737 505.5,736.8637 505.5,725.0437 " fill="none" id="PetController-to-PetManagementAPI" style="stroke:#181818;stroke-width:1.0;"/><path d="M497.0428,718.1219 A9,9 0 0 0 513.9572 718.1219" fill="none" style="stroke:#181818;stroke-width:1.5;"/></g><!--link PetModelAPI to Domain Pet--><g id="link_PetModelAPI_Domain Pet"><path d="M925.24,790.3137 C961.91,791.6337 1111.98,797.0337 1194.86,800.0137 " fill="none" id="PetModelAPI-Domain Pet" style="stroke:#181818;stroke-width:1.0;"/></g><!--link PetRepoAPI to PetRepository--><g id="link_PetRepoAPI_PetRepository"><path d="M925.24,715.0837 C960.75,715.4037 1102.65,716.6837 1186.84,717.4437 " fill="none" id="PetRepoAPI-PetRepository" style="stroke:#181818;stroke-width:1.0;"/></g><!--link PetController to PetModelAPI--><g id="link_PetController_PetModelAPI"><path d="M567.22,777.2437 C668.34,780.9537 854.3968,787.786 896.7968,789.346 " fill="none" id="PetController-to-PetModelAPI" style="stroke:#181818;stroke-width:1.0;"/><path d="M904.0249,781.149 A9,9 0 0 0 903.4029 798.052" fill="none" style="stroke:#181818;stroke-width:1.5;"/></g><!--link PetController to PetRepoAPI--><g id="link_PetController_PetRepoAPI"><path d="M548.3,750.4237 C557.84,744.5637 567.86,738.2037 577,732.0137 C604.59,713.3137 605.38,697.5537 637,687.0137 C715.85,660.7337 741.81,674.6537 824,687.0137 C855.38,691.7337 881.6123,701.3673 897.4023,707.7673 " fill="none" id="PetController-to-PetRepoAPI" style="stroke:#181818;stroke-width:1.0;"/><path d="M906.9941,702.5295 A9,9 0 0 0 900.6404 718.2053" fill="none" style="stroke:#181818;stroke-width:1.5;"/></g><!--link PetManagement to PetModelAPI--><g id="link_PetManagement_PetModelAPI"><path d="M790.24,747.9437 C801.57,751.1837 813.13,754.6037 824,758.0137 C854.68,767.6537 881.1648,777.3276 897.1648,783.3176 " fill="none" id="PetManagement-to-PetModelAPI" style="stroke:#181818;stroke-width:1.0;"/><path d="M906.6124,777.824 A9,9 0 0 0 900.682 793.6648" fill="none" style="stroke:#181818;stroke-width:1.5;"/></g><!--link PetManagement to PetRepoAPI--><g id="link_PetManagement_PetRepoAPI"><path d="M790.08,723.9637 C834.49,720.7837 877.0455,717.7276 896.8855,716.3076 " fill="none" id="PetManagement-to-PetRepoAPI" style="stroke:#181818;stroke-width:1.0;"/><path d="M903.1859,707.3778 A9,9 0 0 0 904.3934 724.2491" fill="none" style="stroke:#181818;stroke-width:1.5;"/></g><!--link PetRepository to PetModelAPI--><g id="link_PetRepository_PetModelAPI"><path d="M1186.84,731.7537 C1102.65,749.9337 970.5246,778.4524 935.0146,786.1224 " fill="none" id="PetRepository-to-PetModelAPI" style="stroke:#181818;stroke-width:1.0;"/><path d="M930.0343,795.8504 A9,9 0 0 0 926.4632 779.3172" fill="none" style="stroke:#181818;stroke-width:1.5;"/></g><!--link PetControllerAPI to PetController--><g id="link_PetControllerAPI_PetController"><path d="M313.19,687.8637 C327.46,697.8637 358.03,718.4837 386,732.0137 C404.32,740.8737 424.97,748.9737 443.84,755.6937 " fill="none" id="PetControllerAPI-PetController" style="stroke:#181818;stroke-width:1.0;"/></g><!--link VisitManagementAPI to VisitManagement--><g id="link_VisitManagementAPI_VisitManagement"><path d="M514.51,173.6237 C535.74,175.2337 595.16,179.7337 644.27,183.4637 " fill="none" id="VisitManagementAPI-VisitManagement" style="stroke:#181818;stroke-width:1.0;"/></g><!--link VisitController to VisitManagementAPI--><g id="link_VisitController_VisitManagementAPI"><path d="M505.5,217.4837 C505.5,205.6737 505.5,203.8637 505.5,192.0437 " fill="none" id="VisitController-to-VisitManagementAPI" style="stroke:#181818;stroke-width:1.0;"/><path d="M497.0428,185.1219 A9,9 0 0 0 513.9572 185.1219" fill="none" style="stroke:#181818;stroke-width:1.5;"/></g><!--link VisitModelAPI to Domain Visit--><g id="link_VisitModelAPI_Domain Visit"><path d="M925.24,242.0137 C961.55,242.0137 1109.11,242.0137 1192.46,242.0137 " fill="none" id="VisitModelAPI-Domain Visit" style="stroke:#181818;stroke-width:1.0;"/></g><!--link VisitRepoAPI to VisitRepository--><g id="link_VisitRepoAPI_VisitRepository"><path d="M925.24,145.3337 C960.4,146.7037 1099.85,152.1437 1184.32,155.4337 " fill="none" id="VisitRepoAPI-VisitRepository" style="stroke:#181818;stroke-width:1.0;"/></g><!--link VisitController to VisitModelAPI--><g id="link_VisitController_VisitModelAPI"><path d="M569.88,242.0137 C671.85,242.0137 855.14,242.0137 896.91,242.0137 " fill="none" id="VisitController-to-VisitModelAPI" style="stroke:#181818;stroke-width:1.0;"/><path d="M903.8318,233.5564 A9,9 0 0 0 903.8318 250.4709" fill="none" style="stroke:#181818;stroke-width:1.5;"/></g><!--link VisitController to VisitRepoAPI--><g id="link_VisitController_VisitRepoAPI"><path d="M549.37,217.4337 C558.67,211.6737 568.32,205.3537 577,199.0137 C605.5,178.1937 603.98,159.4637 637,147.0137 C737.26,109.2037 862.931,133.2814 897.141,140.9314 " fill="none" id="VisitController-to-VisitRepoAPI" style="stroke:#181818;stroke-width:1.0;"/><path d="M905.7416,134.1885 A9,9 0 0 0 902.0504 150.6953" fill="none" style="stroke:#181818;stroke-width:1.5;"/></g><!--link VisitManagement to VisitModelAPI--><g id="link_VisitManagement_VisitModelAPI"><path d="M792.6,208.5337 C803.14,211.3737 813.85,214.2637 824,217.0137 C854.68,225.3337 881.4828,232.7344 897.3328,237.1244 " fill="none" id="VisitManagement-to-VisitModelAPI" style="stroke:#181818;stroke-width:1.0;"/><path d="M906.2609,230.8216 A9,9 0 0 0 901.7461 247.1224" fill="none" style="stroke:#181818;stroke-width:1.5;"/></g><!--link VisitManagement to VisitRepoAPI--><g id="link_VisitManagement_VisitRepoAPI"><path d="M792.57,172.5637 C836.39,162.7037 877.5245,153.4515 897.0545,149.0515 " fill="none" id="VisitManagement-to-VisitRepoAPI" style="stroke:#181818;stroke-width:1.0;"/><path d="M901.9483,139.2798 A9,9 0 0 0 905.6659 155.7807" fill="none" style="stroke:#181818;stroke-width:1.5;"/></g><!--link VisitRepository to VisitModelAPI--><g id="link_VisitRepository_VisitModelAPI"><path d="M1184.32,174.6837 C1099.85,195.9537 970.0975,228.6427 934.9375,237.4927 " fill="none" id="VisitRepository-to-VisitModelAPI" style="stroke:#181818;stroke-width:1.0;"/><path d="M930.2894,247.3837 A9,9 0 0 0 926.1607 230.9809" fill="none" style="stroke:#181818;stroke-width:1.5;"/></g><!--link VisitControllerAPI to VisitController--><g id="link_VisitControllerAPI_VisitController"><path d="M313.07,314.9437 C334.43,306.8037 394.03,284.0937 441.11,266.1637 " fill="none" id="VisitControllerAPI-VisitController" style="stroke:#181818;stroke-width:1.0;"/></g><!--link User Interface to OwnerControllerAPI--><g id="link_User Interface_OwnerControllerAPI"><path d="M174.13,491.0137 C218.73,491.0137 264.08,491.0137 284.73,491.0137 " fill="none" id="User Interface-to-OwnerControllerAPI" style="stroke:#181818;stroke-width:1.0;"/><path d="M291.6518,482.5564 A9,9 0 0 0 291.6518 499.4709" fill="none" style="stroke:#181818;stroke-width:1.5;"/></g><!--link User Interface to PetControllerAPI--><g id="link_User Interface_PetControllerAPI"><path d="M135.71,515.5937 C179.26,558.9137 260.572,639.7996 287.762,666.8596 " fill="none" id="User Interface-to-PetControllerAPI" style="stroke:#181818;stroke-width:1.0;"/><path d="M298.634,665.7478 A9,9 0 0 0 286.7024 677.7368" fill="none" style="stroke:#181818;stroke-width:1.5;"/></g><!--link User Interface to VisitControllerAPI--><g id="link_User Interface_VisitControllerAPI"><path d="M138.51,466.2237 C182.89,426.2437 260.5916,356.2284 287.3216,332.1384 " fill="none" id="User Interface-to-VisitControllerAPI" style="stroke:#181818;stroke-width:1.0;"/><path d="M286.8015,321.2221 A9,9 0 0 0 298.1253 333.7868" fill="none" style="stroke:#181818;stroke-width:1.5;"/></g><!--link VisitController to OwnerManagement--><!--SRC=[bLKxRy8m4DxzAooMqY5bxqRfWWGggWGBoc0b9bXrx2WnGgZAVw_p83sVdGYG67A-xt6-JydBsPYYUbyi2icKkUJoBT7vmluBhRWoKIfOLhASI7uor6XQYkniQ2fAdXYX5I6aOCaFopYTxRXPIQ54GfT58KN2ceOP_GKj-pNTi1ilwVmW-FMrEQJDxxYlR76j32zFBE4ngG7ewwhiuLQd5ybREag7Cw14DpgpsZr_2m82xVDAArDgANaPT-MskcNASkLsskLk7KL7L8n766Wq3-1jS-qu_BXKGl6gchRtgNCcLCVd27xpGbV2wF8MtwaxKProsVd5s047nd5f0hCCm_IyqrqzEmcufADCu4edz89TTxsQ84zWHBXS9vJFHiT2m6QQLEFOs1eEZLEAWzZcPZ3omRYublg5so8G2WIb4VDYqgDwn60U1GGxxws3POKxG33S6ncX27Iu52XPaA4cZeTXb70G3iBIF1k55WHkldtsuj1MSI1GCHvXQ8RoyG_60jlhLzoM7K4SZhjdBnq3T821QL16_566MS2Inxl0el5bJL05kp2LangFgYR859ZH2G_-BFs_a1nik0-7CzpbEx6o_fqTpo9DkOhJo7zD4bB_0G00]--></g></svg>