<?xml version="1.0" encoding="us-ascii" standalone="no"?><svg xmlns="http://www.w3.org/2000/svg" xmlns:xlink="http://www.w3.org/1999/xlink" contentStyleType="text/css" height="631px" preserveAspectRatio="none" style="width:691px;height:631px;background:#DDDDDD;" version="1.1" viewBox="0 0 691 631" width="691px" zoomAndPan="magnify"><defs/><g><rect fill="#DDDDDD" height="631" style="stroke:none;stroke-width:1.0;" width="691" x="0" y="0"/><!--cluster <<aggregate>> Owner--><g id="cluster_&lt;&lt;aggregate&gt;&gt; Owner"><path d="M522.5,492 L670.5,492 A5.25,5.25 0 0 1 674,495.5 L681,515.875 L680.5,515.875 A3.5,3.5 0 0 1 684,519.375 L684,620.5 A3.5,3.5 0 0 1 680.5,624 L522.5,624 A3.5,3.5 0 0 1 519,620.5 L519,495.5 A3.5,3.5 0 0 1 522.5,492 " fill="none" style="stroke:#454645;stroke-width:1.0;"/><line style="stroke:#454645;stroke-width:1.0;" x1="519" x2="681" y1="515.875" y2="515.875"/><text fill="#000000" font-family="Arial" font-size="16" font-weight="bold" lengthAdjust="spacing" textLength="149" x="523" y="508.4844">&#171;aggregate&#187; Owner</text></g><!--cluster <<aggregate>> Pet--><g id="cluster_&lt;&lt;aggregate&gt;&gt; Pet"><path d="M203.5,249 L326.5,249 A5.25,5.25 0 0 1 330,252.5 L337,272.875 L491.5,272.875 A3.5,3.5 0 0 1 495,276.375 L495,611.5 A3.5,3.5 0 0 1 491.5,615 L203.5,615 A3.5,3.5 0 0 1 200,611.5 L200,252.5 A3.5,3.5 0 0 1 203.5,249 " fill="none" style="stroke:#454645;stroke-width:1.0;"/><line style="stroke:#454645;stroke-width:1.0;" x1="200" x2="337" y1="272.875" y2="272.875"/><text fill="#000000" font-family="Arial" font-size="16" font-weight="bold" lengthAdjust="spacing" textLength="124" x="204" y="265.4844">&#171;aggregate&#187; Pet</text></g><!--cluster <<aggregate>> Vet--><g id="cluster_&lt;&lt;aggregate&gt;&gt; Vet"><path d="M532.5,6 L655.5,6 A5.25,5.25 0 0 1 659,9.5 L666,29.875 L670.5,29.875 A3.5,3.5 0 0 1 674,33.375 L674,368.5 A3.5,3.5 0 0 1 670.5,372 L532.5,372 A3.5,3.5 0 0 1 529,368.5 L529,9.5 A3.5,3.5 0 0 1 532.5,6 " fill="none" style="stroke:#454645;stroke-width:1.0;"/><line style="stroke:#454645;stroke-width:1.0;" x1="529" x2="666" y1="29.875" y2="29.875"/><text fill="#000000" font-family="Arial" font-size="16" font-weight="bold" lengthAdjust="spacing" textLength="124" x="533" y="22.4844">&#171;aggregate&#187; Vet</text></g><!--cluster <<aggregate>> Visit--><g id="cluster_&lt;&lt;aggregate&gt;&gt; Visit"><path d="M9.5,6 L140.5,6 A5.25,5.25 0 0 1 144,9.5 L151,29.875 L172.5,29.875 A3.5,3.5 0 0 1 176,33.375 L176,368.5 A3.5,3.5 0 0 1 172.5,372 L9.5,372 A3.5,3.5 0 0 1 6,368.5 L6,9.5 A3.5,3.5 0 0 1 9.5,6 " fill="none" style="stroke:#454645;stroke-width:1.0;"/><line style="stroke:#454645;stroke-width:1.0;" x1="6" x2="151" y1="29.875" y2="29.875"/><text fill="#000000" font-family="Arial" font-size="16" font-weight="bold" lengthAdjust="spacing" textLength="132" x="10" y="22.4844">&#171;aggregate&#187; Visit</text></g><!--class Owner--><g id="elem_Owner"><rect codeLine="9" fill="#F1F1F1" height="79.625" id="Owner" rx="3.5" ry="3.5" style="stroke:#181818;stroke-width:0.5;" width="88" x="535" y="528"/><ellipse cx="550" cy="559.8125" fill="#ADD1B2" rx="11" ry="11" style="stroke:#181818;stroke-width:1.0;"/><path d="M549.1563,560.3594 L549.1563,562.7031 L553.25,562.7031 L553.25,561.8438 Q553.25,561.2656 553.4688,561.0156 Q553.6875,560.7656 554.0469,560.7656 Q554.4063,560.7656 554.625,561.0156 Q554.8438,561.2656 554.8438,561.8438 L554.8438,564.3125 L547.3125,564.3125 Q546.7344,564.3125 546.4844,564.0938 Q546.2344,563.8594 546.2344,563.5 Q546.2344,563.1563 546.4844,562.9375 Q546.7344,562.7031 547.3125,562.7031 L547.5625,562.7031 L547.5625,556.4375 L547.3125,556.4375 Q546.7344,556.4375 546.4844,556.2188 Q546.2344,556 546.2344,555.6406 Q546.2344,555.2813 546.4844,555.0625 Q546.7344,554.8281 547.3125,554.8281 L554.5,554.8438 L554.5,557.2813 Q554.5,557.8438 554.2813,558.0938 Q554.0625,558.3438 553.7031,558.3438 Q553.3438,558.3438 553.1094,558.1094 Q552.8906,557.8594 552.8906,557.2813 L552.8906,556.4375 L549.1563,556.4375 L549.1563,558.75 L550.5625,558.75 Q550.5625,558.125 550.6875,557.9531 Q550.9219,557.5625 551.375,557.5625 Q551.7188,557.5625 551.9375,557.8125 Q552.1719,558.0625 552.1719,558.6406 L552.1719,560.4844 Q552.1719,561 552.0469,561.1875 Q551.7969,561.5469 551.375,561.5469 Q550.9219,561.5469 550.6875,561.1719 Q550.5625,560.9844 550.5625,560.3594 L549.1563,560.3594 Z " fill="#000000"/><text fill="#000000" font-family="Arial" font-size="16" font-weight="bold" lengthAdjust="spacing" textLength="60" x="562" y="547.4844">&#171;entity&#187;</text><text fill="#000000" font-family="Arial" font-size="16" font-weight="bold" lengthAdjust="spacing" textLength="49" x="567.5" y="565.3594">&#171;root&#187;</text><text fill="#000000" font-family="Arial" font-size="16" lengthAdjust="spacing" textLength="45" x="569.5" y="583.2344">Owner</text><line style="stroke:#181818;stroke-width:0.5;" x1="536" x2="622" y1="591.625" y2="591.625"/><line style="stroke:#181818;stroke-width:0.5;" x1="536" x2="622" y1="599.625" y2="599.625"/></g><!--class Pet--><g id="elem_Pet"><rect codeLine="13" fill="#F1F1F1" height="79.625" id="Pet" rx="3.5" ry="3.5" style="stroke:#181818;stroke-width:0.5;" width="88" x="305" y="285"/><ellipse cx="320" cy="316.8125" fill="#ADD1B2" rx="11" ry="11" style="stroke:#181818;stroke-width:1.0;"/><path d="M319.1563,317.3594 L319.1563,319.7031 L323.25,319.7031 L323.25,318.8438 Q323.25,318.2656 323.4688,318.0156 Q323.6875,317.7656 324.0469,317.7656 Q324.4063,317.7656 324.625,318.0156 Q324.8438,318.2656 324.8438,318.8438 L324.8438,321.3125 L317.3125,321.3125 Q316.7344,321.3125 316.4844,321.0938 Q316.2344,320.8594 316.2344,320.5 Q316.2344,320.1563 316.4844,319.9375 Q316.7344,319.7031 317.3125,319.7031 L317.5625,319.7031 L317.5625,313.4375 L317.3125,313.4375 Q316.7344,313.4375 316.4844,313.2188 Q316.2344,313 316.2344,312.6406 Q316.2344,312.2813 316.4844,312.0625 Q316.7344,311.8281 317.3125,311.8281 L324.5,311.8438 L324.5,314.2813 Q324.5,314.8438 324.2813,315.0938 Q324.0625,315.3438 323.7031,315.3438 Q323.3438,315.3438 323.1094,315.1094 Q322.8906,314.8594 322.8906,314.2813 L322.8906,313.4375 L319.1563,313.4375 L319.1563,315.75 L320.5625,315.75 Q320.5625,315.125 320.6875,314.9531 Q320.9219,314.5625 321.375,314.5625 Q321.7188,314.5625 321.9375,314.8125 Q322.1719,315.0625 322.1719,315.6406 L322.1719,317.4844 Q322.1719,318 322.0469,318.1875 Q321.7969,318.5469 321.375,318.5469 Q320.9219,318.5469 320.6875,318.1719 Q320.5625,317.9844 320.5625,317.3594 L319.1563,317.3594 Z " fill="#000000"/><text fill="#000000" font-family="Arial" font-size="16" font-weight="bold" lengthAdjust="spacing" textLength="60" x="332" y="304.4844">&#171;entity&#187;</text><text fill="#000000" font-family="Arial" font-size="16" font-weight="bold" lengthAdjust="spacing" textLength="49" x="337.5" y="322.3594">&#171;root&#187;</text><text fill="#000000" font-family="Arial" font-size="16" lengthAdjust="spacing" textLength="24" x="350" y="340.2344">Pet</text><line style="stroke:#181818;stroke-width:0.5;" x1="306" x2="392" y1="348.625" y2="348.625"/><line style="stroke:#181818;stroke-width:0.5;" x1="306" x2="392" y1="356.625" y2="356.625"/></g><!--class PetType--><g id="elem_PetType"><rect codeLine="15" fill="#F1F1F1" height="61.75" id="PetType" rx="3.5" ry="3.5" style="stroke:#181818;stroke-width:0.5;" width="90" x="216" y="537"/><ellipse cx="231" cy="559.875" fill="#ADD1B2" rx="11" ry="11" style="stroke:#181818;stroke-width:1.0;"/><path d="M230.1563,560.4219 L230.1563,562.7656 L234.25,562.7656 L234.25,561.9063 Q234.25,561.3281 234.4688,561.0781 Q234.6875,560.8281 235.0469,560.8281 Q235.4063,560.8281 235.625,561.0781 Q235.8438,561.3281 235.8438,561.9063 L235.8438,564.375 L228.3125,564.375 Q227.7344,564.375 227.4844,564.1563 Q227.2344,563.9219 227.2344,563.5625 Q227.2344,563.2188 227.4844,563 Q227.7344,562.7656 228.3125,562.7656 L228.5625,562.7656 L228.5625,556.5 L228.3125,556.5 Q227.7344,556.5 227.4844,556.2813 Q227.2344,556.0625 227.2344,555.7031 Q227.2344,555.3438 227.4844,555.125 Q227.7344,554.8906 228.3125,554.8906 L235.5,554.9063 L235.5,557.3438 Q235.5,557.9063 235.2813,558.1563 Q235.0625,558.4063 234.7031,558.4063 Q234.3438,558.4063 234.1094,558.1719 Q233.8906,557.9219 233.8906,557.3438 L233.8906,556.5 L230.1563,556.5 L230.1563,558.8125 L231.5625,558.8125 Q231.5625,558.1875 231.6875,558.0156 Q231.9219,557.625 232.375,557.625 Q232.7188,557.625 232.9375,557.875 Q233.1719,558.125 233.1719,558.7031 L233.1719,560.5469 Q233.1719,561.0625 233.0469,561.25 Q232.7969,561.6094 232.375,561.6094 Q231.9219,561.6094 231.6875,561.2344 Q231.5625,561.0469 231.5625,560.4219 L230.1563,560.4219 Z " fill="#000000"/><text fill="#000000" font-family="Arial" font-size="16" font-weight="bold" lengthAdjust="spacing" textLength="60" x="244" y="556.4844">&#171;entity&#187;</text><text fill="#000000" font-family="Arial" font-size="16" lengthAdjust="spacing" textLength="58" x="245" y="574.3594">PetType</text><line style="stroke:#181818;stroke-width:0.5;" x1="217" x2="305" y1="582.75" y2="582.75"/><line style="stroke:#181818;stroke-width:0.5;" x1="217" x2="305" y1="590.75" y2="590.75"/></g><!--class BirthDate--><g id="elem_BirthDate"><rect codeLine="17" fill="#F1F1F1" height="61.75" id="BirthDate" rx="3.5" ry="3.5" style="stroke:#181818;stroke-width:0.5;" width="138" x="341" y="537"/><ellipse cx="356" cy="559.875" fill="#FF8B40" rx="11" ry="11" style="stroke:#181818;stroke-width:1.0;"/><path d="M356.2969,563.0313 L358.625,557.5 L358.25,557.5 Q357.6719,557.5 357.4219,557.2813 Q357.1875,557.0625 357.1875,556.7031 Q357.1875,556.3438 357.4219,556.125 Q357.6719,555.8906 358.25,555.8906 L360.4063,555.9063 Q360.9844,555.9063 361.2188,556.125 Q361.4688,556.3438 361.4688,556.7031 Q361.4688,557.125 361.0938,557.375 Q360.9219,557.5 360.3594,557.5 L357.0781,565.375 L355.5313,565.375 L352.25,557.5 Q351.6875,557.5 351.5156,557.375 Q351.125,557.1406 351.125,556.7031 Q351.125,556.3438 351.375,556.125 Q351.625,555.8906 352.2031,555.8906 L354.375,555.9063 Q354.9375,555.9063 355.1875,556.125 Q355.4375,556.3438 355.4375,556.7031 Q355.4375,557.0625 355.1875,557.2813 Q354.9531,557.5 354.375,557.5 L354,557.5 L356.2969,563.0313 Z " fill="#000000"/><text fill="#000000" font-family="Arial" font-size="16" font-weight="bold" lengthAdjust="spacing" textLength="110" x="368" y="556.4844">&#171;value object&#187;</text><text fill="#000000" font-family="Arial" font-size="16" lengthAdjust="spacing" textLength="66" x="390" y="574.3594">BirthDate</text><line style="stroke:#181818;stroke-width:0.5;" x1="342" x2="478" y1="582.75" y2="582.75"/><line style="stroke:#181818;stroke-width:0.5;" x1="342" x2="478" y1="590.75" y2="590.75"/></g><!--class Vet--><g id="elem_Vet"><rect codeLine="21" fill="#F1F1F1" height="79.625" id="Vet" rx="3.5" ry="3.5" style="stroke:#181818;stroke-width:0.5;" width="88" x="545" y="42"/><ellipse cx="560" cy="73.8125" fill="#ADD1B2" rx="11" ry="11" style="stroke:#181818;stroke-width:1.0;"/><path d="M559.1563,74.3594 L559.1563,76.7031 L563.25,76.7031 L563.25,75.8438 Q563.25,75.2656 563.4688,75.0156 Q563.6875,74.7656 564.0469,74.7656 Q564.4063,74.7656 564.625,75.0156 Q564.8438,75.2656 564.8438,75.8438 L564.8438,78.3125 L557.3125,78.3125 Q556.7344,78.3125 556.4844,78.0938 Q556.2344,77.8594 556.2344,77.5 Q556.2344,77.1563 556.4844,76.9375 Q556.7344,76.7031 557.3125,76.7031 L557.5625,76.7031 L557.5625,70.4375 L557.3125,70.4375 Q556.7344,70.4375 556.4844,70.2188 Q556.2344,70 556.2344,69.6406 Q556.2344,69.2813 556.4844,69.0625 Q556.7344,68.8281 557.3125,68.8281 L564.5,68.8438 L564.5,71.2813 Q564.5,71.8438 564.2813,72.0938 Q564.0625,72.3438 563.7031,72.3438 Q563.3438,72.3438 563.1094,72.1094 Q562.8906,71.8594 562.8906,71.2813 L562.8906,70.4375 L559.1563,70.4375 L559.1563,72.75 L560.5625,72.75 Q560.5625,72.125 560.6875,71.9531 Q560.9219,71.5625 561.375,71.5625 Q561.7188,71.5625 561.9375,71.8125 Q562.1719,72.0625 562.1719,72.6406 L562.1719,74.4844 Q562.1719,75 562.0469,75.1875 Q561.7969,75.5469 561.375,75.5469 Q560.9219,75.5469 560.6875,75.1719 Q560.5625,74.9844 560.5625,74.3594 L559.1563,74.3594 Z " fill="#000000"/><text fill="#000000" font-family="Arial" font-size="16" font-weight="bold" lengthAdjust="spacing" textLength="60" x="572" y="61.4844">&#171;entity&#187;</text><text fill="#000000" font-family="Arial" font-size="16" font-weight="bold" lengthAdjust="spacing" textLength="49" x="577.5" y="79.3594">&#171;root&#187;</text><text fill="#000000" font-family="Arial" font-size="16" lengthAdjust="spacing" textLength="24" x="590" y="97.2344">Vet</text><line style="stroke:#181818;stroke-width:0.5;" x1="546" x2="632" y1="105.625" y2="105.625"/><line style="stroke:#181818;stroke-width:0.5;" x1="546" x2="632" y1="113.625" y2="113.625"/></g><!--class Speciality--><g id="elem_Speciality"><rect codeLine="23" fill="#F1F1F1" height="61.75" id="Speciality" rx="3.5" ry="3.5" style="stroke:#181818;stroke-width:0.5;" width="100" x="545" y="294"/><ellipse cx="560" cy="316.875" fill="#ADD1B2" rx="11" ry="11" style="stroke:#181818;stroke-width:1.0;"/><path d="M559.1563,317.4219 L559.1563,319.7656 L563.25,319.7656 L563.25,318.9063 Q563.25,318.3281 563.4688,318.0781 Q563.6875,317.8281 564.0469,317.8281 Q564.4063,317.8281 564.625,318.0781 Q564.8438,318.3281 564.8438,318.9063 L564.8438,321.375 L557.3125,321.375 Q556.7344,321.375 556.4844,321.1563 Q556.2344,320.9219 556.2344,320.5625 Q556.2344,320.2188 556.4844,320 Q556.7344,319.7656 557.3125,319.7656 L557.5625,319.7656 L557.5625,313.5 L557.3125,313.5 Q556.7344,313.5 556.4844,313.2813 Q556.2344,313.0625 556.2344,312.7031 Q556.2344,312.3438 556.4844,312.125 Q556.7344,311.8906 557.3125,311.8906 L564.5,311.9063 L564.5,314.3438 Q564.5,314.9063 564.2813,315.1563 Q564.0625,315.4063 563.7031,315.4063 Q563.3438,315.4063 563.1094,315.1719 Q562.8906,314.9219 562.8906,314.3438 L562.8906,313.5 L559.1563,313.5 L559.1563,315.8125 L560.5625,315.8125 Q560.5625,315.1875 560.6875,315.0156 Q560.9219,314.625 561.375,314.625 Q561.7188,314.625 561.9375,314.875 Q562.1719,315.125 562.1719,315.7031 L562.1719,317.5469 Q562.1719,318.0625 562.0469,318.25 Q561.7969,318.6094 561.375,318.6094 Q560.9219,318.6094 560.6875,318.2344 Q560.5625,318.0469 560.5625,317.4219 L559.1563,317.4219 Z " fill="#000000"/><text fill="#000000" font-family="Arial" font-size="16" font-weight="bold" lengthAdjust="spacing" textLength="60" x="578" y="313.4844">&#171;entity&#187;</text><text fill="#000000" font-family="Arial" font-size="16" lengthAdjust="spacing" textLength="68" x="574" y="331.3594">Speciality</text><line style="stroke:#181818;stroke-width:0.5;" x1="546" x2="644" y1="339.75" y2="339.75"/><line style="stroke:#181818;stroke-width:0.5;" x1="546" x2="644" y1="347.75" y2="347.75"/></g><!--class Visit--><g id="elem_Visit"><rect codeLine="27" fill="#F1F1F1" height="79.625" id="Visit" rx="3.5" ry="3.5" style="stroke:#181818;stroke-width:0.5;" width="88" x="60" y="42"/><ellipse cx="75" cy="73.8125" fill="#ADD1B2" rx="11" ry="11" style="stroke:#181818;stroke-width:1.0;"/><path d="M74.1563,74.3594 L74.1563,76.7031 L78.25,76.7031 L78.25,75.8438 Q78.25,75.2656 78.4688,75.0156 Q78.6875,74.7656 79.0469,74.7656 Q79.4063,74.7656 79.625,75.0156 Q79.8438,75.2656 79.8438,75.8438 L79.8438,78.3125 L72.3125,78.3125 Q71.7344,78.3125 71.4844,78.0938 Q71.2344,77.8594 71.2344,77.5 Q71.2344,77.1563 71.4844,76.9375 Q71.7344,76.7031 72.3125,76.7031 L72.5625,76.7031 L72.5625,70.4375 L72.3125,70.4375 Q71.7344,70.4375 71.4844,70.2188 Q71.2344,70 71.2344,69.6406 Q71.2344,69.2813 71.4844,69.0625 Q71.7344,68.8281 72.3125,68.8281 L79.5,68.8438 L79.5,71.2813 Q79.5,71.8438 79.2813,72.0938 Q79.0625,72.3438 78.7031,72.3438 Q78.3438,72.3438 78.1094,72.1094 Q77.8906,71.8594 77.8906,71.2813 L77.8906,70.4375 L74.1563,70.4375 L74.1563,72.75 L75.5625,72.75 Q75.5625,72.125 75.6875,71.9531 Q75.9219,71.5625 76.375,71.5625 Q76.7188,71.5625 76.9375,71.8125 Q77.1719,72.0625 77.1719,72.6406 L77.1719,74.4844 Q77.1719,75 77.0469,75.1875 Q76.7969,75.5469 76.375,75.5469 Q75.9219,75.5469 75.6875,75.1719 Q75.5625,74.9844 75.5625,74.3594 L74.1563,74.3594 Z " fill="#000000"/><text fill="#000000" font-family="Arial" font-size="16" font-weight="bold" lengthAdjust="spacing" textLength="60" x="87" y="61.4844">&#171;entity&#187;</text><text fill="#000000" font-family="Arial" font-size="16" font-weight="bold" lengthAdjust="spacing" textLength="49" x="92.5" y="79.3594">&#171;root&#187;</text><text fill="#000000" font-family="Arial" font-size="16" lengthAdjust="spacing" textLength="31" x="101.5" y="97.2344">Visit</text><line style="stroke:#181818;stroke-width:0.5;" x1="61" x2="147" y1="105.625" y2="105.625"/><line style="stroke:#181818;stroke-width:0.5;" x1="61" x2="147" y1="113.625" y2="113.625"/></g><!--class VisitDate--><g id="elem_VisitDate"><rect codeLine="29" fill="#F1F1F1" height="61.75" id="VisitDate" rx="3.5" ry="3.5" style="stroke:#181818;stroke-width:0.5;" width="138" x="22" y="294"/><ellipse cx="37" cy="316.875" fill="#FF8B40" rx="11" ry="11" style="stroke:#181818;stroke-width:1.0;"/><path d="M37.2969,320.0313 L39.625,314.5 L39.25,314.5 Q38.6719,314.5 38.4219,314.2813 Q38.1875,314.0625 38.1875,313.7031 Q38.1875,313.3438 38.4219,313.125 Q38.6719,312.8906 39.25,312.8906 L41.4063,312.9063 Q41.9844,312.9063 42.2188,313.125 Q42.4688,313.3438 42.4688,313.7031 Q42.4688,314.125 42.0938,314.375 Q41.9219,314.5 41.3594,314.5 L38.0781,322.375 L36.5313,322.375 L33.25,314.5 Q32.6875,314.5 32.5156,314.375 Q32.125,314.1406 32.125,313.7031 Q32.125,313.3438 32.375,313.125 Q32.625,312.8906 33.2031,312.8906 L35.375,312.9063 Q35.9375,312.9063 36.1875,313.125 Q36.4375,313.3438 36.4375,313.7031 Q36.4375,314.0625 36.1875,314.2813 Q35.9531,314.5 35.375,314.5 L35,314.5 L37.2969,320.0313 Z " fill="#000000"/><text fill="#000000" font-family="Arial" font-size="16" font-weight="bold" lengthAdjust="spacing" textLength="110" x="49" y="313.4844">&#171;value object&#187;</text><text fill="#000000" font-family="Arial" font-size="16" lengthAdjust="spacing" textLength="65" x="71.5" y="331.3594">VisitDate</text><line style="stroke:#181818;stroke-width:0.5;" x1="23" x2="159" y1="339.75" y2="339.75"/><line style="stroke:#181818;stroke-width:0.5;" x1="23" x2="159" y1="347.75" y2="347.75"/></g><!--link Pet to PetType--><g id="link_Pet_PetType"><path codeLine="32" d="M332.75,365.24 C325.29,383.6 316.46,405.83 309,426 C294.96,463.96 282.0199,502.4988 272.6199,531.1588 " fill="none" id="Pet-to-PetType" style="stroke:#454645;stroke-width:2.5;"/><polygon fill="#454645" points="270.75,536.86,277.3556,529.5548,272.3082,532.109,269.754,527.0616,270.75,536.86" style="stroke:#454645;stroke-width:2.5;"/><text fill="#000000" font-family="Arial" font-size="16" lengthAdjust="spacing" textLength="55" x="310" y="441.4844">belongs</text><text fill="#000000" font-family="Arial" font-size="16" lengthAdjust="spacing" textLength="9" x="262.8984" y="525.7962">1</text></g><!--link Pet to BirthDate--><g id="link_Pet_BirthDate"><path codeLine="33" d="M358.94,365.26 C371.09,413.27 389.9284,487.6933 400.9084,531.0933 " fill="none" id="Pet-to-BirthDate" style="stroke:#454645;stroke-width:2.5;"/><polygon fill="#454645" points="402.38,536.91,404.0504,527.2038,401.1537,532.0627,396.2948,529.166,402.38,536.91" style="stroke:#454645;stroke-width:2.5;"/><text fill="#000000" font-family="Arial" font-size="16" lengthAdjust="spacing" textLength="25" x="379" y="441.4844">has</text><text fill="#000000" font-family="Arial" font-size="16" lengthAdjust="spacing" textLength="9" x="390.5773" y="525.3693">1</text></g><!--link Visit to VisitDate--><g id="link_Visit_VisitDate"><path codeLine="34" d="M101.88,122.26 C99.29,170.27 95.283,244.5187 92.943,287.9187 " fill="none" id="Visit-to-VisitDate" style="stroke:#454645;stroke-width:2.5;"/><polygon fill="#454645" points="92.62,293.91,97.0987,285.1384,92.8892,288.9173,89.1104,284.7077,92.62,293.91" style="stroke:#454645;stroke-width:2.5;"/><text fill="#000000" font-family="Arial" font-size="16" lengthAdjust="spacing" textLength="25" x="99" y="198.4844">has</text><text fill="#000000" font-family="Arial" font-size="16" lengthAdjust="spacing" textLength="9" x="82.954" y="282.3693">1</text></g><!--link Vet to Speciality--><g id="link_Vet_Speciality"><path codeLine="35" d="M589.98,122.26 C591.17,170.27 593.0207,244.5119 594.1007,287.9119 " fill="none" id="Vet-to-Speciality" style="stroke:#454645;stroke-width:2.5;"/><polygon fill="#454645" points="594.25,293.91,598.0249,284.8133,594.1256,288.9115,590.0273,285.0123,594.25,293.91" style="stroke:#454645;stroke-width:2.5;"/><text fill="#000000" font-family="Arial" font-size="16" lengthAdjust="spacing" textLength="76" x="592" y="198.4844">possesses</text><text fill="#000000" font-family="Arial" font-size="16" lengthAdjust="spacing" textLength="6" x="587.3828" y="282.3693">*</text></g><!--link Pet to Owner--><g id="link_Pet_Owner"><path codeLine="36" d="M386.47,365.26 C429.24,410.07 498.79,482.95 541.55,527.76 " fill="none" id="Pet-Owner" style="stroke:#454645;stroke-width:2.5;"/><polygon fill="#000000" points="472.1424,440.2781,467.2001,429.9911,462.0974,434.8607,472.1424,440.2781" style="stroke:#000000;stroke-width:1.0;"/><text fill="#000000" font-family="Arial" font-size="16" lengthAdjust="spacing" textLength="46" x="479" y="441.4844">owned</text><text fill="#000000" font-family="Arial" font-size="16" lengthAdjust="spacing" textLength="6" x="385.5328" y="386.9978">*</text><text fill="#000000" font-family="Arial" font-size="16" lengthAdjust="spacing" textLength="9" x="525.0777" y="516.6739">1</text></g><!--link Visit to Pet--><g id="link_Visit_Pet"><path codeLine="37" d="M143.91,122.26 C189.47,167.07 263.56,239.95 309.11,284.76 " fill="none" id="Visit-Pet" style="stroke:#454645;stroke-width:2.5;"/><polygon fill="#000000" points="234.2775,197.145,229.0126,187.0193,224.0663,192.0478,234.2775,197.145" style="stroke:#000000;stroke-width:1.0;"/><text fill="#000000" font-family="Arial" font-size="16" lengthAdjust="spacing" textLength="55" x="241" y="198.4844">belongs</text><text fill="#000000" font-family="Arial" font-size="16" lengthAdjust="spacing" textLength="6" x="143.3312" y="143.9978">*</text><text fill="#000000" font-family="Arial" font-size="16" lengthAdjust="spacing" textLength="9" x="292.203" y="273.6739">1</text></g><!--SRC=[ZLBHJeCm57tlLrpnHOqOPzGOGaYsB3ogoHRU2xj2fQEaxLnmsRzxWKb0POuq0UuvFUVSsvfS52NNV0rpVECRQKDLs6U-HfXgmIKpV-4ByOamUHm1RIKHOYLNFNogjTekCv7a1He3TpSFxCncI3PMLOonaYSvJn4St-TfgZ7b5eC0NhO5QcV7W1uihB1LMmBVRt-3mFUrKfQukptRZmgzeXtAK654v0ThMPNOOtQCH79gP2QqpURaGPIBwFey39zczxUNyC7b1a75xvZycosYR3085vqKRb5YGaTKVmxp7R4IHlmogsl7xDfE6zgfdTRJTLqt06VYV0_HWnYbAb8pHBi9Uf1nmzeq7Tgv7j1kvvNJwz-3KXc3zMh4QvHeZK9pNpnGz5f1SD3l4sX35uq8Nm00]--></g></svg>