<?xml version="1.0" encoding="us-ascii" standalone="no"?><svg xmlns="http://www.w3.org/2000/svg" xmlns:xlink="http://www.w3.org/1999/xlink" contentStyleType="text/css" height="436px" preserveAspectRatio="none" style="width:640px;height:436px;background:#FFFFFF;" version="1.1" viewBox="0 0 640 436" width="640px" zoomAndPan="magnify"><defs/><g><!--cluster PetClinic--><g id="cluster_PetClinic"><path d="M8.5,6.0137 L71.5,6.0137 A3.75,3.75 0 0 1 74,8.5137 L81,30.6348 L630.5,30.6348 A2.5,2.5 0 0 1 633,33.1348 L633,426.5137 A2.5,2.5 0 0 1 630.5,429.0137 L8.5,429.0137 A2.5,2.5 0 0 1 6,426.5137 L6,8.5137 A2.5,2.5 0 0 1 8.5,6.0137 " fill="none" style="stroke:#000000;stroke-width:1.5;"/><line style="stroke:#000000;stroke-width:1.5;" x1="6" x2="81" y1="30.6348" y2="30.6348"/><text fill="#000000" font-family="sans-serif" font-size="14" font-weight="bold" lengthAdjust="spacing" textLength="62" x="10" y="23.1211">PetClinic</text></g><!--cluster UI Layer (View)--><g id="cluster_UI Layer (View)"><path d="M78.5,51.0137 L182.5,51.0137 A3.75,3.75 0 0 1 185,53.5137 L192,75.6348 L233.5,75.6348 A2.5,2.5 0 0 1 236,78.1348 L236,150.5137 A2.5,2.5 0 0 1 233.5,153.0137 L78.5,153.0137 A2.5,2.5 0 0 1 76,150.5137 L76,53.5137 A2.5,2.5 0 0 1 78.5,51.0137 " fill="none" style="stroke:#000000;stroke-width:1.5;"/><line style="stroke:#000000;stroke-width:1.5;" x1="76" x2="192" y1="75.6348" y2="75.6348"/><text fill="#000000" font-family="sans-serif" font-size="14" font-weight="bold" lengthAdjust="spacing" textLength="103" x="80" y="68.1211">UI Layer (View)</text></g><!--cluster Application Logic Layer (Controller)--><g id="cluster_Application Logic Layer (Controller)"><path d="M95.5,177.0137 L343.5,177.0137 A3.75,3.75 0 0 1 346,179.5137 L353,201.6348 L353.5,201.6348 A2.5,2.5 0 0 1 356,204.1348 L356,276.5137 A2.5,2.5 0 0 1 353.5,279.0137 L95.5,279.0137 A2.5,2.5 0 0 1 93,276.5137 L93,179.5137 A2.5,2.5 0 0 1 95.5,177.0137 " fill="none" style="stroke:#000000;stroke-width:1.5;"/><line style="stroke:#000000;stroke-width:1.5;" x1="93" x2="353" y1="201.6348" y2="201.6348"/><text fill="#000000" font-family="sans-serif" font-size="14" font-weight="bold" lengthAdjust="spacing" textLength="247" x="97" y="194.1211">Application Logic Layer (Controller)</text></g><!--cluster Business Logic Layer (Model)--><g id="cluster_Business Logic Layer (Model)"><path d="M32.5,303.0137 L240.5,303.0137 A3.75,3.75 0 0 1 243,305.5137 L250,327.6348 L438.5,327.6348 A2.5,2.5 0 0 1 441,330.1348 L441,402.5137 A2.5,2.5 0 0 1 438.5,405.0137 L32.5,405.0137 A2.5,2.5 0 0 1 30,402.5137 L30,305.5137 A2.5,2.5 0 0 1 32.5,303.0137 " fill="none" style="stroke:#000000;stroke-width:1.5;"/><line style="stroke:#000000;stroke-width:1.5;" x1="30" x2="250" y1="327.6348" y2="327.6348"/><text fill="#000000" font-family="sans-serif" font-size="14" font-weight="bold" lengthAdjust="spacing" textLength="207" x="34" y="320.1211">Business Logic Layer (Model)</text></g><!--entity PublicAPI--><g id="elem_PublicAPI"><ellipse cx="469" cy="364.5137" fill="#F1F1F1" rx="8" ry="8" style="stroke:#181818;stroke-width:0.5;"/><text fill="#000000" font-family="sans-serif" font-size="14" lengthAdjust="spacing" textLength="59" x="439.5" y="396.6211">PublicAPI</text></g><!--entity Public API--><g id="elem_Public API"><rect fill="#F1F1F1" height="48.6211" rx="2.5" ry="2.5" style="stroke:#181818;stroke-width:0.5;" width="103" x="513.5" y="340.0137"/><rect fill="#F1F1F1" height="10" style="stroke:#181818;stroke-width:0.5;" width="15" x="596.5" y="345.0137"/><rect fill="#F1F1F1" height="2" style="stroke:#181818;stroke-width:0.5;" width="4" x="594.5" y="347.0137"/><rect fill="#F1F1F1" height="2" style="stroke:#181818;stroke-width:0.5;" width="4" x="594.5" y="351.0137"/><text fill="#000000" font-family="sans-serif" font-size="14" lengthAdjust="spacing" textLength="63" x="528.5" y="375.1211">Public API</text></g><!--entity User Interface--><g id="elem_User Interface"><rect fill="#F1F1F1" height="48.6211" rx="2.5" ry="2.5" style="stroke:#181818;stroke-width:0.5;" width="128" x="92" y="88.0137"/><rect fill="#F1F1F1" height="10" style="stroke:#181818;stroke-width:0.5;" width="15" x="200" y="93.0137"/><rect fill="#F1F1F1" height="2" style="stroke:#181818;stroke-width:0.5;" width="4" x="198" y="95.0137"/><rect fill="#F1F1F1" height="2" style="stroke:#181818;stroke-width:0.5;" width="4" x="198" y="99.0137"/><text fill="#000000" font-family="sans-serif" font-size="14" lengthAdjust="spacing" textLength="88" x="107" y="123.1211">User Interface</text></g><!--entity ControllerAPI--><g id="elem_ControllerAPI"><ellipse cx="156" cy="238.5137" fill="#F1F1F1" rx="8" ry="8" style="stroke:#181818;stroke-width:0.5;"/><text fill="#000000" font-family="sans-serif" font-size="14" lengthAdjust="spacing" textLength="83" x="114.5" y="270.6211">ControllerAPI</text></g><!--entity Controller--><g id="elem_Controller"><rect fill="#F1F1F1" height="48.6211" rx="2.5" ry="2.5" style="stroke:#181818;stroke-width:0.5;" width="102" x="200" y="214.0137"/><rect fill="#F1F1F1" height="10" style="stroke:#181818;stroke-width:0.5;" width="15" x="282" y="219.0137"/><rect fill="#F1F1F1" height="2" style="stroke:#181818;stroke-width:0.5;" width="4" x="280" y="221.0137"/><rect fill="#F1F1F1" height="2" style="stroke:#181818;stroke-width:0.5;" width="4" x="280" y="225.0137"/><text fill="#000000" font-family="sans-serif" font-size="14" lengthAdjust="spacing" textLength="62" x="215" y="249.1211">Controller</text></g><!--entity ModelAPI--><g id="elem_ModelAPI"><ellipse cx="251" cy="364.5137" fill="#F1F1F1" rx="8" ry="8" style="stroke:#181818;stroke-width:0.5;"/><text fill="#000000" font-family="sans-serif" font-size="14" lengthAdjust="spacing" textLength="59" x="221.5" y="396.6211">ModelAPI</text></g><!--entity Domain Model--><g id="elem_Domain Model"><rect fill="#F1F1F1" height="48.6211" rx="2.5" ry="2.5" style="stroke:#181818;stroke-width:0.5;" width="130" x="295" y="340.0137"/><rect fill="#F1F1F1" height="10" style="stroke:#181818;stroke-width:0.5;" width="15" x="405" y="345.0137"/><rect fill="#F1F1F1" height="2" style="stroke:#181818;stroke-width:0.5;" width="4" x="403" y="347.0137"/><rect fill="#F1F1F1" height="2" style="stroke:#181818;stroke-width:0.5;" width="4" x="403" y="351.0137"/><text fill="#000000" font-family="sans-serif" font-size="14" lengthAdjust="spacing" textLength="90" x="310" y="375.1211">Domain Model</text></g><!--entity RepoAPI--><g id="elem_RepoAPI"><ellipse cx="55" cy="364.5137" fill="#F1F1F1" rx="8" ry="8" style="stroke:#181818;stroke-width:0.5;"/><text fill="#000000" font-family="sans-serif" font-size="14" lengthAdjust="spacing" textLength="55" x="27.5" y="396.6211">RepoAPI</text></g><!--entity Repository--><g id="elem_Repository"><rect fill="#F1F1F1" height="48.6211" rx="2.5" ry="2.5" style="stroke:#181818;stroke-width:0.5;" width="108" x="99" y="340.0137"/><rect fill="#F1F1F1" height="10" style="stroke:#181818;stroke-width:0.5;" width="15" x="187" y="345.0137"/><rect fill="#F1F1F1" height="2" style="stroke:#181818;stroke-width:0.5;" width="4" x="185" y="347.0137"/><rect fill="#F1F1F1" height="2" style="stroke:#181818;stroke-width:0.5;" width="4" x="185" y="351.0137"/><text fill="#000000" font-family="sans-serif" font-size="14" lengthAdjust="spacing" textLength="68" x="114" y="375.1211">Repository</text></g><!--link ControllerAPI to Controller--><g id="link_ControllerAPI_Controller"><path d="M165.28,238.5137 C176.77,238.5137 188.27,238.5137 199.77,238.5137 " fill="none" id="ControllerAPI-Controller" style="stroke:#181818;stroke-width:1.0;"/></g><!--link ModelAPI to Domain Model--><g id="link_ModelAPI_Domain Model"><path d="M260.37,364.5137 C271.78,364.5137 283.2,364.5137 294.62,364.5137 " fill="none" id="ModelAPI-Domain Model" style="stroke:#181818;stroke-width:1.0;"/></g><!--link RepoAPI to Repository--><g id="link_RepoAPI_Repository"><path d="M64.19,364.5137 C75.75,364.5137 87.32,364.5137 98.88,364.5137 " fill="none" id="RepoAPI-Repository" style="stroke:#181818;stroke-width:1.0;"/></g><!--link PublicAPI to Public API--><g id="link_PublicAPI_Public API"><path d="M478.38,364.5137 C489.99,364.5137 501.61,364.5137 513.23,364.5137 " fill="none" id="PublicAPI-Public API" style="stroke:#181818;stroke-width:1.0;"/></g><!--link User Interface to ControllerAPI--><g id="link_User Interface_ControllerAPI"><path d="M156,137.1337 C156,165.2337 156,200.6937 156,219.2437 " fill="none" id="User Interface-to-ControllerAPI" style="stroke:#181818;stroke-width:1.0;"/><path d="M164.4572,226.1655 A9,9 0 0 0 147.5428 226.1655" fill="none" style="stroke:#181818;stroke-width:1.5;"/></g><!--link Controller to ModelAPI--><g id="link_Controller_ModelAPI"><path d="M251,263.1337 C251,291.2337 251,326.6937 251,345.2437 " fill="none" id="Controller-to-ModelAPI" style="stroke:#181818;stroke-width:1.0;"/><path d="M259.4572,352.1655 A9,9 0 0 0 242.5428 352.1655" fill="none" style="stroke:#181818;stroke-width:1.5;"/></g><!--link Controller to RepoAPI--><g id="link_Controller_RepoAPI"><path d="M224.42,263.0237 C212.56,272.1437 197.91,281.6637 183,287.0137 C161.81,294.6137 100.1,281.6237 82,295.0137 C62.48,309.4637 58.0557,330.2434 56.5657,345.1334 " fill="none" id="Controller-to-RepoAPI" style="stroke:#181818;stroke-width:1.0;"/><path d="M64.2917,352.8629 A9,9 0 0 0 47.4613 351.1787" fill="none" style="stroke:#181818;stroke-width:1.5;"/></g><!--link Controller to PublicAPI--><g id="link_Controller_PublicAPI"><path d="M302.05,242.4337 C344.06,247.3837 402.71,260.5037 441,295.0137 C459.13,311.3537 464.2349,331.2922 466.4549,345.5822 " fill="none" id="Controller-to-PublicAPI" style="stroke:#181818;stroke-width:1.0;"/><path d="M475.8745,351.1237 A9,9 0 0 0 459.1605 353.7203" fill="none" style="stroke:#181818;stroke-width:1.5;"/></g><!--SRC=[POz1IyGm48Nlyok6lRWUQk_UrlLIMA48wsNf8MR7EfXcGf8YY_ZVJLEtjJOGUFC-ykRbvZr65-xBqXbbOz-PEorTcQuJIpOMPrQjLnq0EAK_L4kugIdk3LlM6_m2G9p0iSA3kf37xGlJv-s0SJYdOqXcPIFvDwMfIUxtuk7EESDQHHQB1sbPNtFsOgCNOyZFQREtgwlYD8_ht8S-iAKGbg5FSYOpv-KnHprAfzYEHZF2PtAIsI02H_6NQKtTlwRMcOuIasuWCO3_NyQYs2wRmz_c6L-BhCblYpMOAi0F]--></g></svg>