<?xml version="1.0" encoding="us-ascii" standalone="no"?><svg xmlns="http://www.w3.org/2000/svg" xmlns:xlink="http://www.w3.org/1999/xlink" contentStyleType="text/css" height="631px" preserveAspectRatio="none" style="width:857px;height:631px;background:#DDDDDD;" version="1.1" viewBox="0 0 857 631" width="857px" zoomAndPan="magnify"><defs/><g><rect fill="#DDDDDD" height="631" style="stroke:none;stroke-width:1.0;" width="857" x="0" y="0"/><!--cluster <<aggregate>> Owner--><g id="cluster_&lt;&lt;aggregate&gt;&gt; Owner"><path d="M162.5,492 L310.5,492 A5.25,5.25 0 0 1 314,495.5 L321,515.875 L320.5,515.875 A3.5,3.5 0 0 1 324,519.375 L324,620.5 A3.5,3.5 0 0 1 320.5,624 L162.5,624 A3.5,3.5 0 0 1 159,620.5 L159,495.5 A3.5,3.5 0 0 1 162.5,492 " fill="none" style="stroke:#454645;stroke-width:1.0;"/><line style="stroke:#454645;stroke-width:1.0;" x1="159" x2="321" y1="515.875" y2="515.875"/><text fill="#000000" font-family="Arial" font-size="16" font-weight="bold" lengthAdjust="spacing" textLength="149" x="163" y="508.4844">&#171;aggregate&#187; Owner</text></g><!--cluster <<aggregate>> Pet--><g id="cluster_&lt;&lt;aggregate&gt;&gt; Pet"><path d="M389.5,249 L512.5,249 A5.25,5.25 0 0 1 516,252.5 L523,272.875 L677.5,272.875 A3.5,3.5 0 0 1 681,276.375 L681,611.5 A3.5,3.5 0 0 1 677.5,615 L389.5,615 A3.5,3.5 0 0 1 386,611.5 L386,252.5 A3.5,3.5 0 0 1 389.5,249 " fill="none" style="stroke:#454645;stroke-width:1.0;"/><line style="stroke:#454645;stroke-width:1.0;" x1="386" x2="523" y1="272.875" y2="272.875"/><text fill="#000000" font-family="Arial" font-size="16" font-weight="bold" lengthAdjust="spacing" textLength="124" x="390" y="265.4844">&#171;aggregate&#187; Pet</text></g><!--cluster <<aggregate>> Vet--><g id="cluster_&lt;&lt;aggregate&gt;&gt; Vet"><path d="M708.5,6 L831.5,6 A5.25,5.25 0 0 1 835,9.5 L842,29.875 L846.5,29.875 A3.5,3.5 0 0 1 850,33.375 L850,368.5 A3.5,3.5 0 0 1 846.5,372 L708.5,372 A3.5,3.5 0 0 1 705,368.5 L705,9.5 A3.5,3.5 0 0 1 708.5,6 " fill="none" style="stroke:#454645;stroke-width:1.0;"/><line style="stroke:#454645;stroke-width:1.0;" x1="705" x2="842" y1="29.875" y2="29.875"/><text fill="#000000" font-family="Arial" font-size="16" font-weight="bold" lengthAdjust="spacing" textLength="124" x="709" y="22.4844">&#171;aggregate&#187; Vet</text></g><!--cluster <<aggregate>> Visit--><g id="cluster_&lt;&lt;aggregate&gt;&gt; Visit"><path d="M9.5,6 L140.5,6 A5.25,5.25 0 0 1 144,9.5 L151,29.875 L172.5,29.875 A3.5,3.5 0 0 1 176,33.375 L176,368.5 A3.5,3.5 0 0 1 172.5,372 L9.5,372 A3.5,3.5 0 0 1 6,368.5 L6,9.5 A3.5,3.5 0 0 1 9.5,6 " fill="none" style="stroke:#454645;stroke-width:1.0;"/><line style="stroke:#454645;stroke-width:1.0;" x1="6" x2="151" y1="29.875" y2="29.875"/><text fill="#000000" font-family="Arial" font-size="16" font-weight="bold" lengthAdjust="spacing" textLength="132" x="10" y="22.4844">&#171;aggregate&#187; Visit</text></g><!--class Owner--><g id="elem_Owner"><rect codeLine="9" fill="#F1F1F1" height="79.625" id="Owner" rx="3.5" ry="3.5" style="stroke:#181818;stroke-width:0.5;" width="88" x="201" y="528"/><ellipse cx="216" cy="559.8125" fill="#ADD1B2" rx="11" ry="11" style="stroke:#181818;stroke-width:1.0;"/><path d="M215.1563,560.3594 L215.1563,562.7031 L219.25,562.7031 L219.25,561.8438 Q219.25,561.2656 219.4688,561.0156 Q219.6875,560.7656 220.0469,560.7656 Q220.4063,560.7656 220.625,561.0156 Q220.8438,561.2656 220.8438,561.8438 L220.8438,564.3125 L213.3125,564.3125 Q212.7344,564.3125 212.4844,564.0938 Q212.2344,563.8594 212.2344,563.5 Q212.2344,563.1563 212.4844,562.9375 Q212.7344,562.7031 213.3125,562.7031 L213.5625,562.7031 L213.5625,556.4375 L213.3125,556.4375 Q212.7344,556.4375 212.4844,556.2188 Q212.2344,556 212.2344,555.6406 Q212.2344,555.2813 212.4844,555.0625 Q212.7344,554.8281 213.3125,554.8281 L220.5,554.8438 L220.5,557.2813 Q220.5,557.8438 220.2813,558.0938 Q220.0625,558.3438 219.7031,558.3438 Q219.3438,558.3438 219.1094,558.1094 Q218.8906,557.8594 218.8906,557.2813 L218.8906,556.4375 L215.1563,556.4375 L215.1563,558.75 L216.5625,558.75 Q216.5625,558.125 216.6875,557.9531 Q216.9219,557.5625 217.375,557.5625 Q217.7188,557.5625 217.9375,557.8125 Q218.1719,558.0625 218.1719,558.6406 L218.1719,560.4844 Q218.1719,561 218.0469,561.1875 Q217.7969,561.5469 217.375,561.5469 Q216.9219,561.5469 216.6875,561.1719 Q216.5625,560.9844 216.5625,560.3594 L215.1563,560.3594 Z " fill="#000000"/><text fill="#000000" font-family="Arial" font-size="16" font-weight="bold" lengthAdjust="spacing" textLength="60" x="228" y="547.4844">&#171;entity&#187;</text><text fill="#000000" font-family="Arial" font-size="16" font-weight="bold" lengthAdjust="spacing" textLength="49" x="233.5" y="565.3594">&#171;root&#187;</text><text fill="#000000" font-family="Arial" font-size="16" lengthAdjust="spacing" textLength="45" x="235.5" y="583.2344">Owner</text><line style="stroke:#181818;stroke-width:0.5;" x1="202" x2="288" y1="591.625" y2="591.625"/><line style="stroke:#181818;stroke-width:0.5;" x1="202" x2="288" y1="599.625" y2="599.625"/></g><!--class Pet--><g id="elem_Pet"><rect codeLine="13" fill="#F1F1F1" height="79.625" id="Pet" rx="3.5" ry="3.5" style="stroke:#181818;stroke-width:0.5;" width="88" x="405" y="285"/><ellipse cx="420" cy="316.8125" fill="#ADD1B2" rx="11" ry="11" style="stroke:#181818;stroke-width:1.0;"/><path d="M419.1563,317.3594 L419.1563,319.7031 L423.25,319.7031 L423.25,318.8438 Q423.25,318.2656 423.4688,318.0156 Q423.6875,317.7656 424.0469,317.7656 Q424.4063,317.7656 424.625,318.0156 Q424.8438,318.2656 424.8438,318.8438 L424.8438,321.3125 L417.3125,321.3125 Q416.7344,321.3125 416.4844,321.0938 Q416.2344,320.8594 416.2344,320.5 Q416.2344,320.1563 416.4844,319.9375 Q416.7344,319.7031 417.3125,319.7031 L417.5625,319.7031 L417.5625,313.4375 L417.3125,313.4375 Q416.7344,313.4375 416.4844,313.2188 Q416.2344,313 416.2344,312.6406 Q416.2344,312.2813 416.4844,312.0625 Q416.7344,311.8281 417.3125,311.8281 L424.5,311.8438 L424.5,314.2813 Q424.5,314.8438 424.2813,315.0938 Q424.0625,315.3438 423.7031,315.3438 Q423.3438,315.3438 423.1094,315.1094 Q422.8906,314.8594 422.8906,314.2813 L422.8906,313.4375 L419.1563,313.4375 L419.1563,315.75 L420.5625,315.75 Q420.5625,315.125 420.6875,314.9531 Q420.9219,314.5625 421.375,314.5625 Q421.7188,314.5625 421.9375,314.8125 Q422.1719,315.0625 422.1719,315.6406 L422.1719,317.4844 Q422.1719,318 422.0469,318.1875 Q421.7969,318.5469 421.375,318.5469 Q420.9219,318.5469 420.6875,318.1719 Q420.5625,317.9844 420.5625,317.3594 L419.1563,317.3594 Z " fill="#000000"/><text fill="#000000" font-family="Arial" font-size="16" font-weight="bold" lengthAdjust="spacing" textLength="60" x="432" y="304.4844">&#171;entity&#187;</text><text fill="#000000" font-family="Arial" font-size="16" font-weight="bold" lengthAdjust="spacing" textLength="49" x="437.5" y="322.3594">&#171;root&#187;</text><text fill="#000000" font-family="Arial" font-size="16" lengthAdjust="spacing" textLength="24" x="450" y="340.2344">Pet</text><line style="stroke:#181818;stroke-width:0.5;" x1="406" x2="492" y1="348.625" y2="348.625"/><line style="stroke:#181818;stroke-width:0.5;" x1="406" x2="492" y1="356.625" y2="356.625"/></g><!--class PetType--><g id="elem_PetType"><rect codeLine="15" fill="#F1F1F1" height="61.75" id="PetType" rx="3.5" ry="3.5" style="stroke:#181818;stroke-width:0.5;" width="90" x="402" y="537"/><ellipse cx="417" cy="559.875" fill="#ADD1B2" rx="11" ry="11" style="stroke:#181818;stroke-width:1.0;"/><path d="M416.1563,560.4219 L416.1563,562.7656 L420.25,562.7656 L420.25,561.9063 Q420.25,561.3281 420.4688,561.0781 Q420.6875,560.8281 421.0469,560.8281 Q421.4063,560.8281 421.625,561.0781 Q421.8438,561.3281 421.8438,561.9063 L421.8438,564.375 L414.3125,564.375 Q413.7344,564.375 413.4844,564.1563 Q413.2344,563.9219 413.2344,563.5625 Q413.2344,563.2188 413.4844,563 Q413.7344,562.7656 414.3125,562.7656 L414.5625,562.7656 L414.5625,556.5 L414.3125,556.5 Q413.7344,556.5 413.4844,556.2813 Q413.2344,556.0625 413.2344,555.7031 Q413.2344,555.3438 413.4844,555.125 Q413.7344,554.8906 414.3125,554.8906 L421.5,554.9063 L421.5,557.3438 Q421.5,557.9063 421.2813,558.1563 Q421.0625,558.4063 420.7031,558.4063 Q420.3438,558.4063 420.1094,558.1719 Q419.8906,557.9219 419.8906,557.3438 L419.8906,556.5 L416.1563,556.5 L416.1563,558.8125 L417.5625,558.8125 Q417.5625,558.1875 417.6875,558.0156 Q417.9219,557.625 418.375,557.625 Q418.7188,557.625 418.9375,557.875 Q419.1719,558.125 419.1719,558.7031 L419.1719,560.5469 Q419.1719,561.0625 419.0469,561.25 Q418.7969,561.6094 418.375,561.6094 Q417.9219,561.6094 417.6875,561.2344 Q417.5625,561.0469 417.5625,560.4219 L416.1563,560.4219 Z " fill="#000000"/><text fill="#000000" font-family="Arial" font-size="16" font-weight="bold" lengthAdjust="spacing" textLength="60" x="430" y="556.4844">&#171;entity&#187;</text><text fill="#000000" font-family="Arial" font-size="16" lengthAdjust="spacing" textLength="58" x="431" y="574.3594">PetType</text><line style="stroke:#181818;stroke-width:0.5;" x1="403" x2="491" y1="582.75" y2="582.75"/><line style="stroke:#181818;stroke-width:0.5;" x1="403" x2="491" y1="590.75" y2="590.75"/></g><!--class BirthDate--><g id="elem_BirthDate"><rect codeLine="17" fill="#F1F1F1" height="61.75" id="BirthDate" rx="3.5" ry="3.5" style="stroke:#181818;stroke-width:0.5;" width="138" x="527" y="537"/><ellipse cx="542" cy="559.875" fill="#FF8B40" rx="11" ry="11" style="stroke:#181818;stroke-width:1.0;"/><path d="M542.2969,563.0313 L544.625,557.5 L544.25,557.5 Q543.6719,557.5 543.4219,557.2813 Q543.1875,557.0625 543.1875,556.7031 Q543.1875,556.3438 543.4219,556.125 Q543.6719,555.8906 544.25,555.8906 L546.4063,555.9063 Q546.9844,555.9063 547.2188,556.125 Q547.4688,556.3438 547.4688,556.7031 Q547.4688,557.125 547.0938,557.375 Q546.9219,557.5 546.3594,557.5 L543.0781,565.375 L541.5313,565.375 L538.25,557.5 Q537.6875,557.5 537.5156,557.375 Q537.125,557.1406 537.125,556.7031 Q537.125,556.3438 537.375,556.125 Q537.625,555.8906 538.2031,555.8906 L540.375,555.9063 Q540.9375,555.9063 541.1875,556.125 Q541.4375,556.3438 541.4375,556.7031 Q541.4375,557.0625 541.1875,557.2813 Q540.9531,557.5 540.375,557.5 L540,557.5 L542.2969,563.0313 Z " fill="#000000"/><text fill="#000000" font-family="Arial" font-size="16" font-weight="bold" lengthAdjust="spacing" textLength="110" x="554" y="556.4844">&#171;value object&#187;</text><text fill="#000000" font-family="Arial" font-size="16" lengthAdjust="spacing" textLength="66" x="576" y="574.3594">BirthDate</text><line style="stroke:#181818;stroke-width:0.5;" x1="528" x2="664" y1="582.75" y2="582.75"/><line style="stroke:#181818;stroke-width:0.5;" x1="528" x2="664" y1="590.75" y2="590.75"/></g><!--class Vet--><g id="elem_Vet"><rect codeLine="21" fill="#F1F1F1" height="79.625" id="Vet" rx="3.5" ry="3.5" style="stroke:#181818;stroke-width:0.5;" width="88" x="721" y="42"/><ellipse cx="736" cy="73.8125" fill="#ADD1B2" rx="11" ry="11" style="stroke:#181818;stroke-width:1.0;"/><path d="M735.1563,74.3594 L735.1563,76.7031 L739.25,76.7031 L739.25,75.8438 Q739.25,75.2656 739.4688,75.0156 Q739.6875,74.7656 740.0469,74.7656 Q740.4063,74.7656 740.625,75.0156 Q740.8438,75.2656 740.8438,75.8438 L740.8438,78.3125 L733.3125,78.3125 Q732.7344,78.3125 732.4844,78.0938 Q732.2344,77.8594 732.2344,77.5 Q732.2344,77.1563 732.4844,76.9375 Q732.7344,76.7031 733.3125,76.7031 L733.5625,76.7031 L733.5625,70.4375 L733.3125,70.4375 Q732.7344,70.4375 732.4844,70.2188 Q732.2344,70 732.2344,69.6406 Q732.2344,69.2813 732.4844,69.0625 Q732.7344,68.8281 733.3125,68.8281 L740.5,68.8438 L740.5,71.2813 Q740.5,71.8438 740.2813,72.0938 Q740.0625,72.3438 739.7031,72.3438 Q739.3438,72.3438 739.1094,72.1094 Q738.8906,71.8594 738.8906,71.2813 L738.8906,70.4375 L735.1563,70.4375 L735.1563,72.75 L736.5625,72.75 Q736.5625,72.125 736.6875,71.9531 Q736.9219,71.5625 737.375,71.5625 Q737.7188,71.5625 737.9375,71.8125 Q738.1719,72.0625 738.1719,72.6406 L738.1719,74.4844 Q738.1719,75 738.0469,75.1875 Q737.7969,75.5469 737.375,75.5469 Q736.9219,75.5469 736.6875,75.1719 Q736.5625,74.9844 736.5625,74.3594 L735.1563,74.3594 Z " fill="#000000"/><text fill="#000000" font-family="Arial" font-size="16" font-weight="bold" lengthAdjust="spacing" textLength="60" x="748" y="61.4844">&#171;entity&#187;</text><text fill="#000000" font-family="Arial" font-size="16" font-weight="bold" lengthAdjust="spacing" textLength="49" x="753.5" y="79.3594">&#171;root&#187;</text><text fill="#000000" font-family="Arial" font-size="16" lengthAdjust="spacing" textLength="24" x="766" y="97.2344">Vet</text><line style="stroke:#181818;stroke-width:0.5;" x1="722" x2="808" y1="105.625" y2="105.625"/><line style="stroke:#181818;stroke-width:0.5;" x1="722" x2="808" y1="113.625" y2="113.625"/></g><!--class Speciality--><g id="elem_Speciality"><rect codeLine="23" fill="#F1F1F1" height="61.75" id="Speciality" rx="3.5" ry="3.5" style="stroke:#181818;stroke-width:0.5;" width="100" x="721" y="294"/><ellipse cx="736" cy="316.875" fill="#ADD1B2" rx="11" ry="11" style="stroke:#181818;stroke-width:1.0;"/><path d="M735.1563,317.4219 L735.1563,319.7656 L739.25,319.7656 L739.25,318.9063 Q739.25,318.3281 739.4688,318.0781 Q739.6875,317.8281 740.0469,317.8281 Q740.4063,317.8281 740.625,318.0781 Q740.8438,318.3281 740.8438,318.9063 L740.8438,321.375 L733.3125,321.375 Q732.7344,321.375 732.4844,321.1563 Q732.2344,320.9219 732.2344,320.5625 Q732.2344,320.2188 732.4844,320 Q732.7344,319.7656 733.3125,319.7656 L733.5625,319.7656 L733.5625,313.5 L733.3125,313.5 Q732.7344,313.5 732.4844,313.2813 Q732.2344,313.0625 732.2344,312.7031 Q732.2344,312.3438 732.4844,312.125 Q732.7344,311.8906 733.3125,311.8906 L740.5,311.9063 L740.5,314.3438 Q740.5,314.9063 740.2813,315.1563 Q740.0625,315.4063 739.7031,315.4063 Q739.3438,315.4063 739.1094,315.1719 Q738.8906,314.9219 738.8906,314.3438 L738.8906,313.5 L735.1563,313.5 L735.1563,315.8125 L736.5625,315.8125 Q736.5625,315.1875 736.6875,315.0156 Q736.9219,314.625 737.375,314.625 Q737.7188,314.625 737.9375,314.875 Q738.1719,315.125 738.1719,315.7031 L738.1719,317.5469 Q738.1719,318.0625 738.0469,318.25 Q737.7969,318.6094 737.375,318.6094 Q736.9219,318.6094 736.6875,318.2344 Q736.5625,318.0469 736.5625,317.4219 L735.1563,317.4219 Z " fill="#000000"/><text fill="#000000" font-family="Arial" font-size="16" font-weight="bold" lengthAdjust="spacing" textLength="60" x="754" y="313.4844">&#171;entity&#187;</text><text fill="#000000" font-family="Arial" font-size="16" lengthAdjust="spacing" textLength="68" x="750" y="331.3594">Speciality</text><line style="stroke:#181818;stroke-width:0.5;" x1="722" x2="820" y1="339.75" y2="339.75"/><line style="stroke:#181818;stroke-width:0.5;" x1="722" x2="820" y1="347.75" y2="347.75"/></g><!--class Visit--><g id="elem_Visit"><rect codeLine="27" fill="#F1F1F1" height="79.625" id="Visit" rx="3.5" ry="3.5" style="stroke:#181818;stroke-width:0.5;" width="88" x="72" y="42"/><ellipse cx="87" cy="73.8125" fill="#ADD1B2" rx="11" ry="11" style="stroke:#181818;stroke-width:1.0;"/><path d="M86.1563,74.3594 L86.1563,76.7031 L90.25,76.7031 L90.25,75.8438 Q90.25,75.2656 90.4688,75.0156 Q90.6875,74.7656 91.0469,74.7656 Q91.4063,74.7656 91.625,75.0156 Q91.8438,75.2656 91.8438,75.8438 L91.8438,78.3125 L84.3125,78.3125 Q83.7344,78.3125 83.4844,78.0938 Q83.2344,77.8594 83.2344,77.5 Q83.2344,77.1563 83.4844,76.9375 Q83.7344,76.7031 84.3125,76.7031 L84.5625,76.7031 L84.5625,70.4375 L84.3125,70.4375 Q83.7344,70.4375 83.4844,70.2188 Q83.2344,70 83.2344,69.6406 Q83.2344,69.2813 83.4844,69.0625 Q83.7344,68.8281 84.3125,68.8281 L91.5,68.8438 L91.5,71.2813 Q91.5,71.8438 91.2813,72.0938 Q91.0625,72.3438 90.7031,72.3438 Q90.3438,72.3438 90.1094,72.1094 Q89.8906,71.8594 89.8906,71.2813 L89.8906,70.4375 L86.1563,70.4375 L86.1563,72.75 L87.5625,72.75 Q87.5625,72.125 87.6875,71.9531 Q87.9219,71.5625 88.375,71.5625 Q88.7188,71.5625 88.9375,71.8125 Q89.1719,72.0625 89.1719,72.6406 L89.1719,74.4844 Q89.1719,75 89.0469,75.1875 Q88.7969,75.5469 88.375,75.5469 Q87.9219,75.5469 87.6875,75.1719 Q87.5625,74.9844 87.5625,74.3594 L86.1563,74.3594 Z " fill="#000000"/><text fill="#000000" font-family="Arial" font-size="16" font-weight="bold" lengthAdjust="spacing" textLength="60" x="99" y="61.4844">&#171;entity&#187;</text><text fill="#000000" font-family="Arial" font-size="16" font-weight="bold" lengthAdjust="spacing" textLength="49" x="104.5" y="79.3594">&#171;root&#187;</text><text fill="#000000" font-family="Arial" font-size="16" lengthAdjust="spacing" textLength="31" x="113.5" y="97.2344">Visit</text><line style="stroke:#181818;stroke-width:0.5;" x1="73" x2="159" y1="105.625" y2="105.625"/><line style="stroke:#181818;stroke-width:0.5;" x1="73" x2="159" y1="113.625" y2="113.625"/></g><!--class VisitDate--><g id="elem_VisitDate"><rect codeLine="29" fill="#F1F1F1" height="61.75" id="VisitDate" rx="3.5" ry="3.5" style="stroke:#181818;stroke-width:0.5;" width="138" x="22" y="294"/><ellipse cx="37" cy="316.875" fill="#FF8B40" rx="11" ry="11" style="stroke:#181818;stroke-width:1.0;"/><path d="M37.2969,320.0313 L39.625,314.5 L39.25,314.5 Q38.6719,314.5 38.4219,314.2813 Q38.1875,314.0625 38.1875,313.7031 Q38.1875,313.3438 38.4219,313.125 Q38.6719,312.8906 39.25,312.8906 L41.4063,312.9063 Q41.9844,312.9063 42.2188,313.125 Q42.4688,313.3438 42.4688,313.7031 Q42.4688,314.125 42.0938,314.375 Q41.9219,314.5 41.3594,314.5 L38.0781,322.375 L36.5313,322.375 L33.25,314.5 Q32.6875,314.5 32.5156,314.375 Q32.125,314.1406 32.125,313.7031 Q32.125,313.3438 32.375,313.125 Q32.625,312.8906 33.2031,312.8906 L35.375,312.9063 Q35.9375,312.9063 36.1875,313.125 Q36.4375,313.3438 36.4375,313.7031 Q36.4375,314.0625 36.1875,314.2813 Q35.9531,314.5 35.375,314.5 L35,314.5 L37.2969,320.0313 Z " fill="#000000"/><text fill="#000000" font-family="Arial" font-size="16" font-weight="bold" lengthAdjust="spacing" textLength="110" x="49" y="313.4844">&#171;value object&#187;</text><text fill="#000000" font-family="Arial" font-size="16" lengthAdjust="spacing" textLength="65" x="71.5" y="331.3594">VisitDate</text><line style="stroke:#181818;stroke-width:0.5;" x1="23" x2="159" y1="339.75" y2="339.75"/><line style="stroke:#181818;stroke-width:0.5;" x1="23" x2="159" y1="347.75" y2="347.75"/></g><!--link Pet to PetType--><g id="link_Pet_PetType"><path codeLine="32" d="M448.67,365.26 C448.28,413.27 447.6598,487.5102 447.2998,530.9102 " fill="none" id="Pet-to-PetType" style="stroke:#454645;stroke-width:2.5;"/><polygon fill="#454645" points="447.25,536.91,451.3245,527.9435,447.2915,531.9102,443.3248,527.8771,447.25,536.91" style="stroke:#454645;stroke-width:2.5;"/><text fill="#000000" font-family="Arial" font-size="16" lengthAdjust="spacing" textLength="55" x="449" y="441.4844">belongs</text><text fill="#000000" font-family="Arial" font-size="16" lengthAdjust="spacing" textLength="9" x="437.2672" y="525.3693">1</text></g><!--link Pet to BirthDate--><g id="link_Pet_BirthDate"><path codeLine="33" d="M474.57,365.21 C486.42,383.57 500.6,405.8 513,426 C536.26,463.88 559.0992,502.9443 575.6692,531.6343 " fill="none" id="Pet-to-BirthDate" style="stroke:#454645;stroke-width:2.5;"/><polygon fill="#454645" points="578.67,536.83,577.6326,527.0359,576.1693,532.5003,570.705,531.037,578.67,536.83" style="stroke:#454645;stroke-width:2.5;"/><text fill="#000000" font-family="Arial" font-size="16" lengthAdjust="spacing" textLength="25" x="524" y="441.4844">has</text><text fill="#000000" font-family="Arial" font-size="16" lengthAdjust="spacing" textLength="9" x="564.8947" y="525.7596">1</text></g><!--link Visit to VisitDate--><g id="link_Visit_VisitDate"><path codeLine="34" d="M111.93,122.26 C106.95,170.27 99.2388,244.542 94.7388,287.942 " fill="none" id="Visit-to-VisitDate" style="stroke:#454645;stroke-width:2.5;"/><polygon fill="#454645" points="94.12,293.91,99.0269,285.3705,94.6357,288.9367,91.0695,284.5455,94.12,293.91" style="stroke:#454645;stroke-width:2.5;"/><text fill="#000000" font-family="Arial" font-size="16" lengthAdjust="spacing" textLength="25" x="106" y="198.4844">has</text><text fill="#000000" font-family="Arial" font-size="16" lengthAdjust="spacing" textLength="9" x="84.8009" y="282.3693">1</text></g><!--link Vet to Speciality--><g id="link_Vet_Speciality"><path codeLine="35" d="M765.98,122.26 C767.17,170.27 769.0207,244.5119 770.1007,287.9119 " fill="none" id="Vet-to-Speciality" style="stroke:#454645;stroke-width:2.5;"/><polygon fill="#454645" points="770.25,293.91,774.0249,284.8133,770.1256,288.9115,766.0273,285.0123,770.25,293.91" style="stroke:#454645;stroke-width:2.5;"/><text fill="#000000" font-family="Arial" font-size="16" lengthAdjust="spacing" textLength="76" x="768" y="198.4844">possesses</text><text fill="#000000" font-family="Arial" font-size="16" lengthAdjust="spacing" textLength="6" x="763.3828" y="282.3693">*</text></g><!--link Pet to Owner--><g id="link_Pet_Owner"><path codeLine="37" d="M415.77,365.26 C377.83,410.07 316.15,482.95 278.22,527.76 " fill="none" id="Pet-Owner" style="stroke:#454645;stroke-width:2.5;"/><polygon fill="#000000" points="365.1235,440.5171,374.828,434.511,369.4443,429.954,365.1235,440.5171" style="stroke:#000000;stroke-width:1.0;"/><text fill="#000000" font-family="Arial" font-size="16" lengthAdjust="spacing" textLength="46" x="380" y="441.4844">owned</text><text fill="#000000" font-family="Arial" font-size="16" lengthAdjust="spacing" textLength="6" x="404.4487" y="386.9978">*</text><text fill="#000000" font-family="Arial" font-size="16" lengthAdjust="spacing" textLength="9" x="274.3358" y="516.6739">1</text></g><!--link Visit to Owner--><g id="link_Visit_Owner"><path codeLine="38" d="M160.08,103.23 C192.15,121.32 230,151.2 230,191.5 C230,191.5 230,191.5 230,436.5 C230,467.29 234.17,501.89 238.11,527.73 " fill="none" id="Visit-Owner" style="stroke:#454645;stroke-width:2.5;"/><polygon fill="#000000" points="237.0847,331.3386,238.591,320.0258,231.6538,321.301,237.0847,331.3386" style="stroke:#000000;stroke-width:1.0;"/><text fill="#000000" font-family="Arial" font-size="16" lengthAdjust="spacing" textLength="71" x="247" y="330.9844">scheduled</text><text fill="#000000" font-family="Arial" font-size="16" lengthAdjust="spacing" textLength="6" x="167.8776" y="122.7419">*</text><text fill="#000000" font-family="Arial" font-size="16" lengthAdjust="spacing" textLength="9" x="227.0812" y="516.6385">1</text></g><!--link Visit to Pet--><g id="link_Visit_Pet"><path codeLine="39" d="M160.25,101.11 C188.67,113.62 225.78,131.63 256,152 C314.62,191.5 374.17,247.5 411.31,284.75 " fill="none" id="Visit-Pet" style="stroke:#454645;stroke-width:2.5;"/><polygon fill="#000000" points="328.8428,196.4798,322.1642,187.2252,318,192.9182,328.8428,196.4798" style="stroke:#000000;stroke-width:1.0;"/><text fill="#000000" font-family="Arial" font-size="16" lengthAdjust="spacing" textLength="55" x="335" y="198.4844">belongs</text><text fill="#000000" font-family="Arial" font-size="16" lengthAdjust="spacing" textLength="6" x="168.0758" y="100.4552">*</text><text fill="#000000" font-family="Arial" font-size="16" lengthAdjust="spacing" textLength="9" x="394.7949" y="273.6621">1</text></g><!--SRC=[ZL9DJuD04BtlhnZneaQCDMeC8IHj6evgqgRtBOomicN9xcA3JV-x0xIaQAab9C2yn_iOC9d82wxv2gRumKjfGvNRLxv266l19JF7y9duHXWz3u2saWXB9UC3VAorMizJ4MKv6WCFTq_imgP8DbPLZB62HnbF41pVvqcYCU4MWm3UrZbgPyE03ioji5Kx0jzl7uF0zxLIbhYRBTiE2hsZxSlGO43a5sjU5NZ0x1YHv5Ha8hHDf-H1bAl5xMKOlamUxw_XYyiIGIq_CVetsuAoGI_Sugnmim8Z-aJrRJ_V2IjXn1-pUdRAhctQqCvjMc_NTTq0d96pNw87IvGgJqmVxJReGSeDQzDqQEUwGxitRvo3_XuKoXYipzQxXedNI3G_Z0UABZ44EuCZ11Eb69ToW4IgNG4Y_000]--></g></svg>